<svg xmlns="http://www.w3.org/2000/svg" viewBox="0 0 628.7199 83.464">
  <title>homecareiq-logo-full-color-rgb</title>
  <g id="full-rgb">
    <g id="type">
      <polygon id="type_PathItem_" data-name="type &lt;PathItem&gt;" points="0 1.444 20.325 1.444 20.325 30.022 46.736 30.022 46.736 1.444 67.062 1.444 67.062 75.727 46.736 75.727 46.736 47.252 20.325 47.252 20.325 75.727 0 75.727 0 1.444 0 1.444" style="fill: #00a79d"/>
      <path id="type_CompoundPathItem_" data-name="type &lt;CompoundPathItem&gt;" d="M103.583,59.942a11.1087,11.1087,0,0,0,8.511-3.611,13.252,13.252,0,0,0,3.353-9.389,13.0269,13.0269,0,0,0-3.353-9.388,11.2711,11.2711,0,0,0-8.511-3.508,11.3911,11.3911,0,0,0-8.615,3.508q-3.3555,3.5085-3.354,9.388a13.2394,13.2394,0,0,0,3.354,9.389,11.2248,11.2248,0,0,0,8.615,3.611M72.425,47.046a31.6907,31.6907,0,0,1,2.269-12.071,28.2992,28.2992,0,0,1,6.346-9.596,28.938,28.938,0,0,1,9.801-6.293,36.62,36.62,0,0,1,25.38,0,29.5341,29.5341,0,0,1,9.853,6.293,27.39,27.39,0,0,1,6.345,9.596,32.3517,32.3517,0,0,1,2.218,12.071,31.95,31.95,0,0,1-2.218,12.019,27.5011,27.5011,0,0,1-6.345,9.544,29.5011,29.5011,0,0,1-9.853,6.2929,36.6186,36.6186,0,0,1-25.38,0A28.9062,28.9062,0,0,1,81.04,68.609a28.4238,28.4238,0,0,1-6.346-9.544,31.2979,31.2979,0,0,1-2.269-12.019" style="fill: #00a79d"/>
      <path id="type_PathItem_2" data-name="type &lt;PathItem&gt;" d="M138.971,18.261h18.88v6.5h.413q4.5375-7.944,15.991-7.944a19.9741,19.9741,0,0,1,9.595,2.1659,17.2527,17.2527,0,0,1,6.5,6.0871h.413a18.296,18.296,0,0,1,7.118-6.139,24.65,24.65,0,0,1,10.833-2.114,23.6607,23.6607,0,0,1,9.131,1.65,18.6513,18.6513,0,0,1,6.706,4.643,19.7009,19.7009,0,0,1,4.127,7.222,30.2453,30.2453,0,0,1,1.393,9.491V75.727h-19.19V46.736a29.3678,29.3678,0,0,0-.413-5.107,13.1713,13.1713,0,0,0-1.341-4.023,6.6474,6.6474,0,0,0-2.528-2.631,7.8057,7.8057,0,0,0-3.972-.929,7.005,7.005,0,0,0-6.293,3.147q-2.0655,3.1485-2.27,9.13V75.727h-19.19V46.736a29.27,29.27,0,0,0-.413-5.107,13.1444,13.1444,0,0,0-1.341-4.023,6.6451,6.6451,0,0,0-2.527-2.631,7.8122,7.8122,0,0,0-3.973-.929,6.8821,6.8821,0,0,0-6.448,3.508q-2.0115,3.5085-2.012,10.008V75.727H138.971V18.261Z" style="fill: #00a79d"/>
      <path id="type_CompoundPathItem_2" data-name="type &lt;CompoundPathItem&gt;" d="M262.362,32.085a8.5649,8.5649,0,0,0-6.087,2.321,12.8083,12.8083,0,0,0-3.508,6.346h18.468a9.2822,9.2822,0,0,0-2.631-6.191,8.36,8.36,0,0,0-6.242-2.476m-9.698,18.777q.9285,5.16,3.869,7.738a11.0966,11.0966,0,0,0,13.258.722,10.08,10.08,0,0,0,3.817-5.055l15.063,5.571a21.1311,21.1311,0,0,1-3.095,6.397,23.74,23.74,0,0,1-5.469,5.519,28.4037,28.4037,0,0,1-17.126,5.417,33.8175,33.8175,0,0,1-12.277-2.115,25.829,25.829,0,0,1-9.337-6.087,26.8249,26.8249,0,0,1-5.933-9.544,36.0155,36.0155,0,0,1-2.063-12.587,34.0342,34.0342,0,0,1,2.063-12.019,27.7258,27.7258,0,0,1,5.829-9.492,26.8046,26.8046,0,0,1,9.131-6.242,30.4423,30.4423,0,0,1,11.968-2.269,29.8815,29.8815,0,0,1,12.02,2.269,24.8332,24.8332,0,0,1,8.717,6.191,25.8844,25.8844,0,0,1,5.262,9.182,35.35,35.35,0,0,1,1.754,11.246q0,1.3425-.104,2.734a11.3951,11.3951,0,0,1-.412,2.424Z" style="fill: #00a79d"/>
      <path id="type_PathItem_3" data-name="type &lt;PathItem&gt;" d="M348.2,73.664a35.2144,35.2144,0,0,1-15.579,3.404,47.2317,47.2317,0,0,1-16.249-2.682A37.4509,37.4509,0,0,1,303.578,66.7a34.53,34.53,0,0,1-8.408-12.071,40.4986,40.4986,0,0,1-2.992-15.94,40.6046,40.6046,0,0,1,2.992-15.888,34.96,34.96,0,0,1,8.408-12.175,38.1961,38.1961,0,0,1,12.896-7.84A46.7981,46.7981,0,0,1,332.93,0,38.2872,38.2872,0,0,1,348.2,2.889v18.57a33.7993,33.7993,0,0,0-6.706-2.4761,32.3463,32.3463,0,0,0-8.048-.9279,23.0286,23.0286,0,0,0-8.305,1.444,18.215,18.215,0,0,0-6.448,4.127,18.6024,18.6024,0,0,0-4.179,6.551,23.7069,23.7069,0,0,0-1.496,8.615,22.2118,22.2118,0,0,0,1.548,8.512,18.1095,18.1095,0,0,0,10.781,10.42,23.4592,23.4592,0,0,0,8.203,1.393,31.8327,31.8327,0,0,0,7.944-.929,27.3283,27.3283,0,0,0,6.706-2.682V73.664Z" style="fill: #00a79d"/>
      <path id="type_CompoundPathItem_3" data-name="type &lt;CompoundPathItem&gt;" d="M382.247,60.045a11.0332,11.0332,0,0,0,8.511-3.663,13.4359,13.4359,0,0,0,3.353-9.44,13.0269,13.0269,0,0,0-3.353-9.388,11.2711,11.2711,0,0,0-8.511-3.508,11.3911,11.3911,0,0,0-8.615,3.508q-3.3555,3.5085-3.354,9.388a13.423,13.423,0,0,0,3.354,9.44,11.1473,11.1473,0,0,0,8.615,3.663m12.174,8.15h-.31a18.9038,18.9038,0,0,1-6.964,6.861,20.3091,20.3091,0,0,1-9.646,2.115,25.1337,25.1337,0,0,1-18.416-8.047,29.2255,29.2255,0,0,1-5.829-9.492,34.4866,34.4866,0,0,1-2.167-12.587,35.5424,35.5424,0,0,1,2.115-12.689,29.54,29.54,0,0,1,5.674-9.492,23.9759,23.9759,0,0,1,8.357-5.984,25.6955,25.6955,0,0,1,10.266-2.064q10.6245,0,16.301,7.944h.309V18.364h19.19V75.727h-18.88V68.195Z" style="fill: #00a79d"/>
      <path id="type_PathItem_4" data-name="type &lt;PathItem&gt;" d="M420.11,18.261h18.88v8.77h.413q5.0535-10.215,17.539-10.214V35.181a31.07,31.07,0,0,0-7.5831.825,12.9942,12.9942,0,0,0-5.52,2.838,12.197,12.197,0,0,0-3.405,5.416,27.03,27.03,0,0,0-1.135,8.46V75.727H420.11V18.261Z" style="fill: #00a79d"/>
      <path id="type_CompoundPathItem_4" data-name="type &lt;CompoundPathItem&gt;" d="M487.378,32.085a8.5651,8.5651,0,0,0-6.087,2.321,12.8083,12.8083,0,0,0-3.508,6.346h18.468a9.2822,9.2822,0,0,0-2.631-6.191,8.36,8.36,0,0,0-6.242-2.476M477.68,50.862q.9285,5.16,3.869,7.738a11.0966,11.0966,0,0,0,13.258.722,10.08,10.08,0,0,0,3.817-5.055l15.063,5.571a21.1311,21.1311,0,0,1-3.095,6.397,23.7435,23.7435,0,0,1-5.469,5.519,28.4037,28.4037,0,0,1-17.126,5.417,33.8175,33.8175,0,0,1-12.277-2.115,25.829,25.829,0,0,1-9.337-6.087,26.8249,26.8249,0,0,1-5.933-9.544,36.0155,36.0155,0,0,1-2.063-12.587,34.0342,34.0342,0,0,1,2.063-12.019,27.7258,27.7258,0,0,1,5.829-9.492,26.8046,26.8046,0,0,1,9.131-6.242,30.4423,30.4423,0,0,1,11.968-2.269,29.881,29.881,0,0,1,12.02,2.269,24.83,24.83,0,0,1,8.717,6.191,25.8846,25.8846,0,0,1,5.2621,9.182,35.35,35.35,0,0,1,1.754,11.246q0,1.3425-.104,2.734a11.4014,11.4014,0,0,1-.412,2.424Z" style="fill: #00a79d"/>
    </g>
    <g id="logoMark">
      <polygon id="logoMark_PathItem_" data-name="logoMark &lt;PathItem&gt;" points="545.695 77.171 525.369 77.171 525.369 2.888 545.695 2.888 545.695 77.171 545.695 77.171" style="fill: #f6b81c;fill-rule: evenodd"/>
      <path id="logoMark_CompoundPathItem_" data-name="logoMark &lt;CompoundPathItem&gt;" d="M573.317,4.23a36.4393,36.4393,0,0,0-12.432,7.841,34.5164,34.5164,0,0,0-8.0481,12.174,42.5732,42.5732,0,0,0-2.836,15.888A41.8744,41.8744,0,0,0,552.89,56.021a34.5625,34.5625,0,0,0,8.098,12.123,36.2027,36.2027,0,0,0,12.432,7.739,44.8815,44.8815,0,0,0,15.992,2.733,47.5875,47.5875,0,0,0,10.111-1.032,40.7751,40.7751,0,0,0,8.872-2.991l7.945,8.871,9.904-9.284-6.913-7.635a34.4078,34.4078,0,0,0,6.964-11.607A42.9963,42.9963,0,0,0,628.72,40.133a41.9452,41.9452,0,0,0-2.8879-15.888,35.1443,35.1443,0,0,0-8.1-12.174A36.3569,36.3569,0,0,0,605.249,4.23a44.5061,44.5061,0,0,0-16.043-2.787A43.779,43.779,0,0,0,573.317,4.23Zm37.274,37.337-.602-.617a3.0677,3.0677,0,0,0-3.808.175,3.0227,3.0227,0,0,0-.5921.69L603.48,40.487a5.5621,5.5621,0,0,1,7.883-1.614,6.6449,6.6449,0,0,0,1.13-3.718,6.7366,6.7366,0,0,0-4.769-6.413l-1.027-.307.152-1.061a4.8579,4.8579,0,0,0-3.9481-5.512l-.749-.14a3.9968,3.9968,0,0,0-2.0529.4559,4.0489,4.0489,0,0,0-2.126,4.03,5.3263,5.3263,0,0,1,4.566,8.905c-.092.1-.1851.193-.2831.283l-1.6909-1.83c.049-.045.098-.094.146-.145a2.8383,2.8383,0,1,0-4.9191-1.818l-2.49.095a5.2977,5.2977,0,0,1,2.297-4.586,6.5269,6.5269,0,0,1,5.871-7.871,6.2711,6.2711,0,0,0-11.0481-1.036V44.464A3.3907,3.3907,0,1,0,596.3,42.127c-.056-.06-.116-.121-.178-.179l1.6969-1.823c.1051.097.208.2.3071.305a5.885,5.885,0,0,1-7.7041,8.812v11.18a6.6907,6.6907,0,0,0,11.6291-.516l.383-.748.838.074c.147.014.2659.021.376.021a4.165,4.165,0,0,0,4.005-5.336l-.244-.8391a3.39,3.39,0,0,0-6.108,2.1531l-2.49.096a5.8854,5.8854,0,0,1,9.879-4.545,5.9788,5.9788,0,0,1,.861.998,6.689,6.689,0,0,0,1.04-10.213Zm-27.781-3.79a4.4716,4.4716,0,0,0,4.243.0991,1.5353,1.5353,0,0,0,.832-1.408l.045-.001V18.351a6.2669,6.2669,0,0,0-11.248,1.181,5.83,5.83,0,0,1,1.795.665c.17.098.333.203.491.316a5.5751,5.5751,0,0,1,8.385,2.056l-2.25,1.07a3.0759,3.0759,0,0,0-4.463-1.255,5.86,5.86,0,0,1,.5589,1.351,5.7939,5.7939,0,0,1-.5769,4.4259c-.072.1251-.149.2481-.229.3661l-2.063-1.396c.0449-.069.09-.14.132-.212a3.34,3.34,0,0,0-3.62-4.928,4.9,4.9,0,0,0-3.484,4.689,4.9956,4.9956,0,0,0,.056.695l.15,1.06-1.025.307a6.7345,6.7345,0,0,0-4.768,6.412,6.6616,6.6616,0,0,0,1.9019,4.672l.1291.133a3.0776,3.0776,0,0,0,2.629-2.629,3.1067,3.1067,0,0,0-.009-.908l2.46-.394a5.5742,5.5742,0,0,1-5.49,6.454c-.15,0-.3021-.009-.452-.021a6.6928,6.6928,0,0,0,2.9519,9.958l1.027.427-.309,1.069a4.1662,4.1662,0,0,0,4.0071,5.337c.107,0,.227-.007.376-.02l.5929-.053a4.9166,4.9166,0,0,0-.107-9.511l.6071-2.417a7.3971,7.3971,0,0,1,4.8989,4.0259,3.08,3.08,0,0,0,1.8371-4.34l2.219-1.132a5.57,5.57,0,0,1-3.386,7.872,7.4229,7.4229,0,0,1-4.512,7.597,6.6851,6.6851,0,0,0,10.787-1.002V40.232a6.3787,6.3787,0,0,1-2.813.6269,7.294,7.294,0,0,1-3.515-.9029,7.1987,7.1987,0,0,1-3.614-6.64l2.4919-.024a4.7568,4.7568,0,0,0,2.33,4.4849Z" style="fill: #f6b81c;fill-rule: evenodd"/>
    </g>
  </g>
</svg>
