<svg id="add-account" xmlns="http://www.w3.org/2000/svg" xmlns:xlink="http://www.w3.org/1999/xlink" width="18.328" height="21.639" viewBox="0 0 18.328 21.639">
  <defs>
    <clipPath id="clip-path">
      <rect id="Rectangle_22288" data-name="Rectangle 22288" width="18.328" height="21.639" fill="#60811e"/>
    </clipPath>
  </defs>
  <g id="Group_67077" data-name="Group 67077" clip-path="url(#clip-path)">
    <path id="Path_82387" data-name="Path 82387" d="M9.829,4.088A4.088,4.088,0,1,0,13.917,0,4.092,4.092,0,0,0,9.829,4.088m6.785,0a2.7,2.7,0,1,1-2.7-2.7,2.7,2.7,0,0,1,2.7,2.7" transform="translate(-6.693 0)" fill="#60811e"/>
    <path id="Path_82388" data-name="Path 82388" d="M10.478,27.734a3.9,3.9,0,0,1,1.608,1.1,6.763,6.763,0,0,1,1.563-.218,5.3,5.3,0,0,0-2.7-2.19,1.711,1.711,0,0,0-1.783.4l-1.721,1.72a.313.313,0,0,1-.444,0l-1.721-1.72a1.71,1.71,0,0,0-1.783-.4A5.3,5.3,0,0,0,0,31.395v3.327a.7.7,0,0,0,.7.7H7.014c0-.011,0-.02,0-.031a6.82,6.82,0,0,1,.137-1.36H1.39V31.394a3.906,3.906,0,0,1,2.579-3.66.315.315,0,0,1,.329.075l1.72,1.721a1.7,1.7,0,0,0,2.41,0l1.721-1.721A.318.318,0,0,1,10.478,27.734Z" transform="translate(0 -17.927)" fill="#60811e"/>
    <path id="Path_82389" data-name="Path 82389" d="M31.766,37.264a4.875,4.875,0,1,0,4.875,4.875,4.88,4.88,0,0,0-4.875-4.875m0,8.36a3.485,3.485,0,1,1,3.485-3.485,3.489,3.489,0,0,1-3.485,3.485" transform="translate(-18.312 -25.375)" fill="#60811e"/>
    <path id="Path_82390" data-name="Path 82390" d="M38.53,46.311h-1.2v-1.2a.7.7,0,1,0-1.39,0v1.2h-1.2a.7.7,0,1,0,0,1.39h1.2v1.205a.7.7,0,0,0,1.39,0V47.7h1.2a.7.7,0,0,0,0-1.39" transform="translate(-23.177 -30.242)" fill="#60811e"/>
  </g>
</svg>
