<svg xmlns="http://www.w3.org/2000/svg" width="32" height="21" viewBox="0 0 32 21">
  <g id="Australia" transform="translate(-1510 -382)">
    <g id="Group_30982" data-name="Group 30982" transform="translate(1510 382)">
      <rect id="Rectangle_10066" data-name="Rectangle 10066" width="32" height="21" transform="translate(0 0)" fill="#00008b"/>
      <path id="Path_48133" data-name="Path 48133" d="M89.132,171.977l.453,1.408,1.383-.524-.819,1.232,1.272.755-1.473.128.2,1.465-1.019-1.072-1.019,1.072.2-1.465-1.473-.128,1.272-.755-.818-1.232,1.383.524Z" transform="translate(-80.733 -159.772)" fill="#fff"/>
      <path id="Path_48134" data-name="Path 48134" d="M327.495,208l.216.67.659-.249-.39.587.606.359-.7.061.1.7-.485-.511-.485.511.1-.7-.7-.061.606-.359-.39-.587.659.249Z" transform="translate(-303.44 -193.264)" fill="#fff"/>
      <path id="Path_48135" data-name="Path 48135" d="M271.865,119.925l.216.67.659-.249-.39.587.606.359-.7.061.1.7-.485-.51-.485.51.1-.7-.7-.061.606-.359-.39-.587.659.249Z" transform="translate(-251.724 -111.382)" fill="#fff"/>
      <path id="Path_48136" data-name="Path 48136" d="M327.495,59.66l.216.67.659-.249-.39.587.606.359-.7.061.1.7-.485-.511-.485.511.1-.7-.7-.061.606-.359-.39-.587.659.249Z" transform="translate(-303.44 -55.357)" fill="#fff"/>
      <path id="Path_48137" data-name="Path 48137" d="M376.942,105.09l.216.67.659-.249-.39.587.606.359-.7.061.1.7-.485-.511-.485.511.1-.7-.7-.061.606-.359-.39-.587.659.249Z" transform="translate(-349.408 -97.591)" fill="#fff"/>
      <path id="Path_48138" data-name="Path 48138" d="M355.954,149.726l.17.418.45.033-.345.291.108.438-.383-.238-.383.238.108-.438-.345-.291.45-.033Z" transform="translate(-330.333 -139.086)" fill="#fff"/>
      <path id="Path_48139" data-name="Path 48139" d="M0,100v2.419L3.629,100Z" transform="translate(0 -92.859)" fill="#00008b"/>
      <path id="Path_48140" data-name="Path 48140" d="M137.5,0V3.006L142.009,0Z" transform="translate(-127.826 0.105)" fill="#00008b"/>
      <path id="Path_48141" data-name="Path 48141" d="M23.419,110.285h4.509v-3.006Z" transform="translate(-21.771 -99.626)" fill="#00008b"/>
      <path id="Path_48142" data-name="Path 48142" d="M0,18.032H3.629L0,15.613Z" transform="translate(0 -14.409)" fill="#00008b"/>
      <path id="Path_48143" data-name="Path 48143" d="M23.419,0l4.509,3.006V0Z" transform="translate(-21.771 0.105)" fill="#00008b"/>
      <path id="Path_48144" data-name="Path 48144" d="M177.048,102.419V100h-3.629Z" transform="translate(-161.218 -92.859)" fill="#00008b"/>
      <path id="Path_48145" data-name="Path 48145" d="M177.048,18.031V15.612l-3.629,2.419Z" transform="translate(-161.218 -14.408)" fill="#00008b"/>
      <path id="Path_48146" data-name="Path 48146" d="M137.5,110.285h4.509l-4.509-3.006Z" transform="translate(-127.826 -99.626)" fill="#00008b"/>
      <path id="Path_48147" data-name="Path 48147" d="M0,0,5.277,3.518h.879V3.006L1.648,0Z" transform="translate(0 0.105)" fill="#fff"/>
      <path id="Path_48148" data-name="Path 48148" d="M0,10.774l3.629,2.419h.549L0,10.408Z" transform="translate(0 -9.57)" fill="#fff"/>
      <path id="Path_48149" data-name="Path 48149" d="M137.5,100v.512l4.509,3.006h1.648L138.379,100Z" transform="translate(-127.826 -92.859)" fill="#fff"/>
      <path id="Path_48150" data-name="Path 48150" d="M20.67,102.075l-5.058,3.372h.549l4.509-3.006Z" transform="translate(-14.514 -94.788)" fill="#fff"/>
      <path id="Path_48151" data-name="Path 48151" d="M3.629,100,0,102.42v1.1L5.276,100Z" transform="translate(0 -92.859)" fill="#fff"/>
      <path id="Path_48152" data-name="Path 48152" d="M165.612,100l4.178,2.786v-.366L166.161,100Z" transform="translate(-153.96 -92.859)" fill="#fff"/>
      <path id="Path_48153" data-name="Path 48153" d="M155.277,0,150,3.518h1.648L155.277,1.1Z" transform="translate(-139.446 0.105)" fill="#fff"/>
      <path id="Path_48154" data-name="Path 48154" d="M142.009,0,137.5,3.006v.366L142.558,0Z" transform="translate(-127.826 0.105)" fill="#fff"/>
      <path id="Path_48155" data-name="Path 48155" d="M0,0V.733L4.178,3.518h1.1Z" transform="translate(0 0.105)" fill="#cf142b"/>
      <path id="Path_48156" data-name="Path 48156" d="M151.1,100H150l5.277,3.518v-.732Z" transform="translate(-139.447 -92.859)" fill="#cf142b"/>
      <path id="Path_48157" data-name="Path 48157" d="M5.276,100,0,103.518H1.1l5.058-3.372V100Z" transform="translate(0 -92.859)" fill="#cf142b"/>
      <path id="Path_48158" data-name="Path 48158" d="M142.558,0,137.5,3.372v.146h.88L143.657,0Z" transform="translate(-127.827 0.105)" fill="#cf142b"/>
      <path id="Path_48159" data-name="Path 48159" d="M127.5,0V4.222h6.86v-.7H128.2V0Z" transform="translate(-118.53 0.105)" fill="#fff"/>
      <path id="Path_48160" data-name="Path 48160" d="M128.2,90.7h6.156V90H127.5v4.221h.7V90.7Z" transform="translate(-118.529 -83.562)" fill="#fff"/>
      <path id="Path_48161" data-name="Path 48161" d="M0,90v.7H6.156v3.518h.7V90Z" transform="translate(0 -83.563)" fill="#fff"/>
      <path id="Path_48162" data-name="Path 48162" d="M6.156,0V3.518H0v.7H6.86V0Z" transform="translate(0 0.105)" fill="#fff"/>
      <path id="Path_48163" data-name="Path 48163" d="M6.86,0V4.222H0V6.332H6.86v4.221H8.97V6.332h6.86V4.222H8.97V0Z" transform="translate(0 0.105)" fill="#cf142b"/>
    </g>
  </g>
</svg>
