<svg id="bell" xmlns="http://www.w3.org/2000/svg" width="24.261" height="28.988" viewBox="0 0 24.261 28.988">
  <path id="Vector" d="M12.13,28.988A4.434,4.434,0,0,0,16.3,26.052H7.958a4.434,4.434,0,0,0,4.173,2.936Zm11.706-8.115a2.109,2.109,0,0,0-.158-.182.97.97,0,0,0-.158-.158,7.308,7.308,0,0,1-.631-.594,8.086,8.086,0,0,1-1.043-1.359A7.924,7.924,0,0,1,20.719,14.5V12.127a8.607,8.607,0,0,0-5.906-8.153V2.681a2.682,2.682,0,0,0-5.364,0V3.974a8.605,8.605,0,0,0-5.906,8.153V14.5a6.707,6.707,0,0,1-.049.861A7.79,7.79,0,0,1,2.4,18.592a6.457,6.457,0,0,1-.788,1.055,1.987,1.987,0,0,1-.255.3c-.1.1-.194.206-.3.3a3.531,3.531,0,0,1-.328.291v.012a.97.97,0,0,0-.158.158,2.085,2.085,0,0,0,1.516,3.518H22.174a2.1,2.1,0,0,0,2.086-2.1,2.055,2.055,0,0,0-.425-1.262Z" transform="translate(0 0)" fill="#fff"/>
</svg>
