<svg xmlns="http://www.w3.org/2000/svg" xmlns:xlink="http://www.w3.org/1999/xlink" width="18.855" height="16" viewBox="0 0 18.855 16">
  <defs>
    <clipPath id="clip-path">
      <rect id="Rectangle_23295" data-name="Rectangle 23295" width="18.855" height="16" transform="translate(0 0)" fill="#6b778e"/>
    </clipPath>
  </defs>
  <g id="Group_99305" data-name="Group 99305" transform="translate(10.145 0)">
    <g id="Group_99200" data-name="Group 99200" transform="translate(-10.145 0)" clip-path="url(#clip-path)">
      <path id="Path_84436" data-name="Path 84436" d="M21.313,10.784a2.238,2.238,0,0,1-.4-1.27V7.272a5.175,5.175,0,0,0-2.957-4.644v-.1A1.72,1.72,0,0,0,16.251.821H15.3a1.719,1.719,0,0,0-1.707,1.707v.1a5.114,5.114,0,0,0-2.938,4.644V9.534a2.238,2.238,0,0,1-.4,1.27l-.734,1.032a1.187,1.187,0,0,0-.079,1.251,1.223,1.223,0,0,0,1.072.655h2.2a3.088,3.088,0,0,0,6.153,0h2.2a1.2,1.2,0,0,0,1.072-.655,1.185,1.185,0,0,0-.079-1.251Zm-5.537,4.406a1.71,1.71,0,0,1-1.687-1.449h3.394a1.746,1.746,0,0,1-1.707,1.449m-4.982-2.818.556-.794A3.58,3.58,0,0,0,12,9.534V7.272a3.741,3.741,0,0,1,2.5-3.533.68.68,0,0,0,.456-.635V2.548A.348.348,0,0,1,15.3,2.21h.953a.348.348,0,0,1,.337.337V3.1a.644.644,0,0,0,.456.635,3.787,3.787,0,0,1,2.5,3.533V9.534a3.44,3.44,0,0,0,.655,2.044l.556.794Z" transform="translate(-6.348 -0.56)" fill="#6b778e"/>
      <path id="Path_84437" data-name="Path 84437" d="M2.322,19.441H.675a.675.675,0,1,0,0,1.35H2.322a.675.675,0,0,0,0-1.35Z" transform="translate(0 -13.266)" fill="#6b778e"/>
      <path id="Path_84438" data-name="Path 84438" d="M2.519,10.274l1.508.635a.61.61,0,0,0,.258.059.692.692,0,0,0,.635-.417.679.679,0,0,0-.377-.893L3.036,9.024a.68.68,0,0,0-.893.377A.664.664,0,0,0,2.519,10.274Z" transform="translate(-1.428 -6.123)" fill="#6b778e"/>
      <path id="Path_84439" data-name="Path 84439" d="M9.441,2.341a.677.677,0,0,0,.476.2.645.645,0,0,0,.476-.2.708.708,0,0,0,0-.973L9.242.217a.708.708,0,0,0-.973,0,.708.708,0,0,0,0,.973Z" transform="translate(-5.511 -0.016)" fill="#6b778e"/>
      <path id="Path_84440" data-name="Path 84440" d="M44.007,2.523a.616.616,0,0,0,.476-.2l1.151-1.151a.708.708,0,0,0,0-.973.689.689,0,0,0-.973,0L43.511,1.352a.707.707,0,0,0,0,.973.688.688,0,0,0,.5.2" transform="translate(-29.558 0)" fill="#6b778e"/>
      <path id="Path_84441" data-name="Path 84441" d="M48.238,10.447a.672.672,0,0,0,.635.417.611.611,0,0,0,.258-.059l1.508-.635a.685.685,0,0,0-.516-1.27l-1.508.635A.692.692,0,0,0,48.238,10.447Z" transform="translate(-32.876 -6.038)" fill="#6b778e"/>
      <path id="Path_84442" data-name="Path 84442" d="M52.247,19.441H50.6a.675.675,0,1,0,0,1.35h1.647a.669.669,0,0,0,.675-.675A.682.682,0,0,0,52.247,19.441Z" transform="translate(-34.067 -13.266)" fill="#6b778e"/>
    </g>
  </g>
</svg>
