<svg xmlns="http://www.w3.org/2000/svg" xmlns:xlink="http://www.w3.org/1999/xlink" width="21" height="19.95" viewBox="0 0 21 19.95">
  <defs>
    <clipPath id="clip-path">
      <rect id="Rectangle_24" data-name="Rectangle 24" width="21" height="19.95" fill="#7a4919"/>
    </clipPath>
  </defs>
  <g id="benefits" transform="translate(58.972 11.5)">
    <g id="Group_128" data-name="Group 128" transform="translate(-58.972 -11.5)">
      <g id="Group_128-2" data-name="Group 128" clip-path="url(#clip-path)">
        <path id="Path_87" data-name="Path 87" d="M19.536,16.3a.955.955,0,0,1,.226.63c0,.742-.576.852-1.105.954-.1.018-.191.036-.258.05L9.183,19.9A1.987,1.987,0,0,1,8.1,19.844a2.261,2.261,0,0,1-.937-.648L4.861,16.616a.3.3,0,0,0-.238-.119h-1.5V10.657l2.95-.275a2.985,2.985,0,0,1,1.06.067,2,2,0,0,1,.888.519l3.666,3.611a1.421,1.421,0,0,1,.4.923,1.489,1.489,0,0,1-.28.988,1.3,1.3,0,0,1-.108.124,1.047,1.047,0,0,1-.659.318,1,1,0,0,1-.687-.2,1.014,1.014,0,0,1-.117-.1l-2.2-2.165a.295.295,0,0,0-.422.411l.009.009,2.2,2.165A1.7,1.7,0,0,0,10,17.2a1.574,1.574,0,0,0,1.088.323,1.63,1.63,0,0,0,1.033-.492,1.776,1.776,0,0,0,.158-.183,1.914,1.914,0,0,0,.249-.439l6.508-.348a.669.669,0,0,1,.5.241M4.478,5.679a.934.934,0,0,0,.66,1.593h.715v.714a.934.934,0,0,0,1.867,0V7.272h.713a.934.934,0,0,0,0-1.867H7.72V4.69a.934.934,0,0,0-1.867,0v.715H5.138a.934.934,0,0,0-.66.274M3.955,4.223V3.508H4.67a.933.933,0,0,0,0-1.866H3.955V.927a.934.934,0,0,0-1.867,0v.715H1.374a.933.933,0,0,0,0,1.866h.714v.715a.934.934,0,0,0,1.867,0Zm5.04-.279h.714v.714a.934.934,0,0,0,1.867,0V3.944h.715a.934.934,0,0,0,0-1.867h-.715V1.362a.934.934,0,0,0-1.867,0v.715H8.995a.934.934,0,0,0,0,1.867ZM21,9.436a1.447,1.447,0,0,1-.124.587l-.008.017a1.448,1.448,0,0,1-.346.47.312.312,0,0,0-.093.15.3.3,0,0,0,.006.178,1.442,1.442,0,0,1-.124,1.168h0a1.433,1.433,0,0,1-.652.592,1.459,1.459,0,0,1-.509.129,1.476,1.476,0,0,1-.128.509,1.441,1.441,0,0,1-.593.651l-.018.01a1.442,1.442,0,0,1-.553.177,1.463,1.463,0,0,1-.6-.062.3.3,0,0,0-.178-.006.31.31,0,0,0-.15.093,1.443,1.443,0,0,1-1.662.353l-.015-.007a1.438,1.438,0,0,1-.47-.346.308.308,0,0,0-.33-.087,1.448,1.448,0,0,1-1.86-1.075.308.308,0,0,0-.082-.157.314.314,0,0,0-.157-.082,1.475,1.475,0,0,1-.55-.245,1.45,1.45,0,0,1-.525-1.616.306.306,0,0,0-.087-.329,1.435,1.435,0,0,1-.353-.486h0a1.439,1.439,0,0,1,0-1.175l.008-.016a1.436,1.436,0,0,1,.345-.47.307.307,0,0,0,.093-.152.313.313,0,0,0-.006-.178,1.446,1.446,0,0,1,1.075-1.86.3.3,0,0,0,.239-.239,1.444,1.444,0,0,1,.692-.952l.018-.01a1.445,1.445,0,0,1,1.15-.113.319.319,0,0,0,.179.006.31.31,0,0,0,.151-.093,1.441,1.441,0,0,1,1.661-.354l.015.008a1.428,1.428,0,0,1,.47.346.307.307,0,0,0,.329.087,1.451,1.451,0,0,1,1.616.525,1.467,1.467,0,0,1,.245.55.3.3,0,0,0,.239.239,1.45,1.45,0,0,1,1.075,1.86.3.3,0,0,0-.006.178.309.309,0,0,0,.093.152,1.426,1.426,0,0,1,.353.485h0A1.451,1.451,0,0,1,21,9.436m-1.709,0a3.432,3.432,0,1,0-1.005,2.427A3.432,3.432,0,0,0,19.29,9.436M2.48,9.368a.177.177,0,0,1,.054.128v8.343a.182.182,0,0,1-.054.129l-.01.01a.176.176,0,0,1-.119.043H.182a.18.18,0,0,1-.128-.051h0A.182.182,0,0,1,0,17.838V9.5a.177.177,0,0,1,.054-.128l.01-.011a.184.184,0,0,1,.118-.043H2.352a.178.178,0,0,1,.128.053h0Zm-.918,1.15a.3.3,0,1,0-.591,0v.014a.3.3,0,1,0,.591,0Zm14.591.27a.571.571,0,0,0,.19-.785.556.556,0,0,0-.19-.189Zm-.865-2.217a.574.574,0,0,0,.275.488V8.084a.6.6,0,0,0-.108.084.573.573,0,0,0-.167.4m2.58-1.145a2.843,2.843,0,1,1-2.009-.832,2.842,2.842,0,0,1,2.009.832M16.153,9.179v-1.1a.571.571,0,0,1,.274.486.3.3,0,1,0,.591,0h0a1.159,1.159,0,0,0-.864-1.121V7.128a.3.3,0,1,0-.591,0h0v.322a1.16,1.16,0,0,0,0,2.244v1.1a.571.571,0,0,1-.274-.488.3.3,0,0,0-.591,0h0a1.162,1.162,0,0,0,.864,1.122v.32a.3.3,0,1,0,.591,0h0v-.32a1.16,1.16,0,0,0,0-2.244Z" transform="translate(0 0)" fill="#7a4919"/>
      </g>
    </g>
  </g>
</svg>
