<?xml version="1.0" encoding="utf-8"?>
<!-- Generator: Adobe Illustrator 27.6.1, SVG Export Plug-In . SVG Version: 6.00 Build 0)  -->
<svg version="1.1" id="Layer_1" xmlns="http://www.w3.org/2000/svg" xmlns:xlink="http://www.w3.org/1999/xlink" x="0px" y="0px"
	 width="24px" height="24px" viewBox="0 0 24 24" style="enable-background:new 0 0 24 24;" xml:space="preserve">
<style type="text/css">
	.st0{opacity:0.24;}
	.st1{opacity:0.24;fill:#FFFFFF;enable-background:new    ;}
	.st2{fill:#FFFFFF;}
</style>
<g id="Group_99146" transform="translate(-481 -243)">
	<g transform="matrix(1, 0, 0, 1, 481, 243)" class="st0">
		<path id="bg-2" class="st1" d="M3,0h18c1.7,0,3,1.3,3,3v18c0,1.7-1.3,3-3,3H3c-1.7,0-3-1.3-3-3V3C0,1.3,1.3,0,3,0z"/>
	</g>
	<path id="close" class="st2" d="M499,250.2l-1.2-1.2l-4.8,4.8l-4.8-4.8l-1.2,1.2l4.8,4.8l-4.8,4.8l1.2,1.2l4.8-4.8l4.8,4.8l1.2-1.2
		l-4.8-4.8L499,250.2z"/>
</g>
</svg>
