<svg id="create-member-grey" xmlns="http://www.w3.org/2000/svg" xmlns:xlink="http://www.w3.org/1999/xlink" width="16.72" height="15.2" viewBox="0 0 16.72 15.2">
  <defs>
    <clipPath id="clip-path">
      <rect id="Rectangle_64" data-name="Rectangle 64" width="16.72" height="15.2" fill="#6b778e"/>
    </clipPath>
  </defs>
  <g id="Group_279" data-name="Group 279" clip-path="url(#clip-path)">
    <path id="Path_157" data-name="Path 157" d="M14.859,0a3.8,3.8,0,1,1-3.8,3.8,3.8,3.8,0,0,1,3.8-3.8" transform="translate(-8.779)" fill="#6b778e"/>
    <path id="Path_158" data-name="Path 158" d="M12.16,48.037a2.287,2.287,0,0,1-2.28,2.28H2.28A2.287,2.287,0,0,1,0,48.037a3.8,3.8,0,0,1,3.8-3.8H8.36a3.8,3.8,0,0,1,3.8,3.8" transform="translate(0 -35.117)" fill="#6b778e"/>
    <path id="Path_159" data-name="Path 159" d="M52.484,3.8a3.8,3.8,0,0,1-3.8,3.8,3.157,3.157,0,0,1-.76-.083,5.3,5.3,0,0,0,0-7.433A3.168,3.168,0,0,1,48.684,0,3.8,3.8,0,0,1,52.484,3.8Z" transform="translate(-38.044 0)" fill="#6b778e"/>
    <path id="Path_160" data-name="Path 160" d="M63.221,48.037a2.287,2.287,0,0,1-2.28,2.28h-1.52a3.756,3.756,0,0,0,.76-2.28,5.3,5.3,0,0,0-1.6-3.8h.843A3.8,3.8,0,0,1,63.221,48.037Z" transform="translate(-46.501 -35.117)" fill="#6b778e"/>
  </g>
</svg>
