<svg xmlns="http://www.w3.org/2000/svg" xmlns:xlink="http://www.w3.org/1999/xlink" width="20.72" height="12.914" viewBox="0 0 20.72 12.914">
  <defs>
    <clipPath id="clip-path">
      <rect id="Rectangle_15" data-name="Rectangle 15" width="20.72" height="12.914" fill="#6b778e"/>
    </clipPath>
  </defs>
  <g id="create-partner-grey" transform="translate(59.972 8.5)">
    <g id="briefcase" transform="translate(-59.972 -8.5)">
      <g id="Group_105" data-name="Group 105" transform="translate(0 0)">
        <g id="Group_104" data-name="Group 104" transform="translate(0 0)" clip-path="url(#clip-path)">
          <path id="Path_79" data-name="Path 79" d="M9.444,10.681l-.805,1.145h0l-.093.133a.531.531,0,0,1-.5.254.677.677,0,0,1-.526-.37.525.525,0,0,1,.054-.53h0L8.811,9.556h0a.53.53,0,0,1,.494-.248.677.677,0,0,1,.525.37.533.533,0,0,1-.071.555ZM8.422,9.108a.533.533,0,0,0,.071-.555.676.676,0,0,0-.525-.37.532.532,0,0,0-.5.254l-.319.453H7.107v.062l-.853,1.213L6,10.533a.533.533,0,0,0-.071.553.67.67,0,0,0,.528.371.533.533,0,0,0,.5-.253l.173-.246L8.337,9.23ZM5.308,1.028,3.634.062A.46.46,0,0,0,3.4,0a.47.47,0,0,0-.122.016A.461.461,0,0,0,3,.231L.062,5.32a.465.465,0,0,0,.17.634l1.674.967a.466.466,0,0,0,.634-.17L5.478,1.662A.465.465,0,0,0,5.308,1.028ZM6.67,8.611V8.574a.525.525,0,0,0,.053-.53A.676.676,0,0,0,6.2,7.675a.532.532,0,0,0-.5.254L4.83,9.166a.533.533,0,0,0-.071.555.678.678,0,0,0,.525.37.529.529,0,0,0,.493-.247h0l.858-1.219ZM20.658,5.32,17.72.231a.462.462,0,0,0-.282-.215A.471.471,0,0,0,17.316,0a.458.458,0,0,0-.23.062l-1.674.967a.466.466,0,0,0-.17.634L18.18,6.751a.466.466,0,0,0,.634.17l1.674-.967A.465.465,0,0,0,20.658,5.32ZM9.9,11.049l-.021.01-.755,1.074,0,.023a.6.6,0,0,0,.367.585.531.531,0,0,0,.7-.2l.436-.62a.53.53,0,0,0-.051-.725A.6.6,0,0,0,9.9,11.049Zm4.946-8.782a7.126,7.126,0,0,1-2.164.262,9.012,9.012,0,0,1-1.666-.22,2.6,2.6,0,0,0-1.251-.041,2.3,2.3,0,0,0-.828.473c-.162.133-.317.276-.469.42-.192.182-.38.369-.569.554l-.441.433-.026.025-.1,2c0,.091,0,.247.089.3a.432.432,0,0,0,.281.021,1.606,1.606,0,0,0,.458-.173c.308-.166.563-.752.708-1.062.069-.148.139-.3.216-.442a.287.287,0,0,1,.134-.126l.206-.1a4.1,4.1,0,0,1,1.088-.4,1.485,1.485,0,0,1,1.012.184l4.547,2.632,1.228-.627L14.916,2.249Zm1.075,5.32-4.681-2.71a.918.918,0,0,0-.332-.117,1.267,1.267,0,0,0-.571.07,5.653,5.653,0,0,0-.663.282l-.094.044-.029.014L9.541,5.2c-.05.1-.1.2-.145.3A2.8,2.8,0,0,1,8.44,6.826a1.372,1.372,0,0,1-1.318.133.722.722,0,0,1-.239-.25,1.026,1.026,0,0,1-.118-.566l.1-2.11a.287.287,0,0,1,.087-.193q.274-.265.545-.534l.227-.223.1-.1L5.8,2.257,3.362,6.478,4.775,8.243,5.229,7.6A1.09,1.09,0,0,1,6.4,7.127a1.234,1.234,0,0,1,.216.071,1.266,1.266,0,0,1,.222.125,1.245,1.245,0,0,1,.375.416l.047.085.082-.052a1.135,1.135,0,0,1,1.267.06,1.183,1.183,0,0,1,.5.818l.01.084.084,0a1.213,1.213,0,0,1,.739.226,1.115,1.115,0,0,1,.414,1.382l-.044.1.1.027a1.242,1.242,0,0,1,.567.332,1.088,1.088,0,0,1,.2,1.322l-.042.077,1.08.628a.532.532,0,0,0,.559.023.677.677,0,0,0,.323-.555.532.532,0,0,0-.3-.475l-.021-.012h0l-1.24-.722a.288.288,0,0,1,.29-.5l1.259.733.005,0,.391.228a.533.533,0,0,0,.559.023.676.676,0,0,0,.323-.555.528.528,0,0,0-.285-.468h0l-1.555-.906a.288.288,0,0,1,.29-.5l1.567.912h0l.474.276a.534.534,0,0,0,.557.024.67.67,0,0,0,.325-.558.533.533,0,0,0-.3-.472l-.4-.233L13.519,8.2a.288.288,0,1,1,.29-.5l1.53.891a.531.531,0,0,0,.559.023.679.679,0,0,0,.323-.556A.531.531,0,0,0,15.924,7.588Z" transform="translate(0 0)" fill="#6b778e"/>
        </g>
      </g>
    </g>
  </g>
</svg>
