<svg xmlns="http://www.w3.org/2000/svg" xmlns:xlink="http://www.w3.org/1999/xlink" width="15.75" height="14.963" viewBox="0 0 15.75 14.963">
  <defs>
    <clipPath id="clip-path">
      <rect id="Rectangle_24" data-name="Rectangle 24" width="15.75" height="14.963" fill="#6b778e"/>
    </clipPath>
  </defs>
  <g id="create-benefit-grey" transform="translate(58.972 11.5)">
    <g id="Group_128" data-name="Group 128" transform="translate(-58.972 -11.5)">
      <g id="Group_128-2" data-name="Group 128" clip-path="url(#clip-path)">
        <path id="Path_87" data-name="Path 87" d="M14.652,12.225a.716.716,0,0,1,.169.472c0,.557-.432.639-.829.716l-.194.038L6.887,14.926a1.49,1.49,0,0,1-.809-.043,1.7,1.7,0,0,1-.7-.486L3.646,12.463a.222.222,0,0,0-.178-.089H2.344V7.993l2.213-.206a2.239,2.239,0,0,1,.8.05,1.5,1.5,0,0,1,.666.389l2.75,2.709a1.066,1.066,0,0,1,.3.692,1.117,1.117,0,0,1-.21.741.972.972,0,0,1-.081.093.785.785,0,0,1-.494.239.748.748,0,0,1-.515-.153.761.761,0,0,1-.088-.075L6.032,10.848a.221.221,0,0,0-.317.308l.006.006,1.649,1.624A1.273,1.273,0,0,0,7.5,12.9a1.181,1.181,0,0,0,.816.242,1.222,1.222,0,0,0,.775-.369,1.332,1.332,0,0,0,.118-.137,1.435,1.435,0,0,0,.186-.329l4.881-.261a.5.5,0,0,1,.375.18M3.358,4.259a.7.7,0,0,0,.495,1.2h.536V5.99a.7.7,0,0,0,1.4,0V5.454h.535a.7.7,0,0,0,0-1.4H5.79V3.518a.7.7,0,0,0-1.4,0v.536H3.853a.7.7,0,0,0-.495.205M2.967,3.167V2.631H3.5a.7.7,0,0,0,0-1.4H2.967V.7a.7.7,0,0,0-1.4,0v.536H1.031a.7.7,0,0,0,0,1.4h.535v.536a.7.7,0,0,0,1.4,0Zm3.78-.209h.535v.535a.7.7,0,0,0,1.4,0V2.958h.536a.7.7,0,0,0,0-1.4H8.682V1.022a.7.7,0,0,0-1.4,0v.536H6.746a.7.7,0,0,0,0,1.4Zm9,4.119a1.085,1.085,0,0,1-.093.44l-.006.013a1.086,1.086,0,0,1-.259.353.234.234,0,0,0-.07.113.228.228,0,0,0,0,.134A1.082,1.082,0,0,1,15.233,9h0a1.075,1.075,0,0,1-.489.444,1.094,1.094,0,0,1-.382.1,1.107,1.107,0,0,1-.1.382,1.081,1.081,0,0,1-.445.489l-.013.007a1.081,1.081,0,0,1-.415.133,1.1,1.1,0,0,1-.448-.047.227.227,0,0,0-.134,0,.232.232,0,0,0-.113.07,1.082,1.082,0,0,1-1.246.265l-.012-.005a1.078,1.078,0,0,1-.352-.259.231.231,0,0,0-.248-.066,1.086,1.086,0,0,1-1.4-.806.231.231,0,0,0-.062-.117.236.236,0,0,0-.117-.062,1.106,1.106,0,0,1-.412-.184,1.087,1.087,0,0,1-.394-1.212A.23.23,0,0,0,8.4,7.882a1.076,1.076,0,0,1-.265-.365h0a1.079,1.079,0,0,1,0-.881l.006-.012a1.077,1.077,0,0,1,.259-.352.23.23,0,0,0,.07-.114.234.234,0,0,0,0-.134,1.085,1.085,0,0,1,.806-1.4.227.227,0,0,0,.179-.179,1.083,1.083,0,0,1,.519-.714l.013-.007a1.084,1.084,0,0,1,.862-.085.239.239,0,0,0,.135,0,.233.233,0,0,0,.113-.07,1.081,1.081,0,0,1,1.246-.265l.012.006a1.071,1.071,0,0,1,.352.259.23.23,0,0,0,.247.065,1.088,1.088,0,0,1,1.212.394,1.1,1.1,0,0,1,.184.412.227.227,0,0,0,.179.179,1.087,1.087,0,0,1,.806,1.395.228.228,0,0,0,0,.134.232.232,0,0,0,.07.114,1.069,1.069,0,0,1,.265.364h0a1.088,1.088,0,0,1,.094.441m-1.282,0a2.574,2.574,0,1,0-.754,1.82,2.574,2.574,0,0,0,.754-1.82M1.86,7.026a.133.133,0,0,1,.04.1v6.257a.137.137,0,0,1-.04.1l-.007.007a.132.132,0,0,1-.089.032H.136a.135.135,0,0,1-.1-.038h0a.136.136,0,0,1-.04-.1V7.122a.132.132,0,0,1,.04-.1l.007-.008a.138.138,0,0,1,.089-.032H1.764a.133.133,0,0,1,.1.039h0Zm-.689.863a.221.221,0,1,0-.443,0V7.9a.221.221,0,0,0,.443,0Zm10.943.2a.429.429,0,0,0,.143-.589.417.417,0,0,0-.143-.142Zm-.649-1.663a.43.43,0,0,0,.206.366V6.063a.453.453,0,0,0-.081.063.43.43,0,0,0-.125.3M13.4,5.569a2.132,2.132,0,1,1-1.507-.624,2.132,2.132,0,0,1,1.507.624M12.115,6.884V6.063a.428.428,0,0,1,.205.365.222.222,0,1,0,.443,0h0a.869.869,0,0,0-.648-.841V5.346a.221.221,0,1,0-.443,0h0v.241a.87.87,0,0,0,0,1.683v.821a.428.428,0,0,1-.205-.366.221.221,0,1,0-.443,0h0a.872.872,0,0,0,.648.842v.24a.221.221,0,1,0,.443,0h0v-.24a.87.87,0,0,0,0-1.683Z" transform="translate(0 0)" fill="#6b778e"/>
      </g>
    </g>
  </g>
</svg>
