<svg xmlns="http://www.w3.org/2000/svg" xmlns:xlink="http://www.w3.org/1999/xlink" width="29.286" height="20" viewBox="0 0 29.286 20">
  <defs>
    <linearGradient id="linear-gradient" x1="0.5" x2="0.5" y2="1" gradientUnits="objectBoundingBox">
      <stop offset="0" stop-color="#4a59b1"/>
      <stop offset="1" stop-color="#7790d4"/>
    </linearGradient>
    <clipPath id="clip-path">
      <rect id="Rectangle_22375" data-name="Rectangle 22375" width="29.286" height="20" fill="url(#linear-gradient)"/>
    </clipPath>
    <linearGradient id="linear-gradient-3" x1="0.5" x2="0.5" y2="1" gradientUnits="objectBoundingBox">
      <stop offset="0" stop-color="#ffd300"/>
      <stop offset="1" stop-color="#efe8b9"/>
    </linearGradient>
  </defs>
  <g id="deepening" transform="translate(0 0)">
    <g id="Group_67457" data-name="Group 67457" transform="translate(0 0)" clip-path="url(#clip-path)">
      <path id="Path_83074" data-name="Path 83074" d="M15,0a4.614,4.614,0,0,0-4.645,4.286h-4A.364.364,0,0,0,6.1,4.5L.023,18.783a.377.377,0,0,0,.435.48,21.613,21.613,0,0,1,9.7-.435C13.128,19.271,15.592,20,17.14,20a18.864,18.864,0,0,0,5.729-1.094,19.72,19.72,0,0,1,6.063-1.049.377.377,0,0,0,.324-.514L23.182,4.487a.366.366,0,0,0-.324-.2H19.642A4.614,4.614,0,0,0,15,0Zm0,3.214a1.428,1.428,0,1,1-1.43,1.429A1.423,1.423,0,0,1,15,3.214M19.586,5h3.048l.447.96a4.821,4.821,0,0,1-1.452.246c-.723.038-1.564.046-2.389.167A7.229,7.229,0,0,0,19.586,5Zm1.7,1.931L20.2,8.839a11.846,11.846,0,0,0-1.463-1.272c.07-.148.137-.3.2-.446A17.624,17.624,0,0,1,21.283,6.931ZM18.425,8.2a20.025,20.025,0,0,1,2.914,2.924c.146.158.3.321.458.48l-2.233,1.908A10.279,10.279,0,0,0,17.375,10.1c.192-.335.385-.672.57-1C18.111,8.795,18.271,8.5,18.425,8.2Zm-6.779.3c.1.2.206.392.313.591.281.523.58,1.057.882,1.585a14.514,14.514,0,0,1-1.418,3.236,20.048,20.048,0,0,1-3.73-1.149,17.5,17.5,0,0,1,2.077-1.016.357.357,0,0,0-.134-.692,18.067,18.067,0,0,0-2.713,1.317,5.605,5.605,0,0,1-.5-2.823A36.686,36.686,0,0,1,11.647,8.5Zm10.675,3.6a12.007,12.007,0,0,0,2.925,1.976,3.145,3.145,0,0,0-.1,1.841,12.606,12.606,0,0,0,.535,1.54c-.66.141-1.467.321-1.954.424a11.928,11.928,0,0,1-3.763-3.069c-.042-.2-.1-.4-.156-.591Zm4.422,1.585,1.642,3.471a17.477,17.477,0,0,0-1.988.179c-.189-.557-.439-1.07-.558-1.585a2.275,2.275,0,0,1,.145-1.529A8.544,8.544,0,0,0,26.743,13.694ZM3.115,14.9a4.389,4.389,0,0,1,.771.312,5.486,5.486,0,0,0-.1,2.7,18.445,18.445,0,0,0-2.848.513l1.5-3.527A1.22,1.22,0,0,1,3.115,14.9Zm16.437.569a9.509,9.509,0,0,0,1.407,1.418l-1.217,2.132a12.825,12.825,0,0,1-2.6.268A13.015,13.015,0,0,1,14.963,19a20.249,20.249,0,0,1,4.59-3.527Zm1.965,1.864a13.716,13.716,0,0,0,1.284.859c-.722.2-1.481.439-2.111.6ZM6.878,13.247a37.248,37.248,0,0,0,4.1,1.295,7.024,7.024,0,0,1-.849.893.376.376,0,0,0,.078.581,10.239,10.239,0,0,1,3.361,2.69c-1-.2-2.087-.413-3.283-.592a26.683,26.683,0,0,0-5.75-.29A5.212,5.212,0,0,1,4.6,15.168a9.281,9.281,0,0,1,2.278-1.92Z" transform="translate(0 0)" fill="url(#linear-gradient)"/>
      <path id="Path_83075" data-name="Path 83075" d="M45.534,13.5l3,6.362c-.219.2-.47.417-.648.558A11.619,11.619,0,0,1,44,17.532c-.385-.42-.768-.849-1.161-1.272l1.407-2.489a3.613,3.613,0,0,0,1.284-.268Z" transform="translate(-22.249 -7.012)" fill="#8abb2a"/>
      <path id="Path_83076" data-name="Path 83076" d="M8.919,20.165a5.958,5.958,0,0,0,.6,3.036A9.871,9.871,0,0,0,7.389,25a4.536,4.536,0,0,0-.882-.346,2.191,2.191,0,0,0-.536-.067L7.747,20.4C8.14,20.338,8.529,20.253,8.919,20.165Z" transform="translate(-3.101 -10.472)" fill="url(#linear-gradient-3)"/>
      <path id="Path_83077" data-name="Path 83077" d="M11.876,10.629h3.763a9.91,9.91,0,0,0,.927,2.857c-2.331.023-4.318.9-6.466,1.317Z" transform="translate(-5.245 -5.52)" fill="#1a276b"/>
      <path id="Path_83078" data-name="Path 83078" d="M28.839,22.336a9.6,9.6,0,0,1,2.211,4.107,20.907,20.907,0,0,0-4.9,3.862,9.83,9.83,0,0,0-3.406-3.08,10.362,10.362,0,0,0,2.39-4.118c.491.864.968,1.719,1.362,2.567a.378.378,0,0,0,.659-.022A26.491,26.491,0,0,1,28.839,22.336Z" transform="translate(-11.81 -11.6)" fill="#af3a3a"/>
    </g>
  </g>
</svg>
