<svg xmlns="http://www.w3.org/2000/svg" xmlns:xlink="http://www.w3.org/1999/xlink" width="13.98" height="18" viewBox="0 0 13.98 18">
  <defs>
    <clipPath id="clip-path">
      <rect id="Rectangle_22133" data-name="Rectangle 22133" width="13.98" height="18" fill="#6b778e"/>
    </clipPath>
  </defs>
  <g id="Group_66953" data-name="Group 66953" transform="translate(0 0)">
    <g id="Group_66919" data-name="Group 66919" transform="translate(0 0)" clip-path="url(#clip-path)">
      <path id="Path_82220" data-name="Path 82220" d="M1.267,6.532v7.755A3.71,3.71,0,0,0,4.981,18H9a3.71,3.71,0,0,0,3.713-3.713V6.532a2.2,2.2,0,0,0-.939-4.194H10.18A2.34,2.34,0,0,0,7.843,0H6.16A2.34,2.34,0,0,0,3.823,2.338H2.228a2.2,2.2,0,0,0-.961,4.194ZM9,16.689H4.981a2.4,2.4,0,0,1-2.4-2.4V6.75H11.4v7.537a2.423,2.423,0,0,1-2.4,2.4M6.139,1.311H7.82A1.025,1.025,0,0,1,8.847,2.338H5.112A1.054,1.054,0,0,1,6.139,1.311ZM2.206,3.649h9.568a.9.9,0,0,1,0,1.792H2.206a.9.9,0,1,1,0-1.791Z" transform="translate(0 0)" fill="#6b778e"/>
      <rect id="Rectangle_22131" data-name="Rectangle 22131" width="1.311" height="6.378" transform="translate(8.195 8.41)" fill="#6b778e"/>
      <rect id="Rectangle_22132" data-name="Rectangle 22132" width="1.311" height="6.378" transform="translate(4.658 8.41)" fill="#6b778e"/>
    </g>
  </g>
</svg>
