<?xml version="1.0" encoding="utf-8"?>
<!-- Generator: Adobe Illustrator 27.6.1, SVG Export Plug-In . SVG Version: 6.00 Build 0)  -->
<svg version="1.1" id="Layer_1" xmlns="http://www.w3.org/2000/svg" xmlns:xlink="http://www.w3.org/1999/xlink" x="0px" y="0px"
	 width="24px" height="24px" viewBox="0 0 24 24" style="enable-background:new 0 0 24 24;" xml:space="preserve">
<style type="text/css">
	.st0{opacity:0.7;}
	.st1{opacity:0.7;fill:#FF0000;enable-background:new    ;}
	.st2{clip-path:url(#SVGID_00000031205036415496845920000014070031750417074059_);}
	.st3{fill:#FFFFFF;}
</style>
<g id="Group_98839" transform="translate(-15499 -368)">
	<g id="Group_99145">
		<g transform="matrix(1, 0, 0, 1, 15499, 368)" class="st0">
			<path id="bg-2" class="st1" d="M3,0h18c1.7,0,3,1.3,3,3v18c0,1.7-1.3,3-3,3H3c-1.7,0-3-1.3-3-3V3C0,1.3,1.3,0,3,0z"/>
		</g>
		<g id="Group_98837" transform="translate(13758 193)">
			<g id="Group_67125" transform="translate(1788 220)">
				<g id="Group_66929" transform="translate(0 0)">
					<g id="Group_66952" transform="translate(0 0)">
						<g id="Group_66953">
							<g>
								<defs>
									<rect id="SVGID_1_" x="-40.4" y="-40" width="10.9" height="14"/>
								</defs>
								<clipPath id="SVGID_00000044856277660667495390000011387257323959847607_">
									<use xlink:href="#SVGID_1_"  style="overflow:visible;"/>
								</clipPath>
								<g id="Group_66919" style="clip-path:url(#SVGID_00000044856277660667495390000011387257323959847607_);">
									<path id="Path_82220" class="st3" d="M-39.5-34.9v6c0,1.6,1.3,2.9,2.9,2.9c0,0,0,0,0,0h3.1c1.6,0,2.9-1.3,2.9-2.9
										c0,0,0,0,0,0v-6c0.9-0.4,1.2-1.4,0.8-2.3c-0.3-0.6-0.9-1-1.6-1h-1.2c0-1-0.8-1.8-1.8-1.8h-1.3c-1,0-1.8,0.8-1.8,1.8h-1.2
										c-0.9,0-1.7,0.7-1.7,1.7C-40.4-35.8-40.1-35.2-39.5-34.9z M-33.4-27h-3.1c-1,0-1.9-0.8-1.9-1.9c0,0,0,0,0,0v-5.9h6.9v5.9
										C-31.6-27.9-32.4-27-33.4-27 M-35.7-39h1.3c0.4,0,0.8,0.4,0.8,0.8l0,0h-2.9C-36.5-38.6-36.1-39-35.7-39z M-38.7-37.2h7.4
										c0.4,0,0.7,0.4,0.6,0.8c0,0.3-0.3,0.6-0.6,0.6h-7.4c-0.4,0-0.7-0.2-0.8-0.6s0.2-0.7,0.6-0.8
										C-38.8-37.2-38.8-37.2-38.7-37.2z"/>
									<rect id="Rectangle_22131" x="-34.1" y="-33.5" class="st3" width="1" height="5"/>
									<rect id="Rectangle_22132" x="-36.8" y="-33.5" class="st3" width="1" height="5"/>
								</g>
							</g>
						</g>
					</g>
				</g>
			</g>
		</g>
	</g>
</g>
</svg>
