<?xml version="1.0" encoding="utf-8"?>
<!-- Generator: Adobe Illustrator 27.6.1, SVG Export Plug-In . SVG Version: 6.00 Build 0)  -->
<svg version="1.1" id="Layer_1" xmlns="http://www.w3.org/2000/svg" xmlns:xlink="http://www.w3.org/1999/xlink" x="0px" y="0px"
	 width="24px" height="24px" viewBox="0 0 24 24" style="enable-background:new 0 0 24 24;" xml:space="preserve">
<style type="text/css">
	.st0{opacity:0.7;}
	.st1{opacity:0.7;fill:#8ABB2A;enable-background:new    ;}
	.st2{fill:none;stroke:#FFFFFF;stroke-width:1.3;stroke-linecap:round;stroke-linejoin:round;}
</style>
<g id="Group_98840" transform="translate(-15533 -368)">
	<g transform="matrix(1, 0, 0, 1, 15533, 368)" class="st0">
		<path id="bg-2" class="st1" d="M3,0h18c1.7,0,3,1.3,3,3v18c0,1.7-1.3,3-3,3H3c-1.7,0-3-1.3-3-3V3C0,1.3,1.3,0,3,0z"/>
	</g>
	<g id="Icon_feather-edit" transform="translate(15575 410.182)">
		<path id="Path_83131" class="st2" d="M-30.7-35.8h-4.9c-0.8,0-1.4,0.6-1.4,1.4l0,0v9.8c0,0.8,0.6,1.4,1.4,1.4h9.8
			c0.8,0,1.4-0.6,1.4-1.4v-4.9"/>
		<path id="Path_83132" class="st2" d="M-25.4-36.8c0.6-0.5,1.4-0.5,2,0c0.5,0.5,0.5,1.4,0,1.9l-6.2,6.2l-2.6,0.7l0.7-2.6
			L-25.4-36.8z"/>
	</g>
</g>
</svg>
