<svg xmlns="http://www.w3.org/2000/svg" width="15.833" height="15.833" viewBox="0 0 15.833 15.833">
  <g id="Icon_ionic-ios-expand" data-name="Icon ionic-ios-expand" transform="translate(-4.5 -4.5)">
    <path id="Path_87985" data-name="Path 87985" d="M6.5,5.654H9.7a.572.572,0,0,0,.573-.573V5.073A.572.572,0,0,0,9.7,4.5H5.073a.572.572,0,0,0-.573.573V9.7a.572.572,0,0,0,.573.573h.008A.572.572,0,0,0,5.654,9.7V6.5l4.828,4.8a.567.567,0,0,0,.4.165.555.555,0,0,0,.4-.169.572.572,0,0,0,0-.808Z" transform="translate(0 0)" fill="#fff"/>
    <path id="Path_87986" data-name="Path 87986" d="M26.02,4.5H21.393a.572.572,0,0,0-.573.573v.008a.572.572,0,0,0,.573.573h3.2l-4.8,4.828a.573.573,0,0,0,.808.812l4.828-4.8V9.7a.572.572,0,0,0,.573.573h.008a.572.572,0,0,0,.573-.573V5.073A.572.572,0,0,0,26.02,4.5Z" transform="translate(-6.26)" fill="#fff"/>
    <path id="Path_87987" data-name="Path 87987" d="M10.887,19.631a.567.567,0,0,0-.4.165L5.654,24.6v-3.2a.572.572,0,0,0-.573-.573H5.073a.572.572,0,0,0-.573.573v4.626a.572.572,0,0,0,.573.573H9.7a.572.572,0,0,0,.573-.573V26.01a.572.572,0,0,0-.573-.573H6.5l4.8-4.828a.573.573,0,0,0-.4-.977Z" transform="translate(0 -6.258)" fill="#fff"/>
    <path id="Path_87988" data-name="Path 87988" d="M26.02,20.822h-.008a.572.572,0,0,0-.573.573v3.2L20.61,19.8a.567.567,0,0,0-.4-.165.555.555,0,0,0-.4.169.572.572,0,0,0,0,.808l4.8,4.824h-3.2a.572.572,0,0,0-.573.573v.008a.572.572,0,0,0,.573.573H26.02a.572.572,0,0,0,.573-.573V21.395A.572.572,0,0,0,26.02,20.822Z" transform="translate(-6.26 -6.261)" fill="#fff"/>
  </g>
</svg>
