<svg xmlns="http://www.w3.org/2000/svg" xmlns:xlink="http://www.w3.org/1999/xlink" width="500" height="400" viewBox="0 0 500 400">
  <defs>
    <clipPath id="clip-path">
      <rect id="Rectangle_34552" data-name="Rectangle 34552" width="484" height="392" transform="translate(0 0)" fill="none"/>
    </clipPath>
    <linearGradient id="linear-gradient" x1="0.5" x2="0.5" y2="1" gradientUnits="objectBoundingBox">
      <stop offset="0" stop-color="#cfae0d"/>
      <stop offset="1" stop-color="#8abb2a"/>
    </linearGradient>
    <clipPath id="clip-path-2">
      <rect id="Rectangle_34550" data-name="Rectangle 34550" width="75.967" height="48.027" fill="none"/>
    </clipPath>
    <linearGradient id="linear-gradient-6" x1="0.5" x2="0.5" y2="1" gradientUnits="objectBoundingBox">
      <stop offset="0" stop-color="#4a59b1"/>
      <stop offset="1" stop-color="#7790d4"/>
    </linearGradient>
    <linearGradient id="linear-gradient-10" x1="0.5" x2="0.5" y2="1" gradientUnits="objectBoundingBox">
      <stop offset="0" stop-color="#121a4e"/>
      <stop offset="1" stop-color="#2f3f92"/>
    </linearGradient>
    <linearGradient id="linear-gradient-12" x1="0.5" x2="0.5" y2="1" gradientUnits="objectBoundingBox">
      <stop offset="0" stop-color="#b49710"/>
      <stop offset="1" stop-color="#8abb2a"/>
    </linearGradient>
    <linearGradient id="linear-gradient-14" x1="0.5" x2="0.5" y2="1" gradientUnits="objectBoundingBox">
      <stop offset="0" stop-color="#1a276b"/>
      <stop offset="1" stop-color="#8abb2a"/>
    </linearGradient>
    <linearGradient id="linear-gradient-16" x1="0.5" x2="0.5" y2="1" gradientUnits="objectBoundingBox">
      <stop offset="0" stop-color="#627dc7"/>
      <stop offset="1" stop-color="#2e488e"/>
    </linearGradient>
    <linearGradient id="linear-gradient-17" x1="0.5" x2="0.5" y2="1" gradientUnits="objectBoundingBox">
      <stop offset="0" stop-color="#101946"/>
      <stop offset="1" stop-color="#a0cc48"/>
    </linearGradient>
    <linearGradient id="linear-gradient-23" x1="0.5" x2="0.5" y2="1" gradientUnits="objectBoundingBox">
      <stop offset="0" stop-color="#627dc7"/>
      <stop offset="1" stop-color="#3b5497"/>
    </linearGradient>
    <linearGradient id="linear-gradient-33" x1="0.5" x2="0.5" y2="1" gradientUnits="objectBoundingBox">
      <stop offset="0" stop-color="#ffd300"/>
      <stop offset="1" stop-color="#8abb2a"/>
    </linearGradient>
  </defs>
  <g id="explore-Loyalty" transform="translate(-314 -191)">
    <g id="Group_100370" data-name="Group 100370" transform="translate(-15)">
      <g id="Rectangle_36004" data-name="Rectangle 36004" transform="translate(329 191)" fill="#fff" stroke="#707070" stroke-width="1" opacity="0">
        <rect width="500" height="400" stroke="none"/>
        <rect x="0.5" y="0.5" width="499" height="399" fill="none"/>
      </g>
      <g id="Group_67289" data-name="Group 67289" transform="translate(337.302 194.678)">
        <g id="Group_97728" data-name="Group 97728" transform="translate(-0.302 0.322)" clip-path="url(#clip-path)">
          <g id="Group_97727" data-name="Group 97727" transform="translate(0.267 -0.305)">
            <g id="Group_97742" data-name="Group 97742" transform="translate(0)">
              <path id="Path_109289" data-name="Path 109289" d="M96.333,124.888,77.547,136.242a3.994,3.994,0,0,0-1.928,3.418v20.552a4,4,0,0,0,2,3.46l18.757,10.813a3.993,3.993,0,0,0,3.97.011l19.233-10.953a3.992,3.992,0,0,0,2.017-3.47V139.456A4,4,0,0,0,119.608,136l-19.2-11.151a4,4,0,0,0-4.07.036" transform="translate(17.851 29.345)" fill="url(#linear-gradient)"/>
              <path id="Path_109290" data-name="Path 109290" d="M97.8,124.337l-21.71,13.242,21.834,12.677,22.59-12.864Z" transform="translate(17.962 29.351)" fill="#545dbf"/>
              <path id="Path_109291" data-name="Path 109291" d="M77.451,136.822l-6.072-8.387,23.63,14.347,4.026,6.507Z" transform="translate(16.85 30.318)" fill="url(#linear-gradient)"/>
              <path id="Path_109292" data-name="Path 109292" d="M94.449,174.994v-50.13a.464.464,0,0,0-.927,0v50.13a.464.464,0,0,0,.927,0" transform="translate(22.077 29.37)" fill="#26244a"/>
              <path id="Path_109293" data-name="Path 109293" d="M107.422,157.251l4.31-2.473a.942.942,0,0,0,.473-.818V152.1a.583.583,0,0,0-.879-.5l-4.175,2.465a1.225,1.225,0,0,0-.6,1.056v1.632a.583.583,0,0,0,.873.506" transform="translate(25.152 35.766)" fill="#fff"/>
              <path id="Path_109294" data-name="Path 109294" d="M77.257,139.665c-.006,1.182.011,3.151.022,4.21a1.312,1.312,0,0,0,.63,1.106l5.111,3.1a.57.57,0,0,0,.865-.477l.075-4.225a1.308,1.308,0,0,0-.646-1.152l-5.2-3.051a.569.569,0,0,0-.858.487" transform="translate(18.237 32.836)" fill="#fff"/>
              <path id="Path_109295" data-name="Path 109295" d="M78.655,139.484,71.332,131.1l23.076-14.829,4.514,10.521Z" transform="translate(16.839 27.446)" fill="url(#linear-gradient)"/>
              <path id="Path_109296" data-name="Path 109296" d="M115.249,139.29c.125-.314,6.52-10.2,6.52-10.2l-24.108-13.52-4.009,11.387Z" transform="translate(22.108 27.28)" fill="url(#linear-gradient)"/>
              <path id="Path_109297" data-name="Path 109297" d="M93.9,149.1l3.717-6.7,23.63-14-5.6,8.586Z" transform="translate(22.165 30.312)" fill="url(#linear-gradient)"/>
              <path id="Path_109298" data-name="Path 109298" d="M76.145,135.749l19.642,11.034c.591.332,1.612,1.218,2.314,1.285.642.061,1.517-.695,2.036-.986l11.485-6.42,9.165-5.123a.464.464,0,0,0-.468-.8l-19.281,10.78-1.921,1.074a3.975,3.975,0,0,0-1.022.571c-.192.239-.074-.347.346.048-.068-.063-.189-.074-.252-.141a5.757,5.757,0,0,0-1.3-.73l-11.226-6.306q-4.526-2.542-9.05-5.085a.464.464,0,0,0-.468.8" transform="translate(17.921 31.791)" fill="#26244a"/>
              <path id="Path_109299" data-name="Path 109299" d="M71.184,128.753q5.79,3.43,11.582,6.861l8,4.739a27.779,27.779,0,0,1,4.036,2.391c-.355-.308.178.446.284.639q.6,1.1,1.206,2.2.953,1.735,1.9,3.472c.288.524,1.088.057.8-.467l-1.58-2.881a24.911,24.911,0,0,0-1.915-3.492c-.69-.87-2.137-1.4-3.078-1.958L76.256,130.68l-4.6-2.728a.464.464,0,0,0-.468.8" transform="translate(16.751 30.188)" fill="#26244a"/>
              <path id="Path_109300" data-name="Path 109300" d="M121.133,128.1l-11.816,7-8.122,4.811a22.63,22.63,0,0,0-3.692,2.188,12.05,12.05,0,0,0-1.747,3.048q-.985,1.795-1.968,3.59c-.288.524.513.993.8.468,1.151-2.1,2.187-4.32,3.475-6.336.185-.292-.255.156.035-.044.189-.132.4-.24.6-.357l2.451-1.452,16.033-9.5L121.6,128.9a.464.464,0,0,0-.468-.8" transform="translate(22.125 30.222)" fill="#26244a"/>
              <path id="Path_109301" data-name="Path 109301" d="M80.094,135.725,95.225,126.5a16.314,16.314,0,0,0,2.012-1.227c-.346.292-.586-.171-.047.219a12.928,12.928,0,0,0,1.283.71l9.158,5.072,7.353,4.073c.522.289.99-.512.467-.8l-18.2-10.08a.473.473,0,0,0-.468,0L79.626,134.924c-.508.31-.043,1.112.468.8" transform="translate(18.745 29.367)" fill="#26244a"/>
              <g id="Group_97725" data-name="Group 97725" transform="translate(121.044 45.887)" opacity="0.33">
                <g id="Group_97724" data-name="Group 97724">
                  <g id="Group_97723" data-name="Group 97723" clip-path="url(#clip-path-2)">
                    <path id="Path_109302" data-name="Path 109302" d="M102.809,75.454,132.233,92.67a11.079,11.079,0,0,0,11.118.04L173.5,75.36a5.3,5.3,0,0,0,.092-9.13L141.537,46.918a5.3,5.3,0,0,0-5.4-.038L102.816,66.3a5.3,5.3,0,0,0-.007,9.151" transform="translate(-100.186 -46.159)" fill="#b8c1ea"/>
                  </g>
                </g>
              </g>
              <path id="Path_109303" data-name="Path 109303" d="M94.647,46.045l34.868,20.4a14.1,14.1,0,0,0,14.159.051l34.84-20.05c4.3-2.824,4.256-12.577,2.962-15.419L140.568,13.194a5.408,5.408,0,0,0-5.514-.04L95.093,34.681c-.262-1.949-1.869-2.421-1.9-2.277-.815,4.116-2.106,10.939,1.452,13.641" transform="translate(21.784 2.931)" fill="#545dbf"/>
              <path id="Path_109304" data-name="Path 109304" d="M96.173,38.177l34.32,20.08a12.917,12.917,0,0,0,12.968.046l35.16-20.234a6.18,6.18,0,0,0,.108-10.65L141.344,4.9a6.18,6.18,0,0,0-6.3-.046L96.182,27.505a6.179,6.179,0,0,0-.009,10.672" transform="translate(21.981 0.946)" fill="#dadef1"/>
              <path id="Path_109305" data-name="Path 109305" d="M263.107,198.546l-15.212,9.194a3.235,3.235,0,0,0-1.56,2.768V227.15a3.233,3.233,0,0,0,1.618,2.8l15.189,8.756a3.234,3.234,0,0,0,3.215.007l15.573-8.868a3.234,3.234,0,0,0,1.633-2.81V210.343a3.235,3.235,0,0,0-1.609-2.8l-15.55-9.028a3.235,3.235,0,0,0-3.3.028" transform="translate(58.15 46.759)" fill="url(#linear-gradient-6)"/>
              <path id="Path_109306" data-name="Path 109306" d="M270.151,221.44l-.206-6.287-18.388-11.085,4.966-2.965,18.579,11.04.01,6.471Z" transform="translate(59.383 47.472)" fill="#fff"/>
              <path id="Path_109307" data-name="Path 109307" d="M246.733,207.433l15.923,8.98a6.919,6.919,0,0,0,1.754.981c.546.085,1.174-.449,1.634-.7l9.329-5.2,7.6-4.232c.522-.29.054-1.091-.468-.8l-15.754,8.774c-.569.316-1.917.751-2.311,1.288-.007.009.424.265.2-.059-.173-.25-.863-.487-1.119-.632l-8.968-5.057-7.347-4.144a.464.464,0,0,0-.468.8" transform="translate(58.19 48.723)" fill="#26244a"/>
              <path id="Path_109308" data-name="Path 109308" d="M261.687,235.241v-20.2a.464.464,0,0,0-.927,0v20.2a.464.464,0,0,0,.927,0" transform="translate(61.555 50.656)" fill="#26244a"/>
              <path id="Path_109309" data-name="Path 109309" d="M272.086,224.751l3.489-2a.762.762,0,0,0,.384-.663v-1.509a.472.472,0,0,0-.712-.407l-3.381,1.995a.994.994,0,0,0-.488.855v1.321a.472.472,0,0,0,.707.409" transform="translate(64.062 51.958)" fill="#fff"/>
              <path id="Path_109310" data-name="Path 109310" d="M247.661,210.512c0,.957.01,2.551.019,3.409a1.056,1.056,0,0,0,.511.895l4.138,2.512a.46.46,0,0,0,.7-.386l.062-3.421a1.059,1.059,0,0,0-.523-.933l-4.211-2.47a.461.461,0,0,0-.695.394" transform="translate(58.463 49.585)" fill="#fff"/>
              <path id="Path_109311" data-name="Path 109311" d="M129.9,3.818l-15.213,9.194a3.234,3.234,0,0,0-1.559,2.768V32.422a3.233,3.233,0,0,0,1.618,2.8l15.189,8.756a3.234,3.234,0,0,0,3.215.007l15.572-8.868a3.231,3.231,0,0,0,1.633-2.81v-16.7a3.233,3.233,0,0,0-1.609-2.8L133.2,3.79a3.232,3.232,0,0,0-3.3.028" transform="translate(26.705 0.791)" fill="url(#linear-gradient)"/>
              <path id="Path_109312" data-name="Path 109312" d="M136.944,26.712l-.205-6.287L118.35,9.34l4.966-2.965L141.9,17.415l.01,6.471Z" transform="translate(27.938 1.505)" fill="#fff"/>
              <path id="Path_109313" data-name="Path 109313" d="M113.526,12.705l15.923,8.98a6.92,6.92,0,0,0,1.754.981c.546.085,1.174-.449,1.634-.7l9.329-5.2,7.6-4.232c.522-.29.054-1.091-.469-.8l-15.754,8.774c-.569.316-1.917.752-2.311,1.288-.007.009.424.265.2-.059-.174-.25-.864-.487-1.12-.632l-8.968-5.057L113.995,11.9a.464.464,0,0,0-.468.8" transform="translate(26.746 2.755)" fill="#26244a"/>
              <path id="Path_109314" data-name="Path 109314" d="M128.48,40.513V20.31a.464.464,0,0,0-.927,0v20.2a.464.464,0,0,0,.927,0" transform="translate(30.11 4.689)" fill="#26244a"/>
              <path id="Path_109315" data-name="Path 109315" d="M138.879,30.023l3.489-2a.762.762,0,0,0,.384-.663V25.849a.472.472,0,0,0-.712-.407l-3.381,1.995a.992.992,0,0,0-.488.855v1.321a.472.472,0,0,0,.707.409" transform="translate(32.617 5.99)" fill="#fff"/>
              <path id="Path_109316" data-name="Path 109316" d="M114.454,15.784c0,.957.01,2.551.019,3.409a1.059,1.059,0,0,0,.511.895l4.138,2.512a.46.46,0,0,0,.7-.386l.062-3.421a1.059,1.059,0,0,0-.523-.933l-4.211-2.47a.461.461,0,0,0-.695.394" transform="translate(27.018 3.618)" fill="#fff"/>
              <path id="Path_109317" data-name="Path 109317" d="M381.253,154.578l-11.443,6.916a2.435,2.435,0,0,0-1.174,2.081v12.519a2.432,2.432,0,0,0,1.217,2.107l11.426,6.587a2.435,2.435,0,0,0,2.418.006l11.715-6.671a2.431,2.431,0,0,0,1.229-2.114V163.452a2.432,2.432,0,0,0-1.211-2.1l-11.7-6.792a2.432,2.432,0,0,0-2.48.022" transform="translate(87.02 36.407)" fill="url(#linear-gradient-6)"/>
              <path id="Path_109318" data-name="Path 109318" d="M386.552,171.8l-.154-4.729-13.833-8.339L376.3,156.5l13.976,8.306.009,4.868Z" transform="translate(87.948 36.944)" fill="#fff"/>
              <path id="Path_109319" data-name="Path 109319" d="M368.9,161.384l12.022,6.781a4.833,4.833,0,0,0,1.342.74c.45.056.983-.393,1.349-.6l6.994-3.895q2.835-1.578,5.667-3.157c.523-.289.054-1.091-.469-.8q-5.842,3.256-11.689,6.51c-.255.142-1.808.758-1.88,1.047-.022.094.415.227.255-.028-.106-.169-.6-.336-.766-.433q-3.389-1.91-6.777-3.822l-5.578-3.147a.464.464,0,0,0-.468.8" transform="translate(87.029 37.862)" fill="#26244a"/>
              <path id="Path_109320" data-name="Path 109320" d="M380.321,182.2V167a.464.464,0,0,0-.927,0v15.2a.464.464,0,0,0,.927,0" transform="translate(89.56 39.317)" fill="#26244a"/>
              <path id="Path_109321" data-name="Path 109321" d="M388.007,174.291l2.625-1.507a.574.574,0,0,0,.289-.5v-1.135a.356.356,0,0,0-.536-.307l-2.543,1.5a.749.749,0,0,0-.367.644v.994a.355.355,0,0,0,.531.308" transform="translate(91.468 40.318)" fill="#fff"/>
              <path id="Path_109322" data-name="Path 109322" d="M369.634,163.579c0,.721.007,1.92.014,2.565a.8.8,0,0,0,.384.674l3.112,1.889a.347.347,0,0,0,.528-.29l.046-2.573a.8.8,0,0,0-.394-.7l-3.167-1.858a.347.347,0,0,0-.523.3" transform="translate(87.256 38.533)" fill="#fff"/>
              <path id="Path_109323" data-name="Path 109323" d="M26.125,50.753,8.252,61.555a3.8,3.8,0,0,0-1.834,3.251V84.359a3.8,3.8,0,0,0,1.9,3.292L26.165,97.938a3.8,3.8,0,0,0,3.777.01l18.3-10.42a3.8,3.8,0,0,0,1.918-3.3V64.613a3.8,3.8,0,0,0-1.891-3.285L30,50.719a3.8,3.8,0,0,0-3.873.033" transform="translate(1.515 11.851)" fill="#9eabdb"/>
              <path id="Path_109324" data-name="Path 109324" d="M34.4,77.651l-.242-7.387L12.554,57.241l5.835-3.484L40.218,66.729l.012,7.6Z" transform="translate(2.964 12.69)" fill="#fff"/>
              <path id="Path_109325" data-name="Path 109325" d="M6.912,61.109,25.5,71.59a8.123,8.123,0,0,0,2.23,1.242c.6.069,1.475-.67,1.962-.941l10.8-6.013,8.922-4.969c.52-.29.054-1.091-.468-.8L30.506,70.374l-1.709.952c-.227.127-.937.362-1.072.6-.022.04.438.281.141-.062a5.434,5.434,0,0,0-1.267-.714L16,65.169,7.381,60.308a.464.464,0,0,0-.468.8" transform="translate(1.578 14.174)" fill="#26244a"/>
              <path id="Path_109326" data-name="Path 109326" d="M24.359,93.851V70.114a.464.464,0,0,0-.927,0V93.851a.464.464,0,0,0,.927,0" transform="translate(5.531 16.445)" fill="#26244a"/>
              <path id="Path_109327" data-name="Path 109327" d="M36.675,81.542l4.1-2.352a.9.9,0,0,0,.451-.779V76.637a.555.555,0,0,0-.837-.477L36.418,78.5a1.166,1.166,0,0,0-.574,1v1.553a.554.554,0,0,0,.831.481" transform="translate(8.461 17.96)" fill="#fff"/>
              <path id="Path_109328" data-name="Path 109328" d="M7.977,64.811c-.006,1.125.011,3,.021,4a1.244,1.244,0,0,0,.6,1.052l4.863,2.952a.542.542,0,0,0,.823-.454l.073-4.02a1.246,1.246,0,0,0-.616-1.1l-4.948-2.9a.54.54,0,0,0-.816.462" transform="translate(1.883 15.172)" fill="#fff"/>
              <path id="Path_109329" data-name="Path 109329" d="M53.4,149.192l-15.212,9.194a3.235,3.235,0,0,0-1.56,2.768V177.8a3.233,3.233,0,0,0,1.618,2.8l15.189,8.756a3.234,3.234,0,0,0,3.215.007l15.573-8.868a3.234,3.234,0,0,0,1.633-2.81V160.989a3.235,3.235,0,0,0-1.609-2.8L56.7,149.164a3.235,3.235,0,0,0-3.3.028" transform="translate(8.647 35.108)" fill="url(#linear-gradient)"/>
              <path id="Path_109330" data-name="Path 109330" d="M60.445,172.086l-.206-6.287L41.851,154.715l4.966-2.965L65.4,162.79l.01,6.471Z" transform="translate(9.879 35.822)" fill="#fff"/>
              <path id="Path_109331" data-name="Path 109331" d="M37.027,158.08l15.923,8.98a6.934,6.934,0,0,0,1.753.981c.548.085,1.175-.449,1.635-.7l9.329-5.2,7.6-4.232c.522-.291.054-1.091-.468-.8l-15.754,8.774c-.569.316-1.917.752-2.311,1.288-.007.009.424.265.2-.059-.174-.25-.864-.487-1.12-.632l-8.968-5.057L37.5,157.279a.464.464,0,0,0-.468.8" transform="translate(8.687 37.073)" fill="#26244a"/>
              <path id="Path_109332" data-name="Path 109332" d="M51.981,185.888v-20.2a.464.464,0,0,0-.927,0v20.2a.464.464,0,0,0,.927,0" transform="translate(12.052 39.006)" fill="#26244a"/>
              <path id="Path_109333" data-name="Path 109333" d="M62.38,175.4l3.489-2a.762.762,0,0,0,.384-.662v-1.509a.472.472,0,0,0-.712-.407l-3.381,1.995a.994.994,0,0,0-.488.855v1.321a.472.472,0,0,0,.707.409" transform="translate(14.559 40.307)" fill="#fff"/>
              <path id="Path_109334" data-name="Path 109334" d="M37.955,161.158c0,.957.01,2.551.019,3.409a1.056,1.056,0,0,0,.51.895l4.138,2.512a.461.461,0,0,0,.7-.386l.061-3.421a1.059,1.059,0,0,0-.523-.933l-4.211-2.47a.461.461,0,0,0-.695.394" transform="translate(8.96 37.935)" fill="#fff"/>
              <path id="Path_109335" data-name="Path 109335" d="M177.574,280.447c.538-4.942-1.556-10.307-5.889-12.745-1.556-.876-3.742-1.321-4.955-.011a3.122,3.122,0,0,0-.58,2.879,7.3,7.3,0,0,0,1.486,2.651,25.8,25.8,0,0,0,9.938,7.226" transform="translate(39.194 62.997)" fill="#87b74e"/>
              <path id="Path_109336" data-name="Path 109336" d="M176.572,278.92A14.334,14.334,0,0,0,186,275.389a3.17,3.17,0,0,0,1.374-2.613,2.219,2.219,0,0,0-1.493-1.664,4.315,4.315,0,0,0-2.319-.059c-3.765.775-7.011,4.023-6.991,7.867" transform="translate(41.682 63.954)" fill="#87b74e"/>
              <path id="Path_109337" data-name="Path 109337" d="M170.479,271.1a24.029,24.029,0,0,1,7.456,14.818c.064.586.993.592.927,0a25,25,0,0,0-7.728-15.473c-.435-.408-1.091.246-.655.655" transform="translate(40.21 63.811)" fill="#26244a"/>
              <path id="Path_109338" data-name="Path 109338" d="M176.371,279.183l6.968-5.424a.468.468,0,0,0,0-.656.476.476,0,0,0-.655,0l-6.968,5.425a.465.465,0,0,0,0,.655.473.473,0,0,0,.655,0" transform="translate(41.448 64.438)" fill="#26244a"/>
              <path id="Path_109339" data-name="Path 109339" d="M338.7,193.444c.538-4.942-1.556-10.308-5.889-12.745-1.556-.876-3.742-1.321-4.955-.011a3.123,3.123,0,0,0-.58,2.879,7.3,7.3,0,0,0,1.486,2.651,25.8,25.8,0,0,0,9.938,7.226" transform="translate(77.228 42.459)" fill="#87b74e"/>
              <path id="Path_109340" data-name="Path 109340" d="M337.694,191.917a14.334,14.334,0,0,0,9.429-3.531,3.17,3.17,0,0,0,1.374-2.613A2.219,2.219,0,0,0,347,184.109a4.316,4.316,0,0,0-2.319-.059c-3.765.775-7.011,4.023-6.991,7.868" transform="translate(79.716 43.416)" fill="#87b74e"/>
              <path id="Path_109341" data-name="Path 109341" d="M331.6,184.1a24.028,24.028,0,0,1,7.456,14.818c.064.586.993.592.927,0a25,25,0,0,0-7.728-15.473c-.435-.408-1.091.246-.655.655" transform="translate(78.244 43.273)" fill="#26244a"/>
              <path id="Path_109342" data-name="Path 109342" d="M337.493,192.18l6.968-5.424a.466.466,0,0,0,0-.655.473.473,0,0,0-.655,0l-6.968,5.424a.465.465,0,0,0,0,.655.473.473,0,0,0,.655,0" transform="translate(79.482 43.9)" fill="#26244a"/>
              <path id="Path_109343" data-name="Path 109343" d="M203.506,13.579c.538-4.942-1.556-10.308-5.889-12.745-1.556-.876-3.742-1.321-4.955-.011a3.126,3.126,0,0,0-.58,2.879,7.3,7.3,0,0,0,1.486,2.651,25.8,25.8,0,0,0,9.938,7.226" transform="translate(45.315 0)" fill="#87b74e"/>
              <path id="Path_109344" data-name="Path 109344" d="M202.5,12.053a14.335,14.335,0,0,0,9.429-3.531,3.17,3.17,0,0,0,1.374-2.613,2.219,2.219,0,0,0-1.493-1.664,4.315,4.315,0,0,0-2.319-.059c-3.765.775-7.011,4.023-6.991,7.868" transform="translate(47.803 0.958)" fill="#87b74e"/>
              <path id="Path_109345" data-name="Path 109345" d="M196.411,4.236a24.029,24.029,0,0,1,7.456,14.818c.064.586.993.592.927,0a25,25,0,0,0-7.728-15.473c-.435-.408-1.091.246-.655.655" transform="translate(46.331 0.815)" fill="#26244a"/>
              <path id="Path_109346" data-name="Path 109346" d="M202.3,12.315l6.968-5.424a.465.465,0,0,0,0-.655.473.473,0,0,0-.655,0l-6.968,5.424a.465.465,0,0,0,0,.655.473.473,0,0,0,.655,0" transform="translate(47.569 1.441)" fill="#26244a"/>
              <path id="Path_109347" data-name="Path 109347" d="M83.772,200.264c.538-4.942-1.556-10.307-5.889-12.745-1.556-.876-3.742-1.321-4.955-.011a3.122,3.122,0,0,0-.58,2.879,7.3,7.3,0,0,0,1.486,2.651,25.8,25.8,0,0,0,9.938,7.226" transform="translate(17.051 44.069)" fill="#87b74e"/>
              <path id="Path_109348" data-name="Path 109348" d="M82.77,198.738a14.335,14.335,0,0,0,9.429-3.531,3.17,3.17,0,0,0,1.374-2.613,2.219,2.219,0,0,0-1.493-1.664,4.315,4.315,0,0,0-2.319-.059c-3.765.775-7.011,4.023-6.991,7.867" transform="translate(19.539 45.026)" fill="#87b74e"/>
              <path id="Path_109349" data-name="Path 109349" d="M76.677,190.921a24.029,24.029,0,0,1,7.456,14.818c.064.586.993.592.927,0a25,25,0,0,0-7.728-15.473c-.435-.408-1.091.246-.655.655" transform="translate(18.067 44.884)" fill="#26244a"/>
              <path id="Path_109350" data-name="Path 109350" d="M82.569,199l6.968-5.424a.466.466,0,0,0,0-.655.473.473,0,0,0-.655,0l-6.968,5.424a.465.465,0,0,0,0,.655.473.473,0,0,0,.655,0" transform="translate(19.305 45.51)" fill="#26244a"/>
              <path id="Path_109351" data-name="Path 109351" d="M117.261,100.582a20.1,20.1,0,1,1-20.1-20.1,20.1,20.1,0,0,1,20.1,20.1" transform="translate(18.19 18.998)" fill="#ffd300"/>
              <path id="Path_109352" data-name="Path 109352" d="M110.328,99.716A14.038,14.038,0,1,1,98.922,85.922a14.2,14.2,0,0,1,11.406,13.794.773.773,0,0,0,1.545,0,15.585,15.585,0,1,0-12.738,15.32,15.788,15.788,0,0,0,12.738-15.32.773.773,0,0,0-1.545,0" transform="translate(19.059 19.864)" fill="#ff8b0d"/>
              <path id="Path_109353" data-name="Path 109353" d="M97.043,102.245a4.09,4.09,0,0,1-2.213,1.148v.421a.788.788,0,0,1-.236.566.754.754,0,0,1-.559.245.708.708,0,0,1-.539-.236.813.813,0,0,1-.22-.575v-.371a4.677,4.677,0,0,1-2.069-.743,3.43,3.43,0,0,1-1.24-1.4,1.671,1.671,0,0,1-.169-.642.794.794,0,0,1,.244-.582.818.818,0,0,1,.6-.245.8.8,0,0,1,.508.169.959.959,0,0,1,.32.439,1.825,1.825,0,0,0,.692.92,3.028,3.028,0,0,0,1.15.5l.067-3.615a6.171,6.171,0,0,1-2.2-1.164,2.38,2.38,0,0,1-.8-1.875,2.676,2.676,0,0,1,.811-1.984,3.752,3.752,0,0,1,2.23-.988v-.356a.8.8,0,0,1,.227-.565.7.7,0,0,1,.532-.245.751.751,0,0,1,.557.245.791.791,0,0,1,.236.565v.339a3.859,3.859,0,0,1,2.137.776,2.025,2.025,0,0,1,.768,1.622.853.853,0,0,1-.236.617.768.768,0,0,1-.574.245.738.738,0,0,1-.515-.194.767.767,0,0,1-.245-.5.983.983,0,0,0-.414-.633,2.3,2.3,0,0,0-.954-.4l-.068,3.209q3.057,1,3.057,3.192a2.9,2.9,0,0,1-.878,2.1m-4.729-6.393a3.433,3.433,0,0,0,1.082.633l.017-2.718a2,2,0,0,0-1.074.465,1.132,1.132,0,0,0-.362.853,1.042,1.042,0,0,0,.337.768m3.606,5.362a1.389,1.389,0,0,0,.414-.979,1.209,1.209,0,0,0-.339-.82,3.011,3.011,0,0,0-1.147-.7l-.017,3.107a2.18,2.18,0,0,0,1.089-.608" transform="translate(21.198 21.497)" fill="#ff8b0d"/>
              <path id="Path_109354" data-name="Path 109354" d="M79.763,101.769A16.146,16.146,0,0,1,87.4,85.395a.773.773,0,0,0-.78-1.334,17.739,17.739,0,0,0-8.347,18.118c.159.979,1.648.564,1.489-.41" transform="translate(18.422 19.816)" fill="#fff"/>
              <path id="Path_109355" data-name="Path 109355" d="M87.589,84.412,88.612,84a.587.587,0,0,0,.263-.137.6.6,0,0,0,.2-.218.586.586,0,0,0,.091-.287.592.592,0,0,0-.014-.308.778.778,0,0,0-.356-.462l-.184-.078a.771.771,0,0,0-.41,0l-1.023.413a.571.571,0,0,0-.263.138.578.578,0,0,0-.2.216.586.586,0,0,0-.091.287.579.579,0,0,0,.014.308.781.781,0,0,0,.355.462l.185.078a.771.771,0,0,0,.41,0" transform="translate(20.445 19.471)" fill="#fff"/>
              <path id="Path_109356" data-name="Path 109356" d="M106.8,97.447a16.015,16.015,0,0,1-5.4,11c-.747.66.349,1.749,1.093,1.093a17.572,17.572,0,0,0,5.852-12.095c.058-.994-1.487-.99-1.545,0" transform="translate(23.878 22.828)" fill="#fff"/>
              <path id="Path_109357" data-name="Path 109357" d="M100.843,161.123,120.13,172q15.233,8.588,30.461,17.179l7.091,4c2.816,1.588,6.879.764,8.455-2.217a6.285,6.285,0,0,0-2.218-8.456l-19.286-10.877q-15.231-8.588-30.46-17.179-3.547-2-7.091-4c-2.816-1.588-6.88-.764-8.456,2.217a6.286,6.286,0,0,0,2.218,8.456" transform="translate(23.098 35.328)" fill="#b8c1ea"/>
              <path id="Path_109358" data-name="Path 109358" d="M129.567,175.6a6.487,6.487,0,0,1,4.335-8.341.464.464,0,0,0-.246-.894,7.409,7.409,0,0,0-4.983,9.481c.184.565,1.08.324.894-.246" transform="translate(30.287 39.267)" fill="#545dbf"/>
              <path id="Path_109359" data-name="Path 109359" d="M134.274,178.229a6.487,6.487,0,0,1,4.335-8.341.464.464,0,0,0-.246-.894,7.409,7.409,0,0,0-4.983,9.481c.184.565,1.08.324.894-.246" transform="translate(31.398 39.888)" fill="#545dbf"/>
              <path id="Path_109360" data-name="Path 109360" d="M138.858,180.843a6.487,6.487,0,0,1,4.335-8.341.464.464,0,0,0-.246-.894,7.409,7.409,0,0,0-4.983,9.481c.184.565,1.08.324.894-.246" transform="translate(32.48 40.505)" fill="#545dbf"/>
              <path id="Path_109361" data-name="Path 109361" d="M103.958,161.465a6.487,6.487,0,0,1,4.335-8.341.464.464,0,0,0-.246-.894,7.409,7.409,0,0,0-4.983,9.481c.184.565,1.08.324.894-.246" transform="translate(24.241 35.93)" fill="#545dbf"/>
              <path id="Path_109362" data-name="Path 109362" d="M109.014,164.123a6.487,6.487,0,0,1,4.335-8.341.464.464,0,0,0-.246-.894,7.409,7.409,0,0,0-4.983,9.481c.184.565,1.08.324.894-.246" transform="translate(25.435 36.558)" fill="#545dbf"/>
              <path id="Path_109363" data-name="Path 109363" d="M114.164,167.04A6.487,6.487,0,0,1,118.5,158.7a.464.464,0,0,0-.246-.894,7.409,7.409,0,0,0-4.983,9.481c.184.565,1.08.324.894-.246" transform="translate(26.651 37.246)" fill="#545dbf"/>
              <path id="Path_109364" data-name="Path 109364" d="M119.3,169.938a6.487,6.487,0,0,1,4.335-8.341.464.464,0,0,0-.246-.894,7.409,7.409,0,0,0-4.983,9.481c.184.565,1.08.324.894-.246" transform="translate(27.863 37.93)" fill="#545dbf"/>
              <path id="Path_109365" data-name="Path 109365" d="M124.652,172.855a6.487,6.487,0,0,1,4.335-8.341.464.464,0,0,0-.246-.894,7.409,7.409,0,0,0-4.983,9.481c.184.565,1.08.324.894-.246" transform="translate(29.126 38.619)" fill="#545dbf"/>
              <path id="Path_109366" data-name="Path 109366" d="M113.731,229.278l75.364,44.093a30.485,30.485,0,0,0,30.6.109L295,230.143c9.285-6.1,7.91-20.467,5.111-26.61l-87.125-45.258a11.687,11.687,0,0,0-11.917-.087l-86.371,46.527c-.565-4.212-4.481,0-4.542.305-1.761,8.9-4.114,18.416,3.578,24.258" transform="translate(25.585 36.967)" fill="url(#linear-gradient-10)"/>
              <path id="Path_109367" data-name="Path 109367" d="M146.015,221.648l-18.674,11.9L97.847,252.337l-6.865,4.374c-2.723,1.735-4.074,5.576-2.216,8.456,1.756,2.724,5.539,4.075,8.456,2.216l18.673-11.9,29.494-18.792,6.865-4.373c2.724-1.735,4.074-5.576,2.218-8.456-1.758-2.726-5.539-4.075-8.456-2.217" transform="translate(20.752 52.12)" fill="#b8c1ea"/>
              <path id="Path_109368" data-name="Path 109368" d="M108.544,239.752a6.584,6.584,0,0,1,5.325,7.921c-.125.581.769.829.894.246a7.509,7.509,0,0,0-5.973-9.06c-.582-.109-.833.785-.246.894" transform="translate(25.544 56.383)" fill="#545dbf"/>
              <path id="Path_109369" data-name="Path 109369" d="M133.357,223.746a6.583,6.583,0,0,1,5.325,7.919c-.125.582.769.831.894.247a7.509,7.509,0,0,0-5.973-9.06c-.582-.109-.833.785-.246.894" transform="translate(31.401 52.604)" fill="#545dbf"/>
              <path id="Path_109370" data-name="Path 109370" d="M128.527,226.944a6.584,6.584,0,0,1,5.325,7.921c-.125.581.769.829.894.246a7.509,7.509,0,0,0-5.973-9.06c-.582-.109-.833.785-.246.894" transform="translate(30.261 53.359)" fill="#545dbf"/>
              <path id="Path_109371" data-name="Path 109371" d="M123.42,230.1a6.583,6.583,0,0,1,5.325,7.919c-.125.582.769.831.894.247a7.509,7.509,0,0,0-5.973-9.06c-.582-.109-.833.785-.246.894" transform="translate(29.056 54.104)" fill="#545dbf"/>
              <path id="Path_109372" data-name="Path 109372" d="M118.437,233.5a6.583,6.583,0,0,1,5.325,7.919c-.125.582.769.831.894.247a7.509,7.509,0,0,0-5.973-9.06c-.582-.109-.833.785-.246.894" transform="translate(27.879 54.907)" fill="#545dbf"/>
              <path id="Path_109373" data-name="Path 109373" d="M113.316,236.834a6.584,6.584,0,0,1,5.325,7.921c-.125.581.769.829.894.246a7.509,7.509,0,0,0-5.973-9.06c-.582-.109-.833.785-.246.894" transform="translate(26.67 55.694)" fill="#545dbf"/>
              <path id="Path_109374" data-name="Path 109374" d="M273.263,152.309l-18.674,11.9L225.1,183l-6.865,4.374c-2.724,1.735-4.074,5.576-2.216,8.456,1.756,2.724,5.539,4.075,8.455,2.216l18.674-11.9,29.494-18.792,6.865-4.373c2.724-1.735,4.074-5.576,2.217-8.456-1.758-2.726-5.539-4.075-8.456-2.217" transform="translate(50.79 35.751)" fill="#b8c1ea"/>
              <path id="Path_109375" data-name="Path 109375" d="M235.793,170.413a6.584,6.584,0,0,1,5.325,7.921c-.125.581.769.829.894.246a7.509,7.509,0,0,0-5.973-9.06c-.582-.109-.833.785-.246.894" transform="translate(55.582 40.015)" fill="#545dbf"/>
              <path id="Path_109376" data-name="Path 109376" d="M260.606,154.407a6.584,6.584,0,0,1,5.325,7.921c-.125.581.769.829.894.246a7.509,7.509,0,0,0-5.973-9.06c-.582-.109-.833.785-.246.894" transform="translate(61.44 36.236)" fill="#545dbf"/>
              <path id="Path_109377" data-name="Path 109377" d="M255.776,157.605a6.584,6.584,0,0,1,5.325,7.921c-.125.581.769.829.894.246a7.509,7.509,0,0,0-5.973-9.06c-.582-.109-.833.785-.246.894" transform="translate(60.3 36.991)" fill="#545dbf"/>
              <path id="Path_109378" data-name="Path 109378" d="M250.669,160.76a6.583,6.583,0,0,1,5.325,7.919c-.125.582.769.831.894.247a7.509,7.509,0,0,0-5.973-9.06c-.582-.109-.833.785-.246.894" transform="translate(59.094 37.736)" fill="#545dbf"/>
              <path id="Path_109379" data-name="Path 109379" d="M245.686,164.163a6.584,6.584,0,0,1,5.325,7.921c-.125.581.769.829.894.246a7.509,7.509,0,0,0-5.973-9.06c-.582-.109-.833.785-.246.894" transform="translate(57.918 38.539)" fill="#545dbf"/>
              <path id="Path_109380" data-name="Path 109380" d="M240.565,167.5a6.586,6.586,0,0,1,5.325,7.921c-.126.581.768.829.892.246a7.509,7.509,0,0,0-5.973-9.06c-.581-.109-.833.785-.245.894" transform="translate(56.709 39.326)" fill="#545dbf"/>
              <path id="Path_109381" data-name="Path 109381" d="M228.541,234.905l19.672,10.163,31.07,16.051,7.232,3.735c2.87,1.483,6.842.839,8.456-2.216,1.5-2.834.85-6.871-2.217-8.456L273.081,244.02l-31.07-16.052-7.232-3.737c-2.87-1.482-6.842-.838-8.456,2.217-1.5,2.834-.849,6.871,2.218,8.456" transform="translate(53.244 52.752)" fill="#b8c1ea"/>
              <path id="Path_109382" data-name="Path 109382" d="M257.215,248.324a6.585,6.585,0,0,1,4.177-8.581c.565-.184.323-1.079-.246-.894a7.506,7.506,0,0,0-4.824,9.72c.2.559,1.094.319.894-.246" transform="translate(60.404 56.377)" fill="#545dbf"/>
              <path id="Path_109383" data-name="Path 109383" d="M262.353,250.87a6.585,6.585,0,0,1,4.177-8.581c.565-.184.323-1.079-.246-.894a7.506,7.506,0,0,0-4.824,9.72c.2.559,1.094.319.894-.246" transform="translate(61.617 56.978)" fill="#545dbf"/>
              <path id="Path_109384" data-name="Path 109384" d="M267.491,253.417a6.585,6.585,0,0,1,4.177-8.581c.565-.184.323-1.079-.246-.894a7.506,7.506,0,0,0-4.824,9.72c.2.559,1.094.319.894-.246" transform="translate(62.83 57.579)" fill="#545dbf"/>
              <path id="Path_109385" data-name="Path 109385" d="M272.628,255.963a6.585,6.585,0,0,1,4.177-8.581c.565-.184.323-1.079-.246-.894a7.508,7.508,0,0,0-4.824,9.72c.2.559,1.094.319.894-.246" transform="translate(64.043 58.18)" fill="#545dbf"/>
              <path id="Path_109386" data-name="Path 109386" d="M230.906,234.919a6.585,6.585,0,0,1,4.177-8.581c.565-.184.323-1.079-.246-.894a7.506,7.506,0,0,0-4.824,9.72c.2.559,1.094.319.894-.246" transform="translate(54.194 53.213)" fill="#545dbf"/>
              <path id="Path_109387" data-name="Path 109387" d="M236.1,237.488a6.585,6.585,0,0,1,4.177-8.581c.565-.184.323-1.079-.246-.894a7.508,7.508,0,0,0-4.824,9.72c.2.559,1.094.319.894-.246" transform="translate(55.42 53.819)" fill="#545dbf"/>
              <path id="Path_109388" data-name="Path 109388" d="M241.393,240.317a6.585,6.585,0,0,1,4.177-8.581c.565-.184.323-1.079-.246-.894a7.506,7.506,0,0,0-4.824,9.72c.2.559,1.094.319.894-.246" transform="translate(56.669 54.487)" fill="#545dbf"/>
              <path id="Path_109389" data-name="Path 109389" d="M246.84,242.913a6.585,6.585,0,0,1,4.177-8.581c.565-.184.323-1.079-.246-.894a7.506,7.506,0,0,0-4.824,9.72c.2.559,1.094.319.894-.246" transform="translate(57.955 55.1)" fill="#545dbf"/>
              <path id="Path_109390" data-name="Path 109390" d="M252.3,245.666a6.585,6.585,0,0,1,4.177-8.581c.565-.184.323-1.079-.246-.894a7.506,7.506,0,0,0-4.824,9.72c.2.559,1.094.319.894-.246" transform="translate(59.243 55.75)" fill="#545dbf"/>
              <path id="Path_109391" data-name="Path 109391" d="M115.927,219.6,190.105,263a27.923,27.923,0,0,0,28.028.1l75.994-43.736a13.356,13.356,0,0,0,.231-23.017l-80.8-48.683a13.356,13.356,0,0,0-13.62-.1l-83.993,48.968a13.357,13.357,0,0,0-.017,23.067" transform="translate(25.805 34.405)" fill="#dadef1"/>
              <path id="Path_109392" data-name="Path 109392" d="M247.428,201.372c0,12.895-22.75,23.347-50.812,23.347S145.8,214.266,145.8,201.372s22.748-23.347,50.812-23.347,50.812,10.452,50.812,23.347" transform="translate(34.419 42.025)" fill="#b8c1ea"/>
              <path id="Path_109393" data-name="Path 109393" d="M253.389,174.636a56.248,56.248,0,1,1-56.248-56.248,56.249,56.249,0,0,1,56.248,56.248" transform="translate(33.259 27.947)" fill="url(#linear-gradient-6)"/>
              <path id="Path_109394" data-name="Path 109394" d="M193.836,118.028a46.119,46.119,0,0,0-26.363,11.139,53.855,53.855,0,0,0-13.746,19.757c-4.581,11.084-5.269,23.48-3.415,35.238,1.776,11.259,5.957,22.343,13.28,31.187,7.749,9.357,19.285,15.77,31.575,15.909a.773.773,0,0,0,0-1.545c-10.7-.121-20.807-5.21-28.151-12.844-7.626-7.927-12.2-18.36-14.458-29.024-4.094-19.333-.611-40.679,13.525-55.215a44.351,44.351,0,0,1,27.753-13.058c.98-.1.99-1.643,0-1.545" transform="translate(35.257 27.861)" fill="#f5f5f5"/>
              <path id="Path_109395" data-name="Path 109395" d="M189.983,118.134c-6.934,4.032-12.459,10.478-16.724,17.179a57.76,57.76,0,0,0-8.4,24.32,138.573,138.573,0,0,0-.031,30.029c.838,8.938,2.351,18.815,7.118,26.6,4.578,7.472,12.149,12.319,20.159,15.456.926.362,1.328-1.131.41-1.491-7.054-2.763-13.833-6.939-18.245-13.237-5.052-7.211-6.75-16.772-7.7-25.358a148.184,148.184,0,0,1-.58-28c.7-8.711,2.627-17.192,6.966-24.836,4.28-7.539,10.217-14.922,17.8-19.331a.773.773,0,0,0-.78-1.334" transform="translate(38.721 27.861)" fill="#f5f5f5"/>
              <path id="Path_109396" data-name="Path 109396" d="M188.416,230.481a722.583,722.583,0,0,1-2.806-87.419q.274-12.139.864-24.266c.048-1-1.5-.993-1.545,0A832.862,832.862,0,0,0,185,206.282q.69,12.116,1.87,24.2c.1.98,1.643.99,1.545,0" transform="translate(43.391 27.867)" fill="#f5f5f5"/>
              <path id="Path_109397" data-name="Path 109397" d="M187.875,231.524c14.645-11.536,25.956-27.954,28.567-46.682a81.716,81.716,0,0,0-1.265-27.4,63.667,63.667,0,0,0-9.306-23.027,45.072,45.072,0,0,0-19.807-16.352c-.915-.386-1.314,1.109-.41,1.491,14.982,6.315,23.845,20.553,27.5,35.9a83.185,83.185,0,0,1,2.094,26.345,63.226,63.226,0,0,1-8.313,25.7,80.424,80.424,0,0,1-20.154,22.935c-.78.616.32,1.7,1.093,1.093" transform="translate(43.705 27.855)" fill="#f5f5f5"/>
              <path id="Path_109398" data-name="Path 109398" d="M185.865,119.572c8.986.035,17.889,4.484,25.1,9.521a51.445,51.445,0,0,1,10.388,9.392,40.259,40.259,0,0,1,6.866,13.284c3.429,10.64,3.556,22.212,1.7,33.167-1.808,10.7-5.723,21.805-13.066,30A47.675,47.675,0,0,1,187.335,230.2c-.979.1-.99,1.648,0,1.545a49.774,49.774,0,0,0,27.694-12.778c8.282-7.536,13.068-18.435,15.511-29.19,2.562-11.27,3.011-23.342.247-34.617a47.547,47.547,0,0,0-6.237-14.948,44.766,44.766,0,0,0-9.526-10c-8.059-6.409-18.6-12.137-29.159-12.178a.773.773,0,0,0,0,1.545" transform="translate(43.7 27.861)" fill="#f5f5f5"/>
              <path id="Path_109399" data-name="Path 109399" d="M147.035,140.5c5.2,12.315,19.278,17.835,31.581,19.871,15.215,2.518,31.657.829,45.777-5.5,7.378-3.305,14.153-8.1,18.979-14.654.591-.8-.75-1.574-1.334-.78-8.6,11.676-23.4,17.363-37.28,19.5-13.977,2.148-29.674,1.229-42.456-5.292-5.829-2.974-11.181-7.4-13.778-13.556-.381-.9-1.876-.506-1.489.41" transform="translate(34.694 32.837)" fill="#f5f5f5"/>
              <path id="Path_109400" data-name="Path 109400" d="M147.227,188.311c10.053,9.9,23.54,15.661,37.4,17.639a77.76,77.76,0,0,0,41.3-5.1,57.71,57.71,0,0,0,18.63-12.542c.7-.711-.4-1.8-1.093-1.093-9.321,9.528-22.066,14.976-35.1,17.053a76.679,76.679,0,0,1-40.853-4.52,59.544,59.544,0,0,1-19.2-12.532c-.71-.7-1.8.393-1.093,1.093" transform="translate(34.7 44.14)" fill="#f5f5f5"/>
              <path id="Path_109401" data-name="Path 109401" d="M140.793,165.353c3.4,4.35,8.222,7.566,13.021,10.179a88.221,88.221,0,0,0,20.574,7.877c16.917,4.28,35.244,4.386,51.868-1.231A74.751,74.751,0,0,0,254,165.353c.719-.688-.373-1.78-1.093-1.093-13.655,13.06-31.7,19.924-50.473,20.631a95.014,95.014,0,0,1-45.88-9.665c-5.4-2.728-10.893-6.135-14.67-10.966-.612-.782-1.7.318-1.093,1.093" transform="translate(33.194 38.712)" fill="#f5f5f5"/>
              <path id="Path_109402" data-name="Path 109402" d="M218.878,105.376a27.5,27.5,0,1,0-51.2,13.892h-.015l.078.1c1.054,1.777,2.376,3.048,3.711,4.915l15.967,21.15a4.965,4.965,0,0,0,7.926,0l15.7-20.8a59.163,59.163,0,0,0,3.994-5.292l.058-.075h-.011a27.334,27.334,0,0,0,3.8-13.892m-27.5,11.972a12.1,12.1,0,1,1,12.1-12.1,12.1,12.1,0,0,1-12.1,12.1" transform="translate(38.685 18.383)" fill="url(#linear-gradient-12)"/>
              <path id="Path_109403" data-name="Path 109403" d="M169.813,59.993a23.869,23.869,0,0,1-9.528,7.461.777.777,0,0,0-.277,1.057.793.793,0,0,0,1.057.277,25.146,25.146,0,0,0,10.081-8.015.777.777,0,0,0-.277-1.057.792.792,0,0,0-1.057.277" transform="translate(37.749 14.072)" fill="#ed796a"/>
              <path id="Path_109404" data-name="Path 109404" d="M244.9,22.828c-1.284,1.185-28.394,18.65-28.394,18.65s-25.925-8.264-41.2,7.488-15.108,37.732-9.88,44.979,13.319,4.718,14.621-1.7-4.12-15.954,4.363-21.133,17.349-5.546,22.035,6.414c2.795,7.136,30.842-1.355,30.842-1.355L266.6,61.965c0-17.708-8.125-34.395-21.7-39.137" transform="translate(38.295 5.389)" fill="#eec29b"/>
              <path id="Path_109405" data-name="Path 109405" d="M185.742,101.756c-2.838-1.324-3.036-4.289-1.958-7.23s3.559-5.116,6.039-7.028,5.123-3.768,6.772-6.431c1.712-2.768,3.524-8.708,4.306-11.866s.749-3.848,3.514-5.562,6.308-1.439,9.49-.758a45.289,45.289,0,0,1,10.329,3.556c1.528.743,3.25.7,4.306-.627,15.637-19.656,4.725,3.661.907,10.289-1.036,1.8-2.627,3.039-3.954,4.634-9.6,11.519-32.641,25.373-39.753,21.023" transform="translate(43.242 13.714)" fill="#eec29b"/>
              <path id="Path_109406" data-name="Path 109406" d="M150.3,72.732a17.946,17.946,0,0,0-4.447,5.987c-.894,2.341-.684,5.28,1.153,6.986,1.664,1.545,4.208,1.714,6.434,1.263,6.463-1.313,11.142-6.765,15.3-11.888l5.92-24.169c-8.317,7.05-16.646,14.11-24.355,21.82" transform="translate(34.308 12.018)" fill="#eec29b"/>
              <path id="Path_109407" data-name="Path 109407" d="M189.548,44.115a120.311,120.311,0,0,0-41.584,18.876c-1.557,1.106-3.18,2.376-3.733,4.205-.713,2.358.7,4.988,2.807,6.263a10.968,10.968,0,0,0,7.165,1.085" transform="translate(34.003 10.414)" fill="#eec29b"/>
              <path id="Path_109408" data-name="Path 109408" d="M203.7,37.457a120.313,120.313,0,0,0-44.716,9.272c-1.763.737-3.625,1.619-4.567,3.282-1.213,2.143-.413,5.02,1.362,6.728a10.976,10.976,0,0,0,6.753,2.633" transform="translate(36.314 8.842)" fill="#eec29b"/>
              <path id="Path_109409" data-name="Path 109409" d="M164.47,86.487A40.423,40.423,0,0,1,163.3,72.161a40.389,40.389,0,0,1,3.437-12.013c2.336-5.366,5.168-10.461,9.555-14.433A36.089,36.089,0,0,1,188.112,38.8c.925-.342.524-1.836-.412-1.489a35.855,35.855,0,0,0-17.793,13.479,51.248,51.248,0,0,0-4.206,7.89,45.332,45.332,0,0,0-3.716,11.64,41.52,41.52,0,0,0,1,16.579.773.773,0,0,0,1.489-.41" transform="translate(38.139 8.795)" fill="#cf9561"/>
              <path id="Path_109410" data-name="Path 109410" d="M170.538,53.17c-8.327,6.143-16.295,12.893-22.718,21.06-2.357,3-4.834,6.9-2.111,10.532,2.662,3.546,7.52,3.484,11.195,1.779,3.991-1.853,7.331-5.492,10.293-8.673.677-.727-.413-1.822-1.093-1.093-2.821,3.03-5.994,6.52-9.759,8.329-2.572,1.236-5.685,1.628-8.147-.085s-2.654-4.68-1.178-7.12a46.48,46.48,0,0,1,5.314-6.645c1.828-2.042,3.754-4,5.751-5.873A144.048,144.048,0,0,1,171.318,54.5c.791-.583.022-1.925-.78-1.334" transform="translate(34.115 12.517)" fill="#cf9561"/>
              <path id="Path_109411" data-name="Path 109411" d="M177.871,44.573C169.3,48.089,161.764,53.258,153.8,57.9c-4.175,2.435-11.209,5.9-10.149,11.754a6.379,6.379,0,0,0,3.372,4.514,5.728,5.728,0,0,0,3.895.822.773.773,0,0,0-.412-1.489c-1.623.465-3.871-1.164-4.664-2.407a4.977,4.977,0,0,1,.66-6.1,31.612,31.612,0,0,1,7.405-5.377c8.05-4.7,15.7-10,24.369-13.557.907-.372.51-1.868-.41-1.489" transform="translate(33.886 10.507)" fill="#cf9561"/>
              <path id="Path_109412" data-name="Path 109412" d="M154.36,51.133a9.6,9.6,0,0,0,9.217-6.5c.311-.947-1.18-1.352-1.489-.41a8.029,8.029,0,0,1-7.728,5.369c-1-.031-.994,1.514,0,1.545" transform="translate(36.262 10.312)" fill="#cf9561"/>
              <path id="Path_109413" data-name="Path 109413" d="M172.974,88.812c-.334-2.845-1.042-5.854-3.456-7.671a5.161,5.161,0,0,0-6.589.12.759.759,0,0,0-.2.752c1.7,5.538,7.7,10.769,13.724,8.221,4.99-2.11,4.519-8.116,4.452-12.615-.04-2.69-.206-5.368-.324-8.053a6.056,6.056,0,0,1,1.231-3.269c3.269-5.17,9.179-7.512,15.14-7.165.994.058.99-1.487,0-1.545a18.316,18.316,0,0,0-13.662,4.568c-1.873,1.722-4.352,4.6-4.261,7.327.083,2.449.266,4.894.316,7.346.062,3,.6,6.834-.876,9.578-1.7,3.164-5.545,3.505-8.511,2.169a11.439,11.439,0,0,1-5.74-6.973l-.2.752c1.66-1.45,3.978-.79,5.337.73a10.11,10.11,0,0,1,2.07,5.728c.115.975,1.661.988,1.545,0" transform="translate(38.407 13.585)" fill="#cf9561"/>
              <path id="Path_109414" data-name="Path 109414" d="M144.426,66.7a7.024,7.024,0,0,0,5.891-2.329,7.127,7.127,0,0,0,1.527-6.231c-.224-.969-1.713-.559-1.491.41a5.488,5.488,0,0,1-1.206,4.817,5.582,5.582,0,0,1-4.721,1.787.778.778,0,0,0-.773.773.79.79,0,0,0,.773.773" transform="translate(33.911 13.594)" fill="#cf9561"/>
              <path id="Path_109415" data-name="Path 109415" d="M146.615,80.778a11.788,11.788,0,0,0,4.623-5.273,6.109,6.109,0,0,0-.969-6.18c-.661-.745-1.75.351-1.093,1.093a4.637,4.637,0,0,1,.527,4.793,10.368,10.368,0,0,1-3.868,4.234c-.81.564-.038,1.9.78,1.334" transform="translate(34.345 16.306)" fill="#cf9561"/>
              <path id="Path_109416" data-name="Path 109416" d="M184.281,92.808a14.581,14.581,0,0,1,5.89-1.334,3.365,3.365,0,0,1,3.428,2.551.778.778,0,0,0,.951.54.793.793,0,0,0,.54-.951c-.31-2.033-2.31-3.391-4.248-3.633a14.209,14.209,0,0,0-6.97,1.336.8.8,0,0,0-.54.949.778.778,0,0,0,.951.54" transform="translate(43.27 21.226)" fill="#cf9561"/>
              <path id="Path_109417" data-name="Path 109417" d="M218.535,81.458a33.1,33.1,0,0,0,9.2-23.261.773.773,0,0,0-1.545,0,31.519,31.519,0,0,1-8.751,22.169c-.69.717.4,1.811,1.093,1.093" transform="translate(51.278 13.562)" fill="#cf9561"/>
              <path id="Path_109418" data-name="Path 109418" d="M325.78,63l-.266-13.979a3.249,3.249,0,0,0-1.667-2.779l-16.131-8.994a3.251,3.251,0,0,0-3.239.041l-37.2,21.981a3.26,3.26,0,0,0-1.6,2.863l.267,13.933a3.248,3.248,0,0,0,1.668,2.78l16.372,9.126a3.25,3.25,0,0,0,3.251-.048l36.957-22.07A3.254,3.254,0,0,0,325.78,63" transform="translate(62.717 8.696)" fill="url(#linear-gradient-6)"/>
              <path id="Path_109419" data-name="Path 109419" d="M281.19,64.147v0l-.229.4h0l-.681-.277c-.044-.241.01.346.015.454q.032.664.059,1.328.093,2.14.178,4.28.193,4.721.381,9.441.043,1.1.088,2.206c.023.595.951.6.927,0q-.31-7.819-.634-15.636a17.069,17.069,0,0,0-.12-2.319.466.466,0,0,0-.68-.277.488.488,0,0,0-.231.405c-.051.595.876.591.927,0" transform="translate(66.159 15.033)" fill="#44579b"/>
              <path id="Path_109420" data-name="Path 109420" d="M276.531,61.527v0l-.229.4h0l-.681-.277c-.044-.241.01.346.015.454q.031.664.059,1.328.093,2.14.178,4.28.193,4.721.381,9.441.045,1.1.088,2.206c.023.595.951.6.927,0q-.31-7.819-.634-15.636a17.064,17.064,0,0,0-.12-2.319.467.467,0,0,0-.68-.277.493.493,0,0,0-.231.405c-.051.595.876.591.927,0" transform="translate(65.059 14.414)" fill="#44579b"/>
              <path id="Path_109421" data-name="Path 109421" d="M271.031,58.416v0c-.077.133-.153.267-.229.4h0l-.681-.277c-.045-.241.01.346.015.454q.031.664.059,1.328.093,2.14.178,4.28.193,4.721.381,9.441.043,1.1.088,2.206c.023.595.951.6.927,0q-.31-7.819-.634-15.636a17.1,17.1,0,0,0-.12-2.319.466.466,0,0,0-.68-.277.488.488,0,0,0-.231.405c-.051.595.876.591.927,0" transform="translate(63.761 13.68)" fill="#44579b"/>
              <path id="Path_109422" data-name="Path 109422" d="M285.968,61.363v0l-.229.4h0l-.681-.277c-.043-.241.01.346.015.454q.032.664.059,1.328.093,2.14.178,4.28.193,4.721.381,9.441.043,1.1.088,2.206c.024.595.951.6.927,0q-.309-7.819-.634-15.636a17.064,17.064,0,0,0-.12-2.319.466.466,0,0,0-.68-.277.49.49,0,0,0-.231.405c-.051.595.876.591.927,0" transform="translate(67.287 14.376)" fill="#44579b"/>
              <path id="Path_109423" data-name="Path 109423" d="M290.9,58.79v0l-.229.4h0l-.681-.277c-.045-.241.01.346.015.454q.031.664.059,1.328.093,2.14.178,4.28.193,4.72.381,9.441.045,1.1.088,2.206c.023.593.951.6.927,0q-.31-7.819-.634-15.636a17.069,17.069,0,0,0-.12-2.319.466.466,0,0,0-.68-.277.488.488,0,0,0-.231.405c-.051.595.876.591.927,0" transform="translate(68.451 13.768)" fill="#44579b"/>
              <path id="Path_109424" data-name="Path 109424" d="M295.835,56.217v0l-.229.4h0l-.681-.277c-.044-.241.01.346.015.454q.032.664.059,1.328.093,2.14.178,4.28.193,4.721.381,9.441.043,1.1.088,2.205c.023.595.95.6.927,0q-.31-7.817-.634-15.635a17.059,17.059,0,0,0-.12-2.319.466.466,0,0,0-.68-.277.488.488,0,0,0-.231.405c-.051.595.876.591.927,0" transform="translate(69.616 13.161)" fill="#44579b"/>
              <path id="Path_109425" data-name="Path 109425" d="M300.768,53.012v0l-.229.4h0l-.681-.277c-.045-.241.01.346.015.454q.031.664.059,1.328.093,2.14.178,4.28.193,4.721.381,9.441.043,1.1.088,2.206c.023.595.951.6.927,0q-.31-7.819-.634-15.636a17.079,17.079,0,0,0-.12-2.319.466.466,0,0,0-.68-.277.488.488,0,0,0-.231.405c-.051.595.876.591.927,0" transform="translate(70.78 12.404)" fill="#44579b"/>
              <path id="Path_109426" data-name="Path 109426" d="M305.7,49.784v0c-.078.133-.153.267-.23.4h0l-.681-.277c-.043-.241.01.346.015.454.022.443.041.885.059,1.328q.093,2.14.178,4.28.193,4.721.381,9.441.045,1.1.088,2.206c.025.593.952.6.927,0q-.31-7.819-.634-15.636a17.288,17.288,0,0,0-.119-2.319.467.467,0,0,0-.681-.277.487.487,0,0,0-.23.405c-.052.595.875.591.927,0" transform="translate(71.945 11.642)" fill="#44579b"/>
              <path id="Path_109427" data-name="Path 109427" d="M310.635,47.211v0l-.229.4h0l-.681-.277c-.045-.241.01.346.015.454q.031.664.059,1.328.093,2.14.178,4.28.193,4.721.381,9.441.045,1.1.088,2.206c.023.595.951.6.927,0q-.31-7.819-.634-15.636a17.089,17.089,0,0,0-.12-2.319.466.466,0,0,0-.68-.277.488.488,0,0,0-.231.405c-.051.595.876.591.927,0" transform="translate(73.11 11.035)" fill="#44579b"/>
              <path id="Path_109428" data-name="Path 109428" d="M324.346,45.042c.047-.33.27-.188,0-.125a2.193,2.193,0,0,0-.483.3c-.569.342-1.143.675-1.717,1.007q-2.794,1.622-5.6,3.216-8.1,4.622-16.232,9.2-6.83,3.858-13.663,7.7a12.685,12.685,0,0,0-2.64,1.485c.106-.106.462.216.3-.048-.092-.148-.557-.293-.708-.372l-2.849-1.5L266.312,58.3c-.527-.278-1,.522-.467.8l13.018,6.861,3.473,1.831a7.422,7.422,0,0,0,1.612.849c.681.141,1.44-.524,2.025-.853q14.916-8.4,29.8-16.844c2.283-1.3,4.566-2.6,6.838-3.92.458-.266,2.534-1.075,2.627-1.734.083-.583-.811-.836-.894-.246" transform="translate(62.701 10.553)" fill="#44579b"/>
              <path id="Path_109451" data-name="Path 109451" d="M58.912,291.268c0,1.979.682,3.379,1.792,4.058.033.02,3.507,2.031,3.541,2.049,1.154.647.417-.819,2.169-1.832a14.082,14.082,0,0,0,6.392-11.023c0-2,1.852-2.019.717-2.687-.032-.02-3.727-2.064-3.759-2.081-1.152-.624-2.726-.509-4.461.493a14.079,14.079,0,0,0-6.392,11.023" transform="translate(13.907 65.947)" fill="#26244a"/>
              <path id="Path_109452" data-name="Path 109452" d="M61.906,292.967c0,4.051,2.861,5.681,6.39,3.644a14.083,14.083,0,0,0,6.392-11.023c0-4.051-2.861-5.682-6.392-3.644a14.081,14.081,0,0,0-6.39,11.023" transform="translate(14.614 66.348)" fill="url(#linear-gradient-14)"/>
              <path id="Path_109453" data-name="Path 109453" d="M67.907,284.241a9.115,9.115,0,0,0-4.131,7.125c0,2.613,1.853,3.67,4.131,2.355a9.113,9.113,0,0,0,4.131-7.125c0-2.613-1.853-3.67-4.131-2.355" transform="translate(15.055 66.964)" fill="#b8c1ea"/>
              <path id="Path_109454" data-name="Path 109454" d="M98.554,266.989c0,1.978.682,3.379,1.792,4.058.033.02,3.507,2.031,3.541,2.049,1.154.646.415-.819,2.169-1.832a14.082,14.082,0,0,0,6.39-11.023c0-2,1.852-2.018.718-2.687-.032-.02-3.727-2.064-3.759-2.082-1.152-.624-2.727-.509-4.462.493a14.081,14.081,0,0,0-6.39,11.023" transform="translate(23.265 60.216)" fill="#26244a"/>
              <path id="Path_109455" data-name="Path 109455" d="M101.549,268.689c0,4.051,2.86,5.681,6.389,3.644a14.083,14.083,0,0,0,6.392-11.023c0-4.051-2.861-5.682-6.392-3.644a14.08,14.08,0,0,0-6.389,11.023" transform="translate(23.972 60.617)" fill="#545dbf"/>
              <path id="Path_109456" data-name="Path 109456" d="M107.549,259.962a9.115,9.115,0,0,0-4.131,7.125c0,2.613,1.853,3.67,4.131,2.355a9.113,9.113,0,0,0,4.131-7.125c0-2.613-1.853-3.67-4.131-2.355" transform="translate(24.413 61.233)" fill="#b8c1ea"/>
              <path id="Path_109457" data-name="Path 109457" d="M48.048,295.278l-.01,6.586-26.318-18.6v-3.035Z" transform="translate(5.127 66.151)" fill="#26244a"/>
              <path id="Path_109458" data-name="Path 109458" d="M117.669,235.173,21.72,290.866l26.323,15.045,0,0V312.5l94.779-54.823a2.394,2.394,0,0,0,1.2-2.075v-3.639a3.039,3.039,0,0,0-1.535-2.642Z" transform="translate(5.127 55.515)" fill="#121a4e"/>
              <path id="Path_109459" data-name="Path 109459" d="M140.186,225.557a4.378,4.378,0,0,0-2.208-3.8l-.716-.408L47.747,275.394,24.5,261.042a3.612,3.612,0,0,0-1.8,3.122V293.2l25.284,14.383v.006l0,0,0,0v-.006l92.193-53.613Z" transform="translate(5.359 52.251)" fill="url(#linear-gradient-6)"/>
              <path id="Path_109460" data-name="Path 109460" d="M24.061,265.27l21.6,12.342a4.277,4.277,0,0,0,4.272-.015l88.454-51.357a1.067,1.067,0,0,0-.007-1.852L117.11,212.263a4.862,4.862,0,0,0-4.85.019l-88.2,51.2a1.034,1.034,0,0,0,.006,1.791" transform="translate(5.557 49.956)" fill="url(#linear-gradient-16)"/>
              <path id="Path_109461" data-name="Path 109461" d="M51.2,278.008,31.1,266.4a7.4,7.4,0,0,0-6.933-.251l-10.389,5.036c-2.121,1.205-7.792,4.48-9.558,11.461l-1.4,4.872A51.822,51.822,0,0,0,1.507,298.1v11.2c.011.02.021.037.033.057l24.552,13.9.1-.057v-9.872a35.766,35.766,0,0,1,1.661-10.776L31,292.594a8.957,8.957,0,0,1,4.119-5.091l16.085-9.38v-.115" transform="translate(0.356 62.653)" fill="url(#linear-gradient-17)"/>
              <path id="Path_109462" data-name="Path 109462" d="M21.469,310.849v10.043L34.684,313.3l1.016-5.829,10.886-6.481V275.647L30.34,285.119a8.958,8.958,0,0,0-4.126,5.115L23.1,300.182a35.721,35.721,0,0,0-1.63,10.667" transform="translate(5.068 65.069)" fill="url(#linear-gradient-17)"/>
              <path id="Path_109463" data-name="Path 109463" d="M21.77,300.309h0c0,5.088-5.369,7.53-9.84,5.006l-.332-.188c-4.377-2.471-7.272-6.321-7.272-11.3v-1.606a1.6,1.6,0,0,1,2.4-1.372l14.241,8.09a1.579,1.579,0,0,1,.8,1.372" transform="translate(1.021 68.607)" fill="#26244a"/>
              <path id="Path_109464" data-name="Path 109464" d="M35.583,291.581l-1.431.834a1.043,1.043,0,0,0-.517.9v.067a.479.479,0,0,0,.719.414l1.3-.755a1,1,0,0,0,.5-.866V291.9a.375.375,0,0,0-.564-.324" transform="translate(7.94 68.818)" fill="#545dbf"/>
              <path id="Path_109465" data-name="Path 109465" d="M27.519,316.053l.535-1.989a17.133,17.133,0,0,1,8.567-14.841l2.529-1.46L35.1,295.8,32.679,297a17.14,17.14,0,0,0-8.567,14.84v2.471Z" transform="translate(5.692 69.827)" fill="#121a4e"/>
              <path id="Path_109466" data-name="Path 109466" d="M.01,299.021,24.7,313.673a3.927,3.927,0,0,0,3.885,0l4.619-2.587v4.2l-4.677,2.635a3.925,3.925,0,0,1-3.879-.016L1.282,304.5A2.532,2.532,0,0,1,.01,302.3Z" transform="translate(0.002 70.587)" fill="#121a4e"/>
              <path id="Path_109467" data-name="Path 109467" d="M.435,300.125l24.27,13.853a3.932,3.932,0,0,0,3.887,0L33.21,311.4l-1.266-.723-3.342,1.89a3.925,3.925,0,0,1-3.92,0l-22.8-13.152.009-1.676-1.483.911a.861.861,0,0,0,.025,1.482" transform="translate(0 70.283)" fill="#121a4e"/>
              <path id="Path_109468" data-name="Path 109468" d="M42.812,266.068v31.523a.464.464,0,0,0,.927,0V266.068a.464.464,0,0,0-.927,0" transform="translate(10.106 62.702)" fill="#26244a"/>
              <path id="Path_109469" data-name="Path 109469" d="M22.3,319.225a68.793,68.793,0,0,1,1.279-17.034,70.2,70.2,0,0,1,1.929-7.434,28.121,28.121,0,0,1,2.616-6.542c1.722-2.645,5.182-4.467,7.8-6.069A112.215,112.215,0,0,1,46.6,276.384c.539-.255.069-1.054-.468-.8A110.108,110.108,0,0,0,34.7,281.808c-2.507,1.571-5.741,3.372-7.381,5.938A28.463,28.463,0,0,0,24.78,294a69.048,69.048,0,0,0-2.1,7.94,69.78,69.78,0,0,0-1.313,17.281c.028.595.955.6.927,0" transform="translate(5.026 65.043)" fill="#26244a"/>
              <path id="Path_109470" data-name="Path 109470" d="M37.174,289.434c-.1-1.24-.1-3.426-.124-5.122a1.334,1.334,0,0,0-1.656-1.286,21.573,21.573,0,0,0-2.854,1.439,8.508,8.508,0,0,0-3.012,2.124,8.247,8.247,0,0,0-1.065,2.648q-.873,3.206-1.748,6.411a1.091,1.091,0,0,0-.022.743.736.736,0,0,0,.758.352,2.173,2.173,0,0,0,.818-.342l7.708-4.56a1.977,1.977,0,0,0,1.2-2.407" transform="translate(6.287 66.796)" fill="#dadef1"/>
              <path id="Path_109471" data-name="Path 109471" d="M28.887,288.3a4.465,4.465,0,0,0-2.388-2.274C21,282.977,14.349,279.511,8.66,276.4a1.569,1.569,0,0,0-2.236.86c-1.151,3.225-3.182,8.252-2.518,10.115.276.773,1.632,1.721,2.513,2.255,4.811,2.921,9.223,5.238,13.576,7.765a14.967,14.967,0,0,0,2.148,1.248,3.237,3.237,0,0,0,2.428.038A4.465,4.465,0,0,0,26.5,296.43a31.1,31.1,0,0,0,2.241-5.873,4.157,4.157,0,0,0,.146-2.259" transform="translate(0.891 65.2)" fill="#dadef1"/>
              <path id="Path_109472" data-name="Path 109472" d="M4.168,292.115l14.74,8.827,2.078,1.243c.494.3.938-.5.444-.8l-14.74-8.827-2.077-1.245c-.495-.3-.939.506-.445.8" transform="translate(1.145 68.753)" fill="url(#linear-gradient-14)"/>
              <path id="Path_109473" data-name="Path 109473" d="M4.168,294.476l14.74,8.827,2.078,1.244c.494.3.938-.5.444-.8L6.691,294.92l-2.077-1.245c-.495-.3-.939.506-.445.8" transform="translate(1.145 69.31)" fill="url(#linear-gradient-14)"/>
              <path id="Path_109474" data-name="Path 109474" d="M4.071,297.071l14.74,8.827,2.078,1.243c.494.3.938-.5.444-.8l-14.74-8.827L4.517,296.27c-.495-.3-.939.506-.445.8" transform="translate(1.122 69.922)" fill="url(#linear-gradient-14)"/>
              <path id="Path_109475" data-name="Path 109475" d="M19.264,304.815a.837.837,0,0,0-.912-.106,1.276,1.276,0,0,0-.549.57,1.443,1.443,0,0,0-.18.9,1.134,1.134,0,0,0,1.057.906,1.2,1.2,0,0,0,1.138-.823,1.506,1.506,0,0,0-.554-1.447" transform="translate(4.157 71.909)" fill="#f2a441"/>
              <path id="Path_109476" data-name="Path 109476" d="M3.864,296.776a.837.837,0,0,0-.912-.106,1.282,1.282,0,0,0-.549.57,1.443,1.443,0,0,0-.18.9,1.134,1.134,0,0,0,1.057.906,1.2,1.2,0,0,0,1.138-.823,1.505,1.505,0,0,0-.554-1.447" transform="translate(0.521 70.011)" fill="#f2a441"/>
              <path id="Path_109477" data-name="Path 109477" d="M46.114,297.142a5.6,5.6,0,0,1-.732-2.58c-1.481,1.015-3.107,2.074-4.9,1.971a17.389,17.389,0,0,1-2.845-.671,7.821,7.821,0,0,0-6.444,1.425l.613,3.36a6.3,6.3,0,0,1,8.371,2.726l4.928-2.813a3.107,3.107,0,0,0,1.052-.825,2.746,2.746,0,0,0-.044-2.593" transform="translate(7.364 69.534)" fill="#121a4e"/>
              <path id="Path_109478" data-name="Path 109478" d="M26.2,310.027c0,1.979.682,3.379,1.792,4.058.033.021,3.507,2.031,3.541,2.049,1.154.646.415-.82,2.169-1.832a14.078,14.078,0,0,0,6.39-11.023c0-2,1.852-2.019.718-2.687l-3.759-2.082c-1.152-.624-2.727-.509-4.462.493a14.082,14.082,0,0,0-6.39,11.023" transform="translate(6.185 70.376)" fill="#121a4e"/>
              <path id="Path_109479" data-name="Path 109479" d="M29.195,311.727c0,4.051,2.861,5.681,6.39,3.644a14.083,14.083,0,0,0,6.392-11.023c0-4.051-2.861-5.682-6.392-3.644a14.081,14.081,0,0,0-6.39,11.023" transform="translate(6.892 70.777)" fill="url(#linear-gradient-14)"/>
              <path id="Path_109480" data-name="Path 109480" d="M35.2,303a9.115,9.115,0,0,0-4.131,7.125c0,2.613,1.853,3.67,4.131,2.355a9.115,9.115,0,0,0,4.131-7.125c0-2.613-1.853-3.67-4.131-2.355" transform="translate(7.333 71.393)" fill="#b8c1ea"/>
              <path id="Path_109481" data-name="Path 109481" d="M44.213,307.7l9.275-5.321L75.77,289.6l26.971-15.472,23.342-13.39,7.711-4.424a25.748,25.748,0,0,0,3.685-2.114,1.224,1.224,0,0,1,.171-.1.464.464,0,0,0-.469-.8l-9.275,5.32L105.623,271.4,78.653,286.876l-23.341,13.39L47.6,304.688a25.943,25.943,0,0,0-3.685,2.114,1,1,0,0,1-.171.1.464.464,0,0,0,.468.8" transform="translate(10.273 59.779)" fill="#545dbf"/>
              <path id="Path_109482" data-name="Path 109482" d="M108.308,254.994,96.766,261.97a2.452,2.452,0,0,0-1.184,2.1V276.7a2.454,2.454,0,0,0,1.227,2.125l11.525,6.644a2.453,2.453,0,0,0,2.44.006l11.817-6.729a2.454,2.454,0,0,0,1.239-2.132V263.944a2.452,2.452,0,0,0-1.221-2.121l-11.8-6.852a2.453,2.453,0,0,0-2.5.022" transform="translate(22.563 60.11)" fill="#4092e2"/>
              <path id="Path_109483" data-name="Path 109483" d="M113.653,272.364l-.156-4.77-13.953-8.411,3.767-2.25,14.1,8.378.009,4.91Z" transform="translate(23.499 60.652)" fill="#dadef1"/>
              <path id="Path_109484" data-name="Path 109484" d="M95.849,261.854l12.127,6.839a4.854,4.854,0,0,0,1.353.748c.451.056.988-.4,1.357-.6l7.054-3.929q2.859-1.591,5.717-3.184c.522-.289.054-1.09-.467-.8L111.2,267.492c-.255.142-1.826.766-1.895,1.056-.022.094.412.229.251-.028-.106-.171-.6-.339-.771-.435l-6.838-3.856-5.627-3.174a.464.464,0,0,0-.468.8" transform="translate(22.573 61.579)" fill="#26244a"/>
              <path id="Path_109485" data-name="Path 109485" d="M107.364,282.857v-15.33a.464.464,0,0,0-.927,0v15.33a.464.464,0,0,0,.927,0" transform="translate(25.126 63.047)" fill="#26244a"/>
              <path id="Path_109486" data-name="Path 109486" d="M115.121,274.876l2.648-1.519a.58.58,0,0,0,.292-.5v-1.146a.358.358,0,0,0-.54-.308l-2.565,1.514a.751.751,0,0,0-.371.648v1a.358.358,0,0,0,.536.31" transform="translate(27.049 64.055)" fill="#dadef1"/>
              <path id="Path_109487" data-name="Path 109487" d="M96.589,264.072c0,.726.007,1.936.014,2.587a.807.807,0,0,0,.387.679l3.141,1.906a.35.35,0,0,0,.531-.293l.047-2.6a.805.805,0,0,0-.4-.708l-3.2-1.874a.349.349,0,0,0-.527.3" transform="translate(22.801 62.255)" fill="#dadef1"/>
              <path id="Path_109488" data-name="Path 109488" d="M94.6,263.485l-11.542,6.976a2.452,2.452,0,0,0-1.184,2.1v12.629a2.454,2.454,0,0,0,1.227,2.125l11.525,6.644a2.453,2.453,0,0,0,2.44.006l11.817-6.729a2.454,2.454,0,0,0,1.239-2.132V272.435a2.452,2.452,0,0,0-1.221-2.121l-11.8-6.851a2.453,2.453,0,0,0-2.5.022" transform="translate(19.328 62.115)" fill="#f2a441"/>
              <path id="Path_109489" data-name="Path 109489" d="M99.949,280.855l-.156-4.77L85.84,267.674l3.768-2.25,14.1,8.378.009,4.91Z" transform="translate(20.264 62.656)" fill="#dadef1"/>
              <path id="Path_109490" data-name="Path 109490" d="M82.145,270.345l12.127,6.839a4.851,4.851,0,0,0,1.354.748c.451.056.988-.4,1.357-.6l7.054-3.929,5.717-3.183c.522-.29.054-1.091-.467-.8l-11.793,6.567c-.255.142-1.826.766-1.895,1.056-.022.094.412.229.251-.028-.106-.171-.6-.339-.771-.435l-6.838-3.857-5.627-3.174a.464.464,0,0,0-.468.8" transform="translate(19.338 63.584)" fill="#26244a"/>
              <path id="Path_109491" data-name="Path 109491" d="M93.66,291.348V276.019a.464.464,0,0,0-.927,0v15.329a.464.464,0,0,0,.927,0" transform="translate(21.891 65.051)" fill="#26244a"/>
              <path id="Path_109492" data-name="Path 109492" d="M101.417,283.367l2.648-1.519a.58.58,0,0,0,.292-.5V280.2a.358.358,0,0,0-.54-.308l-2.565,1.514a.751.751,0,0,0-.371.648v1a.358.358,0,0,0,.536.31" transform="translate(23.814 66.059)" fill="#dadef1"/>
              <path id="Path_109493" data-name="Path 109493" d="M82.884,272.563c0,.727.007,1.936.014,2.587a.8.8,0,0,0,.387.679l3.141,1.906a.349.349,0,0,0,.532-.293l.047-2.6a.805.805,0,0,0-.4-.708l-3.2-1.874a.349.349,0,0,0-.527.3" transform="translate(19.566 64.259)" fill="#dadef1"/>
              <path id="Path_109494" data-name="Path 109494" d="M100.417,246.263l-11.542,6.976a2.452,2.452,0,0,0-1.184,2.1v12.629a2.452,2.452,0,0,0,1.229,2.125l11.524,6.644a2.453,2.453,0,0,0,2.44.006l11.817-6.729a2.454,2.454,0,0,0,1.239-2.132V255.213a2.452,2.452,0,0,0-1.221-2.121l-11.8-6.851a2.453,2.453,0,0,0-2.5.022" transform="translate(20.7 58.049)" fill="#ef6856"/>
              <path id="Path_109495" data-name="Path 109495" d="M105.762,263.634l-.156-4.77-13.953-8.411,3.768-2.25,14.1,8.378.009,4.91Z" transform="translate(21.636 58.591)" fill="#dadef1"/>
              <path id="Path_109496" data-name="Path 109496" d="M87.958,253.124l12.127,6.839a4.853,4.853,0,0,0,1.353.748c.451.056.988-.4,1.357-.6l7.054-3.929L115.567,253c.522-.29.054-1.091-.467-.8l-11.793,6.567c-.255.142-1.826.766-1.895,1.056-.022.094.412.229.251-.028-.106-.171-.6-.339-.771-.435L94.053,255.5l-5.627-3.174a.464.464,0,0,0-.468.8" transform="translate(20.71 59.518)" fill="#26244a"/>
              <path id="Path_109497" data-name="Path 109497" d="M99.473,274.127V258.8a.464.464,0,0,0-.927,0v15.33a.464.464,0,0,0,.927,0" transform="translate(23.263 60.986)" fill="#26244a"/>
              <path id="Path_109498" data-name="Path 109498" d="M107.23,266.146l2.648-1.519a.58.58,0,0,0,.292-.5V262.98a.358.358,0,0,0-.54-.309l-2.565,1.514a.752.752,0,0,0-.371.649v1a.358.358,0,0,0,.536.31" transform="translate(25.186 61.994)" fill="#dadef1"/>
              <path id="Path_109499" data-name="Path 109499" d="M88.7,255.341c0,.727.007,1.936.014,2.587a.8.8,0,0,0,.387.679l3.141,1.906a.349.349,0,0,0,.532-.293l.047-2.6a.805.805,0,0,0-.4-.708l-3.2-1.874a.349.349,0,0,0-.527.3" transform="translate(20.938 60.194)" fill="#dadef1"/>
              <path id="Path_109500" data-name="Path 109500" d="M378.245,75.379a3.544,3.544,0,0,0-3.534.044L267.788,138.763c-16.781,9.054-19.43,22.886-10.033,29.576.012.012-.025-.017-.009-.006a54.3,54.3,0,0,0,16.786,7.639c7.258,1.723,18.414,1.278,27.8-1.36a80.146,80.146,0,0,0,19.186-8.233l86.341-51.194a3.357,3.357,0,0,0,1.617-2.439l3.232-15.27a3.544,3.544,0,0,0-1.74-3.828Z" transform="translate(59.576 17.688)" fill="url(#linear-gradient-23)"/>
              <path id="Path_109501" data-name="Path 109501" d="M375.825,83.13l-93.438,53.141c-15.032,7.584-27.457,14.414-26.317,22.938l1.386,2.478a3.451,3.451,0,0,0,1.271,1.187l.818.883c8.188,4.609,28.6-.929,39.806-6.505l63.6-35.769,38.44-24.06Z" transform="translate(60.431 19.624)" fill="#b8c1ea"/>
              <path id="Path_109502" data-name="Path 109502" d="M339.393,95.911l-.352-27.961L379.2,72.359l.36,28.125c.058.305-.629,1.042-1,1.264l-13.142,7.767a3.154,3.154,0,0,1-2.833-.068L340.1,96.882c-.493-.272-.732-.633-.706-.972" transform="translate(80.034 16.04)" fill="#8e98d8"/>
              <path id="Path_109503" data-name="Path 109503" d="M365.031,81.177l13.678-8.2c.718-.43.615-1.159-.231-1.628L356,58.783a3.152,3.152,0,0,0-2.834-.068l-13.678,8.2c-.718.431-.615,1.161.231,1.629L362.2,81.109a3.153,3.153,0,0,0,2.834.068" transform="translate(80.026 13.788)" fill="#8e98d8"/>
              <path id="Path_109504" data-name="Path 109504" d="M339.013,65.687a1.246,1.246,0,0,0,.7.807l22.48,12.566a3.154,3.154,0,0,0,2.833.068l13.679-8.2a.893.893,0,0,0,.466-.593l.042,3.3a.8.8,0,0,1-.464.832l-13.678,8.2a3.156,3.156,0,0,1-2.834-.068l-22.48-12.566c-.492-.272-.732-.633-.7-.972Z" transform="translate(80.028 15.506)" fill="#b8c1ea"/>
              <path id="Path_109505" data-name="Path 109505" d="M358.954,85.067q-6.239,3.612-12.468,7.241-14.36,8.356-28.685,16.77-15.888,9.337-31.7,18.8c-7.369,4.428-14.806,8.8-21.951,13.584-3.648,2.443-6.9,5.493-8.6,9.659a10.024,10.024,0,0,0,1.333,9.82c1.989,2.613,4.86,3.692,8.023,4.049,7.932.9,16.249-1.069,23.755-3.447a83.41,83.41,0,0,0,9.734-3.969c10.07-4.661,19.831-10.006,29.528-15.39,11.647-6.468,23.18-13.144,34.659-19.906q15.268-8.99,30.414-18.19,8.162-4.95,16.291-9.956l.765-.473c.507-.313.042-1.116-.467-.8q-5.492,3.4-11.01,6.751-13.437,8.193-26.958,16.242-16.815,10-33.8,19.709c-10.405,5.912-20.868,11.744-31.547,17.15-9.106,4.611-18.09,8.662-28.2,10.562a48.58,48.58,0,0,1-11.108.948c-3.342-.148-6.671-.737-8.985-3.4-5.121-5.891-.344-13.582,4.952-17.4,5.942-4.278,12.382-7.944,18.638-11.733q15.105-9.144,30.34-18.071,14.864-8.761,29.775-17.443,8.468-4.936,16.948-9.853l.8-.46a.464.464,0,0,0-.469-.8" transform="translate(60.154 20.065)" fill="#26244a"/>
              <path id="Path_109506" data-name="Path 109506" d="M338.866,66.176l16.33,9.01c1.831,1.01,3.64,2.085,5.5,3.035,3.767,1.922,6.733-.214,9.875-2.085l8.919-5.313a.464.464,0,0,0-.468-.8l-7.172,4.272c-2.992,1.782-6.646,4.926-10.29,3.305-1.91-.849-3.718-2.012-5.546-3.021L345.8,68.946l-6.471-3.571c-.523-.288-.991.513-.469.8" transform="translate(79.939 15.418)" fill="#26244a"/>
              <path id="Path_109507" data-name="Path 109507" d="M359.113,76.1q.213,16.774.429,33.547a.464.464,0,0,0,.927,0q-.215-16.772-.429-33.547a.464.464,0,0,0-.927,0" transform="translate(84.772 17.858)" fill="#26244a"/>
              <path id="Path_109508" data-name="Path 109508" d="M339.861,82.035l-6.975,4.184a1.889,1.889,0,0,0-.92,1.646L332.1,98.61a1.891,1.891,0,0,0,.959,1.622l21.868,12.4a1.9,1.9,0,0,0,1.907-.023l6.953-4.172a1.892,1.892,0,0,0,.918-1.646l-.14-10.9a1.892,1.892,0,0,0-.967-1.627L341.759,82.007a1.889,1.889,0,0,0-1.9.027" transform="translate(78.364 19.301)" fill="#8abb2a"/>
              <path id="Path_109509" data-name="Path 109509" d="M332.277,86.671c-.4.072-.251-.007.1.189s.669.379,1,.572c1.108.638,2.209,1.286,3.311,1.933q4.635,2.724,9.259,5.472,3.918,2.323,7.832,4.653c.208.124,1.274.973,1.527.909-.209.053-.218-.722-.185.154q.033.91.066,1.822.174,4.774.347,9.551c.021.595.948.6.927,0q-.157-4.337-.315-8.672a14.553,14.553,0,0,0-.117-3.234c-.142-.485-.639-.651-1.061-.9q-8.618-5.13-17.257-10.228c-1.323-.779-2.646-1.557-3.978-2.324-.42-.242-1.172-.884-1.7-.79-.587.1-.339,1,.246.894" transform="translate(78.3 20.246)" fill="#26244a"/>
              <path id="Path_109510" data-name="Path 109510" d="M351.018,97.961l.108-.046.451.775c-.173.178.088-.047.167-.1l.654-.415q1.053-.667,2.109-1.33,2.338-1.474,4.676-2.943l1.084-.68c.5-.318.038-1.12-.469-.8q-3.864,2.427-7.723,4.861a6.26,6.26,0,0,0-1.153.75.467.467,0,0,0,.45.774c.011,0,.105-.043.115-.047.538-.257.068-1.057-.468-.8" transform="translate(82.806 21.8)" fill="#26244a"/>
              <path id="Path_109511" data-name="Path 109511" d="M331.013,87.559l-6.975,4.184a1.889,1.889,0,0,0-.92,1.646l.137,10.745a1.89,1.89,0,0,0,.959,1.622l21.868,12.4a1.9,1.9,0,0,0,1.907-.023l6.953-4.172a1.892,1.892,0,0,0,.918-1.646l-.14-10.9a1.893,1.893,0,0,0-.967-1.627L332.911,87.531a1.889,1.889,0,0,0-1.9.027" transform="translate(76.275 20.605)" fill="#dc5a49"/>
              <path id="Path_109512" data-name="Path 109512" d="M323.43,92.2c-.4.072-.251-.007.1.189s.669.379,1,.572c1.108.638,2.209,1.285,3.311,1.933q4.635,2.724,9.259,5.472,3.918,2.323,7.832,4.653c.208.124,1.274.973,1.527.909-.209.053-.218-.722-.185.155l.066,1.822q.174,4.774.347,9.551c.021.595.948.6.927,0q-.158-4.337-.315-8.672a14.544,14.544,0,0,0-.117-3.234c-.142-.485-.639-.651-1.06-.9q-8.618-5.13-17.257-10.228c-1.323-.779-2.646-1.557-3.978-2.324-.42-.242-1.172-.884-1.7-.79-.587.1-.339,1,.246.894" transform="translate(76.212 21.55)" fill="#26244a"/>
              <path id="Path_109513" data-name="Path 109513" d="M342.17,103.484l.108-.046.451.775c-.174.178.089-.047.167-.1l.654-.415q1.053-.667,2.109-1.33,2.338-1.474,4.676-2.943l1.084-.68c.5-.316.038-1.12-.468-.8q-3.864,2.427-7.723,4.861a6.279,6.279,0,0,0-1.153.75.467.467,0,0,0,.45.774c.011,0,.105-.043.115-.047.538-.257.068-1.057-.469-.8" transform="translate(80.717 23.104)" fill="#26244a"/>
              <path id="Path_109514" data-name="Path 109514" d="M321.766,92.705l-6.975,4.184a1.89,1.89,0,0,0-.92,1.646l.137,10.745a1.89,1.89,0,0,0,.959,1.622l21.868,12.4a1.9,1.9,0,0,0,1.907-.023l6.953-4.172a1.892,1.892,0,0,0,.918-1.646l-.14-10.9a1.893,1.893,0,0,0-.967-1.627L323.664,92.678a1.889,1.889,0,0,0-1.9.027" transform="translate(74.093 21.82)" fill="#545dbf"/>
              <path id="Path_109515" data-name="Path 109515" d="M314.183,97.342c-.4.072-.251-.007.1.189s.669.379,1,.572c1.107.638,2.209,1.285,3.311,1.933q4.637,2.724,9.259,5.472,3.918,2.323,7.832,4.653c.208.124,1.274.973,1.527.909-.209.053-.218-.722-.185.154q.033.91.065,1.822.174,4.774.347,9.551c.021.595.948.6.927,0q-.158-4.337-.315-8.672a14.553,14.553,0,0,0-.117-3.234c-.142-.485-.639-.651-1.061-.9q-8.618-5.13-17.255-10.228c-1.324-.779-2.648-1.557-3.979-2.324-.42-.242-1.172-.884-1.7-.79-.587.1-.339,1,.246.894" transform="translate(74.029 22.765)" fill="#26244a"/>
              <path id="Path_109516" data-name="Path 109516" d="M332.923,108.631l.108-.046.451.775c-.173.178.088-.047.167-.1l.654-.415q1.053-.667,2.109-1.33,2.338-1.474,4.676-2.943l1.084-.68c.5-.316.038-1.12-.468-.8q-3.864,2.427-7.723,4.861a6.26,6.26,0,0,0-1.153.75.467.467,0,0,0,.45.774c.011,0,.105-.043.115-.047.538-.257.068-1.057-.468-.8" transform="translate(78.534 24.319)" fill="#26244a"/>
              <path id="Path_109517" data-name="Path 109517" d="M313.509,97.73l-6.975,4.183a1.893,1.893,0,0,0-.92,1.648l.137,10.745a1.891,1.891,0,0,0,.959,1.622l21.868,12.4a1.89,1.89,0,0,0,1.907-.023l6.953-4.17a1.893,1.893,0,0,0,.918-1.648l-.14-10.9a1.892,1.892,0,0,0-.967-1.627L315.407,97.7a1.889,1.889,0,0,0-1.9.027" transform="translate(72.143 23.007)" fill="#ffd300"/>
              <path id="Path_109518" data-name="Path 109518" d="M305.925,102.367c-.4.072-.251-.007.1.189s.669.379,1,.572c1.107.638,2.209,1.285,3.311,1.933q4.635,2.724,9.259,5.472,3.918,2.323,7.832,4.653c.208.124,1.274.973,1.527.908-.209.053-.218-.722-.185.155q.033.91.065,1.822.174,4.774.347,9.55c.021.6.948.6.927,0q-.158-4.335-.315-8.671a14.555,14.555,0,0,0-.117-3.234c-.142-.485-.639-.651-1.061-.9q-8.618-5.13-17.257-10.228c-1.323-.779-2.646-1.557-3.978-2.324-.42-.242-1.172-.884-1.7-.79-.587.1-.339,1,.246.894" transform="translate(72.08 23.952)" fill="#26244a"/>
              <path id="Path_109519" data-name="Path 109519" d="M324.666,113.656l.107-.046.451.775c-.173.178.088-.047.167-.1l.654-.415q1.053-.667,2.109-1.33,2.338-1.474,4.676-2.943.541-.339,1.084-.68c.5-.318.038-1.12-.469-.8q-3.864,2.427-7.723,4.861a6.257,6.257,0,0,0-1.153.75.467.467,0,0,0,.45.774c.011,0,.105-.043.115-.047.538-.257.068-1.057-.468-.8" transform="translate(76.585 25.505)" fill="#26244a"/>
              <path id="Path_109520" data-name="Path 109520" d="M330.31,77.089l-6.975,4.183a1.893,1.893,0,0,0-.92,1.648l.137,10.745a1.891,1.891,0,0,0,.959,1.622l21.868,12.4a1.89,1.89,0,0,0,1.907-.023l6.953-4.17a1.893,1.893,0,0,0,.918-1.648l-.14-10.9a1.892,1.892,0,0,0-.967-1.627L332.208,77.061a1.889,1.889,0,0,0-1.9.027" transform="translate(76.109 18.134)" fill="#8abb2a"/>
              <path id="Path_109521" data-name="Path 109521" d="M322.727,81.725c-.4.072-.251-.007.1.189s.669.379,1,.572c1.107.638,2.209,1.286,3.311,1.933q4.637,2.724,9.259,5.472,3.918,2.323,7.832,4.653c.208.124,1.274.973,1.527.908-.209.053-.218-.722-.185.155q.033.91.066,1.822.174,4.774.347,9.551c.021.595.948.6.927,0q-.158-4.337-.315-8.672a14.551,14.551,0,0,0-.117-3.234c-.142-.485-.639-.651-1.061-.9q-8.618-5.13-17.256-10.228c-1.324-.779-2.647-1.557-3.978-2.324-.422-.242-1.173-.884-1.7-.79-.587.1-.339,1,.246.894" transform="translate(76.046 19.079)" fill="#26244a"/>
              <path id="Path_109522" data-name="Path 109522" d="M341.467,93.015l.107-.046.451.775c-.173.178.088-.047.167-.1l.654-.415q1.053-.667,2.109-1.33,2.338-1.474,4.676-2.943l1.084-.68c.5-.316.038-1.12-.469-.8q-3.864,2.427-7.723,4.861a6.263,6.263,0,0,0-1.153.75.467.467,0,0,0,.45.774c.011,0,.105-.043.115-.047.538-.257.068-1.057-.468-.8" transform="translate(80.551 20.632)" fill="#26244a"/>
              <path id="Path_109523" data-name="Path 109523" d="M298.486,105.662l-6.975,4.184a1.889,1.889,0,0,0-.92,1.646l.137,10.745a1.891,1.891,0,0,0,.959,1.622l21.868,12.4a1.89,1.89,0,0,0,1.907-.023l6.953-4.17a1.892,1.892,0,0,0,.918-1.646l-.14-10.9a1.893,1.893,0,0,0-.967-1.627l-21.844-12.249a1.889,1.889,0,0,0-1.9.027" transform="translate(68.597 24.879)" fill="#8abb2a"/>
              <path id="Path_109524" data-name="Path 109524" d="M290.9,110.3c-.4.072-.251-.007.1.189s.669.379,1,.572c1.108.638,2.209,1.285,3.311,1.933q4.635,2.724,9.259,5.472,3.918,2.323,7.832,4.653c.208.124,1.274.973,1.526.909-.209.053-.218-.722-.185.154q.033.91.065,1.822.174,4.774.347,9.551c.021.595.948.6.927,0l-.315-8.672a14.548,14.548,0,0,0-.117-3.234c-.142-.485-.639-.651-1.06-.9q-8.618-5.13-17.257-10.228c-1.323-.779-2.646-1.557-3.978-2.324-.42-.242-1.172-.884-1.7-.79-.587.1-.339,1,.246.894" transform="translate(68.534 25.824)" fill="#26244a"/>
              <path id="Path_109525" data-name="Path 109525" d="M309.643,121.589l.108-.046.451.775c-.174.178.089-.047.167-.1l.654-.415q1.053-.667,2.109-1.33,2.338-1.474,4.676-2.943l1.084-.68c.5-.316.038-1.12-.469-.8q-3.864,2.427-7.723,4.861a6.284,6.284,0,0,0-1.153.75.467.467,0,0,0,.45.774c.011,0,.105-.043.115-.047.538-.257.068-1.057-.469-.8" transform="translate(73.039 27.378)" fill="#26244a"/>
              <path id="Path_109526" data-name="Path 109526" d="M289.066,111.45l-6.975,4.184a1.889,1.889,0,0,0-.92,1.646l.137,10.745a1.89,1.89,0,0,0,.959,1.622l21.868,12.4a1.89,1.89,0,0,0,1.907-.023L313,137.849a1.893,1.893,0,0,0,.918-1.648l-.14-10.9a1.893,1.893,0,0,0-.967-1.627l-21.844-12.249a1.889,1.889,0,0,0-1.9.027" transform="translate(66.373 26.245)" fill="#dc5a49"/>
              <path id="Path_109527" data-name="Path 109527" d="M281.483,116.086c-.4.072-.251-.007.1.189s.669.379,1,.572c1.108.638,2.209,1.285,3.311,1.933q4.635,2.724,9.259,5.472,3.918,2.323,7.832,4.653c.208.124,1.274.973,1.527.908-.209.053-.218-.722-.185.155q.033.91.066,1.822.174,4.774.347,9.551c.021.595.948.6.927,0q-.158-4.337-.315-8.672a14.54,14.54,0,0,0-.117-3.234c-.142-.485-.639-.651-1.061-.9q-8.618-5.13-17.257-10.228c-1.322-.779-2.646-1.557-3.978-2.324-.42-.242-1.172-.884-1.7-.79-.587.1-.339,1,.246.894" transform="translate(66.31 27.19)" fill="#26244a"/>
              <path id="Path_109528" data-name="Path 109528" d="M300.223,127.375l.107-.046.451.775c-.174.178.089-.047.167-.1l.654-.415q1.053-.667,2.109-1.33,2.338-1.474,4.676-2.943l1.084-.68c.5-.316.038-1.12-.468-.8q-3.864,2.427-7.723,4.861a6.28,6.28,0,0,0-1.153.75.467.467,0,0,0,.45.774c.011,0,.105-.043.115-.047.538-.257.068-1.057-.468-.8" transform="translate(70.815 28.743)" fill="#26244a"/>
              <path id="Path_109529" data-name="Path 109529" d="M274.3,120.108l-6.779,4.065a1.841,1.841,0,0,0-.894,1.6l.133,10.441a1.838,1.838,0,0,0,.932,1.576l21.251,12.048a1.84,1.84,0,0,0,1.853-.023l6.756-4.053a1.837,1.837,0,0,0,.892-1.6l-.135-10.6a1.84,1.84,0,0,0-.939-1.581l-21.227-11.9a1.838,1.838,0,0,0-1.845.027" transform="translate(62.941 28.291)" fill="#ffd300"/>
              <path id="Path_109530" data-name="Path 109530" d="M266.939,124.629c-.4.072-.262-.014.084.183q.488.276.973.555c1.075.62,2.147,1.25,3.218,1.879q4.505,2.648,9,5.318,3.808,2.258,7.612,4.521c.205.124,1.234.943,1.483.884-.211.051-.217-.722-.187.138q.032.884.064,1.77.169,4.641.336,9.282c.022.595.949.6.927,0q-.152-4.214-.305-8.427a14.559,14.559,0,0,0-.114-3.142c-.137-.478-.624-.642-1.037-.887q-8.375-4.986-16.77-9.939c-1.287-.756-2.572-1.514-3.865-2.258-.414-.239-1.145-.862-1.663-.769-.587.1-.339,1,.246.894" transform="translate(62.877 29.207)" fill="#26244a"/>
              <path id="Path_109531" data-name="Path 109531" d="M285.141,135.576l.108-.046.451.775c-.173.178.082-.042.16-.093l.637-.4,2.048-1.293q2.271-1.431,4.545-2.859l1.052-.661c.5-.316.04-1.119-.469-.8q-3.755,2.36-7.5,4.725a6.106,6.106,0,0,0-1.124.73.467.467,0,0,0,.45.774c.011,0,.105-.043.115-.047.538-.257.068-1.057-.468-.8" transform="translate(67.255 30.716)" fill="#26244a"/>
              <path id="Path_109532" data-name="Path 109532" d="M319.314,83.787l-6.975,4.183a1.891,1.891,0,0,0-.921,1.648l.138,10.745a1.888,1.888,0,0,0,.959,1.622l21.867,12.4a1.89,1.89,0,0,0,1.907-.023l6.953-4.17a1.893,1.893,0,0,0,.92-1.646l-.14-10.9a1.893,1.893,0,0,0-.968-1.627L321.211,83.759a1.887,1.887,0,0,0-1.9.027" transform="translate(73.514 19.715)" fill="#dc5a49"/>
              <path id="Path_109533" data-name="Path 109533" d="M311.73,88.423c-.4.072-.251-.007.1.189s.669.379,1,.572c1.108.638,2.209,1.286,3.311,1.933q4.637,2.724,9.259,5.472,3.918,2.323,7.832,4.653c.208.124,1.274.973,1.527.909-.209.053-.218-.722-.185.155l.066,1.822q.174,4.774.347,9.551c.021.595.948.6.927,0q-.158-4.337-.315-8.672a14.551,14.551,0,0,0-.117-3.234c-.142-.485-.639-.651-1.061-.9q-8.618-5.13-17.255-10.228c-1.324-.779-2.648-1.557-3.978-2.324-.422-.242-1.173-.884-1.7-.79-.587.1-.339,1,.246.894" transform="translate(73.45 20.66)" fill="#26244a"/>
              <path id="Path_109534" data-name="Path 109534" d="M330.471,99.713l.108-.046.451.775c-.173.178.088-.047.167-.1l.654-.415q1.053-.667,2.109-1.33,2.338-1.474,4.676-2.943l1.084-.68c.5-.316.038-1.12-.468-.8q-3.864,2.427-7.723,4.861a6.26,6.26,0,0,0-1.153.75.467.467,0,0,0,.45.774c.011,0,.105-.043.115-.047.538-.257.068-1.057-.469-.8" transform="translate(77.955 22.214)" fill="#26244a"/>
              <path id="Path_109535" data-name="Path 109535" d="M340.233,76.3l20.943,11.394-.061-4.79L340.162,71.465Z" transform="translate(80.299 16.87)" fill="#fff"/>
              <path id="Path_109536" data-name="Path 109536" d="M361.064,82.1l.049,3.854L374.1,77.932l-.058-3.581Z" transform="translate(85.233 17.551)" fill="#fff"/>
              <path id="Path_109537" data-name="Path 109537" d="M293.2,98.233l-6.975,4.183a1.893,1.893,0,0,0-.92,1.648l.137,10.745a1.89,1.89,0,0,0,.959,1.622l21.868,12.4a1.89,1.89,0,0,0,1.907-.023l6.953-4.17a1.893,1.893,0,0,0,.918-1.648l-.14-10.9a1.893,1.893,0,0,0-.967-1.627L295.1,98.205a1.889,1.889,0,0,0-1.9.027" transform="translate(67.35 23.125)" fill="#ffd300"/>
              <path id="Path_109538" data-name="Path 109538" d="M285.62,102.869c-.4.072-.251-.007.1.189s.669.379,1,.572c1.107.638,2.209,1.285,3.311,1.933q4.637,2.724,9.259,5.472,3.918,2.323,7.832,4.653c.208.124,1.274.973,1.527.909-.209.053-.218-.722-.186.154l.066,1.822q.174,4.774.347,9.551c.021.595.948.6.927,0q-.157-4.337-.315-8.672a14.545,14.545,0,0,0-.117-3.234c-.142-.485-.639-.651-1.06-.9q-8.618-5.13-17.255-10.228c-1.324-.779-2.648-1.557-3.978-2.324-.421-.242-1.173-.884-1.7-.79-.587.1-.339,1,.246.894" transform="translate(67.286 24.07)" fill="#26244a"/>
              <path id="Path_109539" data-name="Path 109539" d="M304.361,114.158l.107-.046.451.775c-.173.178.088-.047.167-.1l.654-.415q1.053-.667,2.109-1.33,2.338-1.474,4.676-2.943l1.084-.68c.5-.316.038-1.12-.469-.8q-3.864,2.427-7.723,4.861a6.259,6.259,0,0,0-1.153.75.467.467,0,0,0,.45.774c.011,0,.105-.043.115-.047.538-.257.068-1.057-.468-.8" transform="translate(71.792 25.623)" fill="#26244a"/>
              <path id="Path_109540" data-name="Path 109540" d="M260.618,166.957c28.27,2.847,53.336-13.489,76.4-27.5,19.15-11.631,38.57-22.836,57.813-34.314q7.861-4.687,15.717-9.384a.464.464,0,0,0-.469-.8q-20.2,12.085-40.445,24.107-14.175,8.419-28.384,16.776c-11.358,6.685-22.364,13.966-34.217,19.778-14.406,7.063-30.208,12.043-46.418,10.41-.593-.059-.588.868,0,.927" transform="translate(61.417 22.4)" fill="#26244a"/>
              <path id="Path_109541" data-name="Path 109541" d="M315.37,237.4s-9.619-13.414-11.026-13.521a3.835,3.835,0,0,0-3.63,2.5c-.611,1.6,1.221,17.587,1.221,17.587l13.432-6.067" transform="translate(70.957 52.847)" fill="#545dbf"/>
              <path id="Path_109542" data-name="Path 109542" d="M286.011,281.458c-2.9,1.583-9.772,5.23-11.712,7.8s-2.493,6.346-.7,9.016c1.775,2.639,5.377,3.566,8.5,2.976s5.864-2.423,8.379-4.368,10.147-8.807,10.147-8.807" transform="translate(64.329 66.441)" fill="url(#linear-gradient-23)"/>
              <path id="Path_109543" data-name="Path 109543" d="M275.233,290.182c-.822.721-1.11,2.622-.692,3.946a4.976,4.976,0,0,0,2.635,3.063,3.926,3.926,0,0,0,3.941-.422,3.991,3.991,0,0,0,.7-5.139c-1.031-1.592-4.489-3.346-6.585-1.448" transform="translate(64.763 68.305)" fill="url(#linear-gradient-10)"/>
              <path id="Path_109544" data-name="Path 109544" d="M237.666,253.161c-2.9,1.583-9.772,5.23-11.712,7.8s-2.493,6.346-.7,9.016c1.775,2.639,5.377,3.566,8.5,2.976s5.863-2.424,8.379-4.368,10.147-8.807,10.147-8.807" transform="translate(52.917 59.761)" fill="url(#linear-gradient-23)"/>
              <path id="Path_109545" data-name="Path 109545" d="M225.788,263.927a4.905,4.905,0,0,0,1.089,3.476,4.415,4.415,0,0,0,2.847,1.765,2.2,2.2,0,0,0,2.321-1.508,4.512,4.512,0,0,0-1.546-4.468c-1.266-1.017-4.125-1.456-4.711.735" transform="translate(53.286 61.931)" fill="url(#linear-gradient-10)"/>
              <path id="Path_109546" data-name="Path 109546" d="M287.6,268.91s63.342,16.5,65.65,21.417c.749,1.6-.687,8.788-48.859,4.152s-43.979-9.251-43.979-9.251Z" transform="translate(61.452 63.479)" fill="url(#linear-gradient-6)"/>
              <path id="Path_109547" data-name="Path 109547" d="M343.21,233.315c5.185,4.763.311,9.917-3.758,14.23-4.819,5.107-11.162,11.652-15.186,15.123-7.212,6.221-72.031,41.821-79.456,44.1s-17.6-1.243-12.452-12.341,30.7-23.484,39.763-29.233,51.334-26.165,51.334-26.165l11.5-6.8a6.333,6.333,0,0,1,8.259,1.089" transform="translate(54.52 54.572)" fill="url(#linear-gradient-6)"/>
              <path id="Path_109548" data-name="Path 109548" d="M346.578,246.263s-1.876,4.625-6.512,4.834-30.572-2.582-30.572-2.582l8.718-10.8Z" transform="translate(73.06 56.115)" fill="url(#linear-gradient-6)"/>
              <path id="Path_109549" data-name="Path 109549" d="M272.09,266.85s-37.2-26.106-39.323-27.481c-2.224-1.44-5.906.455-6.032,1.834-1.378,15,15.511,42.56,18.431,39.078Z" transform="translate(53.504 56.384)" fill="url(#linear-gradient-6)"/>
              <path id="Path_109550" data-name="Path 109550" d="M322.428,240.426c-1.489-.069-17.269,10.615-18.092,9.618s4.78-24.845,9.154-33.869c1.611-3.321,9.083-5.444,9.083-5.444Z" transform="translate(71.823 49.745)" fill="url(#linear-gradient-6)"/>
              <path id="Path_109551" data-name="Path 109551" d="M346.459,291.182a84.047,84.047,0,0,1-13.649,1.021c-5.863.074-11.729-.136-17.579-.5a289.751,289.751,0,0,1-38.3-4.729,106.582,106.582,0,0,1-16.317-4.3c-.56-.206-.8.688-.246.894,10.537,3.891,22,5.56,33.087,6.991a286.989,286.989,0,0,0,37.962,2.583,89.638,89.638,0,0,0,15.291-1.067c.587-.1.339-1-.246-.894" transform="translate(61.388 66.721)" fill="#26244a"/>
              <path id="Path_109552" data-name="Path 109552" d="M321.608,226.962l-15.137,9.032,6.017-19.9s7.06-6.058,9.12-5.235Z" transform="translate(72.346 49.756)" fill="url(#linear-gradient-33)"/>
              <path id="Path_109553" data-name="Path 109553" d="M234.479,294.58c8.545-8.845,20.155-14.589,30.814-20.443,10.293-5.652,20.715-11.069,31.151-16.45q7.895-4.071,15.807-8.115,3.549-1.817,7.1-3.638c.959-.493,2.535-.874,2.932-1.923.773-2.046,1.111-4.376,1.671-6.489.962-3.64,1.959-7.272,3.035-10.88a59.809,59.809,0,0,1,3.461-9.9c1.56-3.09,5.734-4.646,8.9-5.479l-.587-.447-.126,26q-.009,1.848-.017,3.7a.464.464,0,0,0,.927,0l.126-25.994q.009-1.85.017-3.7a.467.467,0,0,0-.586-.446c-3.046.8-6.786,2.242-8.78,4.789-1.435,1.833-2.088,4.492-2.8,6.657-2.2,6.649-3.978,13.446-5.7,20.231a6.324,6.324,0,0,1-.482,1.908,11.888,11.888,0,0,1-1.688.782l-3.733,1.916q-7.8,4-15.592,7.992c-10.792,5.546-21.572,11.121-32.237,16.908-5.976,3.241-11.95,6.513-17.774,10.021-5.875,3.539-11.7,7.392-16.49,12.348-.415.429.24,1.085.655.655" transform="translate(55.165 49.657)" fill="#26244a"/>
              <path id="Path_109554" data-name="Path 109554" d="M321.771,238.538c-4.7.674-6.719,5.549-8.046,9.494-.19.566.7.81.894.246,1.23-3.656,3.031-8.22,7.4-8.847.588-.084.339-.978-.246-.894" transform="translate(74.052 56.308)" fill="#26244a"/>
              <path id="Path_109555" data-name="Path 109555" d="M293.568,268.073l-33.309,18.1c-.524.284-.057,1.085.467.8l33.311-18.1c.524-.285.057-1.087-.468-.8" transform="translate(61.383 63.267)" fill="#26244a"/>
              <path id="Path_109556" data-name="Path 109556" d="M294.648,264.587c-11.1,6.034-31.15,17.29-42.253,23.323l.8-3.885,41.718-23.2Z" transform="translate(59.581 61.571)" fill="#fff"/>
              <path id="Path_109557" data-name="Path 109557" d="M233.858,280.146s-1.835,5.378,3.048,7.089c3.348,1.173,10.394-.811,16.18-5.314l-.685,3.87s-7.52,5.236-14.1,4.81a7.644,7.644,0,0,1-5.756-3,4.572,4.572,0,0,1-.963-3.179,12,12,0,0,1,2.278-4.272" transform="translate(54.662 66.131)" fill="#fff"/>
            </g>
          </g>
        </g>
      </g>
    </g>
  </g>
</svg>
