<svg xmlns="http://www.w3.org/2000/svg" xmlns:xlink="http://www.w3.org/1999/xlink" width="18" height="18" viewBox="0 0 18 18">
  <defs>
    <linearGradient id="linear-gradient" x1="0.5" x2="0.5" y2="1" gradientUnits="objectBoundingBox">
      <stop offset="0" stop-color="#121a4e"/>
      <stop offset="1" stop-color="#2f3f92"/>
    </linearGradient>
    <clipPath id="clip-path">
      <rect id="Rectangle_22123" data-name="Rectangle 22123" width="18" height="18" fill="url(#linear-gradient)"/>
    </clipPath>
  </defs>
  <g id="export" transform="translate(0 0)">
    <g id="Group_66878" data-name="Group 66878" transform="translate(0 0)" clip-path="url(#clip-path)">
      <path id="Path_82217" data-name="Path 82217" d="M.97,18A.97.97,0,0,1,0,17.03V.971A.972.972,0,0,1,.971,0H13.445A4.56,4.56,0,0,1,18,4.555v.43a.97.97,0,0,1-1.941,0v-.43a2.617,2.617,0,0,0-2.613-2.613H2.117l-.177.176V15.883l.177.176H13.445a2.617,2.617,0,0,0,2.614-2.613v-.431a.97.97,0,0,1,1.941,0v.431A4.56,4.56,0,0,1,13.445,18Zm11.281-5.68a.748.748,0,0,1-.523-.216v0a.74.74,0,0,1,0-1.048l1.014-1.014-.125-.3H5.341a.741.741,0,1,1,0-1.481h7.276l.125-.3L11.728,6.943a.741.741,0,1,1,1.046-1.049l2.581,2.582A.745.745,0,0,1,15.572,9a.737.737,0,0,1-.217.524l-2.58,2.58a.745.745,0,0,1-.524.217" transform="translate(0 0)" fill-rule="evenodd" fill="url(#linear-gradient)"/>
    </g>
  </g>
</svg>
