<svg id="Group_99315" data-name="Group 99315" xmlns="http://www.w3.org/2000/svg" xmlns:xlink="http://www.w3.org/1999/xlink" width="18" height="18" viewBox="0 0 18 18">
  <defs>
    <linearGradient id="linear-gradient" x1="0.5" x2="0.5" y2="1" gradientUnits="objectBoundingBox">
      <stop offset="0" stop-color="#121a4e"/>
      <stop offset="0.602" stop-color="#4e8124"/>
      <stop offset="1" stop-color="#2f3f92"/>
    </linearGradient>
    <clipPath id="clip-path">
      <rect id="Rectangle_23309" data-name="Rectangle 23309" width="18" height="18" fill="url(#linear-gradient)"/>
    </clipPath>
  </defs>
  <g id="Group_99314" data-name="Group 99314" transform="translate(0 0)" clip-path="url(#clip-path)">
    <path id="Path_84446" data-name="Path 84446" d="M6.494,4.562l.081-.07-.081.07" transform="translate(-3.4 -2.352)" fill="url(#linear-gradient)"/>
    <path id="Path_84447" data-name="Path 84447" d="M25.851,10.112c-.011-.2-.254-.277-.421-.365.009-.184.058-.039.046-.217a.289.289,0,0,0-.147.011c-.13.058-.058.074-.058.095.006.1.13-.02,0,.1a.257.257,0,0,1-.144.037c-.089-.124-.083-.187-.256-.192a.878.878,0,0,0-.187.3c-.058.171-.017.053-.011.238a.064.064,0,0,0,0,.023c0,.111-.029-.021-.011.081.135-.028.032-.025.132-.058a1.552,1.552,0,0,1,.47-.1c.2.046.365.2.59.046" transform="translate(-12.905 -4.987)" fill="url(#linear-gradient)"/>
    <path id="Path_84448" data-name="Path 84448" d="M28.38,10.494a.444.444,0,0,0,.429.113c.026-.226-.046-.215-.115-.369a.23.23,0,0,1,.049-.046c.052-.069.026.028.052-.09-.135-.044-.355-.183-.372-.365.066-.053.046-.021.095-.053.107-.07.026.037.09-.081-.055-.106-.115-.125-.248-.071a1.776,1.776,0,0,0-.242.157.771.771,0,0,0,.305.519c-.014.134-.046.1-.043.286" transform="translate(-14.72 -4.975)" fill="url(#linear-gradient)"/>
    <path id="Path_84449" data-name="Path 84449" d="M17.866,7.44a.843.843,0,0,1-.081-.175,1.819,1.819,0,0,1-.389.1l-.01.012c-.082.118,0,.068-.141.191a4.361,4.361,0,0,1-.478.461,3.185,3.185,0,0,1-.035.5c-.02.09-.122.332-.239.314a2.4,2.4,0,0,1-.233-.508,4.133,4.133,0,0,1-.182-.533c-.026-.113-.043-.33-.07-.406-.124.018-.118.1-.236.014-.084-.061-.046-.1-.092-.187-.1-.092-.2-.184-.3-.277-.078-.025-.378.019-.5,0-.228-.02-.247-.007-.383-.189-.24.012-.219.1-.453-.1-.152-.13-.124-.337-.345-.22-.009.19.084.231.167.319.061.067.135.113.167.2,0,0,.017.088.02.1.216.014.268-.09.386-.177.115.109,0,.127.17.212.132.067.107.028.193.136.043.145-.3.54-.409.611-.086.055-.132.023-.21.087-.115.1.015.083-.187.157a2.616,2.616,0,0,1-.658.258c-.049-.134-.1-.27-.147-.406-.144-.464-.139-.284-.285-.524-.07-.1-.041-.171-.087-.264-.032-.069-.081-.1-.124-.184-.066-.132-.144-.336-.3-.316-.032.1.141.454.184.54s.112.122.132.244c.029.169-.006.148.086.261.193.233-.008.192.291.419.225.171.167.222.263.45.147.042.585-.154.659-.1.09.159-.1.413-.152.551-.162.464-.444.456-.66.812a3.406,3.406,0,0,0-.282.448c-.124.261.251.984.026,1.286a4.54,4.54,0,0,0-.406.321c-.211.229.005.189-.075.57-.063.087-.141.092-.219.154a1.547,1.547,0,0,1-.054.272c-.052.134-.061.062-.136.171a1.531,1.531,0,0,1-.112.2.837.837,0,0,1-.135.139,1.172,1.172,0,0,1-.835.2c-.127-.109-.041-.136-.072-.288a1.281,1.281,0,0,0-.162-.349l-.006-.01a.8.8,0,0,1-.07-.145,4.028,4.028,0,0,0-.247-.909c-.228-.429.127-.653.112-.9-.006-.064-.029-.1-.035-.154a1.336,1.336,0,0,0-.247-.718c-.2-.229-.17-.148-.107-.524.081-.431-.1-.321-.363-.332-.127-.392-.375-.2-.623-.085-.155.071-.213-.02-.389,0-.392.053-.084.222-.608-.194-.219-.173-.072-.085-.2-.3a3.155,3.155,0,0,0-.236-.261c-.2-.249.038-.5,0-.787-.06-.531-.147-.07.15-.711.155-.341.392-.344.453-.5.052-.136.017-.233.115-.358.087-.1.21-.081.259-.24.07-.2-.063-.222-.207-.226-.06-.2-.06-.154-.014-.344.026-.107,0-.157.026-.264.058-.265.51,0,.64-.111a.309.309,0,0,0,0-.332c-.072-.109-.167-.095-.216-.2.11-.074.029-.009.124-.03.112-.025.1-.058.23-.082s.194-.132.309-.206c.164-.106.086-.2.285-.233.32-.055.112-.046.147-.344.048-.019.095-.04.141-.06.1.132-.026.078.1.166.031-.018.069-.037.1-.055-.018-.143-.084-.115-.127-.293-.159.025-.216.159-.343.111s-.13-.224-.124-.372c.046-.111.276-.171.366-.2.144-.048.124-.145.257-.277.172-.173.046,0,.13-.222.19-.007.1-.013.213-.071l.005,0,.012,0c.066-.03.152-.037.239-.067a.781.781,0,0,1,.677.041c.179.074.718.076.758.3-.13.136-.254.037-.441.048.035.175.049.175.207.224.026-.083-.011-.051.032-.1l.155.03c.052-.178.112-.152.289-.173-.03-.122-.061-.088.005-.184.182.018.035,0,.124.148.127-.017.251-.157.426-.175.11-.012.1.03.259.013.127-.013.122-.06.248-.007.046-.085,0-.083.112-.1.172-.03.323.076.49.1-.124-.152-.242-.122-.089-.376.193-.039.21-.011.294.134.047-.027.067-.054.091-.067l-.04-.032c-.072-.057-.144-.113-.219-.168l-.043-.031q-.092-.068-.187-.134l-.06-.041c-.076-.052-.152-.1-.23-.152L13.824,1.4c-.071-.045-.142-.089-.215-.132l-.067-.04-.208-.119L13.3,1.09c-.079-.043-.16-.085-.241-.127l-.07-.035-.2-.094L12.729.805Q12.606.749,12.48.7L12.414.669c-.067-.027-.133-.054-.2-.079L12.138.56Q12.01.512,11.88.469l-.05-.016q-.109-.036-.22-.07L11.526.358c-.078-.023-.155-.045-.234-.065l-.038-.01Q11.12.249,10.985.219L10.9.2c-.071-.015-.142-.03-.214-.043L10.614.143c-.09-.017-.182-.031-.273-.045L10.259.088c-.071-.01-.142-.019-.214-.027L9.958.051C9.866.041,9.774.032,9.68.025l-.067,0C9.536.016,9.461.011,9.384.009l-.093,0C9.2,0,9.112,0,9.023,0H9A8.959,8.959,0,0,0,3.2,2.122l0,.008a.14.14,0,0,1,.032.067c-.145.035-.145.06-.2.067l-.1.09a1.006,1.006,0,0,0,.346.008c.038-.069.061-.13.127-.154a.254.254,0,0,1,.1-.01c.005.034.014.069.023.1,0,0,0,.017,0,.02s.005.015.008.021c.182-.106.029-.109.127-.3-.152-.03-.132-.012-.227-.109a.528.528,0,0,1,.4-.127c-.009.092-.052.09-.017.169.1-.065.175-.237.343-.206.031.023.069.044.1.065a1.017,1.017,0,0,1-.329.132c-.049.5.159.081.09.425A.382.382,0,0,0,4.327,2.2c-.046-.06-.112-.06-.15-.132a.332.332,0,0,1,.179-.2.488.488,0,0,1,.21-.043c.916.007.481.049.763.178.064.028.175.042.213.1.058.088,0,.17.095.24s.092,0,.2.132a.2.2,0,0,1-.19.157c-.155,0-.063-.1-.23-.088,0,.157.159.217.014.3-.127.076-.046-.028-.141.025l-.015.01a.091.091,0,0,0-.015.016l-.046.051c-.23-.062-.187-.034-.325-.187-.052-.058-.061-.072-.153-.064-.057,0-.132.027-.187-.023.112-.141.167,0,.332-.088a2.045,2.045,0,0,0,.239-.187c-.049-.111-.006-.019-.078-.09-.162-.164-.209-.122-.427-.122a1.494,1.494,0,0,1-.291.327.266.266,0,0,1-.254,0c.049.2.175.046.187.286-.083-.017-.127-.058-.213-.028-.184.069-.02.062-.005.1,0,0,.086.011,0,.043s-.015-.018-.2-.127c.026-.046.052-.094.078-.143a3.711,3.711,0,0,0-.513.206,2.28,2.28,0,0,0-.5.316c0,.173.028.058.046.264.268.016.182.1.449.172.052.014.118.028.2.042,0,.129-.115.226-.035.36.187.132.193-.125.24-.288.634-.132.328-.319.492-.668a.771.771,0,0,1,.11-.167c.049,0,.247.023.291.032.144.025.066.06.222.129,0,.125-.066.286.119.256.141-.025.11-.136.282-.164a1.632,1.632,0,0,1,.092.48c.415.162.23.293.15.6.052.025.107.049.162.072,0,.088-.006.172-.009.259-.008,0-.444-.095-.473-.1.067-.189.187-.192.265-.385-.155.028-.144.076-.256.111a1.6,1.6,0,0,1-.284.023.213.213,0,0,1,.008.051c.006.06.035,0-.006.067-.144-.067-.095-.224-.363-.078.061.028.121.053.184.078-.008.177-.023.043-.061.162-.092.3.251.115.341.1-.023.159-.122.159-.26.2s-.2.109-.32.137c0-.19-.028-.03.055-.162a1.114,1.114,0,0,0-.325.115l-.012,0c-.148.06-.17.069-.187.258a.873.873,0,0,0-.363.175l-.265.254c-.009.007-.015.013-.02.018.032.238,0,.242-.144.335a1.6,1.6,0,0,0-.274.175c-.36.323-.187.172-.167.729-.075-.023-.147-.048-.216-.074-.055-.369.02-.247-.277-.332-.32-.092-.276.065-.409.092s-.219-.134-.433,0c-.118.081-.23.134-.259.277a1.706,1.706,0,0,0-.1.491c.02.519.493.549.613.307.081-.162.061-.249.323-.207a.642.642,0,0,1-.049.346c-.023.062-.087.175-.055.261.187.076.193-.067.441.08.018.247-.112.524.078.667.147.109.155.012.285-.011s.118.064.251.085c.075-.092.043-.035.092-.148.087-.2.11-.1.314-.224.02-.011.037-.023.058-.037.023.048.049.094.072.141.15-.178.167,0,.34.044a.666.666,0,0,0,.169.028c.125,0,.139-.06.31,0a.518.518,0,0,0,.07.023s.011,0,.011.01l.014.011a.656.656,0,0,1,.055.1c.119.112.237.226.352.337.227.09.227-.079.487.172.11.1.06.1.121.236.009.02.026.041.038.067.023.062.049.122.075.183.119.154.279.058.444.217.095.092.023.064.233.1.326.053.2.023.447.21.095.069.118.03.207.09a.427.427,0,0,1-.012.513c-.32.466-.21.39-.224.76-.012.212-.072.65-.271.7-.723.2-.3.344-.493.7-.055.1-.1.127-.13.208-.144.337-.043.45-.469.374.041.071.015.023.055.087.127.2.147.344-.112.392-.216.041-.124,0-.144.24-.084.035-.122,0-.175.055.075.139.005.023.132.1-.023.076-.041.15-.061.223-.049.18-.064.014-.081.224.075.035.127.028.193.118-.009.07-.078.259-.1.367.107.159.193.33.421.346,0,.133.028.12-.087.147a.817.817,0,0,1-.392-.115,1.045,1.045,0,0,1-.389-.339,1.341,1.341,0,0,0-.095-.125c-.11-.141-.066-.206-.1-.3a.366.366,0,0,1-.07-.3c.009-.051.09-.293-.008-.251s.075.023-.061.087a1.937,1.937,0,0,1-.075-.325c-.035-.182-.078-.189-.1-.3-.043-.256.067-.284-.055-.711-.08-.282-.047-.951-.132-1.294a.543.543,0,0,0-.05-.137c-.078-.129-.268-.189-.421-.293a.028.028,0,0,1-.017-.01c-.21-.147-.409-.727-.576-.943-.078-.1-.127-.058-.162-.222s.02-.125.069-.25c-.256-.47.332-.464.21-1.029a.627.627,0,0,0-.164-.295c-.122.053-.064.082-.127.184-.1-.055-.2-.111-.291-.166-.3-.286-.139-.078-.222-.266-.179-.392-.349-.172-.562-.366-.1-.081-.112-.208-.271-.184C1.037,8,1.17,8.034.923,7.918A2.445,2.445,0,0,1,.345,7.57C.338,7.289.423,7.316.21,7.058A9.014,9.014,0,0,0,0,9c0,.1,0,.206.006.308,0,.022,0,.044,0,.066,0,.1.009.195.016.292v.012q.011.153.028.3c0,.02,0,.041.007.061.01.091.022.181.035.271,0,.01,0,.021,0,.032.015.1.032.2.05.3l.01.055q.025.129.053.258c0,.014.006.028.01.042q.033.146.071.29c0,.014.008.029.012.043.023.085.047.17.072.254,0,.016.009.031.013.047.03.095.06.19.092.284,0,.009.007.018.01.028.03.085.061.17.093.254l.018.047c.036.094.074.186.112.278l0,0c.038.089.078.177.119.264l.02.045q.127.269.271.528l.022.039q.146.261.309.51l.021.032q.165.252.347.491l.018.023c.06.078.12.155.182.23l0,.006q.1.119.2.235l.011.012c.065.074.132.147.2.219l.01.011q.212.224.438.433l.013.012q.227.209.466.4l.015.012c.16.128.324.251.493.367l.016.011q.254.175.52.334l.015.009q.267.158.546.3l.012.006A9,9,0,0,0,18,9a8.814,8.814,0,0,0-.135-1.56M9.09,3.263c.023.051.046.1.072.152.035.143-.078.025.035.2.089.106.175.212.262.318-.055.159-.052.173-.207.187a2.974,2.974,0,0,1-.317.035c.032-.2-.029-.1.02-.217.055-.141.064-.035.112-.171-.107-.159-.219-.051-.213-.374a.428.428,0,0,1,.237-.127m4.735,8.321c-.046.127-.087.282-.13.418-.058.192-.193.8-.444.561a.513.513,0,0,1-.027-.45c.153-.286.015-.219.067-.438.04-.175.179-.132.282-.226s.112-.231.239-.295a.4.4,0,0,1,.012.431m4.028-4.215c0,.023.008.047.012.071v0c0-.024-.009-.048-.013-.072" transform="translate(0 0)" fill="url(#linear-gradient)"/>
  </g>
</svg>
