<?xml version="1.0" encoding="utf-8"?>
<!-- Generator: Adobe Illustrator 24.3.0, SVG Export Plug-In . SVG Version: 6.00 Build 0)  -->
<svg version="1.1" id="Layer_1" xmlns="http://www.w3.org/2000/svg" xmlns:xlink="http://www.w3.org/1999/xlink" x="0px" y="0px"
	 width="20px" height="20px" viewBox="0 0 20 20" style="enable-background:new 0 0 20 20;" xml:space="preserve">
<style type="text/css">
	.st0{fill:#005170;}
</style>
<g id="Group_3361" transform="translate(-1625.829 -1243.054)">
	<path id="Path_5708" class="st0" d="M1645.2,1261.6c-0.3,0-0.6,0-0.9,0c-0.2,0-0.2,0-0.2-0.2c0-1.9,0-3.9,0-5.8c0-0.1,0-0.1,0-0.2
		c0-0.2-0.2-0.4-0.4-0.3c-0.2,0-0.3,0.1-0.3,0.3c0,0.1,0,0.2,0,0.2c0,1.9,0,3.9,0,5.8c0,0.1,0,0.2-0.2,0.2c-0.8,0-1.6,0-2.4,0
		c-0.2,0-0.2,0-0.2-0.2c0-1,0-1.9,0-2.9c0-0.3-0.1-0.5-0.5-0.5h-2.3c-0.4,0-0.5,0.1-0.5,0.5c0,0.9,0,1.9,0,2.8c0,0.2,0,0.2-0.2,0.2
		c-0.8,0-1.5,0-2.3,0c-0.2,0-0.2-0.1-0.2-0.2c0-5.1,0-10.2,0-15.3c0-0.2,0-0.2,0.2-0.2c2.8,0,5.5,0,8.3,0c0.2,0,0.2,0,0.2,0.2
		c0,2,0,3.9,0,5.9c0,0.3,0.1,0.5,0.4,0.5c0.2,0,0.4-0.2,0.4-0.4c0-2.2,0-4.3,0-6.5c0-0.2-0.1-0.4-0.3-0.4c0,0-0.1,0-0.1,0
		c-0.2,0-0.5,0-0.7,0c-0.1,0-0.2,0-0.2-0.2c0-0.3,0-0.6,0-0.9c0-0.2-0.1-0.4-0.3-0.4c0,0-0.1,0-0.1,0c-2.2,0-4.4,0-6.6,0
		c-0.2,0-0.4,0.1-0.4,0.3c0,0,0,0.1,0,0.1c0,0.3,0,0.6,0,0.9c0,0.1,0,0.2-0.2,0.2c-0.3,0-0.6,0-0.8,0c-0.2,0-0.4,0.1-0.4,0.4
		c0,0,0,0,0,0.1c0,0.1,0,0.1,0,0.2c0,1.9,0,3.7,0,5.6c0,0.2,0,0.2-0.2,0.2c-0.9,0-1.8,0-2.7,0c-0.1,0-0.2,0-0.2-0.2
		c0-0.3,0-0.6,0-0.9c0-0.4-0.1-0.5-0.5-0.5h-2.4c-0.4,0-0.5,0.1-0.5,0.5v10.9c0,0,0,0.1,0,0.1c0,0.1,0,0.2-0.1,0.2
		c-0.3,0-0.5,0-0.8,0c-0.2,0-0.4,0.1-0.5,0.3v0.2c0.1,0.2,0.3,0.3,0.5,0.3c6.2,0,12.4,0,18.6,0c0.2,0,0.4-0.1,0.5-0.3v-0.2
		C1645.6,1261.8,1645.4,1261.6,1645.2,1261.6z M1636.1,1244.5c0.1-0.1,0.3,0,0.5,0h2.5c0.9,0,1.9,0,2.8,0c0.1,0,0.2,0,0.2,0.2
		c0,0.2,0.1,0.4,0,0.5c-0.1,0.1-0.3,0-0.5,0c-1.7,0-3.5,0-5.2,0c-0.2,0-0.2,0-0.2-0.2C1636,1244.8,1636,1244.6,1636.1,1244.5
		L1636.1,1244.5z M1628.2,1250.8c0-0.1,0-0.1,0.1-0.1c0.5,0,1.1,0,1.6,0c0.1,0,0.1,0,0.1,0.1c0,0.2,0,0.4,0,0.6c0,0.1,0,0.1-0.1,0.1
		c-0.3,0-0.5,0-0.8,0c-0.3,0-0.5,0-0.8,0c-0.1,0-0.1,0-0.1-0.1C1628.2,1251.2,1628.2,1251,1628.2,1250.8L1628.2,1250.8z
		 M1631.3,1261.7c-0.2,0-0.4,0-0.7,0c-0.1,0-0.1,0-0.1-0.1c0-0.4,0-0.8,0-1.1c0-0.1,0-0.1,0.1-0.1c0.2,0,0.5,0,0.7,0
		c0.1,0,0.1,0,0.1,0.1c0,0.2,0,0.4,0,0.6s0,0.4,0,0.6C1631.5,1261.6,1631.4,1261.7,1631.3,1261.7L1631.3,1261.7z M1633.6,1261.7
		c-0.4,0-0.8,0-1.3,0c-0.1,0-0.2,0-0.2-0.2c0-0.5,0-1,0-1.5c0-0.3-0.1-0.5-0.5-0.5c-0.5,0-1,0-1.5,0c-0.3,0-0.5,0.1-0.5,0.5
		c0,0.5,0,1,0,1.5c0,0.1,0,0.2-0.2,0.2c-0.4,0-0.8,0-1.3,0c-0.1,0-0.1,0-0.1-0.2c0-3,0-6.1,0-9.1c0-0.1,0-0.1,0.1-0.1
		c1.8,0,3.6,0,5.3,0c0.2,0,0.2,0.1,0.2,0.2c0,1.5,0,3,0,4.5c0,1.5,0,3,0,4.5C1633.8,1261.6,1633.8,1261.7,1633.6,1261.7
		L1633.6,1261.7z M1639.6,1261.7c-0.5,0-1,0-1.5,0c-0.1,0-0.1,0-0.1-0.1c0-0.8,0-1.7,0-2.5c0-0.1,0-0.1,0.1-0.1c0.5,0,1,0,1.5,0
		c0.1,0,0.1,0,0.1,0.1c0,0.4,0,0.9,0,1.3s0,0.8,0,1.2C1639.8,1261.6,1639.8,1261.7,1639.6,1261.7L1639.6,1261.7z"/>
	<path id="Path_5709" class="st0" d="M1641.9,1254.4c0-0.2-0.1-0.4-0.3-0.4c0,0-0.1,0-0.1,0c-0.5,0-1,0-1.5,0
		c-0.2,0-0.4,0.1-0.4,0.3c0,0,0,0.1,0,0.1c0,0.5,0,1,0,1.5c0,0.2,0.1,0.4,0.3,0.4c0,0,0.1,0,0.1,0c0.5,0,1,0,1.5,0
		c0.3,0,0.4-0.1,0.4-0.4c0-0.3,0-0.5,0-0.8S1641.9,1254.6,1641.9,1254.4z M1640.7,1255.6c-0.4,0-0.4,0-0.4-0.4c0-0.4,0-0.4,0.4-0.4
		c0.4,0,0.4,0,0.4,0.4C1641.1,1255.6,1641.1,1255.6,1640.7,1255.6z"/>
	<path id="Path_5710" class="st0" d="M1635.9,1255.9c0,0.2,0.1,0.4,0.3,0.4c0,0,0.1,0,0.1,0c0.3,0,0.5,0,0.8,0s0.5,0,0.8,0
		c0.2,0,0.4-0.1,0.4-0.3c0,0,0-0.1,0-0.1c0-0.5,0-1,0-1.6c0-0.2-0.1-0.4-0.3-0.4c0,0-0.1,0-0.1,0c-0.5,0-1,0-1.5,0
		c-0.2,0-0.4,0.1-0.4,0.3c0,0,0,0.1,0,0.1C1635.9,1254.9,1635.9,1255.4,1635.9,1255.9z M1637.1,1254.7c0.1,0,0.3-0.1,0.4,0
		c0.1,0.1,0,0.3,0,0.4c0,0.4,0,0.4-0.4,0.4h0c-0.4,0-0.4,0-0.4-0.4C1636.7,1254.7,1636.7,1254.7,1637.1,1254.7z"/>
	<path id="Path_5711" class="st0" d="M1635.9,1249.2c0,0.2,0.1,0.4,0.3,0.4c0,0,0.1,0,0.1,0c0.5,0,1,0,1.6,0c0.2,0,0.4-0.1,0.4-0.3
		c0,0,0-0.1,0-0.1c0-0.5,0-1,0-1.6c0-0.2-0.1-0.4-0.3-0.4c0,0-0.1,0-0.1,0c-0.5,0-1,0-1.5,0c-0.2,0-0.4,0.1-0.4,0.3c0,0,0,0,0,0.1
		c0,0.3,0,0.5,0,0.8C1635.9,1248.7,1635.9,1249,1635.9,1249.2z M1637.1,1248L1637.1,1248c0.4,0,0.4,0,0.4,0.4c0,0.4,0,0.4-0.4,0.4
		s-0.4,0-0.4-0.4C1636.7,1248,1636.7,1248,1637.1,1248L1637.1,1248z"/>
	<path id="Path_5712" class="st0" d="M1641.9,1247.7c0-0.2-0.1-0.4-0.3-0.4c0,0,0,0-0.1,0c-0.5,0-1,0-1.6,0c-0.2,0-0.4,0.1-0.4,0.3
		c0,0,0,0,0,0.1c0,0.5,0,1,0,1.6c0,0.2,0.1,0.4,0.3,0.4c0,0,0.1,0,0.1,0c0.5,0,1,0,1.6,0c0.3,0,0.4-0.2,0.4-0.4c0-0.2,0-0.5,0-0.7
		S1641.9,1248,1641.9,1247.7z M1641.1,1248.5c0,0.4,0,0.4-0.4,0.4c-0.4,0-0.4,0-0.4-0.4c0-0.4,0-0.4,0.4-0.4
		C1641.1,1248,1641.1,1248,1641.1,1248.5L1641.1,1248.5z"/>
	<path id="Path_5713" class="st0" d="M1635.9,1252.6c0,0.2,0.1,0.4,0.4,0.4c0,0,0,0,0.1,0c0.5,0,1,0,1.5,0c0.2,0,0.4-0.1,0.4-0.3
		c0,0,0-0.1,0-0.1c0-0.5,0-1,0-1.5c0-0.2-0.1-0.4-0.3-0.4c0,0-0.1,0-0.1,0c-0.3,0-0.5,0-0.8,0c-0.3,0-0.5,0-0.7,0
		c-0.3,0-0.4,0.1-0.4,0.4C1635.9,1251.6,1635.9,1252.1,1635.9,1252.6z M1637.1,1251.4c0.4,0,0.4,0,0.4,0.4c0,0.4,0,0.4-0.4,0.4
		c-0.4,0-0.4,0-0.4-0.4C1636.7,1251.4,1636.7,1251.4,1637.1,1251.4z"/>
	<path id="Path_5714" class="st0" d="M1641.9,1251.1c0-0.2-0.1-0.4-0.3-0.4c0,0-0.1,0-0.1,0c-0.5,0-1,0-1.5,0
		c-0.3,0-0.4,0.1-0.4,0.4c0,0.2,0,0.5,0,0.7s0,0.5,0,0.8c0,0.2,0.1,0.4,0.3,0.4c0,0,0.1,0,0.1,0c0.5,0,1,0,1.5,0
		c0.2,0,0.4-0.1,0.4-0.3c0,0,0-0.1,0-0.1C1641.9,1252.1,1641.9,1251.6,1641.9,1251.1z M1640.7,1252.2c-0.4,0-0.4,0-0.4-0.4
		c0-0.4,0-0.4,0.4-0.4c0.4,0,0.4,0,0.4,0.4C1641.1,1252.2,1641.1,1252.2,1640.7,1252.2L1640.7,1252.2z"/>
	<path id="Path_5715" class="st0" d="M1643.3,1253.8c0,0.2,0.2,0.4,0.4,0.4c0,0,0,0,0,0c0.2,0,0.4-0.2,0.4-0.4c0,0,0,0,0,0
		c0-0.2-0.2-0.4-0.4-0.4c0,0,0,0,0,0C1643.5,1253.5,1643.3,1253.6,1643.3,1253.8z"/>
	<path id="Path_5716" class="st0" d="M1629.8,1253.4c-0.1-0.2-0.3-0.3-0.5-0.3c-0.1,0-0.2,0.1-0.2,0.2c0,0.1,0,0.2,0,0.2
		c0,0.8,0,1.5,0,2.3v2.3c0,0.3,0.1,0.5,0.4,0.5s0.4-0.2,0.4-0.5c0,0,0,0,0,0c0-1.5,0-3,0-4.5
		C1629.8,1253.6,1629.8,1253.5,1629.8,1253.4z"/>
	<path id="Path_5717" class="st0" d="M1631.3,1253.4c0-0.2-0.2-0.3-0.4-0.3c-0.2,0-0.3,0.1-0.4,0.2c0,0.1,0,0.2,0,0.2
		c0,0.8,0,1.5,0,2.3c0,0.8,0,1.5,0,2.3c0,0.3,0.1,0.5,0.4,0.5c0.2,0,0.4-0.2,0.4-0.5v0c0-1.5,0-3,0-4.5
		C1631.4,1253.6,1631.4,1253.5,1631.3,1253.4z"/>
	<path id="Path_5718" class="st0" d="M1632.9,1253.5c0-0.2-0.2-0.3-0.4-0.3c-0.2,0-0.3,0.2-0.3,0.3c0,0.1,0,0.1,0,0.2
		c0,0.7,0,1.5,0,2.2c0,0.8,0,1.5,0,2.3c0,0.3,0.1,0.5,0.4,0.5s0.4-0.2,0.4-0.5v0c0-1.5,0-3,0-4.5
		C1632.9,1253.6,1632.9,1253.5,1632.9,1253.5z"/>
</g>
</svg>
