<svg xmlns="http://www.w3.org/2000/svg" xmlns:xlink="http://www.w3.org/1999/xlink" width="20" height="20" viewBox="0 0 20 20">
  <defs>
    <linearGradient id="linear-gradient" x1="0.5" x2="0.5" y2="1" gradientUnits="objectBoundingBox">
      <stop offset="0" stop-color="#627dc7"/>
      <stop offset="1" stop-color="#3b5497"/>
    </linearGradient>
    <clipPath id="clip-path">
      <rect id="Rectangle_22374" data-name="Rectangle 22374" width="20" height="20" fill="url(#linear-gradient)"/>
    </clipPath>
  </defs>
  <g id="highlight" transform="translate(0 0)">
    <g id="Group_67453" data-name="Group 67453" transform="translate(0 0)" clip-path="url(#clip-path)">
      <path id="Path_83072" data-name="Path 83072" d="M19.334,17.5H16.667a.667.667,0,0,0-.667.667v8.667H14.667V22.168A.666.666,0,0,0,14,21.5H11.334a.667.667,0,0,0-.667.667v4.667H9.334v-6a.667.667,0,0,0-.667-.667H6a.667.667,0,0,0-.667.667v6H4V24.168a.667.667,0,0,0-.667-.667H.667A.667.667,0,0,0,0,24.168v4.667a2,2,0,0,0,2,2H18a2,2,0,0,0,2-2V18.168a.666.666,0,0,0-.667-.667m-2,1.333h1.333v8H17.334Zm-5.333,4h1.333v4H12ZM6.667,21.5H8v5.333H6.667Zm-4,5.333H1.334v-2H2.667Zm16,2A.667.667,0,0,1,18,29.5H2a.666.666,0,0,1-.667-.667v-.667H18.667Z" transform="translate(0 -10.834)" fill="url(#linear-gradient)"/>
      <path id="Path_83073" data-name="Path 83073" d="M.667,10.667H2a.668.668,0,0,0,.52-.253l4.147-5.2a1.959,1.959,0,0,0,.667.12A2.041,2.041,0,0,0,8.44,5l2.327,1.74a1.906,1.906,0,0,0-.1.593,2,2,0,1,0,3.7-1.047L18.32,1.333h1.014a.667.667,0,1,0,0-1.333H18a.665.665,0,0,0-.52.253L13.334,5.447a1.947,1.947,0,0,0-1.774.22L9.234,3.927a1.939,1.939,0,0,0,.1-.593,2,2,0,1,0-4,0A1.929,1.929,0,0,0,5.64,4.38L1.68,9.334H.667a.667.667,0,0,0,0,1.333Zm12-4a.666.666,0,1,1-.472.2.668.668,0,0,1,.472-.2m-5.333-4a.667.667,0,1,1-.472.2.667.667,0,0,1,.472-.2" transform="translate(0 0)" fill="url(#linear-gradient)"/>
    </g>
  </g>
</svg>
