<svg xmlns="http://www.w3.org/2000/svg" xmlns:xlink="http://www.w3.org/1999/xlink" width="315.374" height="180.288" viewBox="0 0 315.374 180.288">
  <defs>
    <linearGradient id="linear-gradient" x1="0.5" x2="0.5" y2="1" gradientUnits="objectBoundingBox">
      <stop offset="0" stop-color="#1a276b"/>
      <stop offset="1" stop-color="#8abb2a"/>
    </linearGradient>
    <linearGradient id="linear-gradient-4" x1="-7.269" y1="6.512" x2="-7.241" y2="6.512" gradientUnits="objectBoundingBox">
      <stop offset="0" stop-color="#adb1c9"/>
      <stop offset="1" stop-color="#8abb2a"/>
    </linearGradient>
    <clipPath id="clip-path">
      <rect id="Rectangle_23263" data-name="Rectangle 23263" width="315.374" height="180.288" fill="none"/>
    </clipPath>
    <clipPath id="clip-path-3">
      <rect id="Rectangle_23198" data-name="Rectangle 23198" width="315.374" height="175.923" fill="none"/>
    </clipPath>
    <clipPath id="clip-path-4">
      <path id="Path_84495" data-name="Path 84495" d="M.412,41.041a5.683,5.683,0,0,1,2.706-1.216c.9-.22,1.829.209,2.737-.133a3.928,3.928,0,0,0,.987-.614l2.191-1.685a1.271,1.271,0,0,0-1.152-.128c-.386.113-.746.311-1.14.392a3.978,3.978,0,0,1-.892.045.367.367,0,0,1-.243-.064.371.371,0,0,1-.087-.269A2.045,2.045,0,0,1,5.782,36,1.639,1.639,0,0,1,7.5,35.638a9.344,9.344,0,0,0,1.791.5c.49.029,1.737-.269,1.836-.887.075-.471-.768-1.112-1.039-1.432.971-1.126,2.7-1.08,4.032-1.3,1.9-.32,3.794-.706,5.7-.994q3.479-.525,6.984-.858c1.453-.137,5.139-1.185,6.3-.068a7.634,7.634,0,0,1,.82,1.133,4.508,4.508,0,0,0,4.5,1.591c2.545-.392,4.771-1.245,7.406-1.315a32.631,32.631,0,0,1,14.411,2.577,1.961,1.961,0,0,0,2.021-.061c.343-.291.531-.781.954-.932a1.466,1.466,0,0,1,.5-.056,36.833,36.833,0,0,1,6.2.09c1.483.26,2.993,1.024,4.485.4a5.1,5.1,0,0,0,2.637-3.463.868.868,0,0,1,.222-.457,4.177,4.177,0,0,1,2.116-.192.842.842,0,0,1,.672.851c-.171,1.15.613,1.29.995,2.407a3.422,3.422,0,0,0,.779,1.552c-.816.216-1.391,1.447-2.291,1.294-1.166-.2-1.493-.83-1.612.753a2.457,2.457,0,0,1-1.4,1.747C74.433,39.74,62.67,42.6,67.1,46.985A9.094,9.094,0,0,0,72.33,49.07c.624.052,2.663-.228,1.773,1.017a2.707,2.707,0,0,0-.464,2.192,2.115,2.115,0,0,0,1.548,1.553c1.688.353,2.393-1.548,2.209-2.9,1.38-1.786,3.736-1.355,5.228-2.595-.173-1.29-1-2.393-.535-3.536a3.77,3.77,0,0,1,1.2-1.881l1.147-.125,1.861-1.86c2.588-.2,3.107-.092,4.938,1,.29.357.085.8.126,1.211.033.339.007.684.007,1a1.955,1.955,0,0,0,2.7.487c1.05-.5,1.978-1.5,3.427-1.2v4.234a4.7,4.7,0,0,1,1.2,2.261c.519.388,1.138.093,1.713.179.517.458,1.133.87.733,1.742-.709,1.366-2.189,1.956-3.368,2.86a2.927,2.927,0,0,1-2.075.622c-1.363-.16-2.763.03-4.139-.061-1.949-.128-3.674.772-5.522,1.1a1.058,1.058,0,0,0-.766,1.513c.224.693,3.584-.433,4.089-.434h0c2.095,0-.6,1.925-.641,2.284-.078.714.757,1.172,1.468,1.271.243.034.536.084.628.311a.484.484,0,0,1-.232.545,3.085,3.085,0,0,1-.594.239,3.534,3.534,0,0,0-1.228,1,3.215,3.215,0,0,1-1.248.971c-2.089.72-.545-2.362-2.181-2.046A6.961,6.961,0,0,0,81,64.85a5.574,5.574,0,0,1-3.539,2.635c-3.024,1.022-4.6,4.281-6.613,6.507-1.986,2.2-4.634,3.375-6.973,5.113a5.228,5.228,0,0,0-1.214,1.119c-.633.9-.325,2.249-.171,3.26.114.744.889,3.031.375,3.685a1.581,1.581,0,0,1-1.765.766c-1.052-1.075-.781-2.453-.821-3.769A6.691,6.691,0,0,0,55.6,81.2a1.633,1.633,0,0,0-.653.041c-.492.159-.761.67-1.1,1.062a2.937,2.937,0,0,1-3.054.852c-.626-.2-.458-1.113-1.47-.951-.433.07-.827.291-1.256.381-1.942.408-4.205,1.275-5.371,3.068-2.379,3.656-4.6,13.286,3.054,12.225a3.55,3.55,0,0,0,1.96-.851,11.533,11.533,0,0,0,1.473-2.363c.506-.783,1.469-1.457,2.326-1.089a1.716,1.716,0,0,1,.905,1.613,5.029,5.029,0,0,1-.515,1.877q-.781,1.859-1.562,3.716l3.244.159a2.618,2.618,0,0,1,1.485.377,1.9,1.9,0,0,1,.6,1.711,13.791,13.791,0,0,1-.452,1.837,6.358,6.358,0,0,0,1.406,5.62,1.521,1.521,0,0,1-1.636.19,3.155,3.155,0,0,1-1.26-1.177c-.652-.969-1.055-2.084-1.64-3.1a4.512,4.512,0,0,0-2.555-2.265c-1.316-.35-2.347-.077-3.585-.934a12.343,12.343,0,0,0-2.728-1.756,10.708,10.708,0,0,0-3.092-.328c-3.085-.149-6.724-1.466-8.67-3.985-.758-.982-.728-2.073-.968-3.22a10.98,10.98,0,0,0-1.122-2.8c-1.044-1.979-2.414-3.77-3.282-5.844-.62-1.48-.807-2.985-1.7-4.368a1.441,1.441,0,0,0-.922-.756c-.368-.048-.769.167-1.1,0-.373-.19-.381-.705-.5-1.108-.294-1.012-1.3-1.018-2.006-1.58a5.308,5.308,0,0,1-1.541-2.4,16.277,16.277,0,0,1-.565-5.821,4.583,4.583,0,0,1,.236-1.561,5.056,5.056,0,0,1,.9-1.349c1.616-1.936,3.656-3.878,4.8-6.152a7.77,7.77,0,0,1,.833-1.566c.247-.3.565-.526.821-.816.807-.913.276-2.244,0-3.258A11.284,11.284,0,0,1,25,50.521a14.761,14.761,0,0,0,.236-3.3c-.239-1.862-1.758-2.041-2.718-3.291-.836-1.089-4.315-.982-5.621-1.279a6.1,6.1,0,0,0-4.443.445,2.382,2.382,0,0,1-1.406.292c-.44-.095-.745-.683-1.218-.622s-.513.735-.806,1.113a1.673,1.673,0,0,1-.919.486c-1.36.383-3.331,1.373-4.7.984S.47,43.986.074,42.565a1.506,1.506,0,0,1,.338-1.523" transform="translate(0 -29.866)" fill="none"/>
    </clipPath>
    <linearGradient id="linear-gradient-5" x1="0.001" y1="2.011" x2="0.007" y2="2.011" gradientUnits="objectBoundingBox">
      <stop offset="0" stop-color="#415491"/>
      <stop offset="1" stop-color="#6c8bce"/>
    </linearGradient>
    <clipPath id="clip-path-5">
      <path id="Path_84496" data-name="Path 84496" d="M129.17,252.151l-.045-.022a13.063,13.063,0,0,1-6.364-7.21,2.011,2.011,0,0,1-.163-.83,3.455,3.455,0,0,1,.366-1,4.768,4.768,0,0,0-.511-3.917c-.921-1.784-1.859-3.028-2.2-5.024-.408-2.419-.718-4.856-.95-7.3a105.857,105.857,0,0,1-.384-14.371,15.157,15.157,0,0,0-.158-3.962c-.525-2.332-2.3-3.255-4.149-4.483a20.53,20.53,0,0,1-5.454-4.751,66.844,66.844,0,0,1-5.681-9.687,2.763,2.763,0,0,1-.42-1.5c.086-.765.8-1.4.717-2.165a3.872,3.872,0,0,0-.434-1.065,3.377,3.377,0,0,1,.329-2.969c1.229-2.123,3.24-3.615,4.344-5.9a2.966,2.966,0,0,0,.223-2.242c-.151-.426-.43-.8-.575-1.225a2.856,2.856,0,0,1,.385-2.363,11.42,11.42,0,0,1,4.342-3.7,1.4,1.4,0,0,1,.585-.2c.624-.022.986.676,1.219,1.256s.681,1.256,1.292,1.13c.818-.168.714-1.451,1.334-2.008.665-.6,2.2.271,2.929.46a17.191,17.191,0,0,0,4.32.594c1.361-.109,1.835,1.114,2.771,1.818,1.163.874,2.661,1.187,3.881,1.973,1.445.931,2.488,2.48,4.093,3.1.651.25,1.356.328,2.021.541a4.547,4.547,0,0,1,3.053,4.033,4.557,4.557,0,0,0,2.545,3.4l.143.071c1.861.959,1.731.909,3.588,1.824,2.4,1.181,4.841.555,7.246,1.477a23.228,23.228,0,0,1,5,2.991,2.427,2.427,0,0,1,.686.634c1.207,1.906-.684,4.227-1.739,5.668a15.087,15.087,0,0,0-2.686,6.373c-.527,3.385.177,7.761-2.5,10.4-1.249,1.227-3.012,1.479-4.635,1.894-2,.511-2.515,1.465-2.969,3.472-.632,2.788-1.484,6.073-3.106,8.471a4.982,4.982,0,0,1-3.092,2.222c-.568.1-1.923-.429-2.355.078-.73.858,1.014,1.468,1.4,2.25a2.238,2.238,0,0,1-.812,2.8c-.884.54-2.2.385-2.949,1.151-.719.739-.376,2.4-1.58,2.661-.585.128-1.253-.281-1.765.031-.532.324-.421,1.143-.1,1.676a3.709,3.709,0,0,1,.827,1.648,2.813,2.813,0,0,1-.748,1.614,1.774,1.774,0,0,0-.41,1.68c.21.46.73.673,1.165.934,1.655.991-.1,5.354-.408,6.895a1.293,1.293,0,0,1-.207.561,1.037,1.037,0,0,1-1.253.116" transform="translate(-103.052 -166.265)" fill="none"/>
    </clipPath>
    <linearGradient id="linear-gradient-6" x1="-1.016" y1="0.999" x2="-1.006" y2="0.999" xlink:href="#linear-gradient-5"/>
    <clipPath id="clip-path-6">
      <path id="Path_84497" data-name="Path 84497" d="M542.528,210.316a.552.552,0,0,1-.219.107,1.124,1.124,0,0,1-.57-.061,9.8,9.8,0,0,1-4.091-2.43c-.678-.674-1.389-1.51-2.345-1.5a5.741,5.741,0,0,0-1.981.77c-1.819.742-2.986-.583-4.645-.958a1.5,1.5,0,0,1-.724-.27c-.325-.3-.23-.824-.22-1.268a2.661,2.661,0,0,0-1.321-2.321c-.423-.24-.94-.384-1.2-.792-.519-.806.461-4.157,1.771-3.63,2.5,1.006,5.127,1.733,7.585,2.822a6.977,6.977,0,0,1,3.53,2.987c.418.821.587,1.759,1.062,2.55a5.443,5.443,0,0,0,1.658,1.629c.573.394,1.465.64,1.844,1.242a.907.907,0,0,1-.13,1.125" transform="translate(-525.067 -197.905)" fill="none"/>
    </clipPath>
    <linearGradient id="linear-gradient-7" x1="-16.344" y1="5.262" x2="-16.312" y2="5.262" xlink:href="#linear-gradient-5"/>
    <clipPath id="clip-path-7">
      <path id="Path_84498" data-name="Path 84498" d="M252.72,39.811c.986-.6,2.743.489,3.385-.52.423-.666-.273-1.562-1.048-1.714a7.131,7.131,0,0,0-2.338.253,1.915,1.915,0,0,1-2.065-.774c-.62-1.325,2.3-3.661.192-4.519a2.119,2.119,0,0,0-1.849.269c-2.431,1.47-2.274,4.94-2.887,7.715-.278,1.259-.952,2.632-2.21,2.914-2.593.583-3.931-3.752-6.585-3.9-.8-.044-1.709.289-2.324-.219-.908-.75-.046-2.185.809-2.994l2.391-2.257c4-3.775,8.466-7.764,13.952-8.145a20.367,20.367,0,0,1,7.152,1.088q2.682.8,5.289,1.819c.684.268,1.5,1.008,1.023,1.567a.824.824,0,0,1-.6.277l-4.685.186c1.34,5.844,8.806.622,11.322-.534,5.636-2.59,10.781-2.137,16.718-1.331.613.083,1.423.053,1.618-.534.267-.8-.907-1.236-1.438-1.892-1.075-1.33,1-2.414,2.128-2.216,1.5.263,1.95,1.794,2.242,3.078.261,1.146,1.005,2.517,2.168,2.344,1.043-.155,1.436-1.409,1.776-2.408,2.943-8.64,14.962-9.822,22.432-7.334a6.3,6.3,0,0,1,1.876.982A9.18,9.18,0,0,0,326,22.965c5.7.542,15.95,2.692,17.352,2.82,3.519.321,6.422-.366,9.806-.931,3.964-.663,8.084.841,11.989,1.3,4.259.5,8.5.752,12.741,1.536a9.978,9.978,0,0,0,3.615.24c.771-.144,1.493-.476,2.252-.676,2.363-.624,4.873-.024,7.13.737,1.71.577,3.43,1.127,5.17,1.607,1.921.529,2.823.409,1.65,1.939a1.792,1.792,0,0,0-.184,1.671c.224.484.578.9.775,1.4a2.493,2.493,0,0,1-.676,2.74c-1.4,1.2-5.711-1.071-5.832,1.856a3.214,3.214,0,0,0,1.09,2.237,9.89,9.89,0,0,1,1.695,1.9c.787,1.412.421,3.171.09,4.735a1.324,1.324,0,0,1-.113.329c-.344.667-.986.474-1.477.232a9.865,9.865,0,0,1-5.081-10.8c.507-2.13-1.1-2.1-2.68-1.909-2.719.323-2.945.964-4.33,3.051a3.188,3.188,0,0,1-3.1,1.079c-1.144-.145-2.229-.605-3.373-.752a6.334,6.334,0,0,0-5.022,1.6c-1.287,1.186-1.968,3.385-.756,4.648,1.047,1.091,2.8.864,4.3,1.024a7.3,7.3,0,0,1,3.27,13.348c-1.347.895-3.191,1.613-3.386,3.218-.2,1.647,1.5,2.79,2.81,3.814s2.358,3.166,1.032,4.165c-1.309.986-3.023-.516-3.958-1.862l-2.781-4c-.252-.363-.578-.766-1.02-.757-.757.016-1.249,1.23-1.951.947-.417-.168-.46-.723-.6-1.149-1.042-3.112-6.6,1.412-4.055,3.818a13.874,13.874,0,0,0,2.223,1.207,7.692,7.692,0,0,1,2.205,3.019c.993,1.8,2.311,3.425,3.165,5.3s1.184,4.159.151,5.94c-.877,1.511-2.477,2.277-3.949,3.085a18.544,18.544,0,0,0-4.489,3.594c-.425.432-1.038.9-1.574.615a1.525,1.525,0,0,1-.568-.762,2.431,2.431,0,0,0-4.685.957,6.045,6.045,0,0,0,1.812,4.18,14.9,14.9,0,0,1,2.792,3.725,5.5,5.5,0,0,1-.451,5c-.895,1.386-2.7,2.339-4.225,1.7-2.176-.909-2.549-4.339-4.825-4.954-.86-.232-1.909-.022-2.54-.65-.722-.719-.427-2.133-1.262-2.716-1.532-1.069-2.514,0-3.426-2.109-1.155-2.672-3.031-5.82-5.716-7.2a3.351,3.351,0,0,0-2.422-.34,5.015,5.015,0,0,0-1.771,1.118c-1.874,1.591-3.881,3.092-5.665,4.777a8.74,8.74,0,0,0-2.836,4.952c-.336,2.063.755,4.194.076,6.2a2.428,2.428,0,0,1-2.269,1.771,2.459,2.459,0,0,1-1.862-1.36c-2.163-3.931-3.207-8.808-3.975-13.167-.138-.784-.2-2.319-1.058-2.706s-2.115.459-3.143.02-1.631-1.512-2.334-2.4a8.867,8.867,0,0,0-6.071-3.267c-2.12-.19-4.372.378-6.319-.481-1.4-.619-2.449-1.867-3.931-2.341-1.644-.526-3.274-.555-4.808-1.421-1.158-.653-2.654-2.46-3.817-.48a3.142,3.142,0,0,0,.242,3.1,5.513,5.513,0,0,0,4.425,2.67c1.541.07,3.088-.517,4.6-.237a4.246,4.246,0,0,1,3.326,4.482,7.258,7.258,0,0,1-2.046,3.8,29.552,29.552,0,0,1-10.956,7.8,4.381,4.381,0,0,1-2.5.445c-1.427-.3-2.228-1.781-2.838-3.1a112.656,112.656,0,0,0-5.924-12.13c-.942-1.527-3.584-6.832-5.913-6.3-.986.226-.871,1.667-.5,2.607a73.663,73.663,0,0,0,12.039,20.159,4.687,4.687,0,0,0,1.371,1.239c1.236.632,2.71.108,4.067-.185s3.123-.127,3.638,1.163a3,3,0,0,1-.04,1.871c-1.212,4.536-4.927,7.874-8.1,11.334s-6.11,7.916-5.194,12.522c.453,2.283,1.841,4.525,1.259,6.78-.988,3.829-7.037,5.23-6.908,9.182.033,1.007.51,2,.3,2.991a4.457,4.457,0,0,1-.985,1.752l-3.587,4.575c-3.406,4.346-7.6,9.1-13.123,9.1a2.735,2.735,0,0,1-1.817-.507,3.19,3.19,0,0,1-.794-1.4l-6.43-17.92a14.117,14.117,0,0,1-1.126-4.948c.039-2.135,1.035-4.123,1.489-6.209a12.6,12.6,0,0,0-3.146-11.181,6.928,6.928,0,0,1-2.107-2.845c-.486-1.991,1.319-4.232.3-6.009a4.341,4.341,0,0,0-1.658-1.417c-2.138-1.272-4.375-2.577-6.855-2.764-4.118-.311-7.754,2.347-11.818,2.319-4.7-.032-5.837-4.088-8.5-7.1-1.214-1.372-2.894-2.487-3.378-4.254-.513-1.875.556-3.452.946-5.211.452-2.036.061-4.061.225-6.114.281-3.523,2.505-5.847,4.788-8.3a60.778,60.778,0,0,1,7.488-7.165c5.207-3.953,11.264-4.911,17.672-4.815,3.223.049,2,1.956,3.3,3.947A9.453,9.453,0,0,0,244,75.5c1.73.835,3.762,1.677,5.494.846.629-.3,1.146-.8,1.771-1.111,1.941-.96,4.2.122,6.284.717a13.743,13.743,0,0,0,7.369.037,6.526,6.526,0,0,0,3.354-1.91,3.241,3.241,0,0,0,.475-3.641c-.862-1.416-2.811-1.627-4.466-1.555s-3.512.21-4.763-.878c-1.04-.9-1.326-2.39-2.1-3.53s-2.7-1.785-3.411-.6c-.574.955.138,2.422-.668,3.19-1.51,1.44-3.1-1.628-3.563-2.668a13.9,13.9,0,0,0-7.648-7.351,1,1,0,0,0-.874.066c-.7.426-.267,1.427.292,1.952.535.5,1.226,1.078,1.08,1.8-.265,1.3-1.879.77-2.574.236-.545-.419-.993-.96-1.557-1.354a5.053,5.053,0,0,0-5.062-.075c-3.647,1.836-5.15,6.2-8.793,8.014-3.809,1.9-9.754-1.921-6.791-6.239a4.231,4.231,0,0,1,3.783-1.785c.726.063,1.426.317,2.152.361a1.97,1.97,0,0,0,1.891-.832c.574-1.069-.493-2.243-.837-3.406a3.916,3.916,0,0,1,.691-3.254c3.183-4.6,11.228-7.917,16.689-6.889,2.379.447,5.245.736,6.832-1.092.609-.7.98-1.679,1.827-2.06.315-.142.669-.184.982-.33a1.672,1.672,0,0,0,.72-2.241,1.071,1.071,0,0,1,.139-.1" transform="translate(-205.506 -18.889)" fill="none"/>
    </clipPath>
    <linearGradient id="linear-gradient-8" x1="-0.599" y1="1.163" x2="-0.596" y2="1.163" xlink:href="#linear-gradient-5"/>
    <clipPath id="clip-path-8">
      <path id="Path_84499" data-name="Path 84499" d="M490.422,249.212a5.662,5.662,0,0,0-3.947-.472c-4.987.953-9.667,3-14.649,3.952a2.287,2.287,0,0,1-1.567-.084c-.946-.545-.1-1.839.1-2.528.652-2.212-.016-4.164.041-6.374.11-4.254.577-7.563,4.858-9.153,1.644-.611,3.355-.955,4.959-1.726a4.222,4.222,0,0,0,2.429-2.553,1.183,1.183,0,0,1,.183-.482c.363-.439,1.312-.379,1.777-.821.884-.843,1.431-2.119,2.388-2.986a1.9,1.9,0,0,1,1.147-.6,1.8,1.8,0,0,1,1.316.761c1.969,2.273,2.633-.125,4.07-1.664,1.383-1.481,3.786-1.753,5.708-1.6a1.147,1.147,0,0,1,.678.213c.392.343.2.973.018,1.463-1.357,3.688,4.716,7.216,6.3,3.193a37.313,37.313,0,0,1,1.317-3.8c1.4-2.682,3.615,5.962,3.6,7.107a1.523,1.523,0,0,0,.093.692c.166.34.558.486.879.689,1.168.736,1.57,2.482,2.116,3.68.744,1.633,2.456,1.252,2.614,3.438a31.242,31.242,0,0,1-.012,3.555,4.075,4.075,0,0,1-.138,1.062c-.228.723-.855,1.306-.929,2.06a5.042,5.042,0,0,1-.051.895,1.855,1.855,0,0,1-.4.648c-2.067,2.483-4.29,4.812-6.551,7.117a15.385,15.385,0,0,1-4.747,2.989c-1.9.87-3.522.443-5.571.2a2.258,2.258,0,0,1-1.808-.821c-.436-.766.154-1.57-.035-2.339-.173-.706-.909-1.111-1.033-1.82-.09-.516.236-1.138-.118-1.524-.331-.363-.936-.146-1.333.144s-.848.656-1.319.516-.651-.713-.84-1.176a3.727,3.727,0,0,0-1.547-1.852" transform="translate(-469.819 -222.84)" fill="none"/>
    </clipPath>
    <linearGradient id="linear-gradient-9" x1="-5.581" y1="1.482" x2="-5.569" y2="1.482" xlink:href="#linear-gradient-5"/>
    <clipPath id="clip-path-9">
      <path id="Path_84500" data-name="Path 84500" d="M179.341,14.409c-.031-.014-.062-.027-.094-.04a1.2,1.2,0,0,1,.211-2.309,6.23,6.23,0,0,0,1.3-.321h0c1.393-.677.659-1.695-.649-1.464-3.184.561-6.294,1.423-9.465,2.032-2,.382-3.643,1.723-5.471,2.528a3.137,3.137,0,0,1-1.235.325,7.155,7.155,0,0,1-2.248-.771c-.777-.272-1.623-.282-2.408-.529a2.081,2.081,0,0,1-1.6-1.673v0a5.949,5.949,0,0,1,3.843-1.718,26.092,26.092,0,0,0,4.86-.633c1.655-.527,3.174-1.417,4.871-1.828a18.259,18.259,0,0,1,5.512-.19l8.065.539,1.271.085c2.038.136,5.118.618,7.07-.253a4.224,4.224,0,0,1,.772-.354,1.918,1.918,0,0,1,.949.111,27.675,27.675,0,0,0,8.57,1.007l7.366-.04a6.527,6.527,0,0,0,1.79-.176,10.671,10.671,0,0,1,1.363-.438c.9-.132,3.592.781,3.735,1.793a.823.823,0,0,1-.12.609,1.118,1.118,0,0,1-.43.3,9.776,9.776,0,0,0-1.955,1.128,2.99,2.99,0,0,0-1.151,1.883,3.561,3.561,0,0,1-.2,1.388,1.539,1.539,0,0,1-.846.618,15.532,15.532,0,0,1-2.529.423,2.527,2.527,0,0,0-2.3,2.842A4.723,4.723,0,0,1,208.388,21a1.689,1.689,0,0,1-1.015,1.066c-1.969.837-4.382.413-6.444.893-2.721.633-5.01,2.505-7.7,3.262-1.385.39-2.668.622-3.616,1.774-1.032,1.253-1.3,3.008-2.655,4.025a3.331,3.331,0,0,1-3.167.421c-2.35-.936-3.2-4.83-3.618-7.015a1.639,1.639,0,0,1,.048-1.089c.343-.633,1.544-.141,2.133-.328a2.878,2.878,0,0,0,1.8-1.951,4.826,4.826,0,0,0-.77-3.719,11.173,11.173,0,0,0-3.735-3.778,3.115,3.115,0,0,0-.311-.156" transform="translate(-157.691 -7.7)" fill="none"/>
    </clipPath>
    <linearGradient id="linear-gradient-10" x1="-1.488" y1="6.963" x2="-1.479" y2="6.963" xlink:href="#linear-gradient-5"/>
    <clipPath id="clip-path-10">
      <path id="Path_84501" data-name="Path 84501" d="M153.294,28.12c-.144.138-.269.28-.4.41a.771.771,0,0,1-1.183-.119l-.383-.57a.771.771,0,0,1,.129-1.007l1.022-.907a.779.779,0,0,1,.842-.131c1.8.841,3.965-.978,6.228-.388a.74.74,0,0,1,.408.266c.354.471,1.086.634,1.754,1.107a.762.762,0,0,0,.438.135h1.389a.764.764,0,0,1,.388.1c.9.529.642,1.319.72,2a.758.758,0,0,0,.22.448l1.609,1.61a.771.771,0,0,1,.226.546v1.25a.77.77,0,0,1-.784.772h-.02a.77.77,0,0,0-.7,1.116l.173.347a.772.772,0,0,1-.716,1.116c-.21-.007-.423-.032-.63-.039a.771.771,0,0,0-.671,1.184,2.047,2.047,0,0,1,.256.5.767.767,0,0,1-.688.966c-.438.033-.908-.118-1.275-.092a.734.734,0,0,1-.384-.071l-3.937-1.972a.772.772,0,0,1-.426-.69v-.07a.765.765,0,0,1,.36-.653,2.537,2.537,0,0,1,1.5-.642c.8.04,1.022-.71,1.465-1.067a.755.755,0,0,0,.281-.576c.02-1.433-.774-2.471-1.453-3.64a.773.773,0,0,0-.7-.378c-1.569.053-2.885-1.145-4.554-1.079a.766.766,0,0,0-.5.206" transform="translate(-151.197 -25.287)" fill="none"/>
    </clipPath>
    <linearGradient id="linear-gradient-11" x1="-5.493" y1="11.838" x2="-5.457" y2="11.838" xlink:href="#linear-gradient-5"/>
    <clipPath id="clip-path-11">
      <path id="Path_84502" data-name="Path 84502" d="M482.062,186.238c.136,0,.264-.095.378-.39a6.434,6.434,0,0,0,.141-.778c.125-.514.584-.692.82-1.116.255-.457.168-.948.5-1.385a3.019,3.019,0,0,1,1.33-.881,5.511,5.511,0,0,0,2.212-1.1c.387-.416.6-.99,1.047-1.333,1.245-.944,2.493.5,2.7,1.659.178.986-.551,1.725-.747,2.633-.231,1.068,1.126,2.117.716,3-.19.409-.651.582-.813,1.019-.193.519.024,1.008-.355,1.511-.358.473-.844.73-1.134,1.258-.267.487-.3,1.133-.823,1.444a1.782,1.782,0,0,1-.867.175,14.258,14.258,0,0,1-3.938-.3,3.438,3.438,0,0,1-2.736-2.493c-.284-.659-.909-3.586.667-3.407.295.033.614.482.9.49" transform="translate(-480.134 -178.946)" fill="none"/>
    </clipPath>
    <linearGradient id="linear-gradient-12" x1="-22.661" y1="5.811" x2="-22.614" y2="5.811" xlink:href="#linear-gradient-5"/>
    <clipPath id="clip-path-12">
      <path id="Path_84503" data-name="Path 84503" d="M336.106,229.882a1.9,1.9,0,0,1,1.319-1.09,7.575,7.575,0,0,0,4.16-2.837,2.253,2.253,0,0,1,.584-.637c.9-.552,1.036.744,1.064,1.325a12.555,12.555,0,0,1-.229,2.313,26.987,26.987,0,0,1-1.525,5.058c-.535,1.548-1.037,3.106-1.565,4.656-.4,1.185-.657,2.483-1.987,2.956a2.6,2.6,0,0,1-2.721-.684,3.659,3.659,0,0,1-.844-2.12,3.83,3.83,0,0,1,.2-1.843,14.526,14.526,0,0,1,1.222-1.883,5.148,5.148,0,0,0,.4-3.962,2.449,2.449,0,0,1-.079-1.252" transform="translate(-334.334 -225.185)" fill="none"/>
    </clipPath>
    <linearGradient id="linear-gradient-13" x1="-21.118" y1="3.086" x2="-21.054" y2="3.086" xlink:href="#linear-gradient-5"/>
    <clipPath id="clip-path-13">
      <path id="Path_84504" data-name="Path 84504" d="M104.82,24.629a8.87,8.87,0,0,0,2.931,1.879,1.278,1.278,0,0,0,1,.067c1.1-.386,2.333-.315,3.5-.689a1.283,1.283,0,0,1,1.665,1.23v.829a1.29,1.29,0,0,1-.838,1.206c-.866.325-1.923.3-2.838.686a1.967,1.967,0,0,1-1.935-.207,1.726,1.726,0,0,0-1.891-.113c-1.3.714-2.655.23-3.977.342-.146.012-.308-.154-.49-.351a1.291,1.291,0,0,1-.344-.876v-.556a1.285,1.285,0,0,0-1.291-1.286h-.043a1.286,1.286,0,0,1-.557-2.448c.237-.113.476-.226.71-.347a1.3,1.3,0,0,1,1.162-.018,4.739,4.739,0,0,0,2.226.214,1.272,1.272,0,0,1,1.008.439" transform="translate(-98.978 -23.848)" fill="none"/>
    </clipPath>
    <linearGradient id="linear-gradient-14" x1="-3.6" y1="25.941" x2="-3.563" y2="25.941" xlink:href="#linear-gradient-5"/>
    <clipPath id="clip-path-14">
      <path id="Path_84505" data-name="Path 84505" d="M465.874,197.421v.985a1.43,1.43,0,0,1-1.243,1.43,2.605,2.605,0,0,1-.52,0,1.433,1.433,0,0,1-.993-.524c-2.048-2.533-3.394-5.529-5.447-8.055-.024-.03-.049-.061-.073-.092a1.443,1.443,0,0,1,1.678-2.2,1.471,1.471,0,0,0,.551.1,1.44,1.44,0,0,1,1.231.62c1.645,2.379,3.258,4.589,4.633,7.033a1.434,1.434,0,0,1,.181.7" transform="translate(-457.303 -188.869)" fill="none"/>
    </clipPath>
    <linearGradient id="linear-gradient-15" x1="-28.285" y1="6.467" x2="-28.223" y2="6.467" xlink:href="#linear-gradient-5"/>
    <clipPath id="clip-path-15">
      <rect id="Rectangle_23200" data-name="Rectangle 23200" width="18.062" height="18.062" fill="none"/>
    </clipPath>
    <clipPath id="clip-path-16">
      <path id="Path_84506" data-name="Path 84506" d="M421.612,122.916a9.031,9.031,0,1,1-9.031-9.031,9.031,9.031,0,0,1,9.031,9.031" transform="translate(-403.55 -113.885)" fill="none"/>
    </clipPath>
    <linearGradient id="linear-gradient-16" x1="-12.665" y1="6.407" x2="-12.634" y2="6.407" xlink:href="#linear-gradient-5"/>
    <clipPath id="clip-path-17">
      <path id="Path_84507" data-name="Path 84507" d="M408.4,125.02a6.279,6.279,0,1,0,6.279-6.28,6.279,6.279,0,0,0-6.279,6.28" transform="translate(-408.405 -118.74)" fill="none"/>
    </clipPath>
    <linearGradient id="linear-gradient-17" x1="-18.436" y1="8.996" x2="-18.391" y2="8.996" xlink:href="#linear-gradient-5"/>
    <clipPath id="clip-path-18">
      <path id="Path_84508" data-name="Path 84508" d="M409.136,107.449c0,2.743,4.207,8.319,5.494,9.961a.47.47,0,0,0,.74,0c1.288-1.642,5.5-7.217,5.5-9.961a5.865,5.865,0,0,0-11.729,0" transform="translate(-409.136 -101.585)" fill="none"/>
    </clipPath>
    <linearGradient id="linear-gradient-18" x1="-11.524" y1="6.802" x2="-11.495" y2="6.802" xlink:href="#linear-gradient-5"/>
    <clipPath id="clip-path-20">
      <path id="Path_84510" data-name="Path 84510" d="M413.548,109.159a3.364,3.364,0,1,0,3.363-3.363,3.363,3.363,0,0,0-3.363,3.363" transform="translate(-413.548 -105.796)" fill="none"/>
    </clipPath>
    <linearGradient id="linear-gradient-19" x1="-34.849" y1="17.887" x2="-34.764" y2="17.887" xlink:href="#linear-gradient-5"/>
    <clipPath id="clip-path-22">
      <rect id="Rectangle_23207" data-name="Rectangle 23207" width="25.978" height="25.979" fill="none"/>
    </clipPath>
    <clipPath id="clip-path-23">
      <path id="Path_84512" data-name="Path 84512" d="M447.843,46.919A12.989,12.989,0,1,1,434.854,33.93a12.989,12.989,0,0,1,12.989,12.989" transform="translate(-421.865 -33.93)" fill="none"/>
    </clipPath>
    <linearGradient id="linear-gradient-20" x1="-9.206" y1="6.199" x2="-9.184" y2="6.199" xlink:href="#linear-gradient-5"/>
    <clipPath id="clip-path-24">
      <path id="Path_84513" data-name="Path 84513" d="M428.847,49.943a9.031,9.031,0,1,0,9.031-9.031,9.031,9.031,0,0,0-9.031,9.031" transform="translate(-428.847 -40.912)" fill="none"/>
    </clipPath>
    <linearGradient id="linear-gradient-21" x1="-13.459" y1="8.697" x2="-13.428" y2="8.697" xlink:href="#linear-gradient-5"/>
    <clipPath id="clip-path-25">
      <path id="Path_84514" data-name="Path 84514" d="M428.847,24.539c0,4.225,6.479,12.811,8.462,15.34a.725.725,0,0,0,1.139,0c1.982-2.529,8.461-11.115,8.461-15.34a9.031,9.031,0,0,0-18.062,0" transform="translate(-428.847 -15.508)" fill="none"/>
    </clipPath>
    <linearGradient id="linear-gradient-22" x1="-7.778" y1="6.179" x2="-7.76" y2="6.179" xlink:href="#linear-gradient-5"/>
    <clipPath id="clip-path-27">
      <path id="Path_84516" data-name="Path 84516" d="M435.641,27.174a5.18,5.18,0,1,0,5.18-5.181,5.18,5.18,0,0,0-5.18,5.181" transform="translate(-435.641 -21.993)" fill="none"/>
    </clipPath>
    <linearGradient id="linear-gradient-23" x1="-23.837" y1="16.199" x2="-23.782" y2="16.199" xlink:href="#linear-gradient-5"/>
    <clipPath id="clip-path-29">
      <rect id="Rectangle_23214" data-name="Rectangle 23214" width="18.063" height="18.063" fill="none"/>
    </clipPath>
    <clipPath id="clip-path-30">
      <path id="Path_84518" data-name="Path 84518" d="M492.318,119.483a9.031,9.031,0,1,1-9.031-9.031,9.031,9.031,0,0,1,9.031,9.031" transform="translate(-474.255 -110.452)" fill="none"/>
    </clipPath>
    <linearGradient id="linear-gradient-24" x1="-14.884" y1="6.515" x2="-14.852" y2="6.515" xlink:href="#linear-gradient-5"/>
    <clipPath id="clip-path-31">
      <path id="Path_84519" data-name="Path 84519" d="M479.11,121.586a6.279,6.279,0,1,0,6.279-6.279,6.279,6.279,0,0,0-6.279,6.279" transform="translate(-479.11 -115.307)" fill="none"/>
    </clipPath>
    <linearGradient id="linear-gradient-25" x1="-21.626" y1="9.151" x2="-21.581" y2="9.151" xlink:href="#linear-gradient-5"/>
    <clipPath id="clip-path-32">
      <path id="Path_84520" data-name="Path 84520" d="M479.878,105.662c0,2.734,4.192,8.289,5.475,9.925a.468.468,0,0,0,.737,0c1.283-1.636,5.475-7.191,5.475-9.925a5.844,5.844,0,0,0-11.687,0" transform="translate(-479.878 -99.819)" fill="none"/>
    </clipPath>
    <linearGradient id="linear-gradient-26" x1="-13.6" y1="6.881" x2="-13.572" y2="6.881" xlink:href="#linear-gradient-5"/>
    <clipPath id="clip-path-34">
      <path id="Path_84522" data-name="Path 84522" d="M484.275,107.367a3.352,3.352,0,1,0,3.351-3.352,3.351,3.351,0,0,0-3.351,3.352" transform="translate(-484.275 -104.015)" fill="none"/>
    </clipPath>
    <linearGradient id="linear-gradient-27" x1="-40.953" y1="18.099" x2="-40.869" y2="18.099" xlink:href="#linear-gradient-5"/>
    <clipPath id="clip-path-36">
      <rect id="Rectangle_23221" data-name="Rectangle 23221" width="25.979" height="25.979" fill="none"/>
    </clipPath>
    <clipPath id="clip-path-37">
      <path id="Path_84524" data-name="Path 84524" d="M296.67,238.174a12.989,12.989,0,1,1-12.989-12.989,12.989,12.989,0,0,1,12.989,12.989" transform="translate(-270.691 -225.185)" fill="none"/>
    </clipPath>
    <linearGradient id="linear-gradient-28" x1="-5.907" y1="2.026" x2="-5.885" y2="2.026" xlink:href="#linear-gradient-5"/>
    <clipPath id="clip-path-38">
      <path id="Path_84525" data-name="Path 84525" d="M277.673,241.2a9.031,9.031,0,1,0,9.031-9.031,9.031,9.031,0,0,0-9.031,9.031" transform="translate(-277.673 -232.167)" fill="none"/>
    </clipPath>
    <linearGradient id="linear-gradient-29" x1="-8.714" y1="2.695" x2="-8.683" y2="2.695" xlink:href="#linear-gradient-5"/>
    <clipPath id="clip-path-39">
      <path id="Path_84526" data-name="Path 84526" d="M278.357,217.606c0,4.043,6.2,12.261,8.1,14.681a.694.694,0,0,0,1.091,0c1.9-2.421,8.1-10.639,8.1-14.681a8.644,8.644,0,1,0-17.287,0" transform="translate(-278.357 -208.962)" fill="none"/>
    </clipPath>
    <linearGradient id="linear-gradient-30" x1="-5.21" y1="2.363" x2="-5.19" y2="2.363" xlink:href="#linear-gradient-5"/>
    <clipPath id="clip-path-41">
      <path id="Path_84528" data-name="Path 84528" d="M284.859,220.126a4.958,4.958,0,1,0,4.958-4.957,4.958,4.958,0,0,0-4.958,4.957" transform="translate(-284.859 -215.169)" fill="none"/>
    </clipPath>
    <linearGradient id="linear-gradient-31" x1="-16.286" y1="5.881" x2="-16.229" y2="5.881" xlink:href="#linear-gradient-5"/>
    <clipPath id="clip-path-42">
      <rect id="Rectangle_23229" data-name="Rectangle 23229" width="315.374" height="180.288" fill="url(#linear-gradient)"/>
    </clipPath>
    <clipPath id="clip-path-43">
      <rect id="Rectangle_23228" data-name="Rectangle 23228" width="18.062" height="18.062" fill="url(#linear-gradient)"/>
    </clipPath>
    <clipPath id="clip-path-44">
      <path id="Path_84530" data-name="Path 84530" d="M273.188,130.561a9.031,9.031,0,1,1-9.031-9.031,9.031,9.031,0,0,1,9.031,9.031" transform="translate(-255.126 -121.53)" fill="#8abb2a"/>
    </clipPath>
    <clipPath id="clip-path-45">
      <path id="Path_84531" data-name="Path 84531" d="M259.98,132.663a6.28,6.28,0,1,0,6.279-6.279,6.279,6.279,0,0,0-6.279,6.279" transform="translate(-259.98 -126.384)" fill="url(#linear-gradient)"/>
    </clipPath>
    <linearGradient id="linear-gradient-32" x1="-11.735" y1="8.651" x2="-11.689" y2="8.651" xlink:href="#linear-gradient"/>
    <clipPath id="clip-path-46">
      <path id="Path_84532" data-name="Path 84532" d="M260.713,116.747c0,2.743,4.207,8.318,5.494,9.96a.47.47,0,0,0,.74,0c1.287-1.642,5.494-7.217,5.494-9.96a5.864,5.864,0,1,0-11.728,0" transform="translate(-260.713 -110.882)" fill="url(#linear-gradient-4)"/>
    </clipPath>
    <clipPath id="clip-path-48">
      <path id="Path_84534" data-name="Path 84534" d="M265.49,118.457a3.364,3.364,0,1,0,3.364-3.363,3.364,3.364,0,0,0-3.364,3.363" transform="translate(-265.49 -115.094)" fill="#678a23"/>
    </clipPath>
    <clipPath id="clip-path-50">
      <rect id="Rectangle_23235" data-name="Rectangle 23235" width="10.204" height="10.204" fill="none"/>
    </clipPath>
    <clipPath id="clip-path-51">
      <path id="Path_84536" data-name="Path 84536" d="M250.438,11.617a5.1,5.1,0,1,1-5.1-5.1,5.1,5.1,0,0,1,5.1,5.1" transform="translate(-240.234 -6.515)" fill="none"/>
    </clipPath>
    <linearGradient id="linear-gradient-34" x1="-13.346" y1="17.307" x2="-13.291" y2="17.307" xlink:href="#linear-gradient-5"/>
    <clipPath id="clip-path-52">
      <path id="Path_84537" data-name="Path 84537" d="M242.977,12.8a3.547,3.547,0,1,0,3.547-3.548,3.547,3.547,0,0,0-3.547,3.548" transform="translate(-242.977 -9.257)" fill="none"/>
    </clipPath>
    <linearGradient id="linear-gradient-35" x1="-19.416" y1="24.671" x2="-19.337" y2="24.671" xlink:href="#linear-gradient-5"/>
    <clipPath id="clip-path-53">
      <path id="Path_84538" data-name="Path 84538" d="M243.39,3.813c0,1.549,2.377,4.7,3.1,5.626a.266.266,0,0,0,.418,0c.728-.927,3.1-4.077,3.1-5.626a3.313,3.313,0,1,0-6.626,0" transform="translate(-243.39 -0.5)" fill="none"/>
    </clipPath>
    <linearGradient id="linear-gradient-36" x1="-12.146" y1="17.572" x2="-12.095" y2="17.572" xlink:href="#linear-gradient-5"/>
    <clipPath id="clip-path-55">
      <path id="Path_84540" data-name="Path 84540" d="M246.089,4.78a1.9,1.9,0,1,0,1.9-1.9,1.9,1.9,0,0,0-1.9,1.9" transform="translate(-246.089 -2.88)" fill="none"/>
    </clipPath>
    <linearGradient id="linear-gradient-37" x1="-36.708" y1="47.018" x2="-36.559" y2="47.018" xlink:href="#linear-gradient-5"/>
    <clipPath id="clip-path-57">
      <rect id="Rectangle_23242" data-name="Rectangle 23242" width="13.926" height="13.926" fill="none"/>
    </clipPath>
    <clipPath id="clip-path-58">
      <path id="Path_84542" data-name="Path 84542" d="M125.8,54.717a6.963,6.963,0,1,1-6.963-6.963,6.963,6.963,0,0,1,6.963,6.963" transform="translate(-111.874 -47.754)" fill="none"/>
    </clipPath>
    <linearGradient id="linear-gradient-38" x1="-4.554" y1="11.002" x2="-4.513" y2="11.002" xlink:href="#linear-gradient-5"/>
    <clipPath id="clip-path-59">
      <path id="Path_84543" data-name="Path 84543" d="M115.617,56.339a4.841,4.841,0,1,0,4.842-4.842,4.842,4.842,0,0,0-4.842,4.842" transform="translate(-115.617 -51.497)" fill="none"/>
    </clipPath>
    <linearGradient id="linear-gradient-39" x1="-6.769" y1="15.604" x2="-6.71" y2="15.604" xlink:href="#linear-gradient-5"/>
    <clipPath id="clip-path-60">
      <path id="Path_84544" data-name="Path 84544" d="M116.182,44.067c0,2.114,3.243,6.413,4.236,7.679a.362.362,0,0,0,.57,0c.992-1.266,4.236-5.564,4.236-7.679a4.521,4.521,0,1,0-9.042,0" transform="translate(-116.182 -39.545)" fill="none"/>
    </clipPath>
    <linearGradient id="linear-gradient-40" x1="-4.116" y1="11.313" x2="-4.079" y2="11.313" xlink:href="#linear-gradient-5"/>
    <clipPath id="clip-path-62">
      <path id="Path_84546" data-name="Path 84546" d="M119.865,45.385a2.593,2.593,0,1,0,2.593-2.593,2.593,2.593,0,0,0-2.593,2.593" transform="translate(-119.865 -42.792)" fill="none"/>
    </clipPath>
    <linearGradient id="linear-gradient-41" x1="-13.1" y1="30.085" x2="-12.991" y2="30.085" xlink:href="#linear-gradient-5"/>
    <clipPath id="clip-path-64">
      <rect id="Rectangle_23249" data-name="Rectangle 23249" width="23.799" height="23.799" fill="none"/>
    </clipPath>
    <clipPath id="clip-path-65">
      <path id="Path_84548" data-name="Path 84548" d="M63.744,119.921a11.9,11.9,0,1,1-11.9-11.9,11.9,11.9,0,0,1,11.9,11.9" transform="translate(-39.945 -108.022)" fill="none"/>
    </clipPath>
    <linearGradient id="linear-gradient-42" x1="-0.951" y1="5.002" x2="-0.928" y2="5.002" xlink:href="#linear-gradient-5"/>
    <clipPath id="clip-path-66">
      <path id="Path_84549" data-name="Path 84549" d="M46.341,122.692a8.274,8.274,0,1,0,8.274-8.273,8.274,8.274,0,0,0-8.274,8.273" transform="translate(-46.341 -114.419)" fill="none"/>
    </clipPath>
    <linearGradient id="linear-gradient-43" x1="-1.588" y1="6.976" x2="-1.553" y2="6.976" xlink:href="#linear-gradient-5"/>
    <clipPath id="clip-path-67">
      <path id="Path_84550" data-name="Path 84550" d="M47.306,101.721c0,3.614,5.543,10.96,7.24,13.124a.62.62,0,0,0,.974,0c1.7-2.164,7.239-9.509,7.239-13.124a7.727,7.727,0,0,0-15.453,0" transform="translate(-47.306 -93.994)" fill="none"/>
    </clipPath>
    <linearGradient id="linear-gradient-44" x1="-0.826" y1="5.356" x2="-0.804" y2="5.356" xlink:href="#linear-gradient-5"/>
    <clipPath id="clip-path-69">
      <path id="Path_84552" data-name="Path 84552" d="M53.6,103.974a4.432,4.432,0,1,0,4.432-4.432,4.432,4.432,0,0,0-4.432,4.432" transform="translate(-53.601 -99.542)" fill="none"/>
    </clipPath>
    <linearGradient id="linear-gradient-45" x1="-3.428" y1="13.974" x2="-3.364" y2="13.974" xlink:href="#linear-gradient-5"/>
    <clipPath id="clip-path-72">
      <path id="Path_84554" data-name="Path 84554" d="M129.515,204.041a6.963,6.963,0,1,1-6.963-6.963,6.963,6.963,0,0,1,6.963,6.963" transform="translate(-115.589 -197.078)" fill="none"/>
    </clipPath>
    <linearGradient id="linear-gradient-46" x1="-4.705" y1="4.924" x2="-4.664" y2="4.924" xlink:href="#linear-gradient-5"/>
    <clipPath id="clip-path-73">
      <path id="Path_84555" data-name="Path 84555" d="M119.332,205.662a4.841,4.841,0,1,0,4.842-4.842,4.842,4.842,0,0,0-4.842,4.842" transform="translate(-119.332 -200.82)" fill="none"/>
    </clipPath>
    <linearGradient id="linear-gradient-47" x1="-6.986" y1="6.862" x2="-6.928" y2="6.862" xlink:href="#linear-gradient-5"/>
    <clipPath id="clip-path-74">
      <path id="Path_84556" data-name="Path 84556" d="M119.9,193.39c0,2.114,3.243,6.414,4.236,7.679a.362.362,0,0,0,.57,0c.992-1.266,4.236-5.565,4.236-7.679a4.521,4.521,0,1,0-9.043,0" transform="translate(-119.897 -188.869)" fill="none"/>
    </clipPath>
    <linearGradient id="linear-gradient-48" x1="-4.254" y1="5.277" x2="-4.217" y2="5.277" xlink:href="#linear-gradient-5"/>
    <clipPath id="clip-path-76">
      <path id="Path_84558" data-name="Path 84558" d="M123.58,194.708a2.593,2.593,0,1,0,2.594-2.593,2.594,2.594,0,0,0-2.594,2.593" transform="translate(-123.58 -192.115)" fill="none"/>
    </clipPath>
    <linearGradient id="linear-gradient-49" x1="-13.506" y1="13.761" x2="-13.397" y2="13.761" xlink:href="#linear-gradient-5"/>
  </defs>
  <g id="Group_99141" data-name="Group 99141" transform="translate(-10.749)">
    <g id="Group_99140" data-name="Group 99140" transform="translate(10.749)" clip-path="url(#clip-path)">
      <g id="Group_99009" data-name="Group 99009">
        <g id="Group_99008" data-name="Group 99008" clip-path="url(#clip-path)">
          <g id="Group_99002" data-name="Group 99002" transform="translate(0 4.365)" opacity="0.3">
            <g id="Group_99001" data-name="Group 99001">
              <g id="Group_99000" data-name="Group 99000" clip-path="url(#clip-path-3)">
                <g id="Group_98979" data-name="Group 98979" transform="translate(0 12.565)">
                  <g id="Group_98978" data-name="Group 98978" clip-path="url(#clip-path-4)">
                    <rect id="Rectangle_23187" data-name="Rectangle 23187" width="101.652" height="81.429" transform="translate(-0.107 -0.384)" fill="url(#linear-gradient-5)"/>
                  </g>
                </g>
                <g id="Group_98981" data-name="Group 98981" transform="translate(58.418 89.887)">
                  <g id="Group_98980" data-name="Group 98980" clip-path="url(#clip-path-5)">
                    <rect id="Rectangle_23188" data-name="Rectangle 23188" width="57.367" height="86.345" transform="translate(-0.12 -0.219)" fill="url(#linear-gradient-6)"/>
                  </g>
                </g>
                <g id="Group_98983" data-name="Group 98983" transform="translate(297.647 107.823)">
                  <g id="Group_98982" data-name="Group 98982" clip-path="url(#clip-path-6)">
                    <rect id="Rectangle_23189" data-name="Rectangle 23189" width="18.189" height="13.033" transform="translate(-0.378 -0.471)" fill="url(#linear-gradient-7)"/>
                  </g>
                </g>
                <g id="Group_98985" data-name="Group 98985" transform="translate(116.496 6.343)">
                  <g id="Group_98984" data-name="Group 98984" clip-path="url(#clip-path-7)">
                    <rect id="Rectangle_23190" data-name="Rectangle 23190" width="193.751" height="147.008" transform="translate(-0.376 -1.341)" fill="url(#linear-gradient-8)"/>
                  </g>
                </g>
                <g id="Group_98987" data-name="Group 98987" transform="translate(266.329 121.957)">
                  <g id="Group_98986" data-name="Group 98986" clip-path="url(#clip-path-8)">
                    <rect id="Rectangle_23191" data-name="Rectangle 23191" width="47.629" height="37.484" transform="translate(-0.506 -1.572)" fill="url(#linear-gradient-9)"/>
                  </g>
                </g>
                <g id="Group_98989" data-name="Group 98989" transform="translate(89.391 0)">
                  <g id="Group_98988" data-name="Group 98988" clip-path="url(#clip-path-9)">
                    <rect id="Rectangle_23192" data-name="Rectangle 23192" width="60.068" height="25.285" transform="translate(0 -0.129)" fill="url(#linear-gradient-10)"/>
                  </g>
                </g>
                <g id="Group_98991" data-name="Group 98991" transform="translate(85.71 9.97)">
                  <g id="Group_98990" data-name="Group 98990" clip-path="url(#clip-path-10)">
                    <rect id="Rectangle_23193" data-name="Rectangle 23193" width="15.588" height="14.059" transform="translate(-0.084 -0.47)" fill="url(#linear-gradient-11)"/>
                  </g>
                </g>
                <g id="Group_98993" data-name="Group 98993" transform="translate(272.176 97.075)">
                  <g id="Group_98992" data-name="Group 98992" clip-path="url(#clip-path-11)">
                    <rect id="Rectangle_23194" data-name="Rectangle 23194" width="11.987" height="13.682" transform="translate(-0.545 -0.639)" fill="url(#linear-gradient-12)"/>
                  </g>
                </g>
                <g id="Group_98995" data-name="Group 98995" transform="translate(189.525 123.287)">
                  <g id="Group_98994" data-name="Group 98994" clip-path="url(#clip-path-12)">
                    <rect id="Rectangle_23195" data-name="Rectangle 23195" width="8.973" height="17.192" transform="translate(-0.036 -0.418)" fill="url(#linear-gradient-13)"/>
                  </g>
                </g>
                <g id="Group_98997" data-name="Group 98997" transform="translate(56.108 9.154)">
                  <g id="Group_98996" data-name="Group 98996" clip-path="url(#clip-path-13)">
                    <rect id="Rectangle_23196" data-name="Rectangle 23196" width="15.444" height="6.431" transform="translate(-0.505 -0.048)" fill="url(#linear-gradient-14)"/>
                  </g>
                </g>
                <g id="Group_98999" data-name="Group 98999" transform="translate(259.233 102.7)">
                  <g id="Group_98998" data-name="Group 98998" clip-path="url(#clip-path-14)">
                    <rect id="Rectangle_23197" data-name="Rectangle 23197" width="9.145" height="11.386" transform="translate(-0.574 -0.4)" fill="url(#linear-gradient-15)"/>
                  </g>
                </g>
              </g>
            </g>
          </g>
          <g id="Group_99007" data-name="Group 99007" transform="translate(228.762 64.559)" opacity="0.2">
            <g id="Group_99006" data-name="Group 99006">
              <g id="Group_99005" data-name="Group 99005" clip-path="url(#clip-path-15)">
                <g id="Group_99004" data-name="Group 99004" transform="translate(0 -0.001)">
                  <g id="Group_99003" data-name="Group 99003" clip-path="url(#clip-path-16)">
                    <rect id="Rectangle_23199" data-name="Rectangle 23199" width="18.062" height="18.063" transform="translate(0 0)" fill="url(#linear-gradient-16)"/>
                  </g>
                </g>
              </g>
            </g>
          </g>
        </g>
      </g>
      <g id="Group_99011" data-name="Group 99011" transform="translate(231.514 67.311)">
        <g id="Group_99010" data-name="Group 99010" clip-path="url(#clip-path-17)">
          <rect id="Rectangle_23202" data-name="Rectangle 23202" width="12.558" height="12.559" transform="translate(0 0)" fill="url(#linear-gradient-17)"/>
        </g>
      </g>
      <g id="Group_99013" data-name="Group 99013" transform="translate(231.929 57.586)">
        <g id="Group_99012" data-name="Group 99012" clip-path="url(#clip-path-18)">
          <rect id="Rectangle_23203" data-name="Rectangle 23203" width="19.777" height="18.19" transform="translate(-6.956 12.048) rotate(-60)" fill="url(#linear-gradient-18)"/>
        </g>
      </g>
      <g id="Group_99015" data-name="Group 99015">
        <g id="Group_99014" data-name="Group 99014" clip-path="url(#clip-path)">
          <path id="Path_84509" data-name="Path 84509" d="M420.865,107.448c0,2.743-4.207,8.318-5.494,9.961a.47.47,0,0,1-.74,0c-1.287-1.642-5.495-7.217-5.495-9.961a5.864,5.864,0,0,1,11.729,0Z" transform="translate(-177.207 -43.999)" fill="none" stroke="#fff" stroke-width="1"/>
        </g>
      </g>
      <g id="Group_99017" data-name="Group 99017" transform="translate(234.43 59.973)">
        <g id="Group_99016" data-name="Group 99016" clip-path="url(#clip-path-20)">
          <rect id="Rectangle_23205" data-name="Rectangle 23205" width="6.727" height="6.727" transform="translate(0 0)" fill="url(#linear-gradient-19)"/>
        </g>
      </g>
      <g id="Group_99024" data-name="Group 99024">
        <g id="Group_99023" data-name="Group 99023" clip-path="url(#clip-path)">
          <path id="Path_84511" data-name="Path 84511" d="M420.088,109.764a2.572,2.572,0,1,1-2.572-2.572,2.572,2.572,0,0,1,2.572,2.572" transform="translate(-179.723 -46.428)" fill="#fff"/>
          <g id="Group_99022" data-name="Group 99022" transform="translate(239.145 19.234)" opacity="0.2">
            <g id="Group_99021" data-name="Group 99021">
              <g id="Group_99020" data-name="Group 99020" clip-path="url(#clip-path-22)">
                <g id="Group_99019" data-name="Group 99019" transform="translate(0 0)">
                  <g id="Group_99018" data-name="Group 99018" clip-path="url(#clip-path-23)">
                    <rect id="Rectangle_23206" data-name="Rectangle 23206" width="25.978" height="25.979" transform="translate(0 0)" fill="url(#linear-gradient-20)"/>
                  </g>
                </g>
              </g>
            </g>
          </g>
        </g>
      </g>
      <g id="Group_99026" data-name="Group 99026" transform="translate(243.102 23.192)">
        <g id="Group_99025" data-name="Group 99025" clip-path="url(#clip-path-24)">
          <rect id="Rectangle_23209" data-name="Rectangle 23209" width="18.062" height="18.062" transform="translate(0 0)" fill="url(#linear-gradient-21)"/>
        </g>
      </g>
      <g id="Group_99028" data-name="Group 99028" transform="translate(243.102 8.791)">
        <g id="Group_99027" data-name="Group 99027" clip-path="url(#clip-path-25)">
          <rect id="Rectangle_23210" data-name="Rectangle 23210" width="30.457" height="28.012" transform="matrix(0.5, -0.866, 0.866, 0.5, -10.713, 18.555)" fill="url(#linear-gradient-22)"/>
        </g>
      </g>
      <g id="Group_99030" data-name="Group 99030">
        <g id="Group_99029" data-name="Group 99029" clip-path="url(#clip-path)">
          <path id="Path_84515" data-name="Path 84515" d="M446.909,24.538c0,4.224-6.479,12.811-8.462,15.34a.724.724,0,0,1-1.139,0c-1.982-2.529-8.461-11.115-8.461-15.34a9.031,9.031,0,1,1,18.062,0Z" transform="translate(-185.745 -6.716)" fill="none" stroke="#fff" stroke-width="1"/>
        </g>
      </g>
      <g id="Group_99032" data-name="Group 99032" transform="translate(246.954 12.467)">
        <g id="Group_99031" data-name="Group 99031" clip-path="url(#clip-path-27)">
          <rect id="Rectangle_23212" data-name="Rectangle 23212" width="10.36" height="10.36" transform="translate(0 0)" fill="url(#linear-gradient-23)"/>
        </g>
      </g>
      <g id="Group_99039" data-name="Group 99039">
        <g id="Group_99038" data-name="Group 99038" clip-path="url(#clip-path)">
          <path id="Path_84517" data-name="Path 84517" d="M445.713,28.1a3.96,3.96,0,1,1-3.961-3.961,3.961,3.961,0,0,1,3.961,3.961" transform="translate(-189.619 -10.457)" fill="#fff"/>
          <g id="Group_99037" data-name="Group 99037" transform="translate(268.843 62.612)" opacity="0.2">
            <g id="Group_99036" data-name="Group 99036">
              <g id="Group_99035" data-name="Group 99035" clip-path="url(#clip-path-29)">
                <g id="Group_99034" data-name="Group 99034" transform="translate(0 0)">
                  <g id="Group_99033" data-name="Group 99033" clip-path="url(#clip-path-30)">
                    <rect id="Rectangle_23213" data-name="Rectangle 23213" width="18.063" height="18.063" transform="translate(0 0)" fill="url(#linear-gradient-24)"/>
                  </g>
                </g>
              </g>
            </g>
          </g>
        </g>
      </g>
      <g id="Group_99041" data-name="Group 99041" transform="translate(271.595 65.365)">
        <g id="Group_99040" data-name="Group 99040" clip-path="url(#clip-path-31)">
          <rect id="Rectangle_23216" data-name="Rectangle 23216" width="12.559" height="12.559" transform="translate(0 0)" fill="url(#linear-gradient-25)"/>
        </g>
      </g>
      <g id="Group_99043" data-name="Group 99043" transform="translate(272.031 56.585)">
        <g id="Group_99042" data-name="Group 99042" clip-path="url(#clip-path-32)">
          <rect id="Rectangle_23217" data-name="Rectangle 23217" width="19.707" height="18.125" transform="translate(-6.932 12.006) rotate(-60)" fill="url(#linear-gradient-26)"/>
        </g>
      </g>
      <g id="Group_99045" data-name="Group 99045">
        <g id="Group_99044" data-name="Group 99044" clip-path="url(#clip-path)">
          <path id="Path_84521" data-name="Path 84521" d="M491.566,105.662c0,2.733-4.192,8.289-5.475,9.925a.469.469,0,0,1-.737,0c-1.283-1.636-5.475-7.192-5.475-9.925a5.844,5.844,0,1,1,11.687,0Z" transform="translate(-207.848 -43.234)" fill="none" stroke="#fff" stroke-width="1"/>
        </g>
      </g>
      <g id="Group_99047" data-name="Group 99047" transform="translate(274.523 58.963)">
        <g id="Group_99046" data-name="Group 99046" clip-path="url(#clip-path-34)">
          <rect id="Rectangle_23219" data-name="Rectangle 23219" width="6.703" height="6.703" transform="translate(0 0)" fill="url(#linear-gradient-27)"/>
        </g>
      </g>
      <g id="Group_99054" data-name="Group 99054">
        <g id="Group_99053" data-name="Group 99053" clip-path="url(#clip-path)">
          <path id="Path_84523" data-name="Path 84523" d="M490.792,107.97a2.563,2.563,0,1,1-2.563-2.563,2.563,2.563,0,0,1,2.563,2.563" transform="translate(-210.355 -45.654)" fill="#fff"/>
          <g id="Group_99052" data-name="Group 99052" transform="translate(153.448 127.652)" opacity="0.2">
            <g id="Group_99051" data-name="Group 99051">
              <g id="Group_99050" data-name="Group 99050" clip-path="url(#clip-path-36)">
                <g id="Group_99049" data-name="Group 99049" transform="translate(0 0)">
                  <g id="Group_99048" data-name="Group 99048" clip-path="url(#clip-path-37)">
                    <rect id="Rectangle_23220" data-name="Rectangle 23220" width="25.979" height="25.979" fill="url(#linear-gradient-28)"/>
                  </g>
                </g>
              </g>
            </g>
          </g>
        </g>
      </g>
      <g id="Group_99056" data-name="Group 99056" transform="translate(157.406 131.61)">
        <g id="Group_99055" data-name="Group 99055" clip-path="url(#clip-path-38)">
          <rect id="Rectangle_23223" data-name="Rectangle 23223" width="18.063" height="18.063" transform="translate(0 0)" fill="url(#linear-gradient-29)"/>
        </g>
      </g>
      <g id="Group_99058" data-name="Group 99058" transform="translate(157.793 118.455)">
        <g id="Group_99057" data-name="Group 99057" clip-path="url(#clip-path-39)">
          <rect id="Rectangle_23224" data-name="Rectangle 23224" width="29.15" height="26.81" transform="translate(-10.253 17.759) rotate(-60)" fill="url(#linear-gradient-30)"/>
        </g>
      </g>
      <g id="Group_99060" data-name="Group 99060">
        <g id="Group_99059" data-name="Group 99059" clip-path="url(#clip-path)">
          <path id="Path_84527" data-name="Path 84527" d="M295.644,217.606c0,4.044-6.2,12.261-8.1,14.681a.693.693,0,0,1-1.091,0c-1.9-2.42-8.1-10.638-8.1-14.681a8.644,8.644,0,1,1,17.287,0Z" transform="translate(-120.564 -90.507)" fill="none" stroke="#fff" stroke-width="1"/>
        </g>
      </g>
      <g id="Group_99062" data-name="Group 99062" transform="translate(161.479 121.974)">
        <g id="Group_99061" data-name="Group 99061" clip-path="url(#clip-path-41)">
          <rect id="Rectangle_23226" data-name="Rectangle 23226" width="9.915" height="9.915" transform="translate(0)" fill="url(#linear-gradient-31)"/>
        </g>
      </g>
      <g id="Group_99069" data-name="Group 99069">
        <g id="Group_99068" data-name="Group 99068" clip-path="url(#clip-path-42)">
          <path id="Path_84529" data-name="Path 84529" d="M294.5,221.019a3.791,3.791,0,1,1-3.791-3.791,3.791,3.791,0,0,1,3.791,3.791" transform="translate(-124.271 -94.087)" fill="#fff"/>
          <g id="Group_99067" data-name="Group 99067" transform="translate(144.624 68.892)" opacity="0.5">
            <g id="Group_99066" data-name="Group 99066">
              <g id="Group_99065" data-name="Group 99065" clip-path="url(#clip-path-43)">
                <g id="Group_99064" data-name="Group 99064">
                  <g id="Group_99063" data-name="Group 99063" clip-path="url(#clip-path-44)">
                    <rect id="Rectangle_23227" data-name="Rectangle 23227" width="18.062" height="18.062" transform="translate(0 0)" fill="#8abb2a"/>
                  </g>
                </g>
              </g>
            </g>
          </g>
        </g>
      </g>
      <g id="Group_99071" data-name="Group 99071" transform="translate(147.376 71.644)">
        <g id="Group_99070" data-name="Group 99070" clip-path="url(#clip-path-45)">
          <rect id="Rectangle_23230" data-name="Rectangle 23230" width="12.559" height="12.559" transform="translate(0 0)" fill="url(#linear-gradient-32)"/>
        </g>
      </g>
      <g id="Group_99073" data-name="Group 99073" transform="translate(147.792 62.856)" style="mix-blend-mode: normal;isolation: isolate">
        <g id="Group_99072" data-name="Group 99072" clip-path="url(#clip-path-46)">
          <rect id="Rectangle_23231" data-name="Rectangle 23231" width="19.777" height="18.189" transform="translate(-6.956 12.049) rotate(-60)" fill="url(#linear-gradient-4)"/>
        </g>
      </g>
      <g id="Group_99075" data-name="Group 99075">
        <g id="Group_99074" data-name="Group 99074" clip-path="url(#clip-path)">
          <path id="Path_84533" data-name="Path 84533" d="M272.441,116.747c0,2.743-4.207,8.318-5.494,9.961a.47.47,0,0,1-.74,0c-1.287-1.642-5.495-7.217-5.495-9.961a5.864,5.864,0,1,1,11.729,0Z" transform="translate(-112.921 -48.026)" fill="none" stroke="#fff" stroke-width="1"/>
        </g>
      </g>
      <g id="Group_99077" data-name="Group 99077" transform="translate(150.499 65.244)">
        <g id="Group_99076" data-name="Group 99076" clip-path="url(#clip-path-48)">
          <rect id="Rectangle_23233" data-name="Rectangle 23233" width="6.727" height="6.727" transform="translate(0 0)" fill="#678a23"/>
        </g>
      </g>
      <g id="Group_99084" data-name="Group 99084">
        <g id="Group_99083" data-name="Group 99083" clip-path="url(#clip-path)">
          <path id="Path_84535" data-name="Path 84535" d="M272.145,119.454a2.572,2.572,0,1,1-2.572-2.572,2.572,2.572,0,0,1,2.572,2.572" transform="translate(-115.645 -50.625)" fill="#fff"/>
          <g id="Group_99082" data-name="Group 99082" transform="translate(136.183 3.693)" opacity="0.5">
            <g id="Group_99081" data-name="Group 99081">
              <g id="Group_99080" data-name="Group 99080" clip-path="url(#clip-path-50)">
                <g id="Group_99079" data-name="Group 99079" transform="translate(0 0)">
                  <g id="Group_99078" data-name="Group 99078" clip-path="url(#clip-path-51)">
                    <rect id="Rectangle_23234" data-name="Rectangle 23234" width="10.204" height="10.204" transform="translate(0 0)" fill="url(#linear-gradient-34)"/>
                  </g>
                </g>
              </g>
            </g>
          </g>
        </g>
      </g>
      <g id="Group_99086" data-name="Group 99086" transform="translate(137.737 5.248)">
        <g id="Group_99085" data-name="Group 99085" clip-path="url(#clip-path-52)">
          <rect id="Rectangle_23237" data-name="Rectangle 23237" width="7.094" height="7.095" transform="translate(0 0)" fill="url(#linear-gradient-35)"/>
        </g>
      </g>
      <g id="Group_99088" data-name="Group 99088" transform="translate(137.972 0.283)">
        <g id="Group_99087" data-name="Group 99087" clip-path="url(#clip-path-53)">
          <rect id="Rectangle_23238" data-name="Rectangle 23238" width="11.172" height="10.276" transform="translate(-3.93 6.806) rotate(-60)" fill="url(#linear-gradient-36)"/>
        </g>
      </g>
      <g id="Group_99090" data-name="Group 99090">
        <g id="Group_99089" data-name="Group 99089" clip-path="url(#clip-path)">
          <path id="Path_84539" data-name="Path 84539" d="M250.016,3.813c0,1.55-2.376,4.7-3.1,5.627a.265.265,0,0,1-.418,0c-.727-.927-3.1-4.077-3.1-5.627a3.313,3.313,0,0,1,6.626,0Z" transform="translate(-105.418 -0.217)" fill="none" stroke="#fff" stroke-width="1"/>
        </g>
      </g>
      <g id="Group_99092" data-name="Group 99092" transform="translate(139.502 1.633)">
        <g id="Group_99091" data-name="Group 99091" clip-path="url(#clip-path-55)">
          <rect id="Rectangle_23240" data-name="Rectangle 23240" width="3.8" height="3.8" transform="translate(0 0)" fill="url(#linear-gradient-37)"/>
        </g>
      </g>
      <g id="Group_99099" data-name="Group 99099">
        <g id="Group_99098" data-name="Group 99098" clip-path="url(#clip-path)">
          <path id="Path_84541" data-name="Path 84541" d="M249.848,5.342a1.453,1.453,0,1,1-1.453-1.453,1.453,1.453,0,0,1,1.453,1.453" transform="translate(-106.957 -1.684)" fill="#fff"/>
          <g id="Group_99097" data-name="Group 99097" transform="translate(63.419 27.071)" opacity="0.5">
            <g id="Group_99096" data-name="Group 99096">
              <g id="Group_99095" data-name="Group 99095" clip-path="url(#clip-path-57)">
                <g id="Group_99094" data-name="Group 99094" transform="translate(0 0)">
                  <g id="Group_99093" data-name="Group 99093" clip-path="url(#clip-path-58)">
                    <rect id="Rectangle_23241" data-name="Rectangle 23241" width="13.926" height="13.926" transform="translate(0 0)" fill="url(#linear-gradient-38)"/>
                  </g>
                </g>
              </g>
            </g>
          </g>
        </g>
      </g>
      <g id="Group_99101" data-name="Group 99101" transform="translate(65.54 29.192)">
        <g id="Group_99100" data-name="Group 99100" clip-path="url(#clip-path-59)">
          <rect id="Rectangle_23244" data-name="Rectangle 23244" width="9.683" height="9.683" transform="translate(0 0)" fill="url(#linear-gradient-39)"/>
        </g>
      </g>
      <g id="Group_99103" data-name="Group 99103" transform="translate(65.861 22.417)">
        <g id="Group_99102" data-name="Group 99102" clip-path="url(#clip-path-60)">
          <rect id="Rectangle_23245" data-name="Rectangle 23245" width="15.248" height="14.024" transform="translate(-5.363 9.29) rotate(-60)" fill="url(#linear-gradient-40)"/>
        </g>
      </g>
      <g id="Group_99105" data-name="Group 99105">
        <g id="Group_99104" data-name="Group 99104" clip-path="url(#clip-path)">
          <path id="Path_84545" data-name="Path 84545" d="M125.225,44.066c0,2.115-3.244,6.414-4.236,7.679a.362.362,0,0,1-.57,0c-.993-1.266-4.236-5.564-4.236-7.679a4.521,4.521,0,0,1,9.043,0Z" transform="translate(-50.321 -17.128)" fill="none" stroke="#fff" stroke-width="1"/>
        </g>
      </g>
      <g id="Group_99107" data-name="Group 99107" transform="translate(67.948 24.258)">
        <g id="Group_99106" data-name="Group 99106" clip-path="url(#clip-path-62)">
          <rect id="Rectangle_23247" data-name="Rectangle 23247" width="5.187" height="5.186" transform="translate(0 0)" fill="url(#linear-gradient-41)"/>
        </g>
      </g>
      <g id="Group_99114" data-name="Group 99114">
        <g id="Group_99113" data-name="Group 99113" clip-path="url(#clip-path)">
          <path id="Path_84547" data-name="Path 84547" d="M125,46.153a1.983,1.983,0,1,1-1.983-1.983A1.983,1.983,0,0,1,125,46.153" transform="translate(-52.421 -19.131)" fill="#fff"/>
          <g id="Group_99112" data-name="Group 99112" transform="translate(22.644 61.235)" opacity="0.5">
            <g id="Group_99111" data-name="Group 99111">
              <g id="Group_99110" data-name="Group 99110" clip-path="url(#clip-path-64)">
                <g id="Group_99109" data-name="Group 99109" transform="translate(0)">
                  <g id="Group_99108" data-name="Group 99108" clip-path="url(#clip-path-65)">
                    <rect id="Rectangle_23248" data-name="Rectangle 23248" width="23.799" height="23.799" transform="translate(0)" fill="url(#linear-gradient-42)"/>
                  </g>
                </g>
              </g>
            </g>
          </g>
        </g>
      </g>
      <g id="Group_99116" data-name="Group 99116" transform="translate(26.27 64.861)">
        <g id="Group_99115" data-name="Group 99115" clip-path="url(#clip-path-66)">
          <rect id="Rectangle_23251" data-name="Rectangle 23251" width="16.548" height="16.546" transform="translate(0 0)" fill="url(#linear-gradient-43)"/>
        </g>
      </g>
      <g id="Group_99118" data-name="Group 99118" transform="translate(26.817 53.283)">
        <g id="Group_99117" data-name="Group 99117" clip-path="url(#clip-path-67)">
          <rect id="Rectangle_23252" data-name="Rectangle 23252" width="26.057" height="23.966" transform="matrix(0.5, -0.866, 0.866, 0.5, -9.165, 15.874)" fill="url(#linear-gradient-44)"/>
        </g>
      </g>
      <g id="Group_99120" data-name="Group 99120">
        <g id="Group_99119" data-name="Group 99119" clip-path="url(#clip-path)">
          <path id="Path_84551" data-name="Path 84551" d="M62.759,101.721c0,3.614-5.543,10.96-7.239,13.124a.62.62,0,0,1-.975,0c-1.7-2.164-7.239-9.509-7.239-13.124a7.727,7.727,0,0,1,15.453,0Z" transform="translate(-20.489 -40.711)" fill="none" stroke="#fff" stroke-width="1"/>
        </g>
      </g>
      <g id="Group_99122" data-name="Group 99122" transform="translate(30.385 56.428)">
        <g id="Group_99121" data-name="Group 99121" clip-path="url(#clip-path-69)">
          <rect id="Rectangle_23254" data-name="Rectangle 23254" width="8.863" height="8.864" transform="translate(0 0)" fill="url(#linear-gradient-45)"/>
        </g>
      </g>
      <g id="Group_99129" data-name="Group 99129">
        <g id="Group_99128" data-name="Group 99128" clip-path="url(#clip-path)">
          <path id="Path_84553" data-name="Path 84553" d="M62.369,105.287a3.388,3.388,0,1,1-3.388-3.388,3.388,3.388,0,0,1,3.388,3.388" transform="translate(-24.078 -44.135)" fill="#fff"/>
          <g id="Group_99127" data-name="Group 99127" transform="translate(65.524 111.719)" opacity="0.5">
            <g id="Group_99126" data-name="Group 99126">
              <g id="Group_99125" data-name="Group 99125" clip-path="url(#clip-path-57)">
                <g id="Group_99124" data-name="Group 99124">
                  <g id="Group_99123" data-name="Group 99123" clip-path="url(#clip-path-72)">
                    <rect id="Rectangle_23255" data-name="Rectangle 23255" width="13.926" height="13.926" transform="translate(0)" fill="url(#linear-gradient-46)"/>
                  </g>
                </g>
              </g>
            </g>
          </g>
        </g>
      </g>
      <g id="Group_99131" data-name="Group 99131" transform="translate(67.646 113.84)">
        <g id="Group_99130" data-name="Group 99130" clip-path="url(#clip-path-73)">
          <rect id="Rectangle_23258" data-name="Rectangle 23258" width="9.683" height="9.683" fill="url(#linear-gradient-47)"/>
        </g>
      </g>
      <g id="Group_99133" data-name="Group 99133" transform="translate(67.967 107.065)">
        <g id="Group_99132" data-name="Group 99132" clip-path="url(#clip-path-74)">
          <rect id="Rectangle_23259" data-name="Rectangle 23259" width="15.248" height="14.024" transform="translate(-5.363 9.29) rotate(-60)" fill="url(#linear-gradient-48)"/>
        </g>
      </g>
      <g id="Group_99135" data-name="Group 99135">
        <g id="Group_99134" data-name="Group 99134" clip-path="url(#clip-path)">
          <path id="Path_84557" data-name="Path 84557" d="M128.94,193.39c0,2.115-3.244,6.414-4.236,7.679a.362.362,0,0,1-.57,0c-.993-1.266-4.236-5.564-4.236-7.679a4.521,4.521,0,1,1,9.043,0Z" transform="translate(-51.93 -81.804)" fill="none" stroke="#fff" stroke-width="1"/>
        </g>
      </g>
      <g id="Group_99137" data-name="Group 99137" transform="translate(70.054 108.905)">
        <g id="Group_99136" data-name="Group 99136" clip-path="url(#clip-path-76)">
          <rect id="Rectangle_23261" data-name="Rectangle 23261" width="5.187" height="5.187" transform="translate(0)" fill="url(#linear-gradient-49)"/>
        </g>
      </g>
      <g id="Group_99139" data-name="Group 99139">
        <g id="Group_99138" data-name="Group 99138" clip-path="url(#clip-path)">
          <path id="Path_84559" data-name="Path 84559" d="M128.711,195.477a1.983,1.983,0,1,1-1.983-1.983,1.983,1.983,0,0,1,1.983,1.983" transform="translate(-54.03 -83.807)" fill="#fff"/>
        </g>
      </g>
    </g>
  </g>
</svg>
