<svg xmlns="http://www.w3.org/2000/svg" xmlns:xlink="http://www.w3.org/1999/xlink" width="20" height="20" viewBox="0 0 20 20">
  <defs>
    <linearGradient id="linear-gradient" x1="0.5" x2="0.5" y2="1" gradientUnits="objectBoundingBox">
      <stop offset="0" stop-color="#4a59b1"/>
      <stop offset="1" stop-color="#7790d4"/>
    </linearGradient>
    <clipPath id="clip-path">
      <rect id="Rectangle_22373" data-name="Rectangle 22373" width="20" height="20" transform="translate(0 0)" fill="url(#linear-gradient)"/>
    </clipPath>
  </defs>
  <g id="hub" transform="translate(0 0)">
    <g id="Group_67448" data-name="Group 67448" transform="translate(0 0)" clip-path="url(#clip-path)">
      <path id="Path_83070" data-name="Path 83070" d="M19.212,6.1c-.161.343-.337.69-.523,1.037a9.081,9.081,0,0,1,.455,2.427H17.265c-.218.344-.412.641-.563.869h2.443a9.111,9.111,0,0,1-1.339,4.348H14.986a15.619,15.619,0,0,0,.566-2.967l-.614-.886c-.014-.019-.081-.117-.181-.266a15.205,15.205,0,0,1-.712,4.119h-3.61V10.435H14.6c-.151-.228-.344-.525-.563-.869H10.435V5.218H11.7a4.265,4.265,0,0,1-.277-.87h-.993V.913a3.054,3.054,0,0,1,1.337.643,4.364,4.364,0,0,1,.86-1.195A9.973,9.973,0,1,0,19.212,6.1Zm-12-4.831a8.608,8.608,0,0,0-1.9,3.077H2.8A9.2,9.2,0,0,1,7.208,1.271ZM2.195,5.218H5.014A16.516,16.516,0,0,0,4.36,9.566H.855A9.092,9.092,0,0,1,2.195,5.218ZM.855,10.435h3.5a16.488,16.488,0,0,0,.655,4.348H2.195A9.091,9.091,0,0,1,.855,10.435ZM2.8,15.653H5.311a8.614,8.614,0,0,0,1.9,3.077A9.176,9.176,0,0,1,2.8,15.653Zm6.767,3.435c-1.312-.238-2.489-1.54-3.286-3.435H9.565Zm0-4.3H5.956a15.216,15.216,0,0,1-.727-4.348H9.565Zm0-5.218H5.229a15.2,15.2,0,0,1,.727-4.348H9.565Zm0-5.218H6.279c.8-1.9,1.974-3.2,3.286-3.435Zm.87,14.739V15.653h3.286c-.8,1.9-1.974,3.2-3.286,3.435m2.357-.358a8.609,8.609,0,0,0,1.9-3.077H17.2A9.2,9.2,0,0,1,12.791,18.729Z" transform="translate(0 0)" fill="url(#linear-gradient)"/>
      <path id="Path_83071" data-name="Path 83071" d="M31.693,3.885a3.427,3.427,0,0,0,.41,1.273,36.1,36.1,0,0,0,3.027,5.277,36.094,36.094,0,0,0,3.027-5.276,3.433,3.433,0,0,0,.41-1.274,2.353,2.353,0,0,0,.041-.407,3.478,3.478,0,1,0-6.956,0A2.353,2.353,0,0,0,31.693,3.885ZM35.13,1.739a1.739,1.739,0,1,1-1.739,1.739A1.74,1.74,0,0,1,35.13,1.739" transform="translate(-19.478 0)" fill="url(#linear-gradient)"/>
    </g>
  </g>
</svg>
