<svg id="Inactive" xmlns="http://www.w3.org/2000/svg" xmlns:xlink="http://www.w3.org/1999/xlink" width="23.588" height="22" viewBox="0 0 23.588 22">
  <defs>
    <clipPath id="clip-path">
      <rect id="Rectangle_22401" data-name="Rectangle 22401" width="23.588" height="22" fill="none"/>
    </clipPath>
  </defs>
  <g id="Group_67303" data-name="Group 67303" clip-path="url(#clip-path)">
    <path id="Path_84517" data-name="Path 84517" d="M74.754,63.346h-.64l1.03,1.03c-.023-.449-.043-.9-.066-1.347-.035-.714-.07-1.431-.1-2.146l-.025-.494-1.03,1.03h1.03l-1.03-1.03c-.023.449-.043.9-.066,1.347l-.105,2.146-.025.494a1.054,1.054,0,0,0,.3.729,1.034,1.034,0,0,0,1.458,0,1.108,1.108,0,0,0,.3-.729c.023-.449.043-.9.066-1.347l.105-2.146.025-.494a1.04,1.04,0,0,0-.3-.729,1.068,1.068,0,0,0-.729-.3h-1.03a1.039,1.039,0,0,0-1.03,1.03c.023.449.043.9.066,1.347l.105,2.146.025.494a1.026,1.026,0,0,0,1.03,1.03h.64a1.072,1.072,0,0,0,.729-.3,1.034,1.034,0,0,0,0-1.458A1.085,1.085,0,0,0,74.754,63.346Z" transform="translate(-62.64 -51.015)" fill="#cc5858"/>
    <path id="Path_84518" data-name="Path 84518" d="M75.955,107.643h-.64l1.03,1.03v-.64l-1.03,1.03h.64l-1.03-1.03v.64a1.072,1.072,0,0,0,.3.729,1.034,1.034,0,0,0,1.458,0,1.068,1.068,0,0,0,.3-.729v-.64a1.045,1.045,0,0,0-1.03-1.03h-.64a1.045,1.045,0,0,0-1.03,1.03v.64a1.045,1.045,0,0,0,1.03,1.03h.64a1.072,1.072,0,0,0,.729-.3,1.034,1.034,0,0,0,0-1.458A1.085,1.085,0,0,0,75.955,107.643Z" transform="translate(-63.841 -91.959)" fill="#cc5858"/>
    <path id="Path_84519" data-name="Path 84519" d="M20.672,19.646H2.93a1.952,1.952,0,0,1-.264-.016l.313.042a1.8,1.8,0,0,1-.428-.118l.28.118a1.872,1.872,0,0,1-.369-.214l.238.184a1.754,1.754,0,0,1-.318-.315l.184.238a1.883,1.883,0,0,1-.238-.41c.04.094.08.188.118.28A1.852,1.852,0,0,1,2.327,19c.014.1.028.21.042.313a1.852,1.852,0,0,1,0-.457c-.014.1-.028.209-.042.313a1.834,1.834,0,0,1,.118-.431c-.04.094-.08.188-.118.28.085-.2.2-.384.3-.572.214-.388.429-.779.64-1.168l.965-1.756,1.177-2.145q.65-1.179,1.3-2.361t1.3-2.371L9.224,6.432l1.017-1.85q.36-.657.723-1.316c.106-.193.212-.388.32-.581a2.3,2.3,0,0,1,.153-.238l-.184.238a1.875,1.875,0,0,1,.32-.32l-.238.184a1.949,1.949,0,0,1,.377-.219l-.28.118a1.9,1.9,0,0,1,.438-.12l-.313.042a1.8,1.8,0,0,1,.478,0l-.313-.042a1.784,1.784,0,0,1,.438.12l-.28-.118a1.733,1.733,0,0,1,.377.219l-.238-.184a1.875,1.875,0,0,1,.32.32l-.184-.238a4.875,4.875,0,0,1,.355.607c.209.384.421.767.631,1.151q.48.872.958,1.744l1.172,2.135q.646,1.179,1.295,2.359t1.3,2.373q.611,1.109,1.219,2.22.512.932,1.022,1.862l.732,1.332.332.6c.033.061.064.122.092.186-.04-.094-.08-.188-.118-.28a1.82,1.82,0,0,1,.118.431l-.042-.313a1.852,1.852,0,0,1,0,.457L21.265,19a1.839,1.839,0,0,1-.118.433c.04-.094.08-.188.118-.28a1.818,1.818,0,0,1-.238.41l.184-.238a1.922,1.922,0,0,1-.318.315l.238-.184a1.762,1.762,0,0,1-.37.214l.28-.118a1.8,1.8,0,0,1-.429.118l.313-.042c-.087.009-.169.014-.254.016a1.225,1.225,0,0,0-.833.344,1.182,1.182,0,0,0,0,1.667,1.206,1.206,0,0,0,.833.344,2.951,2.951,0,0,0,2.029-.824,2.612,2.612,0,0,0,.558-.76,3.735,3.735,0,0,0,.217-.544,3.665,3.665,0,0,0,.1-.617,2.981,2.981,0,0,0-.431-1.711L22.19,15.8q-.879-1.6-1.761-3.206L18.316,8.746Q17.309,6.907,16.3,5.067L14.822,2.379A5.663,5.663,0,0,0,13.765.768,3,3,0,0,0,11.847,0a2.7,2.7,0,0,0-.918.129A3.153,3.153,0,0,0,9.884.714a2.99,2.99,0,0,0-.718.932q-.508.925-1.015,1.85L6.362,6.755Q5.3,8.686,4.241,10.62q-1,1.822-2,3.644-.717,1.3-1.431,2.606l-.36.657A3.14,3.14,0,0,0,0,19.14a3.021,3.021,0,0,0,.805,1.954,2.933,2.933,0,0,0,1.982.9c.151.009.3,0,.452,0H20.674" transform="translate(0 0)" fill="#cc5858"/>
  </g>
</svg>
