<?xml version="1.0" encoding="utf-8"?>
<!-- Generator: Adobe Illustrator 24.3.0, SVG Export Plug-In . SVG Version: 6.00 Build 0)  -->
<svg version="1.1" id="Layer_1" xmlns="http://www.w3.org/2000/svg" xmlns:xlink="http://www.w3.org/1999/xlink" x="0px" y="0px"
	 width="20px" height="20px" viewBox="0 0 20 20" style="enable-background:new 0 0 20 20;" xml:space="preserve">
<style type="text/css">
	.st0{fill:#005170;}
</style>
<g id="Group_3360" transform="translate(-1528.313 -1220.071)">
	<path id="Path_5701" class="st0" d="M1546.2,1239.1c-0.3,0-0.3,0-0.3-0.3v-11.1c0-0.4-0.1-0.6-0.5-0.6c-0.7,0-1.4,0-2.1,0
		c-0.2,0-0.2,0-0.2-0.2c0-1.5,0-2.9,0-4.4c0-0.4-0.1-0.5-0.5-0.5c-0.2,0-0.4,0-0.5,0c-0.1,0-0.1,0-0.1-0.1c0-0.4,0-0.8,0-1.1
		c0-0.2-0.1-0.4-0.3-0.5h-6.2c-0.2,0.1-0.3,0.3-0.3,0.5c0,0.4,0,0.7,0,1.1c0,0.1,0,0.2-0.2,0.2c-0.2,0-0.4,0-0.5,0
		c-0.4,0-0.5,0.1-0.5,0.5c0,1.3,0,2.7,0,4c0,1,0,2.1,0,3.1c0,0.1,0,0.2-0.2,0.2c-0.2,0-0.5,0-0.7,0c-0.4,0-0.8,0-1.1,0
		c-0.3,0-0.4,0.1-0.4,0.4c0,0.1,0,0.1,0,0.2c0,2.8,0,5.7,0,8.5c0,0.2,0,0.2-0.2,0.2c-0.3,0-0.5,0-0.8,0c-0.2,0-0.4,0.2-0.4,0.4
		c0,0,0,0,0,0.1c0,0.1,0.1,0.3,0.3,0.3h16.1c0.2-0.1,0.3-0.2,0.3-0.4C1546.6,1239.3,1546.4,1239.1,1546.2,1239.1
		C1546.2,1239.1,1546.2,1239.1,1546.2,1239.1z M1535.8,1221.9c0-0.2,0-0.5,0-0.7c0-0.1,0-0.1,0.1-0.1c1.7,0,3.3,0,5,0
		c0.1,0,0.1,0,0.1,0.1c0,0.2,0,0.5,0,0.7c0,0.1,0,0.2-0.2,0.2c-0.8,0-1.6,0-2.5,0s-1.6,0-2.4,0
		C1535.9,1222,1535.8,1222,1535.8,1221.9L1535.8,1221.9z M1533.9,1239c0,0.1,0,0.2-0.2,0.2c-0.5,0-0.9,0-1.4,0c-0.1,0-0.2,0-0.2-0.2
		c0-1.4,0-2.8,0-4.1c0-1.4,0-2.7,0-4.1c0-0.2,0.1-0.2,0.2-0.2c0.4,0,0.9,0,1.3,0c0.1,0,0.2,0,0.2,0.2
		C1533.9,1233.5,1533.9,1236.2,1533.9,1239L1533.9,1239z M1539.6,1239c0,0.1,0,0.1-0.1,0.1c-0.3,0-0.7,0-1,0c-0.3,0-0.7,0-1,0
		c-0.1,0-0.1,0-0.1-0.1c0-0.6,0-1.2,0-1.9c0-0.1,0-0.1,0.1-0.1c0.7,0,1.4,0,2,0c0.1,0,0.1,0,0.1,0.1
		C1539.6,1237.7,1539.6,1238.4,1539.6,1239L1539.6,1239z M1542.1,1239.1c-0.5,0-1,0-1.5,0c-0.2,0-0.2-0.1-0.2-0.2c0-0.7,0-1.5,0-2.2
		c0-0.4-0.1-0.5-0.5-0.5h-2.8c-0.4,0-0.5,0.1-0.5,0.5c0,0.8,0,1.5,0,2.3c0,0.1,0,0.2-0.2,0.2c-0.5,0-1.1,0-1.6,0
		c-0.1,0-0.2,0-0.2-0.2c0-5.3,0-10.7,0-16c0-0.1,0-0.2,0.2-0.2c2.4,0,4.9,0,7.3,0c0.2,0,0.2,0.1,0.2,0.2c0,2.7,0,5.3,0,8
		c0,2.6,0,5.3,0,7.9C1542.3,1239.1,1542.2,1239.1,1542.1,1239.1L1542.1,1239.1z M1544.9,1239.1c-0.6,0-1.2,0-1.7,0
		c-0.1,0-0.2,0-0.2-0.2c0-3.6,0-7.2,0-10.9c0-0.1,0-0.2,0.2-0.2c0.6,0,1.2,0,1.8,0c0.2,0,0.2,0,0.2,0.2c0,1.8,0,3.6,0,5.4
		c0,1.8,0,3.6,0,5.4C1545.2,1239.1,1545.1,1239.1,1544.9,1239.1L1544.9,1239.1z"/>
	<path id="Path_5702" class="st0" d="M1541.4,1232.4c0-0.2-0.1-0.4-0.3-0.4c0,0,0,0-0.1,0c-0.5,0-1.1,0-1.6,0
		c-0.2,0-0.3,0.1-0.3,0.3c0,0,0,0,0,0c0,0.5,0,1.1,0,1.6c0,0.2,0.1,0.4,0.3,0.4c0,0,0,0,0,0c0.5,0,1.1,0,1.6,0
		c0.2,0,0.4-0.1,0.4-0.3c0,0,0,0,0-0.1c0-0.3,0-0.5,0-0.8S1541.4,1232.7,1541.4,1232.4z M1540.7,1233.2
		C1540.7,1233.2,1540.7,1233.2,1540.7,1233.2L1540.7,1233.2c0,0.2,0,0.4,0,0.4c-0.1,0.1-0.3,0-0.4,0c-0.1,0-0.3,0.1-0.4,0
		c-0.1-0.1,0-0.3,0-0.4s-0.1-0.3,0-0.4c0.1-0.1,0.3,0,0.4,0c0.1,0,0.3-0.1,0.4,0S1540.7,1233,1540.7,1233.2L1540.7,1233.2z"/>
	<path id="Path_5703" class="st0" d="M1537.8,1232.4c0-0.2-0.1-0.4-0.3-0.4c0,0-0.1,0-0.1,0c-0.5,0-1,0-1.6,0
		c-0.2,0-0.4,0.1-0.4,0.3c0,0,0,0,0,0.1c0,0.5,0,1,0,1.6c0,0.2,0.1,0.4,0.3,0.4c0,0,0,0,0.1,0c0.5,0,1,0,1.6,0
		c0.2,0,0.4-0.1,0.4-0.3c0,0,0,0,0-0.1c0-0.3,0-0.5,0-0.8S1537.9,1232.7,1537.8,1232.4z M1537.1,1233.6c-0.1,0.1-0.3,0-0.4,0
		c-0.1,0-0.3,0.1-0.4,0c-0.1-0.1,0-0.3,0-0.4c0-0.1-0.1-0.3,0-0.4c0.1-0.1,0.3,0,0.4,0v0c0.1,0,0.3-0.1,0.4,0c0.1,0.1,0,0.3,0,0.4
		C1537.1,1233.3,1537.2,1233.5,1537.1,1233.6L1537.1,1233.6z"/>
	<path id="Path_5704" class="st0" d="M1541,1224.2c-0.5,0-1,0-1.5,0c-0.2,0-0.4,0.1-0.4,0.3c0,0,0,0.1,0,0.1c0,0.3,0,0.5,0,0.8
		c0,0.3,0,0.5,0,0.8c0,0.2,0.1,0.4,0.3,0.4c0,0,0.1,0,0.1,0c0.5,0,1,0,1.6,0c0.2,0,0.4-0.1,0.4-0.3c0,0,0-0.1,0-0.1c0-0.5,0-1,0-1.5
		C1541.4,1224.4,1541.3,1224.2,1541,1224.2C1541,1224.2,1541,1224.2,1541,1224.2z M1540.7,1225.3
		C1540.7,1225.3,1540.7,1225.3,1540.7,1225.3c0,0.2,0,0.4,0,0.4c-0.1,0.1-0.3,0-0.4,0c-0.1,0-0.3,0.1-0.4,0c-0.1-0.1,0-0.3,0-0.4
		c0-0.1-0.1-0.3,0-0.4c0.1-0.1,0.3,0,0.4,0s0.3-0.1,0.4,0C1540.7,1225,1540.7,1225.2,1540.7,1225.3z"/>
	<path id="Path_5705" class="st0" d="M1537.8,1228.5c0-0.2-0.1-0.4-0.3-0.4c0,0-0.1,0-0.1,0c-0.5,0-1,0-1.5,0
		c-0.2,0-0.4,0.1-0.4,0.3c0,0,0,0.1,0,0.1c0,0.5,0,1,0,1.5c0,0.2,0.1,0.4,0.3,0.4c0,0,0.1,0,0.1,0c0.5,0,1,0,1.5,0
		c0.2,0,0.4-0.1,0.4-0.3c0,0,0-0.1,0-0.1c0-0.3,0-0.5,0-0.8C1537.8,1229,1537.9,1228.8,1537.8,1228.5z M1537.1,1229.7
		c-0.1,0.1-0.3,0-0.4,0c-0.1,0-0.4,0.1-0.4,0c-0.1-0.1,0-0.3,0-0.4c0-0.2-0.1-0.3,0-0.4c0.1-0.1,0.3,0,0.4,0c0.1,0,0.2,0,0.4,0
		c0.1,0,0.1,0,0.1,0.1c0,0.1,0,0.2,0,0.3h0C1537.1,1229.4,1537.2,1229.6,1537.1,1229.7L1537.1,1229.7z"/>
	<path id="Path_5706" class="st0" d="M1541.4,1228.5c0-0.2-0.1-0.4-0.3-0.4c0,0-0.1,0-0.1,0c-0.5,0-1,0-1.5,0
		c-0.2,0-0.4,0.1-0.4,0.3c0,0,0,0,0,0.1c0,0.5,0,1,0,1.6c0,0.2,0.1,0.4,0.3,0.4c0,0,0,0,0.1,0c0.5,0,1,0,1.5,0
		c0.2,0,0.4-0.1,0.4-0.3c0,0,0-0.1,0-0.1c0-0.3,0-0.5,0-0.8S1541.4,1228.7,1541.4,1228.5z M1540.7,1229.3c0,0.1,0,0.2,0,0.3
		c0,0.1,0,0.2-0.2,0.2c-0.2,0-0.4,0-0.6,0c-0.1,0-0.1,0-0.1-0.1c0-0.2,0-0.5,0-0.7c0-0.1,0-0.1,0.1-0.1c0.1,0,0.2,0,0.3,0v0
		c0.1,0,0.3-0.1,0.4,0C1540.7,1228.9,1540.7,1229.1,1540.7,1229.3L1540.7,1229.3z"/>
	<path id="Path_5707" class="st0" d="M1535.9,1226.5c0.5,0,1,0,1.6,0c0.2,0,0.3-0.1,0.4-0.3c0,0,0,0,0-0.1c0-0.3,0-0.5,0-0.8
		c0-0.3,0-0.5,0-0.8c0-0.2-0.1-0.4-0.3-0.4c0,0-0.1,0-0.1,0c-0.5,0-1,0-1.6,0c-0.2,0-0.4,0.1-0.4,0.3c0,0,0,0,0,0.1c0,0.5,0,1,0,1.6
		C1535.5,1226.3,1535.6,1226.5,1535.9,1226.5C1535.9,1226.5,1535.9,1226.5,1535.9,1226.5z M1536.3,1224.9c0.1-0.1,0.3,0,0.4,0
		s0.3-0.1,0.4,0s0,0.3,0,0.4c0,0,0,0,0,0c0,0.1,0.1,0.3,0,0.4c-0.1,0.1-0.3,0-0.5,0c-0.1,0-0.3,0-0.4,0c-0.1-0.1,0-0.3,0-0.4
		C1536.2,1225.2,1536.2,1225,1536.3,1224.9L1536.3,1224.9z"/>
</g>
</svg>
