<svg xmlns="http://www.w3.org/2000/svg" xmlns:xlink="http://www.w3.org/1999/xlink" width="888" height="958" viewBox="0 0 888 958">
  <defs>
    <clipPath id="clip-path">
      <rect id="Rectangle_36008" data-name="Rectangle 36008" width="888" height="958" transform="translate(8906 1683)" fill="#fff" stroke="#707070" stroke-width="1"/>
    </clipPath>
    <clipPath id="clip-path-2">
      <rect id="Rectangle_34573" data-name="Rectangle 34573" width="1208.62" height="1241.35" fill="none"/>
    </clipPath>
    <clipPath id="clip-path-3">
      <rect id="Rectangle_34572" data-name="Rectangle 34572" width="976.932" height="958.522" transform="translate(231.686 250.744)" fill="none"/>
    </clipPath>
    <clipPath id="clip-path-4">
      <rect id="Rectangle_34570" data-name="Rectangle 34570" width="158.537" height="738.341" transform="translate(200.603 262.961)" fill="none"/>
    </clipPath>
    <clipPath id="clip-path-5">
      <rect id="Rectangle_34569" data-name="Rectangle 34569" width="112.037" height="102.765" transform="translate(244.456 262.961)" fill="none"/>
    </clipPath>
    <clipPath id="clip-path-6">
      <rect id="Rectangle_34571" data-name="Rectangle 34571" width="90.32" height="37.728" transform="translate(283.319 1033.131)" fill="none"/>
    </clipPath>
  </defs>
  <g id="Mask_Group_2" data-name="Mask Group 2" transform="translate(-8906 -1683)" clip-path="url(#clip-path)">
    <g id="Group_97755" data-name="Group 97755" transform="translate(8670 1429)" clip-path="url(#clip-path-2)">
      <g id="Group_97754" data-name="Group 97754">
        <g id="Group_97753" data-name="Group 97753" clip-path="url(#clip-path-3)">
          <path id="Path_109558" data-name="Path 109558" d="M6.8,718.048s-62.9-320.5,196.342-253.877S187.9,345.3,419.244,367.336s326.791-143.6,340.645-230.347" fill="none" stroke="#7790d4" stroke-width="0.172"/>
          <path id="Path_109559" data-name="Path 109559" d="M7.315,719.2S-6.9,645.969,7.406,578.745C22.6,506.838,67.992,439,193.9,465.32c4.134.864,8.357,1.786,12.654,2.853,257.977,64.04-15.475-121.9,215.16-99.7q9.637.936,18.989,1.477C658.276,382.185,749.4,224.031,760.2,136.8" fill="none" stroke="#7790d4" stroke-width="0.172"/>
          <path id="Path_109560" data-name="Path 109560" d="M7.83,720.36S-6.394,646.32,9.291,580.709C25.847,510.463,71.812,444.25,197.285,469.466c4.145.833,8.382,1.68,12.678,2.708,256.7,61.466-15.713-124.939,214.217-102.561q9.66.957,19.063,1.55c217.5,12.953,309.136-144.43,317.264-234.559" fill="none" stroke="#7790d4" stroke-width="0.172"/>
          <path id="Path_109561" data-name="Path 109561" d="M8.345,721.516s-14.072-74.8,2.831-138.843c18.091-68.541,64.462-133.182,189.5-109.061,4.156.8,8.406,1.573,12.7,2.564,255.4,58.9-15.95-127.975,213.275-105.424,6.456.65,12.833,1.207,19.137,1.621,217.384,14.3,309.573-142.938,315.031-235.961" fill="none" stroke="#7790d4" stroke-width="0.172"/>
          <path id="Path_109562" data-name="Path 109562" d="M8.86,722.673s-14.024-75.589,4.2-138.034c19.513-66.861,66.409-129.914,191-106.88,4.169.771,8.431,1.466,12.726,2.419,254.087,56.353-16.189-131.01,212.332-108.287,6.472.664,12.873,1.25,19.212,1.694,217.292,15.218,310.01-141.446,312.8-237.364" fill="none" stroke="#7790d4" stroke-width="0.172"/>
          <path id="Path_109563" data-name="Path 109563" d="M9.375,723.829S-4.6,647.458,14.945,586.6c20.936-65.176,68.363-126.653,192.5-104.7,4.18.739,8.454,1.36,12.749,2.274,252.761,53.816-16.426-134.045,211.39-111.149,6.488.677,12.913,1.293,19.286,1.766,217.2,16.128,310.448-139.955,310.564-238.767" fill="none" stroke="#7790d4" stroke-width="0.172"/>
          <path id="Path_109564" data-name="Path 109564" d="M9.89,724.985s-13.93-77.15,6.94-136.418c22.357-63.487,70.322-123.4,194-102.516,4.192.708,8.478,1.253,12.773,2.13,251.418,51.291-16.61-137.611,210.447-114.013,6.505.676,12.952,1.336,19.36,1.839C670.519,393.038,764.3,237.543,761.743,135.836" fill="none" stroke="#7790d4" stroke-width="0.172"/>
          <path id="Path_109565" data-name="Path 109565" d="M10.4,726.141s-13.885-77.925,8.31-135.609C42.492,528.736,91,470.378,214.219,490.2c4.205.676,8.5,1.147,12.8,1.985,250.06,48.782-16.838-140.726,209.5-116.876,6.521.688,12.992,1.38,19.434,1.912,217.013,17.928,311.323-136.973,306.1-241.574" fill="none" stroke="#7790d4" stroke-width="0.172"/>
          <path id="Path_109566" data-name="Path 109566" d="M10.92,727.3S-2.921,648.6,20.6,592.5c25.2-60.1,74.257-116.917,197.006-98.153,4.217.645,8.523,1.041,12.82,1.84,248.686,46.288-17.067-143.839,208.562-119.738,6.538.7,13.032,1.422,19.508,1.984,216.919,18.819,311.761-135.482,303.865-242.977" fill="none" stroke="#7790d4" stroke-width="0.172"/>
          <path id="Path_109567" data-name="Path 109567" d="M11.435,728.454s-13.8-79.465,11.05-133.993C49.1,536.06,98.717,480.774,220.992,498.49c4.231.613,8.546.934,12.844,1.7,247.3,43.808-17.295-146.95,207.62-122.6,6.554.71,13.071,1.465,19.582,2.056,216.823,19.7,312.2-133.99,301.631-244.38" fill="none" stroke="#7790d4" stroke-width="0.172"/>
          <path id="Path_109568" data-name="Path 109568" d="M11.95,729.61S-1.808,649.381,24.37,596.425c28.027-56.7,78.214-110.466,200.009-93.789,4.244.581,8.568.828,12.868,1.551,245.894,41.344-17.525-150.059,206.677-125.464,6.57.721,13.111,1.507,19.656,2.128,216.728,20.582,312.636-132.5,299.4-245.783" fill="none" stroke="#7790d4" stroke-width="0.172"/>
          <path id="Path_109569" data-name="Path 109569" d="M12.465,730.766s-13.72-80.99,13.788-132.376c29.441-54.991,80.2-107.254,201.512-91.608,4.257.549,8.589.722,12.891,1.407,244.476,38.9-17.753-153.166,205.735-128.328,6.586.732,13.151,1.549,19.731,2.2C682.753,403.516,779.2,251.054,763.287,134.876" fill="none" stroke="#7790d4" stroke-width="0.172"/>
          <path id="Path_109570" data-name="Path 109570" d="M12.979,731.922S-.707,650.174,28.138,600.354C58.987,547.073,110.33,496.3,231.152,510.93c4.27.515,8.61.614,12.915,1.26C487.109,548.658,226.084,355.922,448.859,381c6.6.744,13.19,1.591,19.8,2.273C685.2,405.594,782.174,253.757,763.6,134.685" fill="none" stroke="#7790d4" stroke-width="0.172"/>
          <path id="Path_109571" data-name="Path 109571" d="M13.494,733.079s-13.654-82.5,16.529-130.76c32.254-51.568,84.189-100.854,204.515-87.243,4.284.484,8.632.509,12.939,1.116,241.594,34.055-18.211-159.371,203.85-134.053,6.618.755,13.23,1.634,19.879,2.346,216.436,23.181,313.948-128.026,292.7-249.993" fill="none" stroke="#7790d4" stroke-width="0.172"/>
          <path id="Path_109572" data-name="Path 109572" d="M14.009,734.235S.382,650.981,31.908,604.283c33.655-49.851,86.19-97.666,206.017-85.061,4.3.452,8.653.4,12.962.972,240.132,31.66-18.44-162.471,202.908-136.916,6.634.766,13.269,1.675,19.953,2.418,216.338,24.035,314.386-126.535,290.466-251.4" fill="none" stroke="#7790d4" stroke-width="0.172"/>
          <path id="Path_109573" data-name="Path 109573" d="M14.524,735.391s-13.6-84,19.269-129.143c35.051-48.133,88.2-94.489,207.519-82.88,4.312.419,8.673.3,12.986.827,238.655,29.285-18.67-165.568,201.965-139.779,6.65.778,13.309,1.717,20.027,2.49,216.239,24.885,314.824-125.043,288.233-252.8" fill="none" stroke="#7790d4" stroke-width="0.172"/>
          <path id="Path_109574" data-name="Path 109574" d="M15.039,736.547S1.454,651.8,35.678,608.212c36.442-46.412,90.207-91.319,209.021-80.7,4.326.387,8.693.192,13.009.682,237.164,26.929-18.9-168.664,201.023-142.641,6.667.789,13.348,1.758,20.1,2.562,216.141,25.729,315.261-123.552,286-254.2" fill="none" stroke="#7790d4" stroke-width="0.172"/>
          <path id="Path_109575" data-name="Path 109575" d="M15.554,737.7S1.982,652.21,37.562,610.177c37.829-44.689,92.222-88.158,210.524-78.516,4.34.354,8.712.087,13.033.538,235.659,24.591-19.128-171.757,200.08-145.5,6.683.8,13.388,1.8,20.176,2.635C697.416,415.9,797.073,267.268,765.14,133.724" fill="none" stroke="#7790d4" stroke-width="0.172"/>
          <path id="Path_109576" data-name="Path 109576" d="M16.069,738.86S2.505,652.622,39.447,612.142c39.21-42.966,94.241-85.006,212.025-76.335,4.356.321,8.733-.018,13.057.393,234.142,22.275-19.357-174.848,199.138-148.367,6.7.812,13.427,1.841,20.25,2.707,215.942,27.4,316.136-120.57,281.532-257.008" fill="none" stroke="#7790d4" stroke-width="0.172"/>
          <path id="Path_109577" data-name="Path 109577" d="M16.584,740.016S3.023,653.035,41.332,614.106c40.584-41.242,96.264-81.863,213.527-74.153,4.371.287,8.752-.123,13.081.248,232.61,19.979-19.588-177.937,198.2-151.23,6.715.824,13.466,1.883,20.324,2.78C702.3,419.978,803.032,272.672,765.758,133.34" fill="none" stroke="#7790d4" stroke-width="0.172"/>
          <path id="Path_109578" data-name="Path 109578" d="M17.1,741.172S3.536,653.448,43.217,616.07c41.953-39.517,98.291-78.729,215.029-71.971,4.385.254,8.77-.228,13.1.1,231.066,17.7-19.817-181.024,197.252-154.093,6.732.835,13.507,1.923,20.4,2.852C704.745,422.01,806.012,275.374,766.067,133.148" fill="none" stroke="#7790d4" stroke-width="0.172"/>
          <path id="Path_109579" data-name="Path 109579" d="M17.614,742.329S4.042,653.862,45.1,618.035c43.315-37.794,100.322-75.6,216.531-69.789,4.4.22,8.788-.333,13.128-.041C504.27,563.655,254.714,364.1,471.07,391.249c6.748.847,13.546,1.965,20.473,2.924,215.645,29.866,317.449-116.1,274.834-261.217" fill="none" stroke="#7790d4" stroke-width="0.172"/>
          <path id="Path_109580" data-name="Path 109580" d="M18.129,743.485S4.544,654.273,46.987,620c44.672-36.073,102.356-72.488,218.032-67.608,4.417.187,8.807-.437,13.152-.185,227.941,13.218-20.276-187.192,195.367-159.82,6.764.859,13.586,2.006,20.547,3,215.546,30.678,317.887-114.605,272.6-262.62" fill="none" stroke="#7790d4" stroke-width="0.172"/>
          <path id="Path_109581" data-name="Path 109581" d="M18.644,744.641S5.04,654.682,48.872,621.964c46.023-34.354,104.394-69.38,219.534-65.426,4.432.153,8.825-.542,13.176-.33,226.36,11.009-20.507-190.273,194.424-162.682,6.78.87,13.625,2.047,20.622,3.069C712.074,428.08,814.951,283.481,766.994,132.572" fill="none" stroke="#7790d4" stroke-width="0.172"/>
          <path id="Path_109582" data-name="Path 109582" d="M19.159,745.8s-13.628-90.709,31.6-121.869c47.37-32.637,106.435-66.282,221.037-63.244,4.447.118,8.843-.646,13.2-.475,224.769,8.822-20.737-193.351,193.482-165.545,6.8.883,13.664,2.088,20.7,3.142C714.517,430.093,817.931,286.183,767.3,132.38" fill="none" stroke="#7790d4" stroke-width="0.172"/>
          <path id="Path_109583" data-name="Path 109583" d="M19.674,746.954S6.017,655.493,52.64,625.894c48.712-30.925,108.479-63.193,222.539-61.063,4.463.084,8.86-.75,13.223-.619,223.166,6.657-20.968-196.428,192.539-168.408,6.813.894,13.7,2.128,20.77,3.214,215.248,33.084,319.2-110.132,265.9-266.83" fill="none" stroke="#7790d4" stroke-width="0.172"/>
          <path id="Path_109584" data-name="Path 109584" d="M20.188,748.11S6.5,655.893,54.525,627.858c50.048-29.215,110.526-60.112,224.04-58.88,4.48.048,8.878-.854,13.247-.765,221.552,4.517-21.2-199.5,191.6-171.271,6.829.906,13.743,2.168,20.844,3.286C719.4,434.105,823.889,291.588,767.92,132" fill="none" stroke="#7790d4" stroke-width="0.172"/>
          <path id="Path_109585" data-name="Path 109585" d="M20.7,749.266S6.978,656.289,56.41,629.822c51.381-27.51,112.575-57.041,225.542-56.7,4.5.013,8.894-.957,13.271-.91,219.928,2.4-21.429-202.575,190.654-174.133,6.845.918,13.782,2.208,20.918,3.358C721.846,436.1,826.869,294.29,768.229,131.8" fill="none" stroke="#7790d4" stroke-width="0.172"/>
          <path id="Path_109586" data-name="Path 109586" d="M21.218,750.422S7.453,656.681,58.295,631.786C111,605.977,172.922,577.808,285.339,577.27c4.512-.022,8.911-1.06,13.294-1.054,218.3.307-21.659-205.647,189.712-177,6.861.93,13.822,2.249,20.992,3.431C724.29,438.1,829.849,296.992,768.538,131.612" fill="none" stroke="#7790d4" stroke-width="0.172"/>
          <path id="Path_109587" data-name="Path 109587" d="M21.733,751.578S7.926,657.068,60.18,633.751c54.037-24.113,116.681-50.925,228.546-52.334,4.528-.058,8.927-1.164,13.318-1.2C518.7,578.456,280.154,371.5,490.813,400.358c6.877.942,13.861,2.288,21.066,3.5C726.734,440.087,832.828,299.694,768.847,131.42" fill="none" stroke="#7790d4" stroke-width="0.172"/>
          <path id="Path_109588" data-name="Path 109588" d="M22.248,752.735S8.4,657.452,62.064,635.716c55.362-22.422,118.738-47.881,230.049-50.153,4.544-.093,8.943-1.266,13.341-1.344,215-3.807-22.121-211.782,187.827-182.722,6.893.954,13.9,2.328,21.141,3.576,214.756,37,321.386-102.676,254.734-273.845" fill="none" stroke="#7790d4" stroke-width="0.172"/>
          <path id="Path_109589" data-name="Path 109589" d="M22.763,753.891S8.866,657.83,63.949,637.68c56.685-20.735,120.8-44.845,231.55-47.971,4.561-.129,8.96-1.368,13.366-1.488,213.342-5.828-22.353-214.847,186.884-185.585,6.909.966,13.94,2.368,21.215,3.648,214.659,37.77,321.824-101.185,252.5-275.248" fill="none" stroke="#7790d4" stroke-width="0.172"/>
          <path id="Path_109590" data-name="Path 109590" d="M23.278,755.047S9.334,658.2,65.834,639.644c58.007-19.053,122.857-41.817,233.052-45.789,4.577-.165,8.975-1.47,13.389-1.633,211.676-7.824-22.584-217.91,185.942-188.448,6.926.979,13.979,2.408,21.289,3.72C734.069,446.03,841.768,307.8,769.774,130.844" fill="none" stroke="#7790d4" stroke-width="0.172"/>
          <path id="Path_109591" data-name="Path 109591" d="M23.793,756.2S9.8,658.573,67.719,641.609c59.328-17.377,124.918-38.8,234.554-43.608,4.594-.2,8.991-1.571,13.413-1.777,210-9.794-22.816-220.971,185-191.311,6.942.991,14.019,2.447,21.363,3.793,214.466,39.3,322.7-98.2,248.035-278.055" fill="none" stroke="#7790d4" stroke-width="0.172"/>
          <path id="Path_109592" data-name="Path 109592" d="M24.308,757.36S10.269,658.938,69.6,643.574c60.649-15.7,126.982-35.79,236.056-41.426,4.611-.238,9.006-1.672,13.436-1.922C527.417,588.485,296.049,376.2,503.153,406.052c6.958,1,14.058,2.486,21.437,3.865,214.371,40.055,323.137-96.711,245.8-279.457" fill="none" stroke="#7790d4" stroke-width="0.172"/>
          <path id="Path_109593" data-name="Path 109593" d="M24.823,758.516S10.737,659.3,71.489,645.538c61.97-14.036,129.046-32.789,237.557-39.244,4.628-.275,9.022-1.773,13.461-2.067,206.634-13.663-23.279-227.088,183.114-197.037,6.974,1.016,14.1,2.526,21.511,3.938,214.275,40.808,323.575-95.22,243.569-280.86" fill="none" stroke="#7790d4" stroke-width="0.172"/>
          <path id="Path_109594" data-name="Path 109594" d="M25.338,759.672S11.2,659.654,73.374,647.5c63.293-12.372,131.112-29.8,239.059-37.063,4.645-.312,9.036-1.874,13.484-2.211,204.942-15.56-23.511-230.144,182.172-199.9,6.99,1.028,14.137,2.564,21.586,4.01C743.855,453.9,853.686,318.61,771.01,130.076" fill="none" stroke="#7790d4" stroke-width="0.172"/>
          <path id="Path_109595" data-name="Path 109595" d="M25.853,760.828S11.674,660.008,75.258,649.467c64.617-10.711,133.179-26.813,240.562-34.881,4.662-.349,9.051-1.974,13.508-2.356,203.245-17.431-23.744-233.2,181.229-202.763,7.006,1.041,14.177,2.6,21.66,4.082,214.085,42.3,324.449-92.236,239.1-283.665" fill="none" stroke="#7790d4" stroke-width="0.172"/>
          <path id="Path_109596" data-name="Path 109596" d="M26.368,761.985S12.144,660.357,77.143,651.432c65.941-9.054,135.247-23.838,242.064-32.7,4.678-.388,9.065-2.073,13.531-2.5,201.543-19.277-23.976-236.249,180.287-205.625,7.022,1.053,14.216,2.642,21.734,4.154C748.751,457.8,859.646,324.015,771.628,129.692" fill="none" stroke="#7790d4" stroke-width="0.172"/>
          <path id="Path_109597" data-name="Path 109597" d="M26.882,763.141S12.615,660.7,79.027,653.4c67.267-7.4,137.315-20.87,243.565-30.517,4.7-.426,9.081-2.173,13.556-2.645,199.838-21.1-24.209-239.3,179.344-208.489,7.038,1.066,14.256,2.681,21.808,4.227C751.2,459.753,862.624,326.717,771.936,129.5" fill="none" stroke="#7790d4" stroke-width="0.172"/>
          <path id="Path_109598" data-name="Path 109598" d="M27.4,764.3S13.089,661.045,80.912,655.361c68.6-5.749,139.383-17.912,245.067-28.335,4.714-.465,9.1-2.273,13.58-2.791,198.129-22.9-24.443-242.348,178.4-211.351,7.054,1.078,14.295,2.719,21.882,4.3C753.649,461.7,865.6,329.419,772.245,129.308" fill="none" stroke="#7790d4" stroke-width="0.172"/>
          <path id="Path_109599" data-name="Path 109599" d="M27.912,765.453S13.564,661.385,82.8,657.325c69.923-4.1,141.452-14.961,246.569-26.153,4.73-.5,9.109-2.371,13.6-2.935,196.418-24.668-24.675-245.395,177.459-214.215,7.07,1.091,14.335,2.758,21.956,4.372,213.715,45.245,326.2-86.273,230.17-289.279" fill="none" stroke="#7790d4" stroke-width="0.172"/>
          <path id="Path_109600" data-name="Path 109600" d="M28.427,766.61S14.04,661.723,84.682,659.29c71.255-2.454,143.521-12.018,248.071-23.971,4.747-.543,9.123-2.469,13.626-3.08C541.084,605.823,321.471,383.8,522.9,415.162c7.086,1.1,14.374,2.8,22.031,4.444,213.623,45.971,326.636-84.782,227.936-290.682" fill="none" stroke="#7790d4" stroke-width="0.172"/>
          <path id="Path_109601" data-name="Path 109601" d="M28.942,767.766S14.519,662.059,86.566,661.254c72.588-.81,145.591-9.083,249.574-21.789,4.764-.582,9.137-2.567,13.65-3.225C542.78,608.1,324.648,384.758,525.364,416.3c7.1,1.116,14.414,2.835,22.1,4.516,213.533,46.695,327.074-83.29,225.7-292.084" fill="none" stroke="#7790d4" stroke-width="0.172"/>
          <path id="Path_109602" data-name="Path 109602" d="M29.457,768.922S15,662.392,88.451,663.219c73.923.832,147.659-6.157,251.075-19.608,4.782-.622,9.152-2.664,13.674-3.369,191.275-29.838-25.376-254.524,174.632-222.8,7.118,1.129,14.454,2.872,22.179,4.588,213.443,47.414,327.512-81.8,223.47-293.487" fill="none" stroke="#7790d4" stroke-width="0.172"/>
          <path id="Path_109603" data-name="Path 109603" d="M29.972,770.078s-14.49-107.354,60.364-104.9c75.26,2.472,149.728-3.238,252.577-17.426,4.8-.662,9.166-2.761,13.7-3.514C546.169,612.731,331,386.68,530.3,418.577c7.135,1.142,14.493,2.911,22.253,4.661C765.908,471.368,880.5,342.93,773.79,128.347" fill="none" stroke="#7790d4" stroke-width="0.172"/>
          <path id="Path_109604" data-name="Path 109604" d="M30.487,771.235s-14.52-108.18,61.734-104.087c76.6,4.112,151.8-.326,254.079-15.244,4.815-.7,9.18-2.857,13.721-3.659,187.843-33.162-25.844-260.6,172.747-228.528,7.151,1.154,14.533,2.948,22.327,4.733,213.267,48.842,328.387-78.817,219-296.294" fill="none" stroke="#7790d4" stroke-width="0.172"/>
          <path id="Path_109605" data-name="Path 109605" d="M31,772.391s-14.549-109.007,63.1-103.278c77.94,5.749,153.862,2.578,255.581-13.063,4.832-.743,9.194-2.953,13.744-3.8,186.129-34.79-26.078-263.638,171.805-231.392,7.167,1.168,14.573,2.986,22.4,4.806,213.18,49.551,328.825-77.326,216.771-297.7" fill="none" stroke="#7790d4" stroke-width="0.172"/>
          <path id="Path_109606" data-name="Path 109606" d="M31.517,773.547S16.941,663.712,95.991,671.077c79.283,7.386,155.929,5.475,257.082-10.881,4.85-.784,9.209-3.048,13.769-3.948C551.257,619.854,340.528,389.576,537.7,421.994c7.183,1.18,14.612,3.023,22.475,4.878,213.094,50.257,329.263-75.835,214.538-299.1" fill="none" stroke="#7790d4" stroke-width="0.172"/>
          <path id="Path_109607" data-name="Path 109607" d="M32.032,774.7s-14.6-110.664,65.844-101.662c80.627,9.023,157.994,8.364,258.584-8.7,4.867-.825,9.223-3.143,13.792-4.093,182.7-37.975-26.548-269.7,169.92-237.117,7.2,1.194,14.652,3.061,22.55,4.95,213.007,50.961,329.7-74.343,212.3-300.5" fill="none" stroke="#7790d4" stroke-width="0.172"/>
          <path id="Path_109608" data-name="Path 109608" d="M32.547,775.859S17.922,664.365,99.76,675.005c81.974,10.659,160.059,11.248,260.087-6.517,4.884-.866,9.237-3.237,13.816-4.237,181-39.534-26.784-272.735,168.977-239.98,7.215,1.207,14.692,3.1,22.624,5.022,212.923,51.661,330.137-72.852,210.071-301.9" fill="none" stroke="#7790d4" stroke-width="0.172"/>
          <path id="Path_109609" data-name="Path 109609" d="M33.062,777.016S18.416,664.692,101.645,676.971c83.322,12.292,162.122,14.121,261.589-4.336,4.9-.909,9.251-3.331,13.839-4.382,179.291-41.07-27.019-275.766,168.035-242.843,7.231,1.22,14.732,3.135,22.7,5.1C780.645,482.862,898.381,359.144,775.644,127.2" fill="none" stroke="#7790d4" stroke-width="0.172"/>
          <path id="Path_109610" data-name="Path 109610" d="M33.577,778.172S18.911,665.017,103.53,678.935c84.672,13.927,164.183,16.99,263.09-2.154,4.918-.951,9.266-3.424,13.864-4.526,177.59-42.584-27.256-278.794,167.092-245.707,7.247,1.234,14.772,3.173,22.772,5.168C783.1,484.767,901.36,361.846,775.953,127" fill="none" stroke="#7790d4" stroke-width="0.172"/>
          <path id="Path_109611" data-name="Path 109611" d="M34.092,779.328S19.407,665.342,105.415,680.9c86.023,15.561,166.243,19.852,264.592.029,4.934-.995,9.28-3.518,13.887-4.672,175.893-44.077-27.491-281.82,166.15-248.569,7.263,1.247,14.812,3.209,22.846,5.24,212.674,53.741,331.45-68.379,203.372-306.116" fill="none" stroke="#7790d4" stroke-width="0.172"/>
          <path id="Path_109612" data-name="Path 109612" d="M34.606,780.484S19.9,665.667,107.3,682.865c87.376,17.193,168.3,22.706,266.094,2.209,4.951-1.038,9.295-3.61,13.911-4.816,174.2-45.549-27.728-284.846,165.207-251.432,7.278,1.26,14.852,3.247,22.92,5.312C788.025,488.568,907.319,367.25,776.57,126.62" fill="none" stroke="#7790d4" stroke-width="0.172"/>
          <path id="Path_109613" data-name="Path 109613" d="M35.121,781.641S20.4,665.991,109.184,684.829c88.73,18.827,170.358,25.556,267.6,4.392,4.967-1.081,9.309-3.7,13.934-4.961,172.515-47-27.964-287.868,164.265-254.3,7.294,1.274,14.892,3.283,22.995,5.384,212.513,55.115,332.324-65.4,198.905-308.921" fill="none" stroke="#7790d4" stroke-width="0.172"/>
          <path id="Path_109614" data-name="Path 109614" d="M35.636,782.8s-14.732-116.482,75.432-96c90.087,20.461,172.413,28.4,269.1,6.574,4.983-1.125,9.324-3.792,13.958-5.106,170.835-48.431-28.2-290.89,163.322-257.158,7.31,1.288,14.932,3.32,23.069,5.457,212.434,55.8,332.762-63.9,196.672-310.324" fill="none" stroke="#7790d4" stroke-width="0.172"/>
          <path id="Path_109615" data-name="Path 109615" d="M36.151,783.953s-14.745-117.315,76.8-95.2c91.444,22.094,174.466,31.235,270.6,8.756,5-1.169,9.34-3.883,13.982-5.251C566.7,642.42,369.1,398.353,559.915,432.242c7.326,1.3,14.972,3.356,23.143,5.529,212.356,56.476,333.2-62.414,194.439-311.728" fill="none" stroke="#7790d4" stroke-width="0.172"/>
          <path id="Path_109616" data-name="Path 109616" d="M36.666,785.109s-14.757-118.147,78.172-94.387c92.8,23.727,176.516,34.064,272.1,10.937,5.016-1.214,9.355-3.973,14.006-5.4C568.441,645.03,372.269,399.336,562.383,433.38c7.342,1.315,15.012,3.393,23.217,5.6,212.279,57.153,333.638-60.923,192.206-313.131" fill="none" stroke="#7790d4" stroke-width="0.172"/>
          <path id="Path_109617" data-name="Path 109617" d="M37.181,786.266s-14.768-118.979,79.542-93.579c94.161,25.36,178.564,36.889,273.6,13.119,5.032-1.259,9.371-4.062,14.029-5.54,165.837-52.608-28.914-299.945,160.5-265.746,7.358,1.328,15.052,3.428,23.291,5.674,212.2,57.827,334.075-59.432,189.973-314.534" fill="none" stroke="#7790d4" stroke-width="0.172"/>
          <path id="Path_109618" data-name="Path 109618" d="M37.7,787.422S22.918,667.61,118.608,694.651c95.521,26.993,180.609,39.708,275.106,15.3,5.048-1.3,9.386-4.151,14.053-5.684,164.186-53.964-29.153-302.961,159.552-268.61,7.374,1.342,15.092,3.465,23.365,5.746,212.128,58.5,334.513-57.94,187.74-315.936" fill="none" stroke="#7790d4" stroke-width="0.172"/>
          <path id="Path_109619" data-name="Path 109619" d="M38.211,788.578s-14.787-120.644,82.282-91.963C217.376,725.242,303.145,739.136,397.1,714.1c5.064-1.349,9.4-4.239,14.077-5.829,162.545-55.3-29.391-305.975,158.61-271.472,7.39,1.356,15.133,3.5,23.44,5.818,212.053,59.168,334.95-56.449,185.506-317.34" fill="none" stroke="#7790d4" stroke-width="0.172"/>
          <path id="Path_109620" data-name="Path 109620" d="M38.726,789.734S23.932,668.258,122.378,698.58c98.245,30.26,184.692,45.328,278.109,19.664,5.08-1.4,9.419-4.326,14.1-5.974,160.913-56.622-29.63-308.987,157.667-274.335,7.406,1.37,15.173,3.537,23.514,5.891,211.98,59.834,335.387-54.958,183.273-318.743" fill="none" stroke="#7790d4" stroke-width="0.172"/>
          <path id="Path_109621" data-name="Path 109621" d="M39.241,790.891s-14.8-122.308,85.021-90.346c99.609,31.894,186.73,48.131,279.612,21.846,5.1-1.442,9.436-4.413,14.124-6.118,159.291-57.927-29.869-312,156.725-277.2,7.422,1.385,15.213,3.573,23.588,5.964,211.909,60.5,335.825-53.467,181.04-320.146" fill="none" stroke="#7790d4" stroke-width="0.172"/>
          <path id="Path_109622" data-name="Path 109622" d="M39.756,792.047s-14.807-123.14,86.391-89.538c100.974,33.528,188.764,50.928,281.114,24.028,5.11-1.488,9.453-4.5,14.148-6.263C579.087,661.058,391.3,405.267,577.191,440.213c7.437,1.4,15.254,3.608,23.662,6.036C812.691,507.408,937.116,394.273,779.66,124.7" fill="none" stroke="#7790d4" stroke-width="0.172"/>
          <path id="Path_109623" data-name="Path 109623" d="M40.271,793.2s-14.812-123.971,87.761-88.729c102.339,35.161,190.795,53.72,282.615,26.209,5.126-1.535,9.471-4.586,14.172-6.408C580.9,663.786,394.47,406.26,579.659,441.351c7.453,1.413,15.294,3.644,23.736,6.109,211.768,61.818,336.7-50.484,176.574-322.953" fill="none" stroke="#7790d4" stroke-width="0.172"/>
          <path id="Path_109624" data-name="Path 109624" d="M40.786,794.359s-14.817-124.8,89.131-87.921c103.7,36.795,192.824,56.507,284.117,28.392,5.141-1.584,9.488-4.672,14.2-6.553,154.487-61.749-30.589-321.022,153.9-285.787,7.469,1.426,15.335,3.679,23.81,6.18,211.7,62.476,337.138-48.993,174.341-324.355" fill="none" stroke="#7790d4" stroke-width="0.172"/>
          <path id="Path_109625" data-name="Path 109625" d="M41.3,795.516S26.481,669.882,131.8,708.4c105.071,38.43,194.849,59.29,285.619,30.574,5.155-1.631,9.506-4.756,14.219-6.7,152.909-62.994-30.829-324.027,152.955-288.65,7.485,1.441,15.375,3.715,23.884,6.253,211.632,63.13,337.576-47.5,172.108-325.758" fill="none" stroke="#7790d4" stroke-width="0.172"/>
          <path id="Path_109626" data-name="Path 109626" d="M41.815,796.672s-14.823-126.465,91.871-86.3c106.438,40.065,196.87,62.069,287.121,32.756,5.17-1.679,9.525-4.84,14.243-6.843,151.343-64.226-31.071-327.03,152.013-291.512,7.5,1.455,15.416,3.75,23.958,6.325,211.565,63.782,338.013-46.01,169.875-327.161" fill="none" stroke="#7790d4" stroke-width="0.172"/>
          <path id="Path_109627" data-name="Path 109627" d="M42.331,797.828s-14.826-127.3,93.239-85.5c107.807,41.7,198.889,64.842,288.624,34.937,5.183-1.728,9.543-4.924,14.266-6.987,149.788-65.446-31.312-330.033,151.07-294.376a247.623,247.623,0,0,1,24.033,6.4c211.5,64.432,338.45-44.519,167.641-328.565" fill="none" stroke="#7790d4" stroke-width="0.172"/>
          <path id="Path_109628" data-name="Path 109628" d="M42.845,798.984S28.018,670.858,137.455,714.3c109.176,43.334,200.9,67.612,290.125,37.119,5.2-1.777,9.564-5.007,14.291-7.132C590.118,677.63,410.317,411.249,592,447.045a245.007,245.007,0,0,1,24.107,6.47c211.436,65.08,338.888-43.028,165.408-329.968" fill="none" stroke="#7790d4" stroke-width="0.172"/>
          <path id="Path_109629" data-name="Path 109629" d="M43.36,800.14s-14.829-128.957,95.98-83.88c110.545,44.97,202.915,70.378,291.627,39.3,5.212-1.826,9.583-5.089,14.314-7.276,146.719-67.85-31.8-336.034,149.185-300.1a242.517,242.517,0,0,1,24.181,6.544C830.02,520.453,957.973,413.19,781.822,123.356" fill="none" stroke="#7790d4" stroke-width="0.172"/>
          <path id="Path_109630" data-name="Path 109630" d="M43.875,801.3s-14.829-129.787,97.35-83.072c111.915,46.606,204.922,73.14,293.129,41.483,5.225-1.875,9.6-5.17,14.338-7.421,145.2-69.036-32.038-339.031,148.242-302.964a240.121,240.121,0,0,1,24.255,6.614c211.311,66.37,339.763-40.045,160.942-332.773" fill="none" stroke="#7790d4" stroke-width="0.172"/>
          <path id="Path_109631" data-name="Path 109631" d="M44.39,802.453S29.561,671.836,143.11,720.19c113.285,48.241,206.926,75.9,294.631,43.664,5.238-1.925,9.624-5.251,14.361-7.566,143.705-70.211-32.28-342.028,147.3-305.827a237.821,237.821,0,0,1,24.329,6.687c211.25,67.012,340.2-38.554,158.709-334.177" fill="none" stroke="#7790d4" stroke-width="0.172"/>
          <path id="Path_109632" data-name="Path 109632" d="M44.9,803.609s-14.829-131.446,100.09-81.455C259.651,772.031,353.92,800.807,441.127,768c5.252-1.976,9.647-5.332,14.385-7.71,142.22-71.379-32.523-345.024,146.358-308.69a235.424,235.424,0,0,1,24.4,6.759c211.19,67.652,340.638-37.063,156.475-335.58" fill="none" stroke="#7790d4" stroke-width="0.172"/>
          <path id="Path_109633" data-name="Path 109633" d="M45.42,804.765S30.592,672.49,146.88,724.118c116.027,51.514,210.921,81.4,297.634,48.028,5.265-2.026,9.669-5.412,14.409-7.855,140.748-72.536-32.767-348.018,145.415-311.553a234.125,234.125,0,0,1,24.478,6.832C839.947,527.859,969.891,424,783.058,122.588" fill="none" stroke="#7790d4" stroke-width="0.172"/>
          <path id="Path_109634" data-name="Path 109634" d="M45.935,805.922s-14.827-133.1,102.829-79.838c117.4,53.15,212.914,84.151,299.137,50.209,5.277-2.077,9.691-5.491,14.432-8,139.293-73.687-33.01-351.01,144.473-314.416a231.619,231.619,0,0,1,24.552,6.9C842.432,529.707,972.871,426.7,783.367,122.4" fill="none" stroke="#7790d4" stroke-width="0.172"/>
          <path id="Path_109635" data-name="Path 109635" d="M46.45,807.078s-14.825-133.934,104.2-79.03c118.772,54.787,214.9,86.9,300.639,52.391,5.289-2.128,9.714-5.57,14.456-8.144,137.851-74.831-33.255-354,143.53-317.279a229.662,229.662,0,0,1,24.626,6.976C844.918,531.552,975.851,429.4,783.676,122.2" fill="none" stroke="#7790d4" stroke-width="0.172"/>
          <path id="Path_109636" data-name="Path 109636" d="M46.965,808.234S32.142,673.472,152.534,730.012c120.144,56.424,216.885,89.638,302.14,54.573,5.3-2.18,9.739-5.649,14.48-8.289,136.426-75.967-33.5-356.992,142.588-320.142a227.878,227.878,0,0,1,24.7,7.049c210.963,70.192,342.389-31.1,147.543-341.192" fill="none" stroke="#7790d4" stroke-width="0.172"/>
          <path id="Path_109637" data-name="Path 109637" d="M47.48,809.39S32.659,673.8,154.419,731.976c121.517,58.062,218.864,92.378,303.642,56.755,5.313-2.232,9.763-5.726,14.5-8.433,135.016-77.1-33.745-359.981,141.645-323a226.1,226.1,0,0,1,24.774,7.121c210.91,70.822,342.826-29.607,145.31-342.6" fill="none" stroke="#7790d4" stroke-width="0.172"/>
          <path id="Path_109638" data-name="Path 109638" d="M47.995,810.547S33.177,674.128,156.3,733.942c122.89,59.7,220.839,95.114,305.144,58.937,5.325-2.285,9.788-5.805,14.527-8.579,133.623-78.225-33.99-362.968,140.7-325.868a224.237,224.237,0,0,1,24.848,7.194c210.857,71.451,343.264-28.116,143.077-344" fill="none" stroke="#7790d4" stroke-width="0.172"/>
          <path id="Path_109639" data-name="Path 109639" d="M48.51,811.7s-14.815-137.247,109.679-75.8C282.452,797.242,381,833.754,464.835,797.025c5.335-2.338,9.813-5.881,14.551-8.724,132.245-79.347-34.236-365.954,139.759-328.73a222.414,222.414,0,0,1,24.924,7.266c210.805,72.078,343.7-26.625,140.843-345.4" fill="none" stroke="#7790d4" stroke-width="0.172"/>
          <path id="Path_109640" data-name="Path 109640" d="M49.025,812.859S34.213,674.784,160.073,737.87c125.638,62.975,224.777,100.58,308.149,63.3,5.346-2.391,9.84-5.958,14.574-8.868,130.885-80.467-34.482-368.94,138.818-331.594a220.912,220.912,0,0,1,25,7.339c210.755,72.7,344.138-25.134,138.61-346.805" fill="none" stroke="#7790d4" stroke-width="0.172"/>
          <path id="Path_109641" data-name="Path 109641" d="M49.54,814.015s-14.809-138.9,112.417-74.18c127.012,64.612,226.74,103.309,309.65,65.482,5.357-2.444,9.868-6.033,14.6-9.013,129.54-81.582-34.729-371.923,137.875-334.456a219.6,219.6,0,0,1,25.071,7.41c210.706,73.327,344.577-23.642,136.377-348.207" fill="none" stroke="#7790d4" stroke-width="0.172"/>
          <path id="Path_109642" data-name="Path 109642" d="M50.054,815.172S35.249,675.442,163.842,741.8c128.387,66.251,228.7,106.036,311.152,67.664,5.367-2.5,9.9-6.109,14.622-9.158,128.213-82.7-34.976-374.905,136.933-337.319a217.97,217.97,0,0,1,25.145,7.483c210.658,73.949,345.014-22.151,134.144-349.61" fill="none" stroke="#7790d4" stroke-width="0.172"/>
          <path id="Path_109643" data-name="Path 109643" d="M50.569,816.328s-14.8-140.557,115.158-72.564c129.761,67.89,230.649,108.762,312.654,69.846,5.377-2.552,9.924-6.184,14.646-9.3,126.9-83.808-35.224-377.887,135.99-340.182a216.393,216.393,0,0,1,25.219,7.555c210.612,74.569,345.451-20.66,131.911-351.014" fill="none" stroke="#7790d4" stroke-width="0.172"/>
          <path id="Path_109644" data-name="Path 109644" d="M51.084,817.484S36.288,676.1,167.612,745.728c131.136,69.529,232.6,111.486,314.156,72.028,5.386-2.606,9.953-6.258,14.669-9.447,125.609-84.918-35.472-380.867,135.047-343.045a215.038,215.038,0,0,1,25.294,7.628c210.567,75.188,345.889-19.169,129.678-352.417" fill="none" stroke="#7790d4" stroke-width="0.172"/>
          <path id="Path_109645" data-name="Path 109645" d="M51.6,818.64S36.807,676.43,169.5,747.693C302.008,818.86,404.038,861.9,485.154,821.9c5.4-2.661,9.984-6.332,14.694-9.592,124.332-86.029-35.721-383.845,134.1-345.907a213.646,213.646,0,0,1,25.369,7.7c210.522,75.805,346.326-17.678,127.444-353.82" fill="none" stroke="#7790d4" stroke-width="0.172"/>
          <path id="Path_109646" data-name="Path 109646" d="M52.114,819.8S37.468,676.5,171.382,749.658c134.027,72.548,236.48,116.929,317.159,76.391,5.405-2.715,10.014-6.406,14.717-9.736C626.331,729.172,467.289,429.49,636.42,467.542a212.612,212.612,0,0,1,25.443,7.772c210.479,76.422,346.764-16.186,125.211-355.222" fill="none" stroke="#7790d4" stroke-width="0.172"/>
          <path id="Path_109647" data-name="Path 109647" d="M52.629,820.953s-14.651-144.1,120.637-69.331C308.66,825.83,411.681,871.27,491.928,830.2c5.413-2.77,10.045-6.479,14.741-9.881,121.831-88.253-36.219-389.8,132.219-351.633a211.262,211.262,0,0,1,25.517,7.844c210.437,77.036,347.2-14.7,122.978-356.626" fill="none" stroke="#7790d4" stroke-width="0.172"/>
          <path id="Path_109648" data-name="Path 109648" d="M53.144,822.109S38.489,677.2,175.151,753.586c136.76,75.869,240.345,122.367,320.164,80.755,5.421-2.826,10.077-6.552,14.764-10.025,120.607-89.368-36.468-392.775,131.277-354.5a210.159,210.159,0,0,1,25.591,7.917c210.4,77.649,347.639-13.2,120.745-358.029" fill="none" stroke="#7790d4" stroke-width="0.172"/>
          <path id="Path_109649" data-name="Path 109649" d="M53.659,823.265S39,677.553,177.036,755.551C315.162,833.08,419.3,880.635,498.7,838.487c5.428-2.882,10.11-6.625,14.788-10.17,119.4-90.485-36.719-395.749,130.334-357.36a208.862,208.862,0,0,1,25.665,7.99C879.847,557.207,1017.566,467.234,788,119.515" fill="none" stroke="#7790d4" stroke-width="0.172"/>
          <path id="Path_109650" data-name="Path 109650" d="M54.174,824.421S39.509,677.9,178.921,757.516c139.491,79.188,244.189,127.8,323.167,85.117,5.437-2.936,10.144-6.7,14.812-10.315C635.109,740.714,479.93,433.6,646.292,472.1a207.84,207.84,0,0,1,25.739,8.063c210.32,78.87,348.514-10.222,116.279-360.836" fill="none" stroke="#7790d4" stroke-width="0.172"/>
          <path id="Path_109651" data-name="Path 109651" d="M54.689,825.578s-14.67-147.322,126.117-66.1C321.663,840.33,426.911,890,505.475,846.781a107.851,107.851,0,0,0,14.836-10.46C637.346,743.593,483.09,434.627,648.76,473.235a206.744,206.744,0,0,1,25.814,8.135c210.282,79.479,348.951-8.731,114.045-362.239" fill="none" stroke="#7790d4" stroke-width="0.172"/>
          <path id="Path_109652" data-name="Path 109652" d="M55.2,826.734S40.529,678.607,182.691,761.445c142.223,82.51,248.015,133.23,326.171,89.482a106.269,106.269,0,0,0,14.859-10.6c115.88-93.855-37.473-404.664,127.507-365.948a205.782,205.782,0,0,1,25.888,8.206c210.247,80.087,349.389-7.239,111.812-363.641" fill="none" stroke="#7790d4" stroke-width="0.172"/>
          <path id="Path_109653" data-name="Path 109653" d="M55.719,827.89s-14.68-148.933,128.856-64.481c143.59,84.17,249.922,135.945,327.674,91.664a105.053,105.053,0,0,0,14.883-10.75C641.873,749.336,489.406,436.689,653.7,475.512a204.879,204.879,0,0,1,25.962,8.279c210.212,80.693,349.826-5.748,109.579-365.044" fill="none" stroke="#7790d4" stroke-width="0.172"/>
          <path id="Path_109654" data-name="Path 109654" d="M56.234,829.046S41.549,679.308,186.46,765.374c144.956,85.83,251.822,138.659,329.175,93.845a103.749,103.749,0,0,0,14.907-10.893c113.619-96.125-37.978-410.6,125.622-371.675A203.851,203.851,0,0,1,682.2,485c210.179,81.3,350.264-4.258,107.346-366.448" fill="none" stroke="#7790d4" stroke-width="0.172"/>
          <path id="Path_109655" data-name="Path 109655" d="M56.749,830.2S42.058,679.66,188.344,767.338c146.321,87.492,253.718,141.374,330.677,96.028a102.552,102.552,0,0,0,14.931-11.039c112.514-97.268-38.3-413.287,124.679-374.537a205.377,205.377,0,0,1,26.11,8.424c210.148,81.9,350.7-2.766,105.113-367.851" fill="none" stroke="#7790d4" stroke-width="0.172"/>
          <path id="Path_109656" data-name="Path 109656" d="M57.263,831.359S42.568,680.01,190.229,769.3c147.687,89.151,255.61,144.087,332.179,98.209a101.366,101.366,0,0,0,14.954-11.184c111.427-98.417-38.536-416.322,123.737-377.4a200.886,200.886,0,0,1,26.184,8.5c210.259,82.142,351.14-1.275,102.88-369.254" fill="none" stroke="#7790d4" stroke-width="0.172"/>
          <path id="Path_109657" data-name="Path 109657" d="M57.778,832.515s-14.7-152.154,134.336-61.248c149.053,90.812,257.5,146.8,333.681,100.391a100.247,100.247,0,0,0,14.978-11.328C651.128,760.756,502,440.972,663.567,480.067a200.289,200.289,0,0,1,26.258,8.569c210.183,82.863,351.577.216,100.647-370.657" fill="none" stroke="#7790d4" stroke-width="0.172"/>
          <path id="Path_109658" data-name="Path 109658" d="M58.293,833.671S43.589,680.712,194,773.231C344.418,865.7,453.376,922.746,529.181,875.8a99.076,99.076,0,0,0,15-11.473c109.3-100.737-39.012-422.393,121.852-383.125a199.935,199.935,0,0,1,26.333,8.64c210.107,83.584,352.014,1.708,98.413-372.06" fill="none" stroke="#7790d4" stroke-width="0.172"/>
          <path id="Path_109659" data-name="Path 109659" d="M58.808,834.828S44.1,681.063,195.884,775.2s261.254,152.23,336.684,104.755c142.749-89.843-47.69-473.2,162.342-388.893s352.452,3.2,96.18-373.463" fill="none" stroke="#7790d4" stroke-width="0.172"/>
          <g id="Group_97749" data-name="Group 97749" opacity="0.7">
            <g id="Group_97748" data-name="Group 97748">
              <g id="Group_97747" data-name="Group 97747" clip-path="url(#clip-path-4)">
                <path id="Path_109660" data-name="Path 109660" d="M262.073,431.92a3.066,3.066,0,1,1-4.281-.689,3.066,3.066,0,0,1,4.281.689" fill="#7790d4"/>
                <path id="Path_109661" data-name="Path 109661" d="M277.216,420.974a3.066,3.066,0,1,1-4.281-.689,3.066,3.066,0,0,1,4.281.689" fill="#7790d4"/>
                <path id="Path_109662" data-name="Path 109662" d="M292.359,410.028a3.066,3.066,0,1,1-4.281-.689,3.066,3.066,0,0,1,4.281.689" fill="#7790d4"/>
                <path id="Path_109663" data-name="Path 109663" d="M307.5,399.081a3.066,3.066,0,1,1-4.281-.689,3.066,3.066,0,0,1,4.281.689" fill="#7790d4"/>
                <path id="Path_109664" data-name="Path 109664" d="M322.645,388.135a3.066,3.066,0,1,1-4.281-.689,3.066,3.066,0,0,1,4.281.689" fill="#7790d4"/>
                <path id="Path_109665" data-name="Path 109665" d="M337.788,377.189a3.066,3.066,0,1,1-4.281-.689,3.066,3.066,0,0,1,4.281.689" fill="#7790d4"/>
                <path id="Path_109666" data-name="Path 109666" d="M272.458,446.287a3.066,3.066,0,1,1-4.281-.689,3.066,3.066,0,0,1,4.281.689" fill="#7790d4"/>
                <path id="Path_109667" data-name="Path 109667" d="M287.6,435.341a3.066,3.066,0,1,1-4.281-.689,3.066,3.066,0,0,1,4.281.689" fill="#7790d4"/>
                <path id="Path_109668" data-name="Path 109668" d="M302.744,424.394a3.066,3.066,0,1,1-4.281-.689,3.066,3.066,0,0,1,4.281.689" fill="#7790d4"/>
                <path id="Path_109669" data-name="Path 109669" d="M317.887,413.448a3.066,3.066,0,1,1-4.281-.689,3.066,3.066,0,0,1,4.281.689" fill="#7790d4"/>
                <path id="Path_109670" data-name="Path 109670" d="M333.03,402.5a3.066,3.066,0,1,1-4.281-.689,3.066,3.066,0,0,1,4.281.689" fill="#7790d4"/>
                <path id="Path_109671" data-name="Path 109671" d="M348.173,391.555a3.066,3.066,0,1,1-4.281-.689,3.066,3.066,0,0,1,4.281.689" fill="#7790d4"/>
                <path id="Path_109672" data-name="Path 109672" d="M282.843,460.654a3.066,3.066,0,1,1-4.281-.689,3.066,3.066,0,0,1,4.281.689" fill="#7790d4"/>
                <path id="Path_109673" data-name="Path 109673" d="M297.986,449.707a3.066,3.066,0,1,1-4.281-.689,3.066,3.066,0,0,1,4.281.689" fill="#7790d4"/>
                <path id="Path_109674" data-name="Path 109674" d="M313.129,438.761a3.066,3.066,0,1,1-4.281-.689,3.066,3.066,0,0,1,4.281.689" fill="#7790d4"/>
                <path id="Path_109675" data-name="Path 109675" d="M328.272,427.814a3.066,3.066,0,1,1-4.281-.689,3.066,3.066,0,0,1,4.281.689" fill="#7790d4"/>
                <path id="Path_109676" data-name="Path 109676" d="M343.415,416.868a3.066,3.066,0,1,1-4.281-.689,3.066,3.066,0,0,1,4.281.689" fill="#7790d4"/>
                <path id="Path_109677" data-name="Path 109677" d="M358.558,405.922a3.066,3.066,0,1,1-4.281-.689,3.066,3.066,0,0,1,4.281.689" fill="#7790d4"/>
                <g id="Group_97746" data-name="Group 97746" opacity="0.74">
                  <g id="Group_97745" data-name="Group 97745">
                    <g id="Group_97744" data-name="Group 97744" clip-path="url(#clip-path-5)">
                      <rect id="Rectangle_34564" data-name="Rectangle 34564" width="5.029" height="5.029" transform="translate(244.456 266.677) rotate(-47.643)" fill="#aabde8"/>
                      <rect id="Rectangle_34565" data-name="Rectangle 34565" width="5.03" height="5.03" transform="translate(270.689 290.592) rotate(-47.643)" fill="#aabde8"/>
                      <rect id="Rectangle_34566" data-name="Rectangle 34566" width="5.029" height="5.029" transform="translate(296.922 314.508) rotate(-47.652)" fill="#aabde8"/>
                      <rect id="Rectangle_34567" data-name="Rectangle 34567" width="5.029" height="5.029" transform="translate(323.155 338.422) rotate(-47.643)" fill="#aabde8"/>
                      <rect id="Rectangle_34568" data-name="Rectangle 34568" width="5.03" height="5.03" transform="translate(349.387 362.337) rotate(-47.643)" fill="#aabde8"/>
                    </g>
                  </g>
                </g>
                <line id="Line_3" data-name="Line 3" y1="100.069" x2="80.556" transform="translate(200.684 901.167)" fill="none" stroke="#4666a5" stroke-width="0.21"/>
                <line id="Line_4" data-name="Line 4" y1="100.07" x2="80.556" transform="translate(226.888 894.774)" fill="none" stroke="#4666a5" stroke-width="0.21"/>
                <line id="Line_5" data-name="Line 5" y1="100.069" x2="80.556" transform="translate(253.091 888.383)" fill="none" stroke="#4666a5" stroke-width="0.21"/>
              </g>
            </g>
          </g>
          <line id="Line_6" data-name="Line 6" y1="100.069" x2="80.556" transform="translate(209.25 1141.215)" fill="none" stroke="#4666a5" stroke-width="0.21"/>
          <line id="Line_7" data-name="Line 7" y1="100.07" x2="80.556" transform="translate(235.453 1134.822)" fill="none" stroke="#4666a5" stroke-width="0.21"/>
          <line id="Line_8" data-name="Line 8" y1="100.069" x2="80.556" transform="translate(261.657 1128.431)" fill="none" stroke="#4666a5" stroke-width="0.21"/>
          <path id="Path_109678" data-name="Path 109678" d="M68.241,245.6s102.347,213.075,216.791,75.787,151.935,72.129,308.218-11.906C762.717,218.359,705.495,55.989,705.495,55.989" fill="none" stroke="#84ba83" stroke-width="0.37"/>
          <path id="Path_109679" data-name="Path 109679" d="M70.137,244.278s101.108,211.533,215.3,74.755C398.743,183.221,436.713,388.7,590.871,306.009,757.762,216.426,702.237,56.689,702.447,54.892" fill="none" stroke="#84ba83" stroke-width="0.37"/>
          <path id="Path_109680" data-name="Path 109680" d="M72.033,242.953s99.869,209.991,213.8,73.722c112.172-134.335,150.621,67.216,302.655-14.141C752.808,214.492,698.979,57.388,699.4,53.794" fill="none" stroke="#84ba83" stroke-width="0.37"/>
          <path id="Path_109681" data-name="Path 109681" d="M73.929,241.629s98.631,208.449,212.31,72.69C397.275,181.46,436.2,379.078,586.113,299.059,747.854,212.559,695.721,58.087,696.351,52.7" fill="none" stroke="#84ba83" stroke-width="0.37"/>
          <path id="Path_109682" data-name="Path 109682" d="M75.825,240.3s97.392,206.907,210.816,71.657c109.9-131.383,149.308,62.3,297.094-16.377C742.9,210.625,692.463,58.786,693.3,51.6" fill="none" stroke="#84ba83" stroke-width="0.37"/>
          <path id="Path_109683" data-name="Path 109683" d="M77.721,238.98s96.153,205.366,209.322,70.625c108.765-129.908,148.651,59.847,294.313-17.5C737.945,208.691,689.205,59.486,690.255,50.5" fill="none" stroke="#84ba83" stroke-width="0.37"/>
          <path id="Path_109684" data-name="Path 109684" d="M79.617,237.656s94.915,203.824,207.828,69.592c107.629-128.431,147.994,57.391,291.532-18.612C732.991,206.758,685.947,60.186,687.207,49.4" fill="none" stroke="#84ba83" stroke-width="0.37"/>
          <path id="Path_109685" data-name="Path 109685" d="M81.513,236.331s93.676,202.282,206.335,68.56c106.492-126.956,147.337,54.934,288.75-19.73C728.037,204.824,682.689,60.884,684.159,48.307" fill="none" stroke="#84ba83" stroke-width="0.37"/>
          <path id="Path_109686" data-name="Path 109686" d="M83.41,235.007s92.438,200.74,204.84,67.527c105.356-125.479,146.68,52.478,285.969-20.848C723.083,202.891,679.431,61.584,681.112,47.21" fill="none" stroke="#84ba83" stroke-width="0.37"/>
          <path id="Path_109687" data-name="Path 109687" d="M85.305,233.682s91.2,199.2,203.347,66.5c104.221-124,146.023,50.021,283.189-21.966,146.287-77.254,104.332-215.928,106.222-232.1" fill="none" stroke="#84ba83" stroke-width="0.37"/>
          <path id="Path_109688" data-name="Path 109688" d="M87.2,232.358s89.96,197.656,201.853,65.462c103.085-122.527,145.367,47.565,280.408-23.083C713.175,199.024,672.916,62.982,675.016,45.014" fill="none" stroke="#84ba83" stroke-width="0.37"/>
          <path id="Path_109689" data-name="Path 109689" d="M89.1,231.034s88.722,196.114,200.359,64.43c101.949-121.052,144.71,45.108,277.627-24.2C708.221,197.09,669.658,63.682,671.968,43.917" fill="none" stroke="#84ba83" stroke-width="0.37"/>
          <path id="Path_109690" data-name="Path 109690" d="M90.994,229.709s87.483,194.573,198.866,63.4c100.812-119.576,144.052,42.652,274.845-25.318C703.267,195.156,666.4,64.381,668.92,42.819" fill="none" stroke="#84ba83" stroke-width="0.37"/>
          <path id="Path_109691" data-name="Path 109691" d="M92.89,228.385s86.245,193.031,197.372,62.365c99.676-118.1,143.4,40.2,272.064-26.437C698.312,193.223,663.142,65.081,665.872,41.722" fill="none" stroke="#84ba83" stroke-width="0.37"/>
          <path id="Path_109692" data-name="Path 109692" d="M94.786,227.06s85.267,191.711,195.878,61.332c98.774-116.426,142.877,38.006,269.284-27.554C693.5,191.57,659.884,65.779,662.824,40.624" fill="none" stroke="#84ba83" stroke-width="0.37"/>
          <path id="Path_109693" data-name="Path 109693" d="M96.682,225.736s84.043,190.181,194.384,60.3C388.715,171.1,433.3,321.6,557.569,257.364c130.99-67.71,99.057-190.885,102.207-217.837" fill="none" stroke="#84ba83" stroke-width="0.37"/>
          <path id="Path_109694" data-name="Path 109694" d="M98.578,224.412s82.818,188.651,192.89,59.267c96.523-113.456,141.58,33.127,263.722-29.789C683.613,187.738,653.368,67.179,656.728,38.43" fill="none" stroke="#84ba83" stroke-width="0.37"/>
          <path id="Path_109695" data-name="Path 109695" d="M100.474,223.087s81.592,187.121,191.4,58.235c95.395-111.973,140.93,30.687,260.94-30.907,125.855-64.595,97.3-182.538,100.87-213.083" fill="none" stroke="#84ba83" stroke-width="0.37"/>
          <path id="Path_109696" data-name="Path 109696" d="M102.37,221.763s80.365,185.59,189.9,57.2c94.267-110.49,140.281,28.247,258.159-32.025C673.72,183.9,646.852,68.577,650.633,36.235" fill="none" stroke="#84ba83" stroke-width="0.37"/>
          <path id="Path_109697" data-name="Path 109697" d="M104.266,220.438S183.4,404.5,292.675,276.608c93.138-109.008,139.632,25.806,255.379-33.143,120.718-61.48,95.54-174.189,99.531-208.328" fill="none" stroke="#84ba83" stroke-width="0.37"/>
          <path id="Path_109698" data-name="Path 109698" d="M106.162,219.114s77.91,182.526,186.915,55.137c92.009-107.526,138.982,23.365,252.6-34.26,118.15-59.925,94.661-170.015,98.862-205.952" fill="none" stroke="#84ba83" stroke-width="0.37"/>
          <path id="Path_109699" data-name="Path 109699" d="M108.058,217.79s76.681,180.993,185.421,54.1C384.357,165.85,431.811,292.818,543.3,236.517c115.581-58.37,93.782-165.842,98.193-203.575" fill="none" stroke="#84ba83" stroke-width="0.37"/>
          <path id="Path_109700" data-name="Path 109700" d="M109.954,216.465s75.452,179.459,183.928,53.072c89.747-104.565,137.682,18.481,247.035-36.495,113.012-56.816,92.9-161.668,97.524-201.2" fill="none" stroke="#84ba83" stroke-width="0.37"/>
          <path id="Path_109701" data-name="Path 109701" d="M111.851,215.141s74.221,177.925,182.434,52.04C382.9,164.1,431.315,283.219,538.539,229.567c110.442-55.261,92.024-157.493,96.855-198.82" fill="none" stroke="#84ba83" stroke-width="0.37"/>
          <path id="Path_109702" data-name="Path 109702" d="M113.747,213.816s72.989,176.389,180.94,51.007c87.481-101.607,136.379,13.6,241.474-38.731C644.032,172.385,627.3,72.773,632.346,29.649" fill="none" stroke="#84ba83" stroke-width="0.37"/>
          <path id="Path_109703" data-name="Path 109703" d="M115.643,212.492S187.4,387.345,295.089,262.467c86.347-100.129,135.727,11.151,238.693-39.849,105.3-52.156,90.265-149.146,95.516-194.066" fill="none" stroke="#84ba83" stroke-width="0.37"/>
          <path id="Path_109704" data-name="Path 109704" d="M117.539,211.168s70.523,173.316,177.952,48.942c85.212-98.652,135.075,8.707,235.912-40.966,102.729-50.6,89.386-144.972,94.847-191.689" fill="none" stroke="#84ba83" stroke-width="0.37"/>
          <path id="Path_109705" data-name="Path 109705" d="M119.435,209.843s69.289,171.779,176.459,47.91c84.075-97.176,134.421,6.261,233.13-42.084,100.157-49.055,88.507-140.8,94.178-189.312" fill="none" stroke="#84ba83" stroke-width="0.37"/>
          <path id="Path_109706" data-name="Path 109706" d="M121.331,208.519S189.384,378.759,296.3,255.4c82.938-95.7,133.768,3.816,230.349-43.2,97.584-47.506,87.628-136.624,93.509-186.935" fill="none" stroke="#84ba83" stroke-width="0.37"/>
          <path id="Path_109707" data-name="Path 109707" d="M123.227,207.194s66.816,168.7,173.471,45.845c81.8-94.226,133.115,1.368,227.569-44.32,95.01-45.957,86.748-132.45,92.839-184.557" fill="none" stroke="#84ba83" stroke-width="0.37"/>
          <path id="Path_109708" data-name="Path 109708" d="M125.123,205.87S190.7,373.029,297.1,250.682c80.661-92.752,132.46-1.08,224.788-45.437,92.436-44.41,85.869-128.276,92.17-182.18" fill="none" stroke="#84ba83" stroke-width="0.37"/>
          <path id="Path_109709" data-name="Path 109709" d="M127.019,204.546s64.339,165.618,170.483,43.78c79.522-91.279,131.8-3.529,222.007-46.555,89.862-42.864,84.99-124.1,91.5-179.8" fill="none" stroke="#84ba83" stroke-width="0.37"/>
          <path id="Path_109710" data-name="Path 109710" d="M128.915,203.221s63.1,164.075,168.99,42.747c78.38-89.806,131.149-5.979,219.225-47.672,87.287-41.32,84.111-119.929,90.832-177.426" fill="none" stroke="#84ba83" stroke-width="0.37"/>
          <path id="Path_109711" data-name="Path 109711" d="M130.811,201.9s61.857,162.531,167.5,41.714c77.238-88.335,130.492-8.43,216.444-48.79,84.71-39.776,83.232-115.754,90.163-175.049" fill="none" stroke="#84ba83" stroke-width="0.37"/>
          <path id="Path_109712" data-name="Path 109712" d="M132.707,200.572s60.613,160.985,166,40.682c76.1-86.865,129.835-10.883,213.664-49.908,82.132-38.235,82.352-111.58,89.493-172.672" fill="none" stroke="#84ba83" stroke-width="0.37"/>
          <path id="Path_109713" data-name="Path 109713" d="M134.6,199.248S193.972,358.687,299.111,238.9c74.953-85.4,129.177-13.338,210.883-51.025,79.554-36.695,81.473-107.406,88.825-170.295" fill="none" stroke="#84ba83" stroke-width="0.37"/>
          <path id="Path_109714" data-name="Path 109714" d="M136.5,197.923s58.122,157.892,163.014,38.617c73.807-83.926,128.518-15.793,208.1-52.142,76.976-35.158,80.594-103.233,88.156-167.919" fill="none" stroke="#84ba83" stroke-width="0.37"/>
          <path id="Path_109715" data-name="Path 109715" d="M138.4,196.6s56.875,156.341,161.521,37.584c72.661-82.458,127.857-18.252,205.32-53.26,74.4-33.622,79.715-99.059,87.487-165.541" fill="none" stroke="#84ba83" stroke-width="0.37"/>
          <path id="Path_109716" data-name="Path 109716" d="M140.292,195.275s55.625,154.79,160.027,36.552c71.514-80.992,127.2-20.713,202.54-54.379,71.813-32.088,78.835-94.884,86.817-163.163" fill="none" stroke="#84ba83" stroke-width="0.37"/>
          <path id="Path_109717" data-name="Path 109717" d="M142.188,193.95s54.374,153.238,158.533,35.519c70.366-79.526,126.534-23.176,199.759-55.5,69.231-30.557,77.956-90.711,86.148-160.786" fill="none" stroke="#84ba83" stroke-width="0.37"/>
          <path id="Path_109718" data-name="Path 109718" d="M144.084,192.626S197.2,344.31,301.123,227.113C370.34,149.052,426.993,201.471,498.1,170.5,564.749,141.47,575.178,83.962,583.58,12.09" fill="none" stroke="#84ba83" stroke-width="0.37"/>
          <path id="Path_109719" data-name="Path 109719" d="M145.98,191.3s51.865,150.128,155.545,33.454c68.068-76.6,125.205-28.111,194.2-57.731,64.063-27.5,76.2-82.363,84.81-156.032" fill="none" stroke="#84ba83" stroke-width="0.37"/>
          <path id="Path_109720" data-name="Path 109720" d="M147.876,189.977s50.608,148.57,154.052,32.422c66.916-75.134,124.537-30.584,191.415-58.849C554.819,137.567,568.662,85.361,577.484,9.9" fill="none" stroke="#84ba83" stroke-width="0.37"/>
          <path id="Path_109721" data-name="Path 109721" d="M149.772,188.653s49.348,147.01,152.558,31.389c65.764-73.672,123.869-33.061,188.635-59.967C549.852,135.611,565.4,86.06,574.436,8.8" fill="none" stroke="#84ba83" stroke-width="0.37"/>
          <path id="Path_109722" data-name="Path 109722" d="M151.668,187.328s48.087,145.448,151.064,30.357c64.611-72.211,123.2-35.543,185.854-61.085,56.3-22.95,73.56-69.841,82.8-148.9" fill="none" stroke="#84ba83" stroke-width="0.37"/>
          <path id="Path_109723" data-name="Path 109723" d="M153.564,186s46.609,143.691,149.57,29.324c63.325-70.869,122.527-38.03,183.073-62.2C539.913,131.685,558.888,87.459,568.34,6.6" fill="none" stroke="#84ba83" stroke-width="0.37"/>
          <path id="Path_109724" data-name="Path 109724" d="M155.46,184.679s45.37,142.149,148.077,28.293c62.188-69.394,121.851-40.524,180.291-63.321,51.113-19.937,71.8-61.493,81.464-144.146" fill="none" stroke="#84ba83" stroke-width="0.37"/>
          <path id="Path_109725" data-name="Path 109725" d="M157.356,183.355s44.132,140.608,146.583,27.259c61.052-67.917,121.174-43.025,177.51-64.437,48.518-18.441,70.923-57.32,80.8-141.77" fill="none" stroke="#84ba83" stroke-width="0.37"/>
          <path id="Path_109726" data-name="Path 109726" d="M159.252,182.031S202.145,321.1,304.341,208.258c59.917-66.442,120.494-45.537,174.73-65.556C524.991,125.753,549.114,89.557,559.2,3.31" fill="none" stroke="#84ba83" stroke-width="0.37"/>
          <path id="Path_109727" data-name="Path 109727" d="M161.148,180.706S202.8,318.23,304.743,205.9c58.782-64.965,119.812-48.059,171.95-66.673,43.32-15.467,69.164-48.971,79.455-137.015" fill="none" stroke="#84ba83" stroke-width="0.37"/>
          <path id="Path_109728" data-name="Path 109728" d="M163.045,179.382s40.416,135.982,142.1,24.162c57.645-63.49,119.093-50.69,169.168-67.791C515.008,121.682,542.6,90.955,553.1,1.115" fill="none" stroke="#84ba83" stroke-width="0.37"/>
          <path id="Path_109729" data-name="Path 109729" d="M164.941,178.057s39.177,134.44,140.607,23.129S525.865,206.929,550.053.017" fill="none" stroke="#84ba83" stroke-width="0.37"/>
          <g id="Group_97752" data-name="Group 97752" opacity="0.7">
            <g id="Group_97751" data-name="Group 97751">
              <g id="Group_97750" data-name="Group 97750" clip-path="url(#clip-path-6)">
                <path id="Path_109730" data-name="Path 109730" d="M288.883,1035.913a2.783,2.783,0,1,1-2.783-2.782,2.783,2.783,0,0,1,2.783,2.782" fill="#63b77f"/>
                <path id="Path_109731" data-name="Path 109731" d="M305.834,1035.913a2.782,2.782,0,1,1-2.782-2.782,2.783,2.783,0,0,1,2.782,2.782" fill="#63b77f"/>
                <path id="Path_109732" data-name="Path 109732" d="M322.785,1035.913a2.782,2.782,0,1,1-2.782-2.782,2.783,2.783,0,0,1,2.782,2.782" fill="#63b77f"/>
                <path id="Path_109733" data-name="Path 109733" d="M339.736,1035.913a2.782,2.782,0,1,1-2.782-2.782,2.783,2.783,0,0,1,2.782,2.782" fill="#63b77f"/>
                <path id="Path_109734" data-name="Path 109734" d="M356.688,1035.913a2.783,2.783,0,1,1-2.783-2.782,2.783,2.783,0,0,1,2.783,2.782" fill="#63b77f"/>
                <path id="Path_109735" data-name="Path 109735" d="M373.639,1035.913a2.782,2.782,0,1,1-2.782-2.782,2.783,2.783,0,0,1,2.782,2.782" fill="#63b77f"/>
                <path id="Path_109736" data-name="Path 109736" d="M288.883,1051.995a2.783,2.783,0,1,1-2.783-2.782,2.783,2.783,0,0,1,2.783,2.782" fill="#63b77f"/>
                <path id="Path_109737" data-name="Path 109737" d="M305.834,1051.995a2.782,2.782,0,1,1-2.782-2.782,2.783,2.783,0,0,1,2.782,2.782" fill="#63b77f"/>
                <path id="Path_109738" data-name="Path 109738" d="M322.785,1051.995a2.782,2.782,0,1,1-2.782-2.782,2.783,2.783,0,0,1,2.782,2.782" fill="#63b77f"/>
                <path id="Path_109739" data-name="Path 109739" d="M339.736,1051.995a2.782,2.782,0,1,1-2.782-2.782,2.783,2.783,0,0,1,2.782,2.782" fill="#63b77f"/>
                <path id="Path_109740" data-name="Path 109740" d="M356.688,1051.995a2.783,2.783,0,1,1-2.783-2.782,2.783,2.783,0,0,1,2.783,2.782" fill="#63b77f"/>
                <path id="Path_109741" data-name="Path 109741" d="M373.639,1051.995a2.782,2.782,0,1,1-2.782-2.782,2.783,2.783,0,0,1,2.782,2.782" fill="#63b77f"/>
                <path id="Path_109742" data-name="Path 109742" d="M288.883,1068.077a2.783,2.783,0,1,1-2.783-2.782,2.783,2.783,0,0,1,2.783,2.782" fill="#63b77f"/>
                <path id="Path_109743" data-name="Path 109743" d="M305.834,1068.077a2.782,2.782,0,1,1-2.782-2.782,2.783,2.783,0,0,1,2.782,2.782" fill="#63b77f"/>
                <path id="Path_109744" data-name="Path 109744" d="M322.785,1068.077A2.782,2.782,0,1,1,320,1065.3a2.783,2.783,0,0,1,2.782,2.782" fill="#63b77f"/>
                <path id="Path_109745" data-name="Path 109745" d="M339.736,1068.077a2.782,2.782,0,1,1-2.782-2.782,2.783,2.783,0,0,1,2.782,2.782" fill="#63b77f"/>
                <path id="Path_109746" data-name="Path 109746" d="M356.688,1068.077a2.783,2.783,0,1,1-2.783-2.782,2.783,2.783,0,0,1,2.783,2.782" fill="#63b77f"/>
                <path id="Path_109747" data-name="Path 109747" d="M373.639,1068.077a2.782,2.782,0,1,1-2.782-2.782,2.783,2.783,0,0,1,2.782,2.782" fill="#63b77f"/>
              </g>
            </g>
          </g>
        </g>
      </g>
    </g>
  </g>
</svg>
