<svg id="Layer_1" data-name="Layer 1" xmlns="http://www.w3.org/2000/svg" viewBox="0 0 427 192"><defs><style>.cls-1{fill:#fff;}.cls-2{fill:#a0d081;}.cls-3{fill:#00b4ad;}</style></defs><title>RIISE-Logo-Final-Final-Final</title><path class="cls-1" d="M298.81,113.05c0,19.3-14.26,32.11-40,32.11-19.44,0-33-6-42.63-15.26l13.11-18.58A43.37,43.37,0,0,0,259.93,124c8.49,0,13.68-3.6,13.68-8.21,0-5.47-6.19-7.63-16.42-9.79-15.84-3.17-38-7.2-38-30,0-16.12,13.68-30.09,38.3-30.09,15.41,0,28.8,4.61,39,13.39L283,77.05a44.67,44.67,0,0,0-27.07-9.93c-8.21,0-11.38,3.31-11.38,7.49,0,5,5.9,6.76,16.56,8.78C276.92,86.7,298.81,91.31,298.81,113.05ZM379,69V48H309v96h70V123H333V105h46V84H333V69ZM109.34,108.23,130,144H103L83.36,110H72v34H48V48H99a31,31,0,0,1,10.34,60.23ZM104,79A11,11,0,0,0,93,68H72V90H93A11,11,0,0,0,104,79Zm79,65h24V45.93a234.35,234.35,0,0,1-24,19.8Zm-41,0h24V76.85a231.66,231.66,0,0,1-24,12.39Z"/><path class="cls-2" d="M207,34.77V24H183V55.78a228.11,228.11,0,0,0,23.39-20.39C206.6,35.19,206.8,35,207,34.77Z"/><path class="cls-3" d="M166,48H142V80.44a223.07,223.07,0,0,0,24-13Z"/></svg>