<svg xmlns="http://www.w3.org/2000/svg" xmlns:xlink="http://www.w3.org/1999/xlink" width="16.677" height="17.75" viewBox="0 0 16.677 17.75">
  <defs>
    <clipPath id="clip-path">
      <rect id="Rectangle_22298" data-name="Rectangle 22298" width="16.677" height="17.75" fill="none"/>
    </clipPath>
  </defs>
  <g id="Logout" transform="translate(0 0)">
    <g id="Group_67095" data-name="Group 67095" transform="translate(0 0)" clip-path="url(#clip-path)">
      <path id="Path_82422" data-name="Path 82422" d="M16.494,3.018,15.936,2.1A4.511,4.511,0,0,0,14.389.558,4.115,4.115,0,0,0,12.26,0H6.935A4.239,4.239,0,0,0,3.258,2.13L.57,6.745a4.213,4.213,0,0,0,0,4.235l2.688,4.64a4.24,4.24,0,0,0,3.677,2.13h5.35a4.165,4.165,0,0,0,2.307-.685,4.576,4.576,0,0,0,1.369-1.42l.558-.913A1.013,1.013,0,1,0,14.8,13.667l-.558.913a.025.025,0,0,1-.025.025,2.544,2.544,0,0,1-.71.761,2.275,2.275,0,0,1-1.217.355H6.935a2.257,2.257,0,0,1-1.927-1.116L2.32,9.99a2.151,2.151,0,0,1,0-2.206l2.662-4.64A2.258,2.258,0,0,1,6.909,2.028h5.35a2.24,2.24,0,0,1,1.116.3,2.266,2.266,0,0,1,.811.811.025.025,0,0,0,.025.025l.558.913a1.013,1.013,0,1,0,1.724-1.065Z" transform="translate(0 0)" fill="#1a276b"/>
      <path id="Path_82423" data-name="Path 82423" d="M26.744,22.62a.98.98,0,0,0,1.42,0l2.967-2.967a2.372,2.372,0,0,0,0-3.372l-2.967-2.992a1.022,1.022,0,0,0-1.445,1.445l2.206,2.206H23.65a1.014,1.014,0,0,0,0,2.028h5.3l-2.206,2.206A1.01,1.01,0,0,0,26.744,22.62Z" transform="translate(-15.828 -9.079)" fill="#7aa526"/>
    </g>
  </g>
</svg>
