<svg id="member" xmlns="http://www.w3.org/2000/svg" xmlns:xlink="http://www.w3.org/1999/xlink" width="21" height="19.091" viewBox="0 0 21 19.091">
  <defs>
    <clipPath id="clip-path">
      <rect id="Rectangle_64" data-name="Rectangle 64" width="21" height="19.091" fill="#3b5497"/>
    </clipPath>
  </defs>
  <g id="Group_279" data-name="Group 279" clip-path="url(#clip-path)">
    <path id="Path_157" data-name="Path 157" d="M15.832,0a4.773,4.773,0,1,1-4.773,4.773A4.773,4.773,0,0,1,15.832,0" transform="translate(-8.195)" fill="#3b5497"/>
    <path id="Path_158" data-name="Path 158" d="M15.273,49.01a2.872,2.872,0,0,1-2.864,2.864H2.864A2.872,2.872,0,0,1,0,49.01a4.774,4.774,0,0,1,4.773-4.773H10.5a4.775,4.775,0,0,1,4.773,4.773" transform="translate(0 -32.782)" fill="#3b5497"/>
    <path id="Path_159" data-name="Path 159" d="M53.651,4.773a4.775,4.775,0,0,1-4.773,4.773,3.966,3.966,0,0,1-.954-.1,6.662,6.662,0,0,0,0-9.336,3.979,3.979,0,0,1,.954-.1A4.775,4.775,0,0,1,53.651,4.773Z" transform="translate(-35.515 0)" fill="#3b5497"/>
    <path id="Path_160" data-name="Path 160" d="M64.41,49.01a2.872,2.872,0,0,1-2.864,2.864H59.637a4.718,4.718,0,0,0,.955-2.864,6.655,6.655,0,0,0-2.014-4.773h1.059A4.775,4.775,0,0,1,64.41,49.01Z" transform="translate(-43.41 -32.782)" fill="#3b5497"/>
  </g>
</svg>
