<?xml version="1.0" encoding="utf-8"?>
<!-- Generator: Adobe Illustrator 26.4.0, SVG Export Plug-In . SVG Version: 6.00 Build 0)  -->
<svg version="1.1" id="Layer_1" xmlns="http://www.w3.org/2000/svg" xmlns:xlink="http://www.w3.org/1999/xlink" x="0px" y="0px"
	 width="23.2px" height="20px" viewBox="0 0 23.2 20" style="enable-background:new 0 0 23.2 20;" xml:space="preserve">
<style type="text/css">
	.st0{fill:#6B7F86;}
</style>
<g>
	<path class="st0" d="M4.5,5.8c1.6,0,2.9-1.3,2.9-2.9C7.4,1.3,6.1,0,4.5,0C2.9,0,1.6,1.3,1.6,2.9C1.6,4.5,2.9,5.8,4.5,5.8z"/>
	<path class="st0" d="M4.5,6.5L4.5,6.5C2,6.5,0,8.6,0,11v5.7c0,0.2,0.1,0.3,0.2,0.5c0.1,0.1,0.3,0.2,0.5,0.2h4.1v-3.7
		c0-2.3,1.4-4.4,3.4-5.3C7.3,7.3,6,6.5,4.5,6.5z"/>
	<path class="st0" d="M11.6,8.4c1.6,0,2.9-1.3,2.9-2.9c0-1.6-1.3-2.9-2.9-2.9S8.7,3.9,8.7,5.5C8.7,7.1,10,8.4,11.6,8.4z"/>
	<path class="st0" d="M18.7,5.8c1.6,0,2.9-1.3,2.9-2.9c0-1.6-1.3-2.9-2.9-2.9s-2.9,1.3-2.9,2.9C15.9,4.5,17.2,5.8,18.7,5.8z"/>
	<path class="st0" d="M11.6,9.1L11.6,9.1c-2.3,0-4.3,1.8-4.5,4.1c0,0.2,0,0.3,0,0.5v5.7c0,0.2,0.1,0.3,0.2,0.5
		C7.4,19.9,7.6,20,7.8,20h7.7c0.2,0,0.3-0.1,0.5-0.2c0.1-0.1,0.2-0.3,0.2-0.5v-5.7C16.1,11.2,14.1,9.1,11.6,9.1z M12.6,18.9
		c0,0.2-0.2,0.4-0.4,0.4h-1c-0.2,0-0.4-0.2-0.4-0.4v-1c0-0.2,0.2-0.4,0.4-0.4h1c0.2,0,0.4,0.2,0.4,0.4V18.9z M13.4,11.9
		c-0.2,1.2-0.8,5-1.7,5c-0.9,0-1.5-3.8-1.7-5c0,0,0,0,0,0c0-0.4,0.8-0.6,1.7-0.6C12.6,11.2,13.4,11.5,13.4,11.9
		C13.4,11.9,13.4,11.9,13.4,11.9z"/>
	<path class="st0" d="M18.7,6.5L18.7,6.5c-1.5,0-2.8,0.7-3.6,1.8c2,0.9,3.4,3,3.4,5.3v3.7h4.1c0.2,0,0.3-0.1,0.5-0.2
		c0.1-0.1,0.2-0.3,0.2-0.5V11C23.2,8.6,21.2,6.5,18.7,6.5z"/>
</g>
</svg>
