<svg id="Group_67078" data-name="Group 67078" xmlns="http://www.w3.org/2000/svg" xmlns:xlink="http://www.w3.org/1999/xlink" width="18" height="21" viewBox="0 0 18 21">
  <defs>
    <clipPath id="clip-path">
      <rect id="Rectangle_22288" data-name="Rectangle 22288" width="18" height="21" fill="#fff"/>
    </clipPath>
  </defs>
  <g id="Group_67077" data-name="Group 67077" clip-path="url(#clip-path)">
    <path id="Path_82387" data-name="Path 82387" d="M9.829,3.967a4.015,4.015,0,0,0,8.029,0,4.015,4.015,0,0,0-8.029,0m6.664,0A2.649,2.649,0,1,1,13.844,1.35a2.637,2.637,0,0,1,2.649,2.618" transform="translate(-6.749 0)" fill="#fff"/>
    <path id="Path_82388" data-name="Path 82388" d="M10.29,27.692a3.836,3.836,0,0,1,1.579,1.068,6.716,6.716,0,0,1,1.535-.211,5.2,5.2,0,0,0-2.65-2.126A1.7,1.7,0,0,0,9,26.812l-1.69,1.669a.31.31,0,0,1-.436,0l-1.69-1.669a1.694,1.694,0,0,0-1.751-.388A5.148,5.148,0,0,0,0,31.245v3.229a.679.679,0,0,0,.683.675H6.888c0-.01,0-.02,0-.03a6.543,6.543,0,0,1,.134-1.32H1.365V31.245A3.794,3.794,0,0,1,3.9,27.693a.312.312,0,0,1,.323.073l1.689,1.67a1.687,1.687,0,0,0,2.367,0l1.69-1.67A.315.315,0,0,1,10.29,27.692Z" transform="translate(0 -18.175)" fill="#fff"/>
    <path id="Path_82389" data-name="Path 82389" d="M31.678,37.264a4.731,4.731,0,1,0,4.787,4.731,4.765,4.765,0,0,0-4.787-4.731m0,8.113A3.382,3.382,0,1,1,35.1,41.995a3.406,3.406,0,0,1-3.422,3.382" transform="translate(-18.465 -25.726)" fill="#fff"/>
    <path id="Path_82390" data-name="Path 82390" d="M38.45,46.254H37.267V45.086a.683.683,0,0,0-1.365,0v1.169H34.718a.675.675,0,1,0,0,1.349H35.9v1.169a.683.683,0,0,0,1.365,0V47.6H38.45a.675.675,0,1,0,0-1.349" transform="translate(-23.371 -30.66)" fill="#fff"/>
  </g>
</svg>
