<svg xmlns="http://www.w3.org/2000/svg" width="153.207" height="85.804" viewBox="0 0 153.207 85.804">
  <g id="Group_97" data-name="Group 97" transform="translate(14953.146 13895.551)">
    <path id="Path_246" data-name="Path 246" d="M-14952.477-13820.13l21.394-20.745,19.958,16.016,51.331-44.939,10.409,14.583,39.432-35.544v80.513h-151.519Z" transform="translate(9.457)" fill="#e6efff" stroke="#1d5a83" stroke-width="1"/>
    <g id="Rectangle_140" data-name="Rectangle 140" transform="translate(-14916 -13883)" fill="#fff" stroke="#1d5a83" stroke-width="3">
      <rect width="93" height="73" rx="7" stroke="none"/>
      <rect x="1.5" y="1.5" width="90" height="70" rx="5.5" fill="none"/>
    </g>
    <path id="Path_244" data-name="Path 244" d="M-14914.55-13864.317h89.659" fill="none" stroke="#1d5a83" stroke-width="2"/>
    <rect id="Rectangle_141" data-name="Rectangle 141" width="3" height="3" transform="translate(-14909 -13874)" fill="#1d5a83"/>
    <rect id="Rectangle_142" data-name="Rectangle 142" width="3" height="3" transform="translate(-14903 -13874)" fill="#1d5a83"/>
    <rect id="Rectangle_143" data-name="Rectangle 143" width="3" height="3" transform="translate(-14897 -13874)" fill="#1d5a83"/>
    <circle id="Ellipse_1" data-name="Ellipse 1" cx="3" cy="3" r="3" transform="translate(-14886.5 -13846.5)" fill="#1d5a83"/>
    <circle id="Ellipse_2" data-name="Ellipse 2" cx="3" cy="3" r="3" transform="translate(-14858.5 -13846.5)" fill="#1d5a83"/>
    <path id="Path_245" data-name="Path 245" d="M-14725.756-13836s9.458-1.562,11.684,3.623" transform="translate(-150.5 2.5)" fill="none" stroke="#1d5a83" stroke-width="2"/>
    <path id="Path_250" data-name="Path 250" d="M-14801.158-13889.48l1.219-.932v79.418h-1.219Z" fill="#e6efff"/>
    <path id="Path_251" data-name="Path 251" d="M-14754.871-13928.348s1.361-9.036,10.922-10.211" transform="translate(-167 49.139)" fill="none" stroke="#1d5a83" stroke-width="2"/>
    <path id="Path_252" data-name="Path 252" d="M-14762.6-13929.309s1.086-13.9,15.263-14.382" transform="translate(-167 49.139)" fill="none" stroke="#1d5a83" stroke-width="2"/>
  </g>
</svg>

