<svg id="Group_99410" data-name="Group 99410" xmlns="http://www.w3.org/2000/svg" xmlns:xlink="http://www.w3.org/1999/xlink" width="173.667" height="179.273" viewBox="0 0 173.667 179.273">
  <defs>
    <clipPath id="clip-path">
      <rect id="Rectangle_23332" data-name="Rectangle 23332" width="173.667" height="179.273" fill="none"/>
    </clipPath>
    <clipPath id="clip-path-2">
      <rect id="Rectangle_23320" data-name="Rectangle 23320" width="173.666" height="179.273" fill="none"/>
    </clipPath>
    <linearGradient id="linear-gradient" x1="0.5" x2="0.5" y2="1" gradientUnits="objectBoundingBox">
      <stop offset="0" stop-color="#d4d9f9"/>
      <stop offset="1" stop-color="#a7b1ee"/>
    </linearGradient>
    <linearGradient id="linear-gradient-2" x1="0.5" x2="0.5" y2="1" gradientUnits="objectBoundingBox">
      <stop offset="0" stop-color="#e3ebfb"/>
      <stop offset="1" stop-color="#c8d8f6"/>
    </linearGradient>
    <clipPath id="clip-path-3">
      <path id="Path_84506" data-name="Path 84506" d="M596.9,173.271a15.6,15.6,0,1,0,15.6-15.6,15.6,15.6,0,0,0-15.6,15.6" transform="translate(-596.898 -157.668)" fill="none"/>
    </clipPath>
    <clipPath id="clip-path-4">
      <rect id="Rectangle_23321" data-name="Rectangle 23321" width="7.287" height="5.972" fill="none"/>
    </clipPath>
    <clipPath id="clip-path-5">
      <rect id="Rectangle_23322" data-name="Rectangle 23322" width="0.938" height="1.417" fill="none"/>
    </clipPath>
    <clipPath id="clip-path-6">
      <rect id="Rectangle_23323" data-name="Rectangle 23323" width="3.243" height="2.736" fill="none"/>
    </clipPath>
    <clipPath id="clip-path-7">
      <rect id="Rectangle_23324" data-name="Rectangle 23324" width="15.649" height="8.56" fill="none"/>
    </clipPath>
    <clipPath id="clip-path-9">
      <path id="Path_84546" data-name="Path 84546" d="M607.322,1686.182a14.843,14.843,0,1,0,14.843-14.842,14.843,14.843,0,0,0-14.843,14.842" transform="translate(-607.322 -1671.339)" fill="none"/>
    </clipPath>
    <clipPath id="clip-path-10">
      <rect id="Rectangle_23326" data-name="Rectangle 23326" width="6.133" height="4.041" fill="none"/>
    </clipPath>
    <clipPath id="clip-path-11">
      <rect id="Rectangle_23327" data-name="Rectangle 23327" width="1.264" height="1.854" fill="none"/>
    </clipPath>
    <clipPath id="clip-path-13">
      <path id="Path_84570" data-name="Path 84570" d="M607.322,898.984a14.843,14.843,0,1,0,29.685,0,14.843,14.843,0,1,0-29.685,0" transform="translate(-607.322 -884.141)" fill="none"/>
    </clipPath>
    <linearGradient id="linear-gradient-4" x1="0.5" x2="0.5" y2="1" gradientUnits="objectBoundingBox">
      <stop offset="0" stop-color="#719a21"/>
      <stop offset="1" stop-color="#8abb2a"/>
    </linearGradient>
    <linearGradient id="linear-gradient-5" x1="0.5" x2="0.5" y2="1" gradientUnits="objectBoundingBox">
      <stop offset="0" stop-color="#1a276b"/>
      <stop offset="1" stop-color="#8abb2a"/>
    </linearGradient>
    <linearGradient id="linear-gradient-12" x1="0.5" x2="0.5" y2="1" gradientUnits="objectBoundingBox">
      <stop offset="0" stop-color="#121a4e"/>
      <stop offset="1" stop-color="#2f3f92"/>
    </linearGradient>
    <linearGradient id="linear-gradient-13" x1="0.5" x2="0.5" y2="1" gradientUnits="objectBoundingBox">
      <stop offset="0" stop-color="#4a59b1"/>
      <stop offset="1" stop-color="#7790d4"/>
    </linearGradient>
  </defs>
  <g id="Group_99448" data-name="Group 99448" clip-path="url(#clip-path)">
    <g id="Group_99411" data-name="Group 99411" transform="translate(0 0)">
      <g id="Group_99410-2" data-name="Group 99410" clip-path="url(#clip-path-2)">
        <path id="Path_84475" data-name="Path 84475" d="M1995.384,14.071V54.054h28.043V14.071a14.022,14.022,0,1,0-28.043,0" transform="translate(-1849.761 -0.039)" fill="url(#linear-gradient)"/>
        <path id="Path_84476" data-name="Path 84476" d="M525.961,14.029v145.05a19.836,19.836,0,0,1-19.836,19.836H410.277V14.014A14.014,14.014,0,0,1,424.291,0H539.976a14.018,14.018,0,0,0-14.015,14.029" transform="translate(-380.335 0)" fill="url(#linear-gradient-2)"/>
        <path id="Path_84482" data-name="Path 84482" d="M628.1,173.271a15.6,15.6,0,1,1-15.6-15.6,15.6,15.6,0,0,1,15.6,15.6" transform="translate(-553.336 -146.161)" fill="#7cd194"/>
      </g>
    </g>
    <g id="Group_99425" data-name="Group 99425" transform="translate(43.562 11.507)">
      <g id="Group_99424" data-name="Group 99424" clip-path="url(#clip-path-3)">
        <path id="Path_84483" data-name="Path 84483" d="M914.138,543.065a3.816,3.816,0,0,0-2.278.048,17.347,17.347,0,0,1-4.008.187c-2.064-.118-4.221-.556-4.908-1.618a7.763,7.763,0,0,1-1.3-3.568l4.659-.786s.734,1.678,1.16,1.873c.128.058.707.207,1.467.39a.006.006,0,0,1,0,0c1.8.431,4.611,1.047,4.81,1.054.284.012,2.209-1.23,2.446-.682s-.487.909-.487.909,2.643-.089,2.747.419-.681,2.321-4.313,1.771" transform="translate(-879.404 -509.621)" fill="#fec9ac"/>
        <g id="Group_99414" data-name="Group 99414" transform="translate(22.24 27.708)" opacity="0.5">
          <g id="Group_99413" data-name="Group 99413">
            <g id="Group_99412" data-name="Group 99412" clip-path="url(#clip-path-4)">
              <path id="Path_84484" data-name="Path 84484" d="M906.846,540.071c-.436.614-.112,1.466.272,2.114q.342.573.734,1.116c-2.064-.118-4.221-.556-4.908-1.618a7.763,7.763,0,0,1-1.3-3.568l4.659-.786s.734,1.678,1.16,1.873c.128.058.707.207,1.467.39-.751-.106-1.651-.135-2.085.479" transform="translate(-901.644 -537.329)" fill="#ffab90"/>
            </g>
          </g>
        </g>
        <path id="Path_84485" data-name="Path 84485" d="M638.423,399.936c-.11,1.038-.362,3.526-.515,5.687-.043.613-.077,1.193-.1,1.711h15.359l-.821-7.392-.2-.857-.006-.022-.336-1.417-.026-.11s4.711-.246,4.6-1.6c-.03-.36-.149-1.133-.338-2.1-.037-.19-.075-.39-.121-.595-.026-.129-.054-.261-.082-.394-.571-2.624-1.544-6.047-2.723-7.288-.713-.747-2.559-1.051-4.7-1.064a31.373,31.373,0,0,0-6.775.732,10.678,10.678,0,0,0-2.2.707,6.971,6.971,0,0,0-3.072,2.294,13.055,13.055,0,0,1-.928,1.314c-.114.185-.226.375-.336.571a1.863,1.863,0,0,0-.179.814,2.983,2.983,0,0,1-.814,2.419,5.952,5.952,0,0,1-.978,2.512,8.523,8.523,0,0,0-1.193,2.555c-.015.05-.03.1-.045.155a6.182,6.182,0,0,0,3.576,1.256,8.7,8.7,0,0,0,3.009-.375s-.017.181-.052.5" transform="translate(-629.335 -367.932)" fill="#64d3ff"/>
        <path id="Path_84486" data-name="Path 84486" d="M746.423,500.824l-.821-7.393-.2-.857-.006-.021-.336-1.417-.026-.109s4.711-.246,4.6-1.605c-.03-.361-.147-1.134-.336-2.105a5.912,5.912,0,0,1-1.092.4c-1.31.383-2.857.726-3.931-.12a3.972,3.972,0,0,1-1.177-2.259c-.152,2.167.523,4.4-.058,6.491a9.607,9.607,0,0,1-2.6,3.959,17.374,17.374,0,0,1-7.946,5.039Z" transform="translate(-722.59 -461.422)" fill="#42c1f4"/>
        <path id="Path_84487" data-name="Path 84487" d="M844.9,240.991a13.746,13.746,0,0,0-1.5,5.193,6.787,6.787,0,0,0,.463,3.461,6.2,6.2,0,0,0,3.681,2.945,4.6,4.6,0,0,0,1.687.331,2.121,2.121,0,0,0,1.549-.687,1.581,1.581,0,0,0,.245-1.693,3.45,3.45,0,0,0-.714-.8,1.38,1.38,0,0,1-.49-.938c0-.665.75-1.088.843-1.746a1.639,1.639,0,0,0-.784-1.4,2.884,2.884,0,0,1-1.122-1.193,3.966,3.966,0,0,1,.253-2.049,3.694,3.694,0,0,0-.5-2.725c-.315-.483-1.434-1.668-2.081-1.361-.3.142-.508.852-.666,1.133-.286.509-.59,1.007-.86,1.525" transform="translate(-825.373 -232.4)" fill="#2e363a"/>
        <path id="Path_84488" data-name="Path 84488" d="M779.834,266.067a2.789,2.789,0,0,1-2.488,2.374.62.62,0,0,1-.075.006s-.08.439-.134.825a2.787,2.787,0,0,0-.039.532.893.893,0,0,0,.058.172,5.065,5.065,0,0,0,1.03,1.1v0c0,.011-.009.045-.017.1a.028.028,0,0,0,0,.013c-.121.605-.8,3.4-3.167,3.257-2.527-.155-3.824-4.216-3.776-4.537,0-.015.006-.022.015-.019a.143.143,0,0,0,.045.007h0a.6.6,0,0,0,.185-.039,10.951,10.951,0,0,0,1.187-.569c.547-.269.327-3.839.327-3.839-1.635-.368-1.232-1.751-1.191-2.191s.427-.754,1.316-1.878,5.551-1.592,6.266-.756,1.006,3.059.455,5.441" transform="translate(-758.5 -252.716)" fill="#fec9ac"/>
        <path id="Path_84489" data-name="Path 84489" d="M831.572,291.719c-.016-.01-.018-.047.007-.109a.573.573,0,0,1,.185-.226.763.763,0,0,1,.627-.1.542.542,0,0,1,.241.155c.042.051.05.087.037.1-.028.036-.123-.034-.322-.073a.592.592,0,0,0-.489.081c-.178.1-.248.2-.286.174" transform="translate(-814.434 -281.503)" fill="#4f2d2a"/>
        <path id="Path_84490" data-name="Path 84490" d="M840.1,344.356c.011.027-.018.077-.105.133a.892.892,0,0,1-.437.126,1.187,1.187,0,0,1-.894-.422.843.843,0,0,1-.17-.412c-.008-.1.013-.155.043-.163.068-.02.127.153.347.379a.92.92,0,0,0,.7.329c.318.028.494-.034.52.031" transform="translate(-820.857 -330.045)" fill="#4f2d2a"/>
        <path id="Path_84491" data-name="Path 84491" d="M867.4,288.967c-.017-.031.067-.138.3-.193a1.136,1.136,0,0,1,.6.077c.218.113.276.238.252.265s-.123-.024-.317-.088a.965.965,0,0,0-.509-.065c-.2.013-.309.046-.328,0" transform="translate(-847.653 -279.196)" fill="#4f2d2a"/>
        <path id="Path_84492" data-name="Path 84492" d="M854.834,313.218c.015-.015.066.028.16.1a.514.514,0,0,0,.18.089.231.231,0,0,0,.217-.057c.091-.087.026-.35,0-.554s-.074-.426-.126-.636c-.11-.5-.18-.744-.14-.761s.168.208.313.712q.08.324.13.654c.017.111.03.219.042.333a.763.763,0,0,1,0,.19.339.339,0,0,1-.477.27.519.519,0,0,1-.21-.155c-.085-.105-.1-.17-.089-.183" transform="translate(-836.006 -300.177)" fill="#4f2d2a"/>
        <path id="Path_84493" data-name="Path 84493" d="M872.617,304.673c0,.216-.092.392-.206.392s-.205-.175-.205-.392.092-.392.205-.392.206.175.206.392" transform="translate(-852.114 -293.581)" fill="#4f2d2a"/>
        <path id="Path_84494" data-name="Path 84494" d="M839.608,307.623c0,.216-.092.392-.206.392s-.206-.175-.206-.392.092-.392.206-.392.206.175.206.392" transform="translate(-821.514 -296.316)" fill="#4f2d2a"/>
        <path id="Path_84495" data-name="Path 84495" d="M674.473,209.154a6.83,6.83,0,0,0-4.784-1.19l-.02,0a3.464,3.464,0,0,0-2.6,1.9l-.065.127c-.614,1.19-1.8,1.989-2.225,3.289-.451,1.367-.311,2.722-1.184,3.952-.752,1.06-2.136,1.67-2.36,3.059-.216,1.335.549,2.611.039,3.941-.41,1.069-1.6,1.8-1.58,2.991a2.988,2.988,0,0,1-.815,2.421,6.631,6.631,0,0,1-.265,1.092,2.325,2.325,0,0,0,1.843-.367c1.13-.844,1.187-2.55,1.589-3.951a6.611,6.611,0,0,1,3.1-3.953c.9-.5,2.247-.753,3.01-1.469,1.158-1.088,1.04-3.161.107-4.469a3.614,3.614,0,0,1-.8-1.3,1.205,1.205,0,0,1,.547-1.241,1.063,1.063,0,0,1,1.279.2c.227.24.287,1.643.591,1.752a.237.237,0,0,0,.13-.082,5.776,5.776,0,0,1,1.8-3.013,4.058,4.058,0,0,1,2.675-.9,1.094,1.094,0,0,1,.316.067,1.773,1.773,0,0,0-.332-2.852" transform="translate(-654.114 -204.241)" fill="#2e363a"/>
        <g id="Group_99417" data-name="Group 99417" transform="translate(13.671 10.025)" opacity="0.5">
          <g id="Group_99416" data-name="Group 99416">
            <g id="Group_99415" data-name="Group 99415" clip-path="url(#clip-path-5)">
              <path id="Path_84496" data-name="Path 84496" d="M784.237,295.61a.762.762,0,0,1,.549-.57.313.313,0,0,1,.32.077.338.338,0,0,1-.032.394,2.389,2.389,0,0,1-.305.28.437.437,0,0,0-.162.372c.016.094.086.24-.047.276-.1.027-.12-.069-.162-.141a.9.9,0,0,1-.161-.69" transform="translate(-784.218 -295.028)" fill="#ffab90"/>
            </g>
          </g>
        </g>
        <g id="Group_99420" data-name="Group 99420" transform="translate(15.603 14.525)" opacity="0.5">
          <g id="Group_99419" data-name="Group 99419">
            <g id="Group_99418" data-name="Group 99418" clip-path="url(#clip-path-6)">
              <path id="Path_84497" data-name="Path 84497" d="M810.7,356.687a4.791,4.791,0,0,0,1.972,2.286,4.478,4.478,0,0,0,1.082.451.9.9,0,0,1-.058-.172,9.638,9.638,0,0,1,.171-1.358.639.639,0,0,0,.076-.007,6.37,6.37,0,0,1-3.243-1.2" transform="translate(-810.701 -356.687)" fill="#ffab90"/>
            </g>
          </g>
        </g>
        <path id="Path_84498" data-name="Path 84498" d="M867.809,348.433a.744.744,0,0,1-.039.663c-.1.208-.241.395-.318.611a1.727,1.727,0,0,0,.464,1.633c.387.45.884.8,1.25,1.265a1.6,1.6,0,0,1,.315,1.654c-.16.311-.47.532-.6.856a1.5,1.5,0,0,0,.157,1.191,4.3,4.3,0,0,1,.484,1.134.906.906,0,0,1-.49,1.026.491.491,0,0,1-.388-.024.81.81,0,0,1-.242-.248,4.246,4.246,0,0,0-2.707-2,10.33,10.33,0,0,1-1.433-.077,1.638,1.638,0,0,1-1.161-1.176c-.066-.272-.06-.559-.146-.825-.191-.595-.805-.995-.941-1.6a1.753,1.753,0,0,1,.792-1.647c.508-.395,1.116-.654,1.592-1.088a2.858,2.858,0,0,0,.9-1.757,1.563,1.563,0,0,1,1.226.3" transform="translate(-842.64 -334.105)" fill="#2e363a"/>
        <path id="Path_84499" data-name="Path 84499" d="M641.27,563.585c.105,0,3.471.386,3.926,1.227s4.908,3.927,5.294,3.856.526-1.648,1.052-1.963.841,1.578.841,1.578,1.827-1.119,2.914-.857,1.048,2.855-.495,3.8a7.207,7.207,0,0,1-4.312.876c-.876-.105-8.624-1.052-9.711-4.768s.491-3.751.491-3.751" transform="translate(-637.222 -533.961)" fill="#fec9ac"/>
        <path id="Path_84500" data-name="Path 84500" d="M654.794,571.235a7.2,7.2,0,0,1-4.311.876c-.877-.1-8.624-1.052-9.712-4.767s.491-3.751.491-3.751c.106,0,3.472.385,3.926,1.226a3.727,3.727,0,0,0,.75.784,21.773,21.773,0,0,0,4.544,3.073c.385-.07.526-1.647,1.052-1.962s.841,1.578.841,1.578,1.827-1.12,2.914-.858a.966.966,0,0,1,.651.717,2.871,2.871,0,0,1-1.147,3.085" transform="translate(-637.215 -533.969)" fill="#fec9ac"/>
        <g id="Group_99423" data-name="Group 99423" transform="translate(3.174 29.624)" opacity="0.5">
          <g id="Group_99422" data-name="Group 99422">
            <g id="Group_99421" data-name="Group 99421" clip-path="url(#clip-path-7)">
              <path id="Path_84501" data-name="Path 84501" d="M654.794,571.235a7.2,7.2,0,0,1-4.311.876c-.877-.1-8.624-1.052-9.712-4.767s.491-3.751.491-3.751c.106,0,3.472.385,3.926,1.226a3.727,3.727,0,0,0,.75.784,3.1,3.1,0,0,0,.554,2.695,5.866,5.866,0,0,0,2.875,1.852,7.277,7.277,0,0,0,3.063.431,4.074,4.074,0,0,0,2.721-1.359c.283-.342.494-.739.789-1.073a2.871,2.871,0,0,1-1.147,3.085" transform="translate(-640.389 -563.593)" fill="#ffab90"/>
            </g>
          </g>
        </g>
        <path id="Path_84502" data-name="Path 84502" d="M639.36,504.628a8.442,8.442,0,0,1-3.218,2.47,3.105,3.105,0,0,1-2.719-.352q-.107.2-.231.379a9.224,9.224,0,0,0-1.243,2.575l-.068.235s2.39,2.122,6.587.879c0,0-.02.181-.053.5a15.553,15.553,0,0,0,.944-6.682" transform="translate(-629.329 -479.307)" fill="#42c1f4"/>
        <path id="Path_84503" data-name="Path 84503" d="M911.365,527.977c.05-.357.4-.6.943-.821a3.481,3.481,0,0,0,1.363-.491c.554-.175.983-.211,1.255.038.258.231.252.771-.389,1.365a5.122,5.122,0,0,1-2,.721c-.873-.049-1.222-.461-1.169-.813" transform="translate(-888.41 -499.607)" fill="#fff"/>
        <path id="Path_84504" data-name="Path 84504" d="M648.76,562.441c.2.26-.055.946-1.2,1.505a6.761,6.761,0,0,1-3.127.278c-1.228-.347-1.6-.977-1.446-1.276.164-.339.738-.345,1.683-.356a5.114,5.114,0,0,0,2.369-.211c.933-.157,1.5-.252,1.725.06" transform="translate(-639.589 -532.71)" fill="#fff"/>
        <path id="Path_84505" data-name="Path 84505" d="M652.525,291.3a4.744,4.744,0,0,1-.591,3.927,12.034,12.034,0,0,1-1.774,1.893,5.645,5.645,0,0,0-1.518,2.082,2.331,2.331,0,0,0,.421,2.424,3.355,3.355,0,0,0,1.836.728,3.578,3.578,0,0,0,1.145.06,1.307,1.307,0,0,0,.945-.587c.272-.475.109-1.1.33-1.6a2.15,2.15,0,0,1,1.677-.98,2.73,2.73,0,0,0,1.8-.814c.489-.678.213-1.672.615-2.4.365-.665,1.19-.945,1.644-1.553a3.516,3.516,0,0,0,.453-2.189,4.154,4.154,0,0,0-.5-2.348c-.3-.431-.751-.733-1.076-1.144a3.3,3.3,0,0,1-.622-2.119,9.828,9.828,0,0,1,.388-2.215" transform="translate(-644.719 -275.208)" fill="#2e363a"/>
      </g>
    </g>
    <g id="Group_99427" data-name="Group 99427" transform="translate(0 0)">
      <g id="Group_99426" data-name="Group 99426" clip-path="url(#clip-path-2)">
        <path id="Path_84507" data-name="Path 84507" d="M1152.766,249.5h49.9a2.3,2.3,0,1,0,0-4.607h-49.9a2.3,2.3,0,0,0,0,4.607" transform="translate(-1066.502 -227.02)" fill="#fff"/>
        <path id="Path_84508" data-name="Path 84508" d="M1202.664,390.076h-49.9a2.3,2.3,0,0,0,0,4.607h49.9a2.3,2.3,0,1,0,0-4.607" transform="translate(-1066.502 -361.608)" fill="#fff"/>
        <path id="Path_84509" data-name="Path 84509" d="M1172.128,535.263h-19.364a2.3,2.3,0,0,0,0,4.607h19.364a2.3,2.3,0,0,0,0-4.607" transform="translate(-1066.5 -496.2)" fill="#fff"/>
        <path id="Path_84510" data-name="Path 84510" d="M986.989,1411.731l-2.528-.019-.763-2.411-.8,2.4-2.528-.019,2.034,1.5-.8,2.4,2.057-1.47,2.034,1.5-.763-2.411Z" transform="translate(-908.822 -1306.451)" fill="#d1dcf8"/>
        <path id="Path_84511" data-name="Path 84511" d="M876.951,1410.9l-.763-2.411-.8,2.4-2.528-.019,2.034,1.5-.8,2.4,2.057-1.471,2.034,1.5-.763-2.41,2.057-1.471Z" transform="translate(-809.158 -1305.7)" fill="#d1dcf8"/>
        <path id="Path_84515" data-name="Path 84515" d="M1152.766,1005.134h49.9a2.3,2.3,0,1,0,0-4.607h-49.9a2.3,2.3,0,0,0,0,4.607" transform="translate(-1066.502 -927.509)" fill="#fff"/>
        <path id="Path_84516" data-name="Path 84516" d="M1202.664,1145.712h-49.9a2.3,2.3,0,0,0,0,4.607h49.9a2.3,2.3,0,1,0,0-4.607" transform="translate(-1066.502 -1062.098)" fill="#fff"/>
        <path id="Path_84517" data-name="Path 84517" d="M1172.128,1290.9h-19.364a2.3,2.3,0,0,0,0,4.607h19.364a2.3,2.3,0,0,0,0-4.607" transform="translate(-1066.5 -1196.689)" fill="#fff"/>
        <path id="Path_84518" data-name="Path 84518" d="M1152.766,1760.77h49.9a2.3,2.3,0,1,0,0-4.606h-49.9a2.3,2.3,0,1,0,0,4.606" transform="translate(-1066.502 -1627.999)" fill="#fff"/>
        <path id="Path_84519" data-name="Path 84519" d="M1202.664,1901.348h-49.9a2.3,2.3,0,0,0,0,4.607h49.9a2.3,2.3,0,1,0,0-4.607" transform="translate(-1066.502 -1762.588)" fill="#fff"/>
        <path id="Path_84520" data-name="Path 84520" d="M1172.128,2046.535h-19.364a2.3,2.3,0,0,0,0,4.607h19.364a2.3,2.3,0,0,0,0-4.607" transform="translate(-1066.5 -1897.179)" fill="#fff"/>
        <path id="Path_84521" data-name="Path 84521" d="M119.79,2218.321a13.99,13.99,0,0,1-4.106-9.923v-4.01H0v4.01a14.018,14.018,0,0,0,14.015,14.029H129.7a13.981,13.981,0,0,1-9.909-4.106" transform="translate(0 -2043.512)" fill="url(#linear-gradient)"/>
        <path id="Path_84522" data-name="Path 84522" d="M607.322,1686.182a14.843,14.843,0,1,0,14.843-14.842,14.843,14.843,0,0,0-14.843,14.842" transform="translate(-563 -1549.365)" fill="#fff"/>
      </g>
    </g>
    <g id="Group_99435" data-name="Group 99435" transform="translate(44.322 121.974)">
      <g id="Group_99434" data-name="Group 99434" clip-path="url(#clip-path-9)">
        <path id="Path_84523" data-name="Path 84523" d="M836.866,2156.3a10.367,10.367,0,0,0,2.71-.219c3.6-.672,8.758-2.7,10.356-5.409a6,6,0,0,0,.546-1.2c.981-2.98-4.18-9.116-4.18-9.116-1.395,2.854-2.5,5.634-4.3,7a19.249,19.249,0,0,1,1.305,2.121.058.058,0,0,1,.005.036c.066.68-5.846,3.688-5.846,3.688a1.773,1.773,0,0,1-1.3-.328c-.661-.467-1.9-1.36-2.289-.784s2.5,2.437,1.309,1.9a9.933,9.933,0,0,0-4.234-.743c-.186.041-.314.115-.35.227-.224.653,3.428,2.53,6.267,2.816" transform="translate(-814.295 -2106.131)" fill="#fec9ac"/>
        <path id="Path_84524" data-name="Path 84524" d="M609.945,1995.094l1.752,9.666a71.554,71.554,0,0,1-24.428-1.4l.6-6.152.331-3.421c-2.526-.8-5.384-8.564-5.384-8.564a40.588,40.588,0,0,1,5.094-5.772,18.151,18.151,0,0,1,9.668-4.866,13.929,13.929,0,0,1,9.76,1.8,13.684,13.684,0,0,1,1.3.929c4.8,3.835,10.578,12.44,10.578,12.44-4.076,5.654-9.265,5.348-9.265,5.348" transform="translate(-584.601 -1952.256)" fill="#fe4c40"/>
        <path id="Path_84525" data-name="Path 84525" d="M751.017,2096.645l1.167,3.592h3.777l-3.056,2.22,1.167,3.592-3.056-2.22-3.056,2.22,1.167-3.592-3.056-2.22h3.777Z" transform="translate(-735.946 -2065.606)" fill="#f3f6fd"/>
        <path id="Path_84526" data-name="Path 84526" d="M666.552,2032.357l1.752,9.666c-9.488,2.374-24.363-.6-24.428-1.4l.6-6.152q.927.213,1.872.339a13.9,13.9,0,0,0,8.12-1.206,14.869,14.869,0,0,0,5.926-6.086,44.4,44.4,0,0,0,3.214-7.979q.817-2.482,1.636-4.966c4.8,3.835,10.578,12.44,10.578,12.44-4.076,5.654-9.265,5.348-9.265,5.348" transform="translate(-641.208 -1989.52)" fill="#ea241f"/>
        <path id="Path_84527" data-name="Path 84527" d="M935.687,2165.984a.122.122,0,0,1-.119-.1l-3.256-17.583a.122.122,0,1,1,.239-.044l3.256,17.583a.121.121,0,0,1-.1.141l-.022,0" transform="translate(-908.592 -2113.359)" fill="#c16244"/>
        <path id="Path_84528" data-name="Path 84528" d="M642.325,2163.734h-.013a.122.122,0,0,1-.108-.133l1.675-16.246a.124.124,0,0,1,.134-.109.122.122,0,0,1,.108.134l-1.675,16.245a.121.121,0,0,1-.121.109" transform="translate(-639.657 -2112.514)" fill="#edba3b"/>
        <path id="Path_84529" data-name="Path 84529" d="M770.09,1924.957a3.788,3.788,0,0,1-2.571,1.971,5.378,5.378,0,0,1-2.792.03c-2.06-.544-2.111-1.82-2.111-1.82.348-.112.517-1,.6-1.955.1-1.2.061-2.514.061-2.514h5.471s.16,1.663.334,2.943a1.751,1.751,0,0,0,.267.719,1.631,1.631,0,0,0,.486.49,1.4,1.4,0,0,0,.258.135" transform="translate(-751.283 -1902.473)" fill="#fec9ac"/>
        <g id="Group_99430" data-name="Group 99430" transform="translate(11.93 18.196)" opacity="0.5">
          <g id="Group_99429" data-name="Group 99429">
            <g id="Group_99428" data-name="Group 99428" clip-path="url(#clip-path-10)">
              <path id="Path_84530" data-name="Path 84530" d="M776.926,1924.331a6.081,6.081,0,0,1-5.66-.743,5.342,5.342,0,0,1-.474-.4c.1-1.2.061-2.514.061-2.514h5.471s.16,1.663.334,2.943a1.75,1.75,0,0,0,.267.719" transform="translate(-770.793 -1920.669)" fill="#ffab90"/>
            </g>
          </g>
        </g>
        <path id="Path_84531" data-name="Path 84531" d="M761.584,2001.005c.114.073-.27,1-1.924,1.881a6.765,6.765,0,0,1-4.591.34,3.355,3.355,0,0,1-1.773-1.122c-.283-.416-.236-.694-.161-.712a5.183,5.183,0,0,0,2.155,1.04,5.942,5.942,0,0,0,4.031-.3c1.506-.63,2.106-1.284,2.262-1.129" transform="translate(-742.441 -1976.925)" fill="#fff"/>
        <path id="Path_84532" data-name="Path 84532" d="M982.138,2176.553c-.091-.354.441-.769,1.445-1.406a9.574,9.574,0,0,0,2.47-1.709c.949-.715,1.525-1.065,1.831-.85.284.193.2.958-.694,2.044a11.211,11.211,0,0,1-2.891,2c-1.334.455-2.078.263-2.161-.08" transform="translate(-954.775 -2135.949)" fill="#fff"/>
        <path id="Path_84533" data-name="Path 84533" d="M603.744,2137.333c-.209.268-.846.222-1.69-.5a9.785,9.785,0,0,1-1.514-2.318c-.324-1.063-.11-1.665.228-1.751.358-.094.748.3,1.266,1.052a8.142,8.142,0,0,0,1.261,1.931c.485.779.685,1.293.449,1.589" transform="translate(-600.887 -2099.074)" fill="#fff"/>
        <path id="Path_84534" data-name="Path 84534" d="M742.592,1776.161a5.313,5.313,0,0,1-1.076,2.932,3.65,3.65,0,0,1-2.529,1.064,3.975,3.975,0,0,1-1.506-.2,6.028,6.028,0,0,1-2.408-1.894c-.252-.287-.5-.58-.733-.883a3.926,3.926,0,0,0-.868-.8l0,0a3.535,3.535,0,0,1-.67-.666,1.428,1.428,0,0,1-.363-.642.869.869,0,0,1,.159-.633,1.269,1.269,0,0,1,.282-.28,5.887,5.887,0,0,1,3.557-6.549l5.3-.832a8.5,8.5,0,0,0,.6,2.287,16.005,16.005,0,0,1,.259,7.1" transform="translate(-723.294 -1759.813)" fill="#fec9ac"/>
        <path id="Path_84535" data-name="Path 84535" d="M737.354,1736.144a3.755,3.755,0,0,1-1.635-1.446c-.158-.258-.287-.537-.429-.8a3.864,3.864,0,0,0-.321-.513,3.154,3.154,0,0,0-1.579-1.042,6.681,6.681,0,0,0-1.9-.249,8.542,8.542,0,0,0-2.95.419,4.671,4.671,0,0,0-2.361,1.76,7.516,7.516,0,0,0-.816,1.974c-.136.451-.272.9-.375,1.363a7.155,7.155,0,0,0-.15.922,4.273,4.273,0,0,0,.393,2.281,6.758,6.758,0,0,1,.629,1.443.806.806,0,0,1,.593-.525,1.748,1.748,0,0,1,1.032.128,6.49,6.49,0,0,1,.8.471s.561-1.651.743-2.112a3.219,3.219,0,0,1,3.233-1.95c-.19.156-.531.166-.581.407l.333.028a2.754,2.754,0,0,0,1.118-.146,1.426,1.426,0,0,1,.972-.022,4.779,4.779,0,0,0,1.242.493,1.871,1.871,0,0,0,1.467-.531,3.093,3.093,0,0,0,.543-.688Z" transform="translate(-716.244 -1727.657)" fill="#2e363a"/>
        <g id="Group_99433" data-name="Group 99433" transform="translate(9.745 14.578)" opacity="0.5">
          <g id="Group_99432" data-name="Group 99432">
            <g id="Group_99431" data-name="Group 99431" clip-path="url(#clip-path-11)">
              <path id="Path_84536" data-name="Path 84536" d="M742.118,1872.7a.241.241,0,0,1-.2.255.328.328,0,0,1-.168-.028,1.142,1.142,0,0,1-.457-.391,1.744,1.744,0,0,1-.435-1,.469.469,0,0,1,.1-.327.463.463,0,0,1,.465-.086.985.985,0,0,1,.679.673Z" transform="translate(-740.855 -1871.099)" fill="#ffab90"/>
            </g>
          </g>
        </g>
        <path id="Path_84537" data-name="Path 84537" d="M737.027,1736.24a1.77,1.77,0,0,1-1.371.044,5.809,5.809,0,0,0-2.156-.339,2.409,2.409,0,0,0-1.756,1.156,4.509,4.509,0,0,1-.272.467,1.565,1.565,0,0,1-1.148.555,4.635,4.635,0,0,1-1.3-.152q-.631-.133-1.258-.269a3.66,3.66,0,0,0-.607-.1c.1-.459.239-.912.375-1.363a7.516,7.516,0,0,1,.816-1.974,4.671,4.671,0,0,1,2.361-1.76,8.54,8.54,0,0,1,2.95-.419,6.664,6.664,0,0,1,1.9.249,3.155,3.155,0,0,1,1.579,1.042,3.847,3.847,0,0,1,.321.513c.036.3.1.6.118.894a1.528,1.528,0,0,1-.547,1.451" transform="translate(-718.41 -1727.657)" fill="#2e363a"/>
        <path id="Path_84538" data-name="Path 84538" d="M795,1847.581c-.021-.013-.025-.06.009-.138a.734.734,0,0,1,.248-.286,1.074,1.074,0,0,1,.841-.132.73.73,0,0,1,.323.2c.056.064.067.11.05.129-.038.045-.165-.043-.432-.092a.834.834,0,0,0-.655.1c-.239.129-.333.252-.384.22" transform="translate(-781.288 -1834.172)" fill="#4f2d2a"/>
        <path id="Path_84539" data-name="Path 84539" d="M842.181,1839.557c-.032-.031.039-.192.327-.345a1.6,1.6,0,0,1,.8-.125c.321.058.438.189.416.23s-.167.016-.439.009a1.366,1.366,0,0,0-.678.106c-.258.09-.383.169-.422.125" transform="translate(-825.034 -1826.838)" fill="#4f2d2a"/>
        <path id="Path_84540" data-name="Path 84540" d="M826.849,1872.448c.02-.018.088.036.215.124a.712.712,0,0,0,.241.112.323.323,0,0,0,.29-.072c.122-.11.035-.442,0-.7s-.1-.538-.169-.8c-.147-.629-.241-.94-.187-.962s.225.263.42.9q.107.409.174.827c.023.14.041.277.056.421a.9.9,0,0,1,0,.24.456.456,0,0,1-.125.248.512.512,0,0,1-.514.093.692.692,0,0,1-.281-.2c-.113-.133-.138-.215-.12-.231" transform="translate(-810.823 -1855.637)" fill="#4f2d2a"/>
        <path id="Path_84541" data-name="Path 84541" d="M805.993,1908.366c.006.023-.044.065-.163.1a1.371,1.371,0,0,1-.558.046,1.909,1.909,0,0,1-1.123-.578.83.83,0,0,1-.216-.539c.006-.134.053-.189.076-.184.06.007.011.251.319.563a1.675,1.675,0,0,0,.979.5c.438.08.672.027.685.089" transform="translate(-789.585 -1889.999)" fill="#4f2d2a"/>
        <path id="Path_84542" data-name="Path 84542" d="M850.68,1861.653c0,.273-.123.495-.275.495s-.276-.221-.276-.495.123-.495.276-.495.275.221.275.495" transform="translate(-832.409 -1847.305)" fill="#4f2d2a"/>
        <path id="Path_84543" data-name="Path 84543" d="M806.445,1865.379c0,.273-.123.495-.275.495s-.276-.221-.276-.495.123-.495.276-.495.275.221.275.495" transform="translate(-791.402 -1850.759)" fill="#4f2d2a"/>
        <path id="Path_84544" data-name="Path 84544" d="M423.807,2044.913s-.587,5.07-7.485,6.1-10.84-19.408-10.84-19.408,2.132-1.314,3.148-2.073c.119,0,5.575,10.839,5.864,11.417s3.929-4.6,3.929-4.6Z" transform="translate(-420.211 -2003.388)" fill="#fec9ac"/>
        <path id="Path_84545" data-name="Path 84545" d="M364.225,1969.775c.027.441-2.614,2.32-3.147,2.073s-3.519-3.518-3.5-6.1,5.424,3.056,5.353,2.6.334-2.1.742-1.817.548,3.238.548,3.238" transform="translate(-375.809 -1943.634)" fill="#fec9ac"/>
      </g>
    </g>
    <g id="Group_99437" data-name="Group 99437" transform="translate(0 0)">
      <g id="Group_99436" data-name="Group 99436" clip-path="url(#clip-path-2)">
        <path id="Path_84547" data-name="Path 84547" d="M607.322,898.984a14.843,14.843,0,1,0,14.843-14.843,14.843,14.843,0,0,0-14.843,14.843" transform="translate(-563 -819.617)" fill="#fff"/>
      </g>
    </g>
    <g id="Group_99445" data-name="Group 99445" transform="translate(44.322 64.524)">
      <g id="Group_99444" data-name="Group 99444" clip-path="url(#clip-path-13)">
        <path id="Path_84548" data-name="Path 84548" d="M836.866,1369.1a10.378,10.378,0,0,0,2.71-.219c3.6-.672,8.758-2.7,10.356-5.409a5.994,5.994,0,0,0,.546-1.2c.981-2.98-4.18-9.116-4.18-9.116-1.395,2.853-2.5,5.635-4.3,7a19.209,19.209,0,0,1,1.305,2.121.057.057,0,0,1,.005.035c.066.68-5.846,3.688-5.846,3.688a1.773,1.773,0,0,1-1.3-.328c-.661-.467-1.9-1.36-2.289-.784s2.5,2.437,1.309,1.9a9.939,9.939,0,0,0-4.234-.743c-.186.041-.314.115-.35.227-.224.653,3.428,2.53,6.267,2.816" transform="translate(-814.295 -1318.934)" fill="#fec9ac"/>
        <path id="Path_84549" data-name="Path 84549" d="M609.945,1207.9l1.752,9.666a71.554,71.554,0,0,1-24.428-1.4l.6-6.151.331-3.421c-2.526-.8-5.384-8.565-5.384-8.565a40.6,40.6,0,0,1,5.094-5.772,18.151,18.151,0,0,1,9.668-4.866,13.929,13.929,0,0,1,9.76,1.8,13.7,13.7,0,0,1,1.3.929c4.8,3.835,10.578,12.44,10.578,12.44-4.076,5.654-9.265,5.348-9.265,5.348" transform="translate(-584.601 -1165.059)" fill="#ea7d20"/>
        <path id="Path_84550" data-name="Path 84550" d="M751.017,1309.447l1.167,3.592h3.777l-3.056,2.22,1.167,3.592-3.056-2.22-3.056,2.22,1.167-3.592-3.056-2.22h3.777Z" transform="translate(-735.946 -1278.409)" fill="#f3f6fd"/>
        <path id="Path_84551" data-name="Path 84551" d="M935.687,1378.788a.121.121,0,0,1-.119-.1l-3.256-17.583a.122.122,0,1,1,.239-.044l3.256,17.583a.121.121,0,0,1-.1.142l-.022,0" transform="translate(-908.592 -1326.163)" fill="#c16244"/>
        <path id="Path_84552" data-name="Path 84552" d="M642.325,1376.537h-.013a.122.122,0,0,1-.108-.134l1.675-16.245a.124.124,0,0,1,.134-.109.122.122,0,0,1,.108.134l-1.675,16.245a.122.122,0,0,1-.121.109" transform="translate(-639.657 -1325.317)" fill="#edba3b"/>
        <path id="Path_84553" data-name="Path 84553" d="M770.09,1137.759a3.788,3.788,0,0,1-2.571,1.972,5.373,5.373,0,0,1-2.792.03c-2.06-.544-2.111-1.82-2.111-1.82.348-.112.517-1,.6-1.955.1-1.2.061-2.514.061-2.514h5.471s.16,1.662.334,2.943a1.75,1.75,0,0,0,.267.72,1.628,1.628,0,0,0,.486.49,1.394,1.394,0,0,0,.258.135" transform="translate(-751.283 -1115.275)" fill="#fec9ac"/>
        <g id="Group_99440" data-name="Group 99440" transform="translate(11.93 18.196)" opacity="0.5">
          <g id="Group_99439" data-name="Group 99439">
            <g id="Group_99438" data-name="Group 99438" clip-path="url(#clip-path-10)">
              <path id="Path_84554" data-name="Path 84554" d="M776.926,1137.134a6.082,6.082,0,0,1-5.66-.743,5.343,5.343,0,0,1-.474-.405c.1-1.2.061-2.514.061-2.514h5.471s.16,1.662.334,2.943a1.751,1.751,0,0,0,.267.72" transform="translate(-770.793 -1133.471)" fill="#ffab90"/>
            </g>
          </g>
        </g>
        <path id="Path_84555" data-name="Path 84555" d="M761.584,1213.808c.114.074-.27,1-1.924,1.881a6.766,6.766,0,0,1-4.591.34,3.355,3.355,0,0,1-1.773-1.123c-.283-.416-.236-.694-.161-.712a5.178,5.178,0,0,0,2.155,1.04,5.94,5.94,0,0,0,4.031-.3c1.506-.629,2.106-1.283,2.262-1.129" transform="translate(-742.441 -1189.728)" fill="#fff"/>
        <path id="Path_84556" data-name="Path 84556" d="M982.138,1389.355c-.091-.354.441-.77,1.445-1.406a9.577,9.577,0,0,0,2.47-1.709c.949-.715,1.525-1.066,1.831-.851.284.193.2.958-.694,2.044a11.221,11.221,0,0,1-2.891,2c-1.334.455-2.078.263-2.161-.08" transform="translate(-954.775 -1348.75)" fill="#fff"/>
        <path id="Path_84557" data-name="Path 84557" d="M603.744,1350.136c-.209.268-.846.222-1.69-.5a9.784,9.784,0,0,1-1.514-2.318c-.324-1.063-.11-1.665.228-1.751.358-.094.748.3,1.266,1.052a8.132,8.132,0,0,0,1.261,1.931c.485.779.685,1.293.449,1.589" transform="translate(-600.887 -1311.877)" fill="#fff"/>
        <path id="Path_84558" data-name="Path 84558" d="M742.592,988.963a5.312,5.312,0,0,1-1.076,2.932,3.65,3.65,0,0,1-2.529,1.064,3.977,3.977,0,0,1-1.506-.2,6.027,6.027,0,0,1-2.408-1.894c-.252-.287-.5-.58-.733-.883a3.922,3.922,0,0,0-.868-.8l0,0a3.537,3.537,0,0,1-.67-.666,1.429,1.429,0,0,1-.363-.642.868.868,0,0,1,.159-.633,1.269,1.269,0,0,1,.282-.28,5.887,5.887,0,0,1,3.557-6.549l5.3-.832a8.5,8.5,0,0,0,.6,2.287,16.007,16.007,0,0,1,.259,7.1" transform="translate(-723.294 -972.615)" fill="#fec9ac"/>
        <path id="Path_84559" data-name="Path 84559" d="M737.354,948.948a3.756,3.756,0,0,1-1.635-1.446c-.158-.259-.287-.537-.429-.8a3.855,3.855,0,0,0-.321-.513,3.153,3.153,0,0,0-1.579-1.042,6.668,6.668,0,0,0-1.9-.248,8.533,8.533,0,0,0-2.95.419,4.671,4.671,0,0,0-2.361,1.76,7.516,7.516,0,0,0-.816,1.974c-.136.451-.272.9-.375,1.363a7.146,7.146,0,0,0-.15.922,4.273,4.273,0,0,0,.393,2.281,6.763,6.763,0,0,1,.629,1.443.805.805,0,0,1,.593-.525,1.745,1.745,0,0,1,1.032.128,6.521,6.521,0,0,1,.8.471s.561-1.651.743-2.112a3.219,3.219,0,0,1,3.233-1.95c-.19.156-.531.166-.581.407l.333.028a2.757,2.757,0,0,0,1.118-.146,1.426,1.426,0,0,1,.972-.022,4.776,4.776,0,0,0,1.242.493,1.872,1.872,0,0,0,1.467-.531,3.1,3.1,0,0,0,.543-.688Z" transform="translate(-716.244 -940.46)" fill="#2e363a"/>
        <g id="Group_99443" data-name="Group 99443" transform="translate(9.745 14.578)" opacity="0.5">
          <g id="Group_99442" data-name="Group 99442">
            <g id="Group_99441" data-name="Group 99441" clip-path="url(#clip-path-11)">
              <path id="Path_84560" data-name="Path 84560" d="M742.118,1085.5a.241.241,0,0,1-.2.255.325.325,0,0,1-.168-.028,1.142,1.142,0,0,1-.457-.391,1.744,1.744,0,0,1-.435-1,.469.469,0,0,1,.1-.327.464.464,0,0,1,.465-.086.986.986,0,0,1,.679.673Z" transform="translate(-740.855 -1083.901)" fill="#ffab90"/>
            </g>
          </g>
        </g>
        <path id="Path_84561" data-name="Path 84561" d="M737.027,949.042a1.77,1.77,0,0,1-1.371.044,5.805,5.805,0,0,0-2.156-.339,2.41,2.41,0,0,0-1.756,1.156,4.5,4.5,0,0,1-.272.467,1.566,1.566,0,0,1-1.148.555,4.628,4.628,0,0,1-1.3-.152q-.631-.132-1.258-.269a3.679,3.679,0,0,0-.607-.1c.1-.459.239-.912.375-1.363a7.515,7.515,0,0,1,.816-1.974,4.671,4.671,0,0,1,2.361-1.76,8.537,8.537,0,0,1,2.95-.419,6.657,6.657,0,0,1,1.9.248,3.153,3.153,0,0,1,1.579,1.042,3.88,3.88,0,0,1,.321.513c.036.3.1.6.118.894a1.528,1.528,0,0,1-.547,1.451" transform="translate(-718.41 -940.46)" fill="#2e363a"/>
        <path id="Path_84562" data-name="Path 84562" d="M795,1060.383c-.021-.013-.025-.06.009-.137a.733.733,0,0,1,.248-.286,1.073,1.073,0,0,1,.841-.132.73.73,0,0,1,.323.2c.056.064.067.11.05.129-.038.045-.165-.043-.432-.092a.833.833,0,0,0-.655.1c-.239.129-.333.252-.384.22" transform="translate(-781.288 -1046.974)" fill="#4f2d2a"/>
        <path id="Path_84563" data-name="Path 84563" d="M842.181,1052.359c-.032-.031.039-.192.327-.345a1.609,1.609,0,0,1,.8-.125c.321.058.438.189.416.23s-.167.016-.439.009a1.367,1.367,0,0,0-.678.106c-.258.09-.383.169-.422.125" transform="translate(-825.034 -1039.64)" fill="#4f2d2a"/>
        <path id="Path_84564" data-name="Path 84564" d="M826.849,1085.25c.02-.018.088.036.215.124a.712.712,0,0,0,.241.112.323.323,0,0,0,.29-.072c.122-.11.035-.442,0-.7s-.1-.538-.169-.8c-.147-.629-.241-.94-.187-.961s.225.263.42.9q.107.409.174.827c.023.14.041.277.056.421a.9.9,0,0,1,0,.24.456.456,0,0,1-.125.248.512.512,0,0,1-.514.093.693.693,0,0,1-.281-.2c-.113-.133-.138-.215-.12-.231" transform="translate(-810.823 -1068.439)" fill="#4f2d2a"/>
        <path id="Path_84565" data-name="Path 84565" d="M805.993,1121.168c.006.023-.044.065-.163.1a1.37,1.37,0,0,1-.558.046,1.911,1.911,0,0,1-1.123-.578.83.83,0,0,1-.216-.539c.006-.135.053-.19.076-.184.06.007.011.251.319.563a1.676,1.676,0,0,0,.979.5c.438.08.672.027.685.089" transform="translate(-789.585 -1102.801)" fill="#4f2d2a"/>
        <path id="Path_84566" data-name="Path 84566" d="M850.68,1074.455c0,.274-.123.495-.275.495s-.276-.221-.276-.495.123-.495.276-.495.275.221.275.495" transform="translate(-832.409 -1060.107)" fill="#4f2d2a"/>
        <path id="Path_84567" data-name="Path 84567" d="M806.445,1078.181c0,.273-.123.495-.275.495s-.276-.222-.276-.495.123-.495.276-.495.275.221.275.495" transform="translate(-791.402 -1063.561)" fill="#4f2d2a"/>
        <path id="Path_84568" data-name="Path 84568" d="M423.807,1257.715s-.587,5.07-7.485,6.1-10.84-19.408-10.84-19.408,2.132-1.314,3.148-2.073c.119,0,5.575,10.839,5.864,11.417s3.929-4.6,3.929-4.6Z" transform="translate(-420.211 -1216.19)" fill="#fec9ac"/>
        <path id="Path_84569" data-name="Path 84569" d="M364.225,1182.577c.027.441-2.614,2.321-3.147,2.073s-3.519-3.518-3.5-6.1,5.424,3.056,5.353,2.6.334-2.1.742-1.817.548,3.238.548,3.238" transform="translate(-375.809 -1156.436)" fill="#fec9ac"/>
      </g>
    </g>
    <g id="Group_99447" data-name="Group 99447" transform="translate(0 0)">
      <g id="Group_99446" data-name="Group 99446" clip-path="url(#clip-path-2)">
        <path id="Path_84571" data-name="Path 84571" d="M1856.657,1636.755c4.145,3.785,2.343,7.569-.721,14.6s-3.6,32.98-3.6,32.98l2.523-.36s-.361-26.673,3.063-33.881,4.866-10.813,7.93-8.47-9.191-4.866-9.191-4.866" transform="translate(-1717.148 -1517.305)" fill="url(#linear-gradient-4)"/>
        <path id="Path_84572" data-name="Path 84572" d="M1877.555,1421.047c.5-2.243,3.493-4.67,7.491-6.728-.594,3.308-2.5,8.717-.528,9.826,2.66,1.5.259-6.055,1.286-10.206a49.391,49.391,0,0,1,12.428-4.077c-.006.016-.011.03-.017.046-2.343,5.947-5.406,8.29-4.145,9.191.949.678,4.041-6.192,8.123-9.714,3.064-.164,5.656.252,7.19,1.466,2.37,1.877,3.961,3.541,1.577,9.255a10.712,10.712,0,0,1-5.176,1.876c-5.406.54-7.93.721-4.145,2.523,1.853.882,4.96-.05,7.479-.618-.817,1.506-1.821,3.21-3.042,5.151a19.115,19.115,0,0,1-2.533,3.224,8,8,0,0,1-4.066-.007c-2.523-1.081-9.011-4.505-10.633-3.064-1.588,1.411,12.016,2.3,11.073,5.891-6.594,3.8-14.139,1.991-15.472-1.5-1.791-4.685-8.4-5.787-6.889-12.538" transform="translate(-1740.323 -1306.497)" fill="url(#linear-gradient-5)"/>
        <path id="Path_84573" data-name="Path 84573" d="M1808.056,1891.445c-7.209-5.407-14.6-.361-18.383,5.406s-1.081,18.743-1.081,18.743,1.442,0,1.442-.541-3.965-15.319,5.406-21.987c5.863-4.172,10.092-2.163,10.633-.18s-2.343,5.587-2.343,5.587Z" transform="translate(-1657.193 -1751.269)" fill="url(#linear-gradient-4)"/>
        <path id="Path_84574" data-name="Path 84574" d="M1835.915,1768.457c7.209,0,9.552,11.174,7.569,17.662s-4.686,18.563-4.686,18.563l-1.8-1.8s6.848-16.941,5.226-24.51-5.587-8.831-6.308-8.831,0-1.081,0-1.081" transform="translate(-1701.633 -1639.395)" fill="url(#linear-gradient-4)"/>
        <path id="Path_84575" data-name="Path 84575" d="M1899.853,1990.9a5.22,5.22,0,0,1,1.9-1.595,14.239,14.239,0,0,1-.374,1.544c-.9,2.956-1.956,7.072-2.835,10.677l-.393-2.271c-.045-.259-.08-.541-.1-.839a69.889,69.889,0,0,0,1.809-7.517" transform="translate(-1759.525 -1844.124)" fill="#61ba76"/>
        <path id="Path_84576" data-name="Path 84576" d="M1902.493,1882.821c13.7-5.767,6.48-13.681,18.556-8.454a2.1,2.1,0,1,1-.9,2.883c-3.6-.541-2.343,2.343,3.6,3.064a13.344,13.344,0,0,1,2.787.588c2.833,5.442,4.11,12.6-1.886,15.091a13.568,13.568,0,0,1-4.267.876c-1.85-1.47.452-9.98-2.4-8.805-2.739,1.128.858,7.295.365,8.848a39.492,39.492,0,0,1-8.556-1.2,4.258,4.258,0,0,1-2.262-2.6c-.9-3.785,5.046-6.127,5.226-9.372.166-2.982-2.18,6.561-8.394,7.966-5.619-2.625-8.274-6.187-1.872-8.882" transform="translate(-1760.194 -1735.993)" fill="url(#linear-gradient-5)"/>
        <path id="Path_84577" data-name="Path 84577" d="M1536.825,1706.218c1.442-3.064-2.343-3.785-2.163-1.442.16,2.076.178,7.122-1.952,8.5a33.408,33.408,0,0,1-12.445-4.133,1.527,1.527,0,0,1,.159-.939c1.622-3.244,12.075-5.947,8.831-7.029-2.584-.861-7.111,4.222-10.759,6.782-2.191-1.662-3.659-3.644-3.659-5.856,0-2.994,3.638-6.383,8.342-8,2.118.213,4.084,1.371,7.156,3.112,4.538,2.572,3.489-1.586-.8-4.054a12.925,12.925,0,0,1,10.121,5.556s-.258,1.616,1.453,4.116c4.666,6.82-.719,10.8-7.156,10.543a42.3,42.3,0,0,1,2.872-7.15" transform="translate(-1404.286 -1569.587)" fill="url(#linear-gradient-5)"/>
        <path id="Path_84578" data-name="Path 84578" d="M2040.755,1915.973c3.525,2.724,7.44,5.908,12.246,8.07s3.845,9.212,3.845,9.212.721-6.088-3.284-8.17-6.649-4.566-9.693-5.047a44.173,44.173,0,0,1-4.726-.961s.961-1.923.4-2.644,1.212-.461,1.212-.461" transform="translate(-1890.326 -1776.104)" fill="url(#linear-gradient-4)"/>
        <path id="Path_84579" data-name="Path 84579" d="M1970.624,1478.342c-12.9,3.444-22.349,11.695-24.111,13.7s-1.762,2.563-1.762,2.563l1.362,2.563.641-.32s-1.041-2.163,1.682-4.966a49.29,49.29,0,0,1,14.338-10.333c3.925-1.682,7.85-3.2,7.85-3.2" transform="translate(-1802.823 -1370.453)" fill="url(#linear-gradient-4)"/>
        <path id="Path_84580" data-name="Path 84580" d="M1742.213,2215.3v7.985a8.808,8.808,0,0,1-17.57.9c-.028-.3-.044-.593-.044-.9V2215.3a.873.873,0,0,1,.87-.875h15.869a.812.812,0,0,1,.443.128.85.85,0,0,1,.432.748" transform="translate(-1598.737 -2052.813)" fill="url(#linear-gradient-12)"/>
        <path id="Path_84581" data-name="Path 84581" d="M1742.777,2216.915v7.985a8.808,8.808,0,0,1-17.571.9,8.844,8.844,0,0,0,4.588,1.053,12.487,12.487,0,0,0,7.248-2.976,16.894,16.894,0,0,0,5.3-7.707.85.85,0,0,1,.432.748" transform="translate(-1599.301 -2054.431)" fill="url(#linear-gradient-13)"/>
      </g>
    </g>
  </g>
</svg>
