<?xml version="1.0" encoding="utf-8"?>
<!-- Generator: Adobe Illustrator 26.4.0, SVG Export Plug-In . SVG Version: 6.00 Build 0)  -->
<svg version="1.1" id="Layer_1" xmlns="http://www.w3.org/2000/svg" xmlns:xlink="http://www.w3.org/1999/xlink" x="0px" y="0px"
	 width="20px" height="20.1px" viewBox="0 0 20 20.1" style="enable-background:new 0 0 20 20.1;" xml:space="preserve">
<style type="text/css">
	.st0{fill:#6B7F86;}
</style>
<g>
	<path class="st0" d="M19.3,8.2l-2.5-0.3c-0.1,0-0.2-0.1-0.2-0.1c-0.1-0.3-0.2-0.5-0.3-0.8c0-0.1,0-0.2,0-0.3l1.6-1.9
		c0.3-0.3,0.2-0.8-0.1-1.1l-1.5-1.5c-0.3-0.3-0.7-0.3-1.1-0.1l-1.9,1.6c-0.1,0.1-0.2,0.1-0.3,0c-0.3-0.1-0.5-0.3-0.8-0.3
		c-0.1,0-0.1-0.1-0.1-0.2l-0.3-2.5C11.8,0.3,11.4,0,11,0H8.9C8.5,0.1,8.2,0.4,8.1,0.8L7.9,3.3c0,0.1-0.1,0.2-0.1,0.2
		C7.5,3.6,7.2,3.7,6.9,3.8c-0.1,0-0.2,0-0.3,0L4.7,2.2C4.4,2,4,2,3.7,2.3L2.2,3.8c-0.3,0.3-0.3,0.7-0.1,1l1.6,1.9
		c0.1,0.1,0.1,0.2,0,0.3C3.6,7.3,3.5,7.6,3.4,7.8c0,0.1-0.1,0.1-0.2,0.1L0.7,8.2C0.3,8.3,0,8.6,0,9v2.1c0,0.4,0.3,0.7,0.7,0.8
		l2.5,0.3c0.1,0,0.2,0.1,0.2,0.1c0.1,0.3,0.2,0.5,0.3,0.8c0,0.1,0,0.2,0,0.3l-1.6,1.9c-0.3,0.3-0.2,0.8,0.1,1.1l1.5,1.5
		C4,18.2,4.4,18.2,4.8,18l1.9-1.6c0.1-0.1,0.2-0.1,0.3,0c0.3,0.1,0.5,0.3,0.8,0.3c0.1,0,0.1,0.1,0.1,0.2l0.3,2.5
		c0,0.4,0.4,0.7,0.8,0.7h2.1c0.4,0,0.7-0.3,0.8-0.7l0.2-2.5c0-0.1,0.1-0.2,0.1-0.2c0.3-0.1,0.5-0.2,0.8-0.3c0.1,0,0.2,0,0.3,0
		l1.9,1.6c0.3,0.3,0.8,0.2,1.1-0.1l1.5-1.5c0.3-0.3,0.3-0.7,0.1-1.1l-1.6-1.9c-0.1-0.1-0.1-0.2,0-0.3c0.1-0.3,0.3-0.5,0.3-0.8
		c0-0.1,0.1-0.1,0.2-0.1l2.5-0.3c0.4,0,0.7-0.4,0.7-0.8V9C20,8.6,19.7,8.3,19.3,8.2z M10.9,13.8c0,0.2-0.2,0.4-0.4,0.4h-1
		c-0.2,0-0.4-0.2-0.4-0.4v-1c0-0.2,0.2-0.4,0.4-0.4h1c0.2,0,0.4,0.2,0.4,0.4V13.8z M11.7,6.8c-0.2,1.2-0.8,5.3-1.7,5.3
		S8.5,8,8.3,6.8c0,0,0,0,0,0c0,0,0,0,0-0.1c0-0.4,0.9-0.6,1.7-0.6s1.7,0.2,1.7,0.6C11.7,6.7,11.7,6.7,11.7,6.8
		C11.7,6.8,11.7,6.8,11.7,6.8z"/>
</g>
</svg>
