<svg xmlns="http://www.w3.org/2000/svg" xmlns:xlink="http://www.w3.org/1999/xlink" width="22" height="13.712" viewBox="0 0 22 13.712">
  <defs>
    <clipPath id="clip-path">
      <rect id="Rectangle_15" data-name="Rectangle 15" width="22" height="13.712" fill="#5c8a38"/>
    </clipPath>
  </defs>
  <g id="partner" transform="translate(59.972 8.5)">
    <g id="briefcase" transform="translate(-59.972 -8.5)">
      <g id="Group_105" data-name="Group 105" transform="translate(0 0)">
        <g id="Group_104" data-name="Group 104" transform="translate(0 0)" clip-path="url(#clip-path)">
          <path id="Path_79" data-name="Path 79" d="M10.027,11.341l-.855,1.215h0l-.1.141a.563.563,0,0,1-.529.27.719.719,0,0,1-.558-.393.557.557,0,0,1,.057-.563v0l1.312-1.865h0a.563.563,0,0,1,.524-.263.719.719,0,0,1,.558.393.566.566,0,0,1-.075.589ZM8.943,9.671a.566.566,0,0,0,.075-.589.718.718,0,0,0-.558-.393.565.565,0,0,0-.529.27l-.339.481H7.546v.066L6.64,10.795l-.274.389a.566.566,0,0,0-.075.587.711.711,0,0,0,.56.394.566.566,0,0,0,.527-.269l.183-.261L8.852,9.8ZM5.636,1.092,3.858.065A.489.489,0,0,0,3.615,0a.5.5,0,0,0-.129.017.489.489,0,0,0-.3.229l-3.12,5.4a.494.494,0,0,0,.181.673L2.024,7.348a.5.5,0,0,0,.673-.18l3.12-5.4A.493.493,0,0,0,5.636,1.092ZM7.082,9.143V9.1a.557.557,0,0,0,.057-.563.718.718,0,0,0-.558-.392.565.565,0,0,0-.529.27L5.128,9.732a.566.566,0,0,0-.075.589.719.719,0,0,0,.557.393.562.562,0,0,0,.524-.262h0l.911-1.295ZM21.934,5.649l-3.12-5.4a.49.49,0,0,0-.3-.229A.5.5,0,0,0,18.386,0a.487.487,0,0,0-.244.065L16.364,1.092a.495.495,0,0,0-.18.673l3.119,5.4a.5.5,0,0,0,.673.18l1.778-1.026A.494.494,0,0,0,21.934,5.649ZM10.514,11.732l-.022.011-.8,1.14,0,.024a.638.638,0,0,0,.39.621.564.564,0,0,0,.744-.21l.463-.658a.563.563,0,0,0-.054-.77A.637.637,0,0,0,10.514,11.732Zm5.252-9.324a7.566,7.566,0,0,1-2.3.278A9.569,9.569,0,0,1,11.7,2.452a2.759,2.759,0,0,0-1.328-.043,2.447,2.447,0,0,0-.879.5c-.172.141-.337.293-.5.446-.2.194-.4.391-.6.589q-.234.23-.468.46l-.027.026-.1,2.12c0,.1,0,.262.094.32a.459.459,0,0,0,.3.022,1.705,1.705,0,0,0,.486-.184c.327-.177.6-.8.752-1.127.074-.157.147-.316.229-.469a.305.305,0,0,1,.142-.134l.219-.1a4.349,4.349,0,0,1,1.155-.421,1.576,1.576,0,0,1,1.074.2l4.827,2.795,1.3-.666L15.838,2.388Zm1.142,5.649L11.937,5.18a.975.975,0,0,0-.352-.124,1.346,1.346,0,0,0-.606.074,6,6,0,0,0-.7.3l-.1.047-.03.014-.015.03c-.053.106-.1.214-.154.322A2.975,2.975,0,0,1,8.961,7.248a1.456,1.456,0,0,1-1.4.141.766.766,0,0,1-.254-.266,1.09,1.09,0,0,1-.125-.6l.106-2.24a.3.3,0,0,1,.092-.205q.291-.282.579-.567L8.2,3.274l.11-.108L6.157,2.4,3.57,6.878l1.5,1.874.482-.684a1.158,1.158,0,0,1,1.243-.5,1.311,1.311,0,0,1,.229.076,1.345,1.345,0,0,1,.236.133,1.322,1.322,0,0,1,.4.442l.05.09.087-.056a1.205,1.205,0,0,1,1.345.064,1.256,1.256,0,0,1,.536.869l.01.089.09,0a1.288,1.288,0,0,1,.784.24A1.184,1.184,0,0,1,11,10.976l-.046.1.11.029a1.319,1.319,0,0,1,.6.352,1.155,1.155,0,0,1,.208,1.4l-.044.082,1.146.667a.565.565,0,0,0,.593.025.719.719,0,0,0,.343-.589.565.565,0,0,0-.313-.5l-.023-.013h0l-1.316-.766a.306.306,0,0,1,.307-.528l1.336.778.006,0,.416.242a.566.566,0,0,0,.594.025.718.718,0,0,0,.343-.589.561.561,0,0,0-.3-.5h0l-1.651-.961a.305.305,0,0,1,.307-.528l1.664.968h0l.5.293a.567.567,0,0,0,.591.025.712.712,0,0,0,.345-.592.566.566,0,0,0-.313-.5l-.425-.248-1.624-.946a.306.306,0,1,1,.307-.528l1.624.946a.564.564,0,0,0,.593.024.721.721,0,0,0,.343-.59A.564.564,0,0,0,16.907,8.057Z" transform="translate(0 0)" fill="#5c8a38"/>
        </g>
      </g>
    </g>
  </g>
</svg>
