<svg xmlns="http://www.w3.org/2000/svg" xmlns:xlink="http://www.w3.org/1999/xlink" width="192.378" height="184.759" viewBox="0 0 192.378 184.759">
  <defs>
    <clipPath id="clip-path">
      <path id="Path_82622" data-name="Path 82622" d="M-2,0H190.378V184.759H-2Z" transform="translate(2)" fill="none"/>
    </clipPath>
    <clipPath id="clip-path-2">
      <path id="Path_82519" data-name="Path 82519" d="M76.373,0C53.631.046,32.486,26.806,32.527,52,32.58,84.861.018,75.682,0,115.428v.071c0,2.288.11,4.739.339,7.367,2.913,33.474,36.988,37.738,56.251,29.8,19.349-7.976,24.029,1.747,31.863,11.47,5.8,7.2,13.329,14.4,29.83,14.412h.084a77.721,77.721,0,0,0,14.67-1.563c48.15-9.337,25.743-58.209,47.445-84.073,6.046-7.2,8.569-14.828,8.608-22v-.331c-.1-18.428-16.56-33.792-31.69-31.315-21.1,3.454-26.335,7.359-55.495-26.206C93.913,3.859,85.088.016,76.487,0Z" fill="none"/>
    </clipPath>
    <linearGradient id="linear-gradient" x1="0.09" y1="0.899" x2="0.091" y2="0.899" gradientUnits="objectBoundingBox">
      <stop offset="0" stop-color="#eff5ff"/>
      <stop offset="0.002" stop-color="#eff5ff"/>
      <stop offset="1" stop-color="#e8f0fc"/>
    </linearGradient>
    <clipPath id="clip-path-3">
      <rect id="Rectangle_22330" data-name="Rectangle 22330" width="189.089" height="178.546" fill="none"/>
    </clipPath>
    <linearGradient id="linear-gradient-2" x1="0.5" x2="0.5" y2="1" gradientUnits="objectBoundingBox">
      <stop offset="0" stop-color="#d4d9f9"/>
      <stop offset="1" stop-color="#a7b1ee"/>
    </linearGradient>
    <linearGradient id="linear-gradient-3" x1="0.5" x2="0.5" y2="1" gradientUnits="objectBoundingBox">
      <stop offset="0" stop-color="#e3ebfb"/>
      <stop offset="1" stop-color="#c8d8f6"/>
    </linearGradient>
    <linearGradient id="linear-gradient-4" x1="0.5" x2="0.5" y2="1" gradientUnits="objectBoundingBox">
      <stop offset="0" stop-color="#b4bce9"/>
      <stop offset="1" stop-color="#939ede"/>
    </linearGradient>
    <linearGradient id="linear-gradient-5" x1="0.5" x2="0.5" y2="1" gradientUnits="objectBoundingBox">
      <stop offset="0" stop-color="#4a59b1"/>
      <stop offset="1" stop-color="#7790d4"/>
    </linearGradient>
    <clipPath id="clip-path-4">
      <rect id="Rectangle_22329" data-name="Rectangle 22329" width="12.524" height="5.619" fill="none"/>
    </clipPath>
    <linearGradient id="linear-gradient-6" x1="0.5" x2="0.5" y2="1" gradientUnits="objectBoundingBox">
      <stop offset="0" stop-color="#1a276b"/>
      <stop offset="1" stop-color="#8abb2a"/>
    </linearGradient>
    <clipPath id="clip-path-5">
      <path id="Path_82568" data-name="Path 82568" d="M1451.539,36.905a14.688,14.688,0,1,0,14.687-14.688,14.687,14.687,0,0,0-14.687,14.688" transform="translate(-1451.539 -22.217)" fill="none"/>
    </clipPath>
    <clipPath id="clip-path-6">
      <rect id="Rectangle_22331" data-name="Rectangle 22331" width="0.768" height="1.4" fill="none"/>
    </clipPath>
    <clipPath id="clip-path-8">
      <rect id="Rectangle_22334" data-name="Rectangle 22334" width="3.064" height="1.991" fill="none"/>
    </clipPath>
    <clipPath id="clip-path-10">
      <path id="Path_82593" data-name="Path 82593" d="M1830.935,1943.761a12.57,12.57,0,1,0,12.57-12.57,12.57,12.57,0,0,0-12.57,12.57" transform="translate(-1830.935 -1931.191)" fill="none"/>
    </clipPath>
    <clipPath id="clip-path-11">
      <rect id="Rectangle_22338" data-name="Rectangle 22338" width="2.708" height="2.234" fill="none"/>
    </clipPath>
    <clipPath id="clip-path-12">
      <rect id="Rectangle_22339" data-name="Rectangle 22339" width="0.679" height="1.238" fill="none"/>
    </clipPath>
    <clipPath id="clip-path-15">
      <path id="Path_82621" data-name="Path 82621" d="M31.7,1438.4a14.983,14.983,0,1,0,14.984-14.984A14.984,14.984,0,0,0,31.7,1438.4" transform="translate(-31.696 -1423.419)" fill="none"/>
    </clipPath>
    <clipPath id="clip-path-16">
      <rect id="Rectangle_22344" data-name="Rectangle 22344" width="3.228" height="2.662" fill="none"/>
    </clipPath>
    <clipPath id="clip-path-17">
      <rect id="Rectangle_22345" data-name="Rectangle 22345" width="0.809" height="1.475" fill="none"/>
    </clipPath>
    <clipPath id="clip-path-19">
      <rect id="Rectangle_22347" data-name="Rectangle 22347" width="0.883" height="0.901" fill="none"/>
    </clipPath>
  </defs>
  <g id="Group_67229" data-name="Group 67229" transform="translate(2 3.667)">
    <g id="Mask_Group_7" data-name="Mask Group 7" transform="translate(-2 -3.667)" clip-path="url(#clip-path)">
      <g id="Group_67230" data-name="Group 67230" transform="translate(2.193 4.02)">
        <g id="Group_67229-2" data-name="Group 67229" clip-path="url(#clip-path-2)">
          <rect id="Rectangle_22328" data-name="Rectangle 22328" width="230.807" height="223.554" transform="matrix(0.962, -0.274, 0.274, 0.962, -47.087, 13.427)" fill="url(#linear-gradient)"/>
        </g>
      </g>
      <g id="Group_67235" data-name="Group 67235" transform="translate(2.193 4.02)">
        <g id="Group_67234" data-name="Group 67234" clip-path="url(#clip-path-3)">
          <path id="Path_82520" data-name="Path 82520" d="M335.021,487.19H191.82a8.5,8.5,0,0,1-8.5-8.5V361.857a8.5,8.5,0,0,1,8.5-8.5h143.2a8.5,8.5,0,0,1,8.5,8.5V478.691a8.5,8.5,0,0,1-8.5,8.5" transform="translate(-169.127 -325.999)" fill="#e4ecf9"/>
          <path id="Path_82521" data-name="Path 82521" d="M218.052,511.77v-118.9a4.776,4.776,0,0,1,4.776-4.776H368.1a4.777,4.777,0,0,1,4.777,4.777v118.9a4.777,4.777,0,0,1-4.777,4.777H222.828a4.776,4.776,0,0,1-4.776-4.776" transform="translate(-201.169 -358.045)" fill="#fff"/>
          <path id="Path_82522" data-name="Path 82522" d="M372.873,401.8v-9.673a4.035,4.035,0,0,0-4.035-4.035H222.086a4.034,4.034,0,0,0-4.034,4.034V401.8Z" transform="translate(-201.169 -358.045)" fill="url(#linear-gradient-2)"/>
          <path id="Path_82523" data-name="Path 82523" d="M2102.68,453.557a2.222,2.222,0,1,1-2.226-2.226,2.227,2.227,0,0,1,2.226,2.226" transform="translate(-1935.779 -416.386)" fill="#fe7b73"/>
          <path id="Path_82524" data-name="Path 82524" d="M2018.056,453.557a2.222,2.222,0,1,1-2.226-2.226,2.226,2.226,0,0,1,2.226,2.226" transform="translate(-1857.707 -416.386)" fill="#ffd964"/>
          <path id="Path_82525" data-name="Path 82525" d="M1933.432,453.567a2.222,2.222,0,1,1-2.226-2.226,2.227,2.227,0,0,1,2.226,2.226" transform="translate(-1779.635 -416.396)" fill="#7cd194"/>
          <path id="Path_82526" data-name="Path 82526" d="M565.22,704.994v8.143A3.025,3.025,0,0,0,567.268,716l4.378,1.494a3.058,3.058,0,0,1,1.941,2.105,37.551,37.551,0,0,0,3.432,8.328,3.056,3.056,0,0,1,.108,2.846l-2.033,4.148a3.025,3.025,0,0,0,.577,3.47l5.758,5.758a3.025,3.025,0,0,0,3.47.577l4.153-2.036a3.054,3.054,0,0,1,2.838.1,38.107,38.107,0,0,0,8.332,3.439,3.058,3.058,0,0,1,2.1,1.94l1.495,4.379a3.024,3.024,0,0,0,2.862,2.048h8.127a3.025,3.025,0,0,0,2.86-2.041l1.511-4.392a3.059,3.059,0,0,1,2.1-1.933,37.435,37.435,0,0,0,8.308-3.449,3.055,3.055,0,0,1,2.856-.106l4.141,2.041a3.025,3.025,0,0,0,3.476-.574l5.757-5.756a3.025,3.025,0,0,0,.579-3.467l-2.038-4.17a3.055,3.055,0,0,1,.11-2.845,38.31,38.31,0,0,0,3.468-8.324,3.057,3.057,0,0,1,1.934-2.087l4.372-1.5a3.025,3.025,0,0,0,2.045-2.862v-8.144a3.025,3.025,0,0,0-2.048-2.863l-4.388-1.5a3.056,3.056,0,0,1-1.937-2.09,38.268,38.268,0,0,0-3.447-8.319,3.056,3.056,0,0,1-.108-2.847l2.033-4.148a3.024,3.024,0,0,0-.577-3.47L640.06,674a3.024,3.024,0,0,0-3.47-.577l-4.14,2.029a3.057,3.057,0,0,1-2.858-.115,37.467,37.467,0,0,0-8.319-3.461,3.058,3.058,0,0,1-2.09-1.929l-1.511-4.382a3.025,3.025,0,0,0-2.86-2.038h-8.131a3.024,3.024,0,0,0-2.862,2.045l-1.5,4.369a3.057,3.057,0,0,1-2.093,1.936,38.134,38.134,0,0,0-8.343,3.451,3.056,3.056,0,0,1-2.84.111l-4.152-2.023a3.025,3.025,0,0,0-3.464.58l-5.758,5.758a3.025,3.025,0,0,0-.574,3.476l2.039,4.136a3.058,3.058,0,0,1-.111,2.863,37.165,37.165,0,0,0-3.44,8.3,3.058,3.058,0,0,1-1.94,2.1l-4.38,1.5a3.025,3.025,0,0,0-2.048,2.863" transform="translate(-521.457 -612.156)" fill="url(#linear-gradient-3)"/>
          <path id="Path_82527" data-name="Path 82527" d="M727.012,858.492a33,33,0,1,0,33-33,33,33,0,0,0-33,33" transform="translate(-670.723 -761.576)" fill="url(#linear-gradient-4)"/>
          <path id="Path_82528" data-name="Path 82528" d="M749.525,879.081A31.274,31.274,0,1,0,780.8,847.807a31.274,31.274,0,0,0-31.274,31.274" transform="translate(-691.493 -782.165)" fill="#fff"/>
          <path id="Path_82529" data-name="Path 82529" d="M812.072,879.081A31.274,31.274,0,1,1,780.8,847.807a31.206,31.206,0,0,1,31.274,31.274" transform="translate(-691.492 -782.165)" fill="#fff"/>
          <path id="Path_82530" data-name="Path 82530" d="M925.34,1453.288a31.278,31.278,0,0,1-42.269.362c4.881-5.009,12.609-8.237,21.316-8.237,8.491,0,16.063,3.072,20.954,7.875" transform="translate(-814.699 -1333.501)" fill="url(#linear-gradient-5)"/>
          <path id="Path_82531" data-name="Path 82531" d="M1063.427,1361.011c-7.414-.384-7.87-4.655-7.87-4.655a13.7,13.7,0,0,0,1.008-7.2c-.072-.528-.144-.96-.192-1.272a9.951,9.951,0,0,0,11.013,4.294,4.892,4.892,0,0,0,1.368-.528c.048.312.1.624.144.888.648,3.071,2.375,3.79,2.375,3.79s1.272,5.135-7.846,4.679" transform="translate(-973.83 -1243.526)" fill="#fec9ac"/>
          <g id="Group_67233" data-name="Group 67233" transform="translate(82.543 104.361)" opacity="0.5">
            <g id="Group_67232" data-name="Group 67232">
              <g id="Group_67231" data-name="Group 67231" clip-path="url(#clip-path-4)">
                <path id="Path_82532" data-name="Path 82532" d="M1078.616,1352.541a.511.511,0,0,1-.144.1,4.325,4.325,0,0,1-1.368.552,9.922,9.922,0,0,1-10.821-4.031c-.072-.528-.144-.96-.192-1.272a9.951,9.951,0,0,0,11.013,4.294,4.892,4.892,0,0,0,1.368-.528c.048.312.1.624.144.888" transform="translate(-1066.092 -1347.887)" fill="#ffab90"/>
              </g>
            </g>
          </g>
          <path id="Path_82533" data-name="Path 82533" d="M1014.031,1140.655a4.933,4.933,0,0,1-1.37.538,9.943,9.943,0,0,1-11.015-4.3,9.147,9.147,0,0,1-.812-1.428s-5.576-1.81-4.451-5.752a2.822,2.822,0,0,1,.694-1.291c1.585-1.624,4.617,1.027,4.617,1.027s3.13-10.222,3.248-10.261c.059-.02,2.534.254,5.312.557,3.629.4,7.777.871,7.777.871s.049.362.108,1c.362,3.619,1.184,16.023-4.109,19.046" transform="translate(-919.1 -1032.529)" fill="#fec9ac"/>
          <path id="Path_82534" data-name="Path 82534" d="M997.632,980.776a6.1,6.1,0,0,1-3.355-.5s-3.228-.235-4.627.587a1.057,1.057,0,0,0-.108.078s-.636-1.487.186-2.025c-.342.186-4.911,2.69-6.28,6.055-1.428,3.492-1.252,4.6-1.771,4.324a.777.777,0,0,1-.489-.685s-3.032-2.651-4.617-1.027c0,0-4.109-6.672-1.927-11.533s6.29-10.614,13.715-9.342,6.955,4.891,10.35,6.5c2.729,1.281,2.651,6.887-1.076,7.571" transform="translate(-898.592 -891.696)" fill="#070a1d"/>
          <path id="Path_82535" data-name="Path 82535" d="M1135.182,1321.643c.088-.043.266.316.815.83a3.109,3.109,0,0,0,1.661.864c.735.154,1.132.094,1.147.192.02.065-.372.287-1.215.191a3.5,3.5,0,0,1-1.868-.971c-.563-.635-.607-1.084-.54-1.106" transform="translate(-1047.268 -1219.311)" fill="#4f2d2b"/>
          <path id="Path_82536" data-name="Path 82536" d="M1177.653,1258.142c.014-.042.157-.023.43,0a2.258,2.258,0,0,0,1.133-.162c.325-.168.295-.661.247-1.134s-.106-.948-.191-1.417c-.174-1.111-.292-1.663-.2-1.689s.337.492.587,1.62c.087.481.153.966.2,1.453a3.747,3.747,0,0,1,.016.765.955.955,0,0,1-.455.739,1.961,1.961,0,0,1-1.371.054c-.284-.089-.4-.185-.388-.224" transform="translate(-1086.471 -1156.664)" fill="#4f2d2b"/>
          <path id="Path_82537" data-name="Path 82537" d="M1114.108,1202.187c-.053-.049.107-.357.682-.646a4.179,4.179,0,0,1,1.555-.3c.619.029.9.156.9.234s-.311.112-.888.154a3.792,3.792,0,0,0-1.411.274c-.529.189-.77.36-.834.288" transform="translate(-1027.838 -1108.229)" fill="#4f2d2b"/>
          <path id="Path_82538" data-name="Path 82538" d="M1215.1,1180.781c-.019.087-.343.061-.951.007a2.438,2.438,0,0,0-1.454.186c-.515.248-.71.509-.789.45-.062-.028.011-.412.608-.794a2.817,2.817,0,0,1,1.684-.227c.644.131.919.3.9.378" transform="translate(-1118.058 -1088.976)" fill="#4f2d2b"/>
          <path id="Path_82539" data-name="Path 82539" d="M1224.91,1226.876c0,.6-.319,1.082-.711,1.082s-.721-.484-.721-1.082.319-1.082.721-1.082.711.485.711,1.082" transform="translate(-1128.749 -1130.886)" fill="#4f2d2b"/>
          <path id="Path_82540" data-name="Path 82540" d="M1138,1232.079c0,.6-.319,1.082-.711,1.082s-.722-.484-.722-1.082.319-1.082.722-1.082.711.485.711,1.082" transform="translate(-1048.567 -1135.686)" fill="#4f2d2b"/>
          <path id="Path_82541" data-name="Path 82541" d="M1042.465,1523.506c.057-.07.406.137,1.1.525a15.639,15.639,0,0,0,3.271,1.378,12.134,12.134,0,0,0,7.857-.2,15.709,15.709,0,0,0,3.195-1.541c.674-.422,1.013-.646,1.075-.577s-.181.4-.8.95a11.013,11.013,0,0,1-3.2,1.9,12.914,12.914,0,0,1-8.355.213,11,11,0,0,1-3.3-1.735c-.646-.517-.9-.85-.845-.911" transform="translate(-961.745 -1405.153)" fill="#fff"/>
          <g id="Group_67279" data-name="Group 67279" transform="translate(97.51 101.629)">
            <path id="Path_82542" data-name="Path 82542" d="M1331.865,1318.9a23.687,23.687,0,1,1-23.687-23.687,23.687,23.687,0,0,1,23.687,23.687" transform="translate(-1284.491 -1295.216)" fill="#fff"/>
            <path id="Path_82543" data-name="Path 82543" d="M1370.533,1361.269a19.988,19.988,0,1,1-19.988-19.988,19.988,19.988,0,0,1,19.988,19.988" transform="translate(-1326.858 -1337.582)" fill="url(#linear-gradient-6)"/>
            <path id="Path_82544" data-name="Path 82544" d="M1426.163,1456.895l-13.693,13.693-6.811-6.812-3.476,3.476,10.287,10.287.07-.07,3.406-3.406,13.693-13.693Z" transform="translate(-1392.224 -1443.531)" fill="#fff"/>
          </g>
          <path id="Path_82545" data-name="Path 82545" d="M1475.174,34.035a11.818,11.818,0,1,1-11.818-11.818,11.817,11.817,0,0,1,11.818,11.818" transform="translate(-1339.153 -20.497)" fill="#fff"/>
        </g>
      </g>
      <g id="Group_67246" data-name="Group 67246" transform="translate(114.579 0)">
        <g id="Group_67245" data-name="Group 67245" clip-path="url(#clip-path-5)">
          <path id="Path_82546" data-name="Path 82546" d="M1512.429,273.786h-3.064s-7.9,1.076-8.31,4.477v.69h19.683v-.69c-.408-3.4-8.31-4.477-8.31-4.477" transform="translate(-1496.291 -249.578)" fill="#f9c8a9"/>
          <path id="Path_82547" data-name="Path 82547" d="M1663.325,178.9c-.132.7.118,1.34.56,1.422s.907-.419,1.039-1.121-.119-1.338-.561-1.422-.906.419-1.038,1.121" transform="translate(-1642.913 -162.8)" fill="#f9c8a9"/>
          <g id="Group_67238" data-name="Group 67238" transform="translate(21.012 15.634)" style="mix-blend-mode: multiply;isolation: isolate">
            <g id="Group_67237" data-name="Group 67237">
              <g id="Group_67236" data-name="Group 67236" clip-path="url(#clip-path-6)">
                <path id="Path_82548" data-name="Path 82548" d="M1670.089,184.71a.763.763,0,0,0,.081.033.185.185,0,0,1,.084.042c.024.025.052.034.071.071a.257.257,0,0,1,.052.1c.02.033.013.086.026.128a1.168,1.168,0,0,1-.03.307,1.414,1.414,0,0,1-.1.3.824.824,0,0,1-.14.227.465.465,0,0,1-.081.059c-.027,0-.058.025-.08.016-.048-.006-.085-.009-.085-.009a.5.5,0,0,0,.07.059c.023.023.063.021.108.033a.332.332,0,0,0,.151-.027.652.652,0,0,0,.265-.241,1.047,1.047,0,0,0,.152-.365,1.017,1.017,0,0,0,.021-.2.886.886,0,0,0-.022-.2.557.557,0,0,0-.082-.182c-.02-.026-.038-.052-.058-.075l-.074-.051a.307.307,0,0,0-.146-.048.24.24,0,0,0-.1,0,.826.826,0,0,0-.086.019" transform="translate(-1669.893 -184.683)" fill="#d9d9d9"/>
              </g>
            </g>
          </g>
          <path id="Path_82549" data-name="Path 82549" d="M1529.885,178.9c.132.7-.119,1.34-.561,1.422s-.907-.419-1.039-1.121.119-1.338.561-1.422.906.419,1.038,1.121" transform="translate(-1520.869 -162.8)" fill="#f9c8a9"/>
          <g id="Group_67241" data-name="Group 67241" transform="translate(7.648 15.634)" style="mix-blend-mode: multiply;isolation: isolate">
            <g id="Group_67240" data-name="Group 67240">
              <g id="Group_67239" data-name="Group 67239" clip-path="url(#clip-path-6)">
                <path id="Path_82550" data-name="Path 82550" d="M1531.591,184.71a.745.745,0,0,1-.081.033.185.185,0,0,0-.084.042c-.024.025-.052.034-.071.071a.262.262,0,0,0-.052.1c-.02.033-.013.086-.026.128a1.179,1.179,0,0,0,.03.307,1.381,1.381,0,0,0,.095.3.818.818,0,0,0,.14.227.462.462,0,0,0,.08.059c.027,0,.058.025.081.016.047-.006.084-.009.084-.009a.475.475,0,0,1-.069.059c-.023.023-.063.021-.109.033a.33.33,0,0,1-.15-.027.657.657,0,0,1-.266-.241,1.073,1.073,0,0,1-.152-.365,1.044,1.044,0,0,1-.021-.2.914.914,0,0,1,.022-.2.546.546,0,0,1,.083-.182c.019-.026.037-.052.057-.075l.075-.051a.3.3,0,0,1,.145-.048.24.24,0,0,1,.1,0,.8.8,0,0,1,.086.019" transform="translate(-1531.019 -184.683)" fill="#d9d9d9"/>
              </g>
            </g>
          </g>
          <rect id="Rectangle_22333" data-name="Rectangle 22333" width="3.064" height="2.592" transform="translate(13.075 22.188)" fill="#f9c8a9"/>
          <g id="Group_67244" data-name="Group 67244" transform="translate(13.075 22.188)" style="mix-blend-mode: multiply;isolation: isolate">
            <g id="Group_67243" data-name="Group 67243">
              <g id="Group_67242" data-name="Group 67242" clip-path="url(#clip-path-8)">
                <path id="Path_82551" data-name="Path 82551" d="M1590.475,253.058v-.268h-3.064v1.991a3.47,3.47,0,0,1,3.064-1.724" transform="translate(-1587.411 -252.79)" fill="#d9d9d9"/>
              </g>
            </g>
          </g>
          <path id="Path_82552" data-name="Path 82552" d="M1548.829,91.123c0,4.586-2.781,8.3-6.578,8.3s-6.505-3.853-6.505-8.439c-.069-6.093,2.708-8.168,6.505-8.168s6.912,1.867,6.578,8.3" transform="translate(-1527.642 -76.988)" fill="#f9c8a9"/>
          <path id="Path_82553" data-name="Path 82553" d="M1512.858,274.482a2.142,2.142,0,0,1-3.915,0c-1.64.28-7.535,1.484-7.886,4.41v.69h19.684v-.69c-.351-2.924-6.239-4.129-7.883-4.409" transform="translate(-1496.292 -250.206)" fill="url(#linear-gradient-5)"/>
          <path id="Path_82554" data-name="Path 82554" d="M1580.879,274.482a2.142,2.142,0,0,1-3.915,0c-.171.03-.39.07-.643.12a2.709,2.709,0,0,0,2.571,1.943h.029a2.709,2.709,0,0,0,2.573-1.948c-.241-.047-.451-.085-.615-.113" transform="translate(-1564.313 -250.206)" fill="#1a276b"/>
          <path id="Path_82555" data-name="Path 82555" d="M1555.728,147.635a1.55,1.55,0,0,1,2.416-.412" transform="translate(-1545.702 -134.823)" fill="none" stroke="#422918" stroke-linecap="round" stroke-width="0.908"/>
          <path id="Path_82556" data-name="Path 82556" d="M1628.246,147.635a1.549,1.549,0,0,0-2.415-.412" transform="translate(-1609.059 -134.823)" fill="none" stroke="#422918" stroke-linecap="round" stroke-width="0.908"/>
          <path id="Path_82557" data-name="Path 82557" d="M1595.981,198.75a.635.635,0,0,1,.086.086.868.868,0,0,1,.167.283.626.626,0,0,1,.043.235.541.541,0,0,1-.08.286,1.23,1.23,0,0,1-.105.126,1.531,1.531,0,0,1-.132.088,1.269,1.269,0,0,1-.282.093,2.214,2.214,0,0,1-.275.021c-.088,0-.174-.013-.257-.019a3.016,3.016,0,0,1-.433-.106,2.618,2.618,0,0,1-.4-.18,2.818,2.818,0,0,1,.428-.021c.126,0,.269-.008.421,0,.074,0,.15-.013.228-.011a2.148,2.148,0,0,0,.222-.027.971.971,0,0,0,.195-.052.43.43,0,0,1,.077-.039l.057-.049a.359.359,0,0,0,.072-.134.638.638,0,0,0,.02-.168,1.575,1.575,0,0,0-.031-.291c-.013-.073-.023-.117-.023-.117" transform="translate(-1580.577 -181.762)" fill="#d2ab91"/>
          <path id="Path_82558" data-name="Path 82558" d="M1584.615,224.344a2.046,2.046,0,0,0,3.7,0Z" transform="translate(-1571.809 -204.893)" fill="#fff"/>
          <path id="Path_82559" data-name="Path 82559" d="M1584.615,222.987l.173.232.191.21.213.184.232.155.247.124.259.088.267.051.27.011.278-.028.25-.064.247-.1.232-.134.213-.164.191-.19.168-.211.145-.229.127.213c-1.234-.009-2.468-.041-3.7-.144m0,0c1.234-.1,2.469-.135,3.7-.144h.006a.14.14,0,0,1,.12.213l-.159.259c-.061.081-.126.16-.191.239s-.146.142-.219.213-.163.123-.245.184-.179.1-.269.149l-.288.107-.31.063-.3.015-.3-.032-.294-.076-.277-.121c-.085-.053-.172-.1-.254-.159s-.154-.126-.227-.192-.134-.144-.2-.219l-.168-.24Z" transform="translate(-1571.809 -203.537)" fill="#e1b69a"/>
          <path id="Path_82560" data-name="Path 82560" d="M1564.795,164.059a.655.655,0,1,1-.648-.752.705.705,0,0,1,.648.752" transform="translate(-1552.725 -149.73)" fill="#422918"/>
          <path id="Path_82561" data-name="Path 82561" d="M1562.512,165.146a.3.3,0,1,1-.3-.3.3.3,0,0,1,.3.3" transform="translate(-1551.287 -151.119)" fill="#fff"/>
          <path id="Path_82562" data-name="Path 82562" d="M1565.332,171.19a.143.143,0,1,1-.143-.143.143.143,0,0,1,.143.143" transform="translate(-1554.123 -156.725)" fill="#fff"/>
          <path id="Path_82563" data-name="Path 82563" d="M1629.965,164.059a.655.655,0,1,0,.648-.752.706.706,0,0,0-.648.752" transform="translate(-1612.795 -149.73)" fill="#422918"/>
          <path id="Path_82564" data-name="Path 82564" d="M1638.75,165.146a.3.3,0,1,0,.3-.3.3.3,0,0,0-.3.3" transform="translate(-1620.735 -151.119)" fill="#fff"/>
          <path id="Path_82565" data-name="Path 82565" d="M1638.911,171.19a.143.143,0,1,0,.143-.143.143.143,0,0,0-.143.143" transform="translate(-1620.88 -156.725)" fill="#fff"/>
          <path id="Path_82566" data-name="Path 82566" d="M1584.747,58.77s1.174,1.036,2.4-.513a3.06,3.06,0,0,1-1.009,2.036,1.306,1.306,0,0,0,1.807-.026,2.108,2.108,0,0,1-.845,2.028,19.553,19.553,0,0,1-.578,5.68l-.33.842-.3.1-.164,1.169h-.315l.344-3.849s.315-4.556-3.842-4.7c0,0-1.858-.332-2.186,1.031,0,0-.062-1.407-2.542-1.031a2.724,2.724,0,0,1,.633-3.522s2.944-2.259,6.935.749" transform="translate(-1564.737 -53.84)" fill="#070a1d"/>
          <path id="Path_82567" data-name="Path 82567" d="M1529.819,56.439a8.46,8.46,0,0,1,7.957-1.361c1.842,1.65-.389,4.135-.389,4.135-1.749-.187-1.961,1.031-1.961,1.031-.022-1.477-2.767-1.031-2.767-1.031-3.453.164-3.571,4.7-3.571,4.7l.073,3.849h-.315l-.164-1.169-.3-.1s-2.055-7.374,1.44-10.048" transform="translate(-1520.442 -51.509)" fill="#070a1d"/>
        </g>
      </g>
      <g id="Group_67248" data-name="Group 67248" transform="translate(2.193 4.02)">
        <g id="Group_67247" data-name="Group 67247" clip-path="url(#clip-path-3)">
          <path id="Path_82569" data-name="Path 82569" d="M1856.075,1943.762a12.57,12.57,0,1,1-12.57-12.571,12.57,12.57,0,0,1,12.57,12.571" transform="translate(-1689.174 -1781.668)" fill="#fff"/>
        </g>
      </g>
      <g id="Group_67259" data-name="Group 67259" transform="translate(143.954 153.544)">
        <g id="Group_67258" data-name="Group 67258" clip-path="url(#clip-path-10)">
          <rect id="Rectangle_22336" data-name="Rectangle 22336" width="10.881" height="8.464" transform="translate(6.931 13.974)" fill="#121a4e"/>
          <rect id="Rectangle_22337" data-name="Rectangle 22337" width="2.708" height="2.292" transform="translate(11.174 18.63)" fill="#f9c8a9"/>
          <g id="Group_67251" data-name="Group 67251" transform="translate(11.174 18.63)" style="mix-blend-mode: multiply;isolation: isolate">
            <g id="Group_67250" data-name="Group 67250">
              <g id="Group_67249" data-name="Group 67249" clip-path="url(#clip-path-11)">
                <path id="Path_82570" data-name="Path 82570" d="M1977.385,2172.568a2.621,2.621,0,0,1,.571.062v-.825h-2.708v2.234a2.158,2.158,0,0,1,2.137-1.471" transform="translate(-1975.248 -2171.805)" fill="#d9d9d9"/>
              </g>
            </g>
          </g>
          <path id="Path_82571" data-name="Path 82571" d="M1914.138,2196.9h-2.321a5.391,5.391,0,0,0-5.533,4.567h13.388a5.392,5.392,0,0,0-5.534-4.567" transform="translate(-1900.45 -2176.323)" fill="#f9c8a9"/>
          <path id="Path_82572" data-name="Path 82572" d="M1931.959,2002.016c0,3.94-2.305,7.135-5.568,7.135s-5.568-3.195-5.568-7.135,2.305-7.136,5.568-7.136,5.568,3.195,5.568,7.136" transform="translate(-1913.863 -1989.949)" fill="#f9c8a9"/>
          <path id="Path_82573" data-name="Path 82573" d="M2055.157,2097.085c-.118.621.1,1.184.5,1.258s.8-.37.918-.991-.1-1.184-.5-1.257-.8.37-.917.991" transform="translate(-2037.767 -2083.319)" fill="#f9c8a9"/>
          <g id="Group_67254" data-name="Group 67254" transform="translate(17.92 13.355)" style="mix-blend-mode: multiply;isolation: isolate">
            <g id="Group_67253" data-name="Group 67253">
              <g id="Group_67252" data-name="Group 67252" clip-path="url(#clip-path-12)">
                <path id="Path_82574" data-name="Path 82574" d="M2062.553,2103.706s.027.012.072.029a.166.166,0,0,1,.075.037c.021.021.046.031.063.062a.219.219,0,0,1,.047.09c.017.028.011.076.023.112a1.027,1.027,0,0,1-.027.272,1.251,1.251,0,0,1-.084.269.735.735,0,0,1-.124.2.376.376,0,0,1-.071.052c-.024,0-.051.022-.071.015-.042-.006-.074-.008-.074-.008a.462.462,0,0,0,.061.052c.021.021.056.019.1.03a.279.279,0,0,0,.133-.024.583.583,0,0,0,.234-.213.909.909,0,0,0,.134-.324.858.858,0,0,0,.019-.179.779.779,0,0,0-.019-.177.486.486,0,0,0-.073-.162c-.017-.023-.033-.046-.051-.066l-.066-.045a.272.272,0,0,0-.129-.042.2.2,0,0,0-.091,0,.69.69,0,0,0-.077.017" transform="translate(-2062.381 -2103.681)" fill="#d9d9d9"/>
              </g>
            </g>
          </g>
          <path id="Path_82575" data-name="Path 82575" d="M1912.734,2097.085c.117.621-.1,1.184-.5,1.258s-.8-.37-.918-.991.105-1.184.5-1.257.8.37.918.991" transform="translate(-1905.067 -2083.319)" fill="#f9c8a9"/>
          <g id="Group_67257" data-name="Group 67257" transform="translate(6.457 13.355)" style="mix-blend-mode: multiply;isolation: isolate">
            <g id="Group_67256" data-name="Group 67256">
              <g id="Group_67255" data-name="Group 67255" clip-path="url(#clip-path-12)">
                <path id="Path_82576" data-name="Path 82576" d="M1914.838,2103.706s-.026.012-.072.029a.17.17,0,0,0-.075.037c-.021.021-.046.031-.062.062a.219.219,0,0,0-.047.09c-.017.028-.011.076-.023.112a1.036,1.036,0,0,0,.026.272,1.265,1.265,0,0,0,.084.269.729.729,0,0,0,.124.2.362.362,0,0,0,.072.052c.024,0,.051.022.071.015.042-.006.074-.008.074-.008a.468.468,0,0,1-.061.052c-.021.021-.056.019-.1.03a.279.279,0,0,1-.133-.024.584.584,0,0,1-.234-.213.919.919,0,0,1-.134-.324.857.857,0,0,1-.019-.179.766.766,0,0,1,.019-.177.488.488,0,0,1,.073-.162c.017-.023.032-.046.051-.066l.066-.045a.27.27,0,0,1,.128-.042.2.2,0,0,1,.091,0,.69.69,0,0,1,.077.017" transform="translate(-1914.331 -2103.681)" fill="#d9d9d9"/>
              </g>
            </g>
          </g>
          <path id="Path_82577" data-name="Path 82577" d="M2018.782,2066.98s-.224-1.453-2.135-.365" transform="translate(-2002.268 -2055.757)" fill="none" stroke="#8d4a15" stroke-linecap="round" stroke-width="0.908"/>
          <path id="Path_82578" data-name="Path 82578" d="M1943.41,2066.98s.224-1.453,2.135-.365" transform="translate(-1934.701 -2055.757)" fill="none" stroke="#8d4a15" stroke-linecap="round" stroke-width="0.908"/>
          <path id="Path_82579" data-name="Path 82579" d="M1981.61,2107.84a3.069,3.069,0,0,0,1.126-.088.553.553,0,0,0,.343-.305.639.639,0,0,0,.04-.23.835.835,0,0,0-.008-.123.771.771,0,0,0-.025-.115l0-.012,0-.019a2.665,2.665,0,0,1-.023-.459.248.248,0,1,1,.254-.028,2.751,2.751,0,0,1,.076.454l-.007-.031a1,1,0,0,1,.034.171,1.176,1.176,0,0,1,.007.169.835.835,0,0,1-.081.339.733.733,0,0,1-.228.274.9.9,0,0,1-.308.136,1.215,1.215,0,0,1-.313.037,1.825,1.825,0,0,1-.3-.022,2.893,2.893,0,0,1-.576-.149" transform="translate(-1969.944 -2092.481)" fill="#d2ab91"/>
          <path id="Path_82580" data-name="Path 82580" d="M1975.449,2143a1.408,1.408,0,0,0,2.678,0Z" transform="translate(-1964.26 -2126.604)" fill="#fff"/>
          <path id="Path_82581" data-name="Path 82581" d="M1975.449,2141.681a3.061,3.061,0,0,0,.255.351c.046.054.1.1.15.151s.112.086.165.131a1.449,1.449,0,0,0,.368.188c.065.02.133.03.2.046l.2.01.208-.024c.062-.021.123-.034.184-.057a1.528,1.528,0,0,0,.346-.2,1.983,1.983,0,0,0,.15-.136c.044-.052.094-.1.133-.156s.081-.11.117-.169l.1-.181.1.159c-.446,0-.892-.011-1.339-.031s-.892-.039-1.339-.079m0,0c.447-.04.893-.064,1.339-.079s.893-.029,1.339-.032h0a.109.109,0,0,1,.11.109.112.112,0,0,1-.012.05,2.456,2.456,0,0,1-.238.393c-.045.062-.1.115-.153.174a2.188,2.188,0,0,1-.174.154,2.254,2.254,0,0,1-.2.129c-.068.039-.144.063-.215.1s-.158.04-.236.059-.137.01-.227.015-.156-.017-.233-.03-.15-.042-.221-.07a1.579,1.579,0,0,1-.389-.239,1.635,1.635,0,0,1-.159-.159c-.045-.06-.1-.115-.135-.177s-.08-.127-.114-.191Z" transform="translate(-1964.26 -2125.281)" fill="#dc998c"/>
          <path id="Path_82582" data-name="Path 82582" d="M1948.894,2080.862a.579.579,0,1,1-.573-.664.624.624,0,0,1,.573.664" transform="translate(-1938.704 -2068.661)" fill="#422918"/>
          <path id="Path_82583" data-name="Path 82583" d="M1946.533,2082.145a.267.267,0,1,1-.267-.267.267.267,0,0,1,.267.267" transform="translate(-1937.09 -2070.211)" fill="#fff"/>
          <path id="Path_82584" data-name="Path 82584" d="M1949.7,2088.829a.127.127,0,1,1-.127-.126.127.127,0,0,1,.127.126" transform="translate(-1940.272 -2076.507)" fill="#fff"/>
          <path id="Path_82585" data-name="Path 82585" d="M2020.782,2080.862a.579.579,0,1,0,.573-.664.624.624,0,0,0-.573.664" transform="translate(-2006.083 -2068.661)" fill="#422918"/>
          <path id="Path_82586" data-name="Path 82586" d="M2030.435,2082.145a.267.267,0,1,0,.267-.267.267.267,0,0,0-.267.267" transform="translate(-2014.989 -2070.211)" fill="#fff"/>
          <path id="Path_82587" data-name="Path 82587" d="M2030.613,2088.829a.127.127,0,1,0,.127-.126.127.127,0,0,0-.127.126" transform="translate(-2015.153 -2076.507)" fill="#fff"/>
          <path id="Path_82588" data-name="Path 82588" d="M1936.9,2200.115a1.831,1.831,0,0,0-.34-.108s.372,3.356-2.835,3.456h-.157c-3.208-.1-2.836-3.456-2.836-3.456a1.837,1.837,0,0,0-.34.108,3.491,3.491,0,0,1-1.708,4.219h9.926a3.491,3.491,0,0,1-1.709-4.219" transform="translate(-1921.117 -2179.194)" fill="url(#linear-gradient-6)"/>
          <path id="Path_82589" data-name="Path 82589" d="M1903.744,1999.234s.832-3.337,3.457-2.743c0,0-.426-2.481-1.574-2.1,0,0-1.753.131-2.892,2.488-1.835,4.515-.785,11.784-.785,11.784a26.55,26.55,0,0,0,.628,4.206,4.822,4.822,0,0,1,1.847-2.006,37.175,37.175,0,0,1-.682-11.632" transform="translate(-1896.175 -1989.464)" fill="#070a1d"/>
          <path id="Path_82590" data-name="Path 82590" d="M2047.667,2011.387l1.473-2.951c2.382,4.56.417,18,.417,18a4.931,4.931,0,0,0-2.142-2.6,38.788,38.788,0,0,0,.252-12.444" transform="translate(-2030.654 -2002.455)" fill="#070a1d"/>
          <path id="Path_82591" data-name="Path 82591" d="M2020.469,1997.941s-.93-3.058-2.534-2.684c0,0-.08-1.726,1.068-1.34a3.7,3.7,0,0,1,2.554,2.54Z" transform="translate(-2003.455 -1989.009)" fill="#341c10"/>
          <path id="Path_82592" data-name="Path 82592" d="M1963.989,1970.04l-1.221,4.175s-7.536-2.477-7.648-5.266c0,0-.162-1.622,2.422-2.064a6.482,6.482,0,0,1,6.447,3.155" transform="translate(-1945.503 -1964.06)" fill="#070a1d"/>
        </g>
      </g>
      <g id="Group_67278" data-name="Group 67278" transform="translate(2.193 4.02)">
        <g id="Group_67260" data-name="Group 67260" transform="translate(0 0)" clip-path="url(#clip-path-3)">
          <path id="Path_82594" data-name="Path 82594" d="M57.577,1436.36a12.94,12.94,0,1,1-12.94-12.941,12.94,12.94,0,0,1,12.94,12.941" transform="translate(-29.242 -1313.21)" fill="#fff"/>
        </g>
        <g id="Group_67275" data-name="Group 67275" transform="translate(2.454 110.209)">
          <g id="Group_67274" data-name="Group 67274" clip-path="url(#clip-path-15)">
            <rect id="Rectangle_22342" data-name="Rectangle 22342" width="7.637" height="7.626" transform="translate(12.936 16.865)" fill="#100100"/>
            <rect id="Rectangle_22343" data-name="Rectangle 22343" width="3.228" height="2.731" transform="translate(12.764 22.207)" fill="#f9c8a9"/>
            <g id="Group_67264" data-name="Group 67264" transform="translate(12.764 22.207)" style="mix-blend-mode: multiply;isolation: isolate">
              <g id="Group_67263" data-name="Group 67263">
                <g id="Group_67262" data-name="Group 67262" clip-path="url(#clip-path-16)">
                  <path id="Path_82595" data-name="Path 82595" d="M176.616,1672.038a3.112,3.112,0,0,1,.681.074v-.983h-3.228v2.661a2.572,2.572,0,0,1,2.547-1.752" transform="translate(-174.069 -1671.129)" fill="#d9d9d9"/>
                </g>
              </g>
            </g>
            <path id="Path_82596" data-name="Path 82596" d="M112.437,1696.952H109.67a6.426,6.426,0,0,0-6.6,5.443h15.957a6.426,6.426,0,0,0-6.6-5.443" transform="translate(-96.676 -1672.427)" fill="#f9c8a9"/>
            <path id="Path_82597" data-name="Path 82597" d="M131.313,1497.492c0,4.7-2.747,8.505-6.637,8.505s-6.637-3.808-6.637-8.505,2.748-8.506,6.637-8.506,6.637,3.808,6.637,8.506" transform="translate(-110.298 -1483.108)" fill="#f9c8a9"/>
            <path id="Path_82598" data-name="Path 82598" d="M256.328,1594.358c-.14.74.125,1.411.591,1.5s.956-.442,1.095-1.182-.125-1.411-.591-1.5-.955.442-1.094,1.182" transform="translate(-236.156 -1577.95)" fill="#f9c8a9"/>
            <g id="Group_67267" data-name="Group 67267" transform="translate(20.805 15.919)" style="mix-blend-mode: multiply;isolation: isolate">
              <g id="Group_67266" data-name="Group 67266">
                <g id="Group_67265" data-name="Group 67265" clip-path="url(#clip-path-17)">
                  <path id="Path_82599" data-name="Path 82599" d="M263.97,1601.021a.772.772,0,0,0,.086.034.2.2,0,0,1,.089.045c.025.026.055.036.075.074a.265.265,0,0,1,.055.106c.021.035.014.091.027.135a1.244,1.244,0,0,1-.032.325,1.467,1.467,0,0,1-.1.32.88.88,0,0,1-.148.24.483.483,0,0,1-.085.061c-.028.005-.06.027-.085.018l-.089-.01a.5.5,0,0,0,.073.063c.025.024.066.022.114.035a.349.349,0,0,0,.159-.029.686.686,0,0,0,.279-.255,1.086,1.086,0,0,0,.16-.385,1.039,1.039,0,0,0,.022-.214.939.939,0,0,0-.023-.212.586.586,0,0,0-.087-.192c-.021-.027-.039-.055-.061-.078l-.079-.054a.31.31,0,0,0-.153-.05.259.259,0,0,0-.108,0c-.058.011-.091.02-.091.02" transform="translate(-263.764 -1600.992)" fill="#d9d9d9"/>
                </g>
              </g>
            </g>
            <path id="Path_82600" data-name="Path 82600" d="M109.948,1594.358c.14.74-.125,1.411-.591,1.5s-.956-.442-1.095-1.182.126-1.411.591-1.5.955.442,1.094,1.182" transform="translate(-101.365 -1577.95)" fill="#f9c8a9"/>
            <g id="Group_67270" data-name="Group 67270" transform="translate(7.141 15.919)" style="mix-blend-mode: multiply;isolation: isolate">
              <g id="Group_67269" data-name="Group 67269">
                <g id="Group_67268" data-name="Group 67268" clip-path="url(#clip-path-17)">
                  <path id="Path_82601" data-name="Path 82601" d="M111.957,1601.021a.816.816,0,0,1-.086.034.2.2,0,0,0-.089.045c-.025.026-.055.036-.075.074a.27.27,0,0,0-.055.106c-.021.035-.013.091-.027.135a1.255,1.255,0,0,0,.031.325,1.474,1.474,0,0,0,.1.32.881.881,0,0,0,.148.24.474.474,0,0,0,.085.061c.028.005.06.027.085.018l.089-.01a.5.5,0,0,1-.073.063c-.025.024-.066.022-.114.035a.347.347,0,0,1-.159-.029.69.69,0,0,1-.28-.255,1.1,1.1,0,0,1-.16-.385,1.07,1.07,0,0,1-.022-.214.96.96,0,0,1,.023-.212.58.58,0,0,1,.087-.192c.021-.027.039-.055.06-.078l.079-.054a.311.311,0,0,1,.153-.05.258.258,0,0,1,.108,0c.058.011.091.02.091.02" transform="translate(-111.353 -1600.992)" fill="#d9d9d9"/>
                </g>
              </g>
            </g>
            <path id="Path_82602" data-name="Path 82602" d="M136.966,1559.017a1.633,1.633,0,0,1,2.546-.435" transform="translate(-127.529 -1546.072)" fill="none" stroke="#422918" stroke-linecap="round" stroke-width="0.908"/>
            <path id="Path_82603" data-name="Path 82603" d="M218.8,1559.017a1.633,1.633,0,0,0-2.546-.435" transform="translate(-199.709 -1546.072)" fill="none" stroke="#422918" stroke-linecap="round" stroke-width="0.908"/>
            <path id="Path_82604" data-name="Path 82604" d="M182.37,1616.9a.68.68,0,0,1,.091.091.906.906,0,0,1,.175.3.64.64,0,0,1,.046.247.565.565,0,0,1-.084.3,1.317,1.317,0,0,1-.111.132,1.567,1.567,0,0,1-.139.093,1.328,1.328,0,0,1-.3.1,2.315,2.315,0,0,1-.29.021c-.093,0-.184-.014-.271-.02a3.136,3.136,0,0,1-.457-.111,2.733,2.733,0,0,1-.417-.189,2.944,2.944,0,0,1,.451-.022c.132,0,.284-.009.443,0,.078,0,.158-.014.24-.012a2.181,2.181,0,0,0,.234-.028,1.036,1.036,0,0,0,.2-.055.5.5,0,0,1,.082-.041l.061-.052a.384.384,0,0,0,.076-.141.684.684,0,0,0,.021-.177,1.673,1.673,0,0,0-.032-.306c-.014-.077-.025-.123-.025-.123" transform="translate(-167.265 -1599.554)" fill="#d2ab91"/>
            <path id="Path_82605" data-name="Path 82605" d="M174.272,1641.471a1.678,1.678,0,0,0,3.192,0Z" transform="translate(-161.49 -1621.923)" fill="#fff"/>
            <path id="Path_82606" data-name="Path 82606" d="M174.272,1640.127a3.541,3.541,0,0,0,.3.419c.054.065.12.12.179.18s.134.1.2.156a1.712,1.712,0,0,0,.439.224c.078.025.159.036.237.055l.24.011.247-.029c.073-.025.146-.04.219-.067a1.863,1.863,0,0,0,.413-.241,2.347,2.347,0,0,0,.179-.163c.052-.062.111-.119.159-.185s.1-.131.14-.2l.12-.216.12.189c-.532,0-1.064-.014-1.6-.038s-1.064-.047-1.6-.095m0,0c.532-.047,1.064-.076,1.6-.094s1.064-.035,1.6-.038h0a.131.131,0,0,1,.117.189,2.919,2.919,0,0,1-.284.468c-.054.074-.122.138-.182.207a2.47,2.47,0,0,1-.208.184,2.443,2.443,0,0,1-.233.154,2.644,2.644,0,0,1-.256.114c-.09.03-.189.048-.282.07s-.164.013-.27.019c-.093-.012-.186-.021-.277-.036s-.179-.049-.264-.083a1.9,1.9,0,0,1-.463-.285,1.981,1.981,0,0,1-.19-.19c-.054-.072-.114-.136-.162-.212s-.1-.151-.135-.228Z" transform="translate(-161.49 -1620.579)" fill="#dc998c"/>
            <path id="Path_82607" data-name="Path 82607" d="M147.123,1577.608a.69.69,0,1,1-.683-.791.744.744,0,0,1,.683.791" transform="translate(-135.532 -1563.065)" fill="#422918"/>
            <path id="Path_82608" data-name="Path 82608" d="M144.593,1578.865a.318.318,0,1,1-.318-.318.318.318,0,0,1,.318.318" transform="translate(-133.892 -1564.64)" fill="#fff"/>
            <path id="Path_82609" data-name="Path 82609" d="M147.808,1585.719a.151.151,0,1,1-.152-.151.151.151,0,0,1,.152.151" transform="translate(-137.124 -1571.031)" fill="#fff"/>
            <path id="Path_82610" data-name="Path 82610" d="M220.94,1577.608a.69.69,0,1,0,.683-.791.744.744,0,0,0-.683.791" transform="translate(-203.974 -1563.065)" fill="#422918"/>
            <path id="Path_82611" data-name="Path 82611" d="M230.877,1578.865a.318.318,0,1,0,.318-.318.318.318,0,0,0-.318.318" transform="translate(-213.021 -1564.64)" fill="#fff"/>
            <path id="Path_82612" data-name="Path 82612" d="M231.06,1585.719a.151.151,0,1,0,.151-.151.151.151,0,0,0-.151.151" transform="translate(-213.187 -1571.031)" fill="#fff"/>
            <path id="Path_82613" data-name="Path 82613" d="M138.237,1701.642a6.286,6.286,0,0,0-2.754-1.578c-3.441,4.258-6.91.008-6.91.008a6.364,6.364,0,0,0-2.442,1.3v3.861h12.106Z" transform="translate(-117.665 -1675.263)" fill="url(#linear-gradient-5)"/>
            <path id="Path_82614" data-name="Path 82614" d="M160.994,1493.6s5.715-2,7.795,1.584c0,0,0-8.165-7.795-1.584" transform="translate(-149.403 -1484.972)" fill="#1d0a00"/>
            <path id="Path_82615" data-name="Path 82615" d="M107.878,1491.422s-1.67-8.687,3.468-10.209c0,0,1.058-.366,1.45,0l-.258.7-.133,2.591s-2.869.806-3.323,5.532c0,0-.12,1.969-.285,2.911,0,0-.123-1.542-.437-1.679a.509.509,0,0,0-.48.147" transform="translate(-100.812 -1475.884)" fill="#070a1d"/>
            <path id="Path_82616" data-name="Path 82616" d="M226.962,1493.556c3.911,6.224,2.148,15.427,2.148,15.427-.631,3.964-6.013,2.776-6.013,2.776,3.881-.9,2.156-11.745,2.156-11.745Z" transform="translate(-205.939 -1487.268)" fill="#070a1d"/>
            <path id="Path_82617" data-name="Path 82617" d="M114.775,1616.97a.451.451,0,1,1-.45-.451.451.451,0,0,1,.45.451" transform="translate(-106.507 -1599.208)" fill="#e3e3e2"/>
            <g id="Group_67273" data-name="Group 67273" transform="translate(7.367 17.311)" style="mix-blend-mode: multiply;isolation: isolate">
              <g id="Group_67272" data-name="Group 67272">
                <g id="Group_67271" data-name="Group 67271" clip-path="url(#clip-path-19)">
                  <path id="Path_82618" data-name="Path 82618" d="M114.735,1617.12a.356.356,0,0,1-.608-.252v0a.358.358,0,0,1,.1-.252.37.37,0,0,1,.149-.089.413.413,0,0,0-.055,0,.451.451,0,1,0,.432.578.266.266,0,0,1-.021.024" transform="translate(-113.874 -1616.519)" fill="#ececec"/>
                </g>
              </g>
            </g>
            <path id="Path_82619" data-name="Path 82619" d="M119.234,1618.406a.165.165,0,1,1-.165-.166.165.165,0,0,1,.165.166" transform="translate(-111.086 -1600.775)" fill="#fff"/>
            <path id="Path_82620" data-name="Path 82620" d="M157.867,1465.982s6.432-5.283,7.031.1c.193.166.763,9.039,2.349,6.667a9.478,9.478,0,0,0,.923-6.307s-.435-5.169-5.069-5.728c0,0-3.924-.326-5.234,2.282a3.726,3.726,0,0,0,0,2.988" transform="translate(-146.276 -1457.356)" fill="#070a1d"/>
          </g>
        </g>
      </g>
    </g>
  </g>
</svg>
