<?xml version="1.0" encoding="utf-8"?>
<!-- Generator: Adobe Illustrator 26.4.0, SVG Export Plug-In . SVG Version: 6.00 Build 0)  -->
<svg version="1.1" id="Layer_1" xmlns="http://www.w3.org/2000/svg" xmlns:xlink="http://www.w3.org/1999/xlink" x="0px" y="0px"
	 width="24px" height="20px" viewBox="0 0 24 20" style="enable-background:new 0 0 24 20;" xml:space="preserve">
<style type="text/css">
	.st0{fill:none;}
	.st1{fill:#6B7F86;}
</style>
<g>
	<path class="st0" d="M2.1,11.5c-0.3-0.2-0.7-0.1-0.8,0.2C1,12,1.1,12.4,1.4,12.6c0.1,0.1,0.2,0.1,0.3,0.1c0.1,0,0.1,0,0.1,0
		c0.2-0.1,0.3-0.2,0.4-0.3c0.1-0.2,0.1-0.3,0.1-0.4C2.3,11.8,2.2,11.6,2.1,11.5z"/>
	<path class="st0" d="M22,11.5c-0.2,0.1-0.3,0.2-0.3,0.4c-0.1,0.2,0,0.3,0.1,0.5c0.1,0.2,0.2,0.3,0.4,0.3c0.1,0,0.1,0,0.1,0
		c0.1,0,0.2-0.1,0.3-0.1c0.3-0.2,0.4-0.6,0.2-0.9C22.6,11.4,22.3,11.3,22,11.5z"/>
	<path class="st1" d="M5.9,7.1L5.9,7.1L4.5,6.1C4.4,6.1,4.3,6.1,4.2,6.1H4.1C4,6.1,3.9,6.2,3.8,6.3l-3.7,5.8C0,12.2,0,12.3,0,12.5
		c0,0.1,0.1,0.3,0.2,0.3l1.4,0.9c0.1,0.1,0.3,0.1,0.4,0.1c0.1,0,0.3-0.1,0.3-0.2L6,7.8C6.2,7.5,6.1,7.2,5.9,7.1z M2.2,12.4
		c-0.1,0.1-0.2,0.2-0.4,0.3c-0.1,0-0.1,0-0.1,0c-0.1,0-0.2,0-0.3-0.1C1.1,12.4,1,12,1.2,11.7c0.2-0.3,0.6-0.4,0.8-0.2
		c0.1,0.1,0.2,0.2,0.3,0.4C2.4,12,2.3,12.2,2.2,12.4z"/>
	<path class="st1" d="M23.9,12.1L23.9,12.1l-3.7-5.8c-0.1-0.1-0.2-0.2-0.3-0.2h-0.1c-0.1,0-0.2,0-0.3,0.1l-1.4,0.9
		c-0.2,0.2-0.3,0.5-0.2,0.7l3.7,5.8c0.2,0.2,0.5,0.3,0.7,0.2l1.4-0.9C24,12.6,24.1,12.3,23.9,12.1z M22.6,12.5
		c-0.1,0.1-0.2,0.1-0.3,0.1c-0.1,0-0.1,0-0.1,0c-0.2,0-0.3-0.1-0.4-0.3c-0.1-0.1-0.1-0.3-0.1-0.5c0-0.2,0.1-0.3,0.3-0.4
		c0.3-0.2,0.7-0.1,0.8,0.2C23,12,22.9,12.4,22.6,12.5z"/>
	<path class="st1" d="M18,14.2L18,14.2l-0.5-0.6c-1.5-1.6-3.5-2.9-4.4-3.3l-0.4,0.6c-0.3,0.5-0.9,0.7-1.4,0.6h0h0
		c-0.7-0.2-1-0.9-0.9-1.5c0.1-0.6,0.3-1.1,0.6-1.6l-0.6-0.1c-0.5-0.1-0.9,0-1.3,0.2L8.7,8.7C8.3,8.9,7.7,9,7.2,8.8L6.4,8.4l-3,4.7
		l1.1,0.7l0.6-0.6c0.2-0.2,0.6-0.4,0.9-0.4s0.7,0.1,0.9,0.4C7,13.5,7.2,13.8,7.2,14c0.4-0.1,0.9,0,1.2,0.3c0.2,0.2,0.4,0.6,0.4,0.9
		c0,0.1,0,0.2,0,0.3c0.3,0,0.5,0.2,0.7,0.3h0c0.3,0.3,0.4,0.7,0.3,1.2c0.3,0,0.5,0.2,0.7,0.4v0c0.2,0.2,0.4,0.6,0.4,0.9
		c0,0.3-0.1,0.6-0.3,0.8l0.6,0.8c0.3,0.3,0.9,0.3,1.2,0c0.2-0.2,0.3-0.4,0.3-0.6s-0.1-0.4-0.2-0.6l-0.3-0.3c-0.1-0.1-0.1-0.4,0-0.5
		c0.1-0.1,0.4-0.1,0.5,0l0.5,0.5c0.3,0.3,0.9,0.3,1.2,0l0,0c0.3-0.3,0.3-0.8,0-1.2l-0.5-0.5c-0.1-0.1-0.1-0.2-0.1-0.3
		c0-0.1,0-0.2,0.1-0.3c0.1-0.1,0.4-0.1,0.5,0l0.8,0.8c0.2,0.2,0.4,0.2,0.6,0.2c0.2,0,0.4-0.1,0.6-0.2c0.2-0.2,0.3-0.4,0.3-0.6
		c0-0.2-0.1-0.4-0.2-0.6l-0.8-0.8c-0.1-0.1-0.1-0.2-0.1-0.3c0-0.1,0-0.2,0.1-0.3c0.1-0.1,0.4-0.1,0.5,0l1,1c0.2,0.2,0.4,0.3,0.7,0.3
		h0c0.2,0,0.4-0.1,0.6-0.3c0.2-0.2,0.2-0.4,0.2-0.6c0-0.1,0-0.2-0.1-0.3C18.2,14.5,18.1,14.3,18,14.2z"/>
	<path class="st1" d="M14.4,8.3l-1.1-0.4c-0.5-0.2-1.1,0-1.4,0.5l-0.1,0.1c-0.3,0.5-0.6,1-0.7,1.6c-0.1,0.3,0.1,0.6,0.4,0.7
		c0.3,0.1,0.5,0,0.7-0.3l0.6-0.9c0.1-0.1,0.2-0.2,0.3-0.2c0.1,0,0.1,0,0.2,0c0.2,0.1,4,2,5.7,4.7l1.8-1l-3.1-4.8
		C16.5,8.7,15.4,8.6,14.4,8.3z"/>
	<path class="st1" d="M9.6,17.8c-0.2,0-0.3,0.1-0.4,0.2l-0.8,0.8c-0.2,0.2-0.2,0.6,0,0.8c0.2,0.2,0.6,0.2,0.8,0l0.8-0.8
		c0.1-0.1,0.2-0.3,0.2-0.4c0-0.1,0-0.3-0.2-0.4C9.9,17.8,9.7,17.8,9.6,17.8z"/>
	<path class="st1" d="M8.9,16.4c-0.1-0.1-0.3-0.2-0.4-0.2c-0.2,0-0.3,0.1-0.4,0.2L7,17.5c-0.1,0.1-0.2,0.3-0.2,0.4s0.1,0.3,0.2,0.4
		c0.2,0.2,0.6,0.2,0.8,0l1.1-1.1C9.1,17,9.1,16.6,8.9,16.4z"/>
	<path class="st1" d="M8,15.3C8,15.2,8,15,7.9,14.9c-0.1-0.1-0.3-0.2-0.4-0.2s-0.3,0.1-0.4,0.2l-1.3,1.3c-0.1,0.1-0.2,0.3-0.2,0.4
		c0,0.2,0.1,0.3,0.2,0.4c0.2,0.2,0.6,0.2,0.8,0l1.3-1.3C8,15.6,8,15.5,8,15.3z"/>
	<path class="st1" d="M6.3,13.8L6.3,13.8c-0.1-0.1-0.3-0.2-0.4-0.2c-0.2,0-0.3,0.1-0.4,0.2l-1.1,1.1c-0.1,0.1-0.2,0.3-0.2,0.4
		c0,0.2,0.1,0.3,0.2,0.4c0.1,0.1,0.3,0.2,0.4,0.2s0.3-0.1,0.4-0.2l1.1-1.1C6.6,14.4,6.6,14.1,6.3,13.8z"/>
	<path class="st1" d="M8.4,8.1L8.4,8.1l0.4-0.2c0.4-0.2,0.9-0.4,1.4-0.4c0.1,0,0.3,0,0.4,0l0.6,0.1l0.4,0.1c0.4-0.4,0.8-0.6,1.4-0.6
		c0.2,0,0.4,0,0.6,0.1l1.1,0.4c0.5,0.2,1,0.3,1.6,0.3l0-6.6c0-0.7-0.6-1.3-1.3-1.3H9.1C8.4,0,7.8,0.6,7.8,1.3v6.9h0.1
		C8.1,8.2,8.3,8.2,8.4,8.1z M12.6,6.2c0,0.1-0.1,0.2-0.2,0.2h-0.6c-0.1,0-0.2-0.1-0.2-0.2V5.5c0-0.1,0.1-0.2,0.2-0.2h0.6
		c0.1,0,0.2,0.1,0.2,0.2V6.2z M12,1.2L12,1.2c0.5,0,1.1,0.1,1.1,0.4c0,0,0,0,0,0C13,2.5,12.6,5.1,12,5.1s-1-2.6-1.1-3.4c0,0,0,0,0,0
		C10.9,1.4,11.5,1.2,12,1.2z"/>
</g>
</svg>
