<svg id="refresh" xmlns="http://www.w3.org/2000/svg" xmlns:xlink="http://www.w3.org/1999/xlink" width="18" height="18" viewBox="0 0 18 18">
  <defs>
    <linearGradient id="linear-gradient" x1="0.5" x2="0.5" y2="1" gradientUnits="objectBoundingBox">
      <stop offset="0" stop-color="#121a4e"/>
      <stop offset="1" stop-color="#2f3f92"/>
    </linearGradient>
    <clipPath id="clip-path">
      <rect id="Rectangle_22124" data-name="Rectangle 22124" width="18" height="18" fill="url(#linear-gradient)"/>
    </clipPath>
  </defs>
  <g id="Group_66880" data-name="Group 66880" clip-path="url(#clip-path)">
    <path id="Path_82218" data-name="Path 82218" d="M9,0a9.011,9.011,0,0,1,7.2,3.6l0-1.8a.9.9,0,0,1,.795-.894L17.1.9a.9.9,0,0,1,.894.795L18,1.8V6.3a.9.9,0,0,1-.8.894L17.1,7.2H12.6a.9.9,0,0,1-.1-1.794l.1-.006h2.637a7.192,7.192,0,1,0,.417,6.356,7.123,7.123,0,0,0,.409-1.35.9.9,0,1,1,1.766.349A9,9,0,1,1,9,0Z" fill="url(#linear-gradient)"/>
  </g>
</svg>
