<svg xmlns="http://www.w3.org/2000/svg" xmlns:xlink="http://www.w3.org/1999/xlink" width="87.334" height="124.246" viewBox="0 0 87.334 124.246">
  <defs>
    <linearGradient id="linear-gradient" x1="0.5" x2="0.5" y2="1" gradientUnits="objectBoundingBox">
      <stop offset="0" stop-color="#121a4e"/>
      <stop offset="1" stop-color="#2f3f92"/>
    </linearGradient>
    <linearGradient id="linear-gradient-2" x1="0.5" x2="0.5" y2="1" gradientUnits="objectBoundingBox">
      <stop offset="0" stop-color="#719a21"/>
      <stop offset="1" stop-color="#8abb2a"/>
    </linearGradient>
    <linearGradient id="linear-gradient-6" x1="0.5" x2="0.5" y2="1" gradientUnits="objectBoundingBox">
      <stop offset="0" stop-color="#1a276b"/>
      <stop offset="1" stop-color="#8abb2a"/>
    </linearGradient>
    <clipPath id="clip-path">
      <rect id="Rectangle_22287" data-name="Rectangle 22287" width="87.334" height="124.246" fill="none"/>
    </clipPath>
  </defs>
  <g id="Group_67072" data-name="Group 67072" transform="translate(0 0.001)" opacity="0.08">
    <path id="Path_82377" data-name="Path 82377" d="M641.222,479.209l36.336,26.686V452.523Z" transform="translate(-590.224 -419.642)" fill="url(#linear-gradient)"/>
    <path id="Path_82378" data-name="Path 82378" d="M253.728,206.208v53.371l-36.336-26.686Z" transform="translate(-200.103 -191.224)" fill-rule="evenodd" fill="url(#linear-gradient-2)"/>
    <path id="Path_82379" data-name="Path 82379" d="M90.281,524.759v48.955L54.106,547.147l36.175-26.568Zm-4.239,40.595V528.939L61.251,547.147Z" transform="translate(-50.174 -482.752)" fill-rule="evenodd" fill="url(#linear-gradient)"/>
    <path id="Path_82380" data-name="Path 82380" d="M805.127,4.905,815.38,21.2,823.748,0Z" transform="translate(-742.219 0)" fill="#ffd300"/>
    <path id="Path_82381" data-name="Path 82381" d="M778.773,139.063l9.792-24.817-24.635,6.491L777.5,142.3Zm3.954-19.637-5.96,15.1-7.3-11.609Z" transform="translate(-704.017 -105.945)" fill-rule="evenodd" fill="url(#linear-gradient)"/>
    <path id="Path_82382" data-name="Path 82382" d="M806.924,1198.727v-24.11l-16.415,12.055Z" transform="translate(-728.664 -1089.264)" fill="#ffd300" fill-rule="evenodd"/>
    <path id="Path_82383" data-name="Path 82383" d="M809.088,1286.828l11.692-8.586v17.173Zm-6.292,0,21.716,15.949v-31.9Z" transform="translate(-740.057 -1178.531)" fill="url(#linear-gradient)"/>
    <path id="Path_82384" data-name="Path 82384" d="M660.555,950.978l2.372,4.723,1.03-1.378-.9-1.784,1.965.353,1.03-1.378-5.751-1.035Zm5.351,4,2.372,4.723,1.029-1.378-.9-1.784,1.965.353,1.03-1.378-5.751-1.034Zm5.351,4,2.372,4.723,1.03-1.378-.9-1.784,1.965.353,1.029-1.378-5.751-1.035Z" transform="matrix(0.883, 0.469, -0.469, 0.883, -95.128, -1087.106)" fill-rule="evenodd" fill="url(#linear-gradient-6)"/>
    <g id="Group_67071" data-name="Group 67071" transform="translate(0 -0.001)">
      <g id="Group_67070" data-name="Group 67070" transform="translate(0 0)" clip-path="url(#clip-path)">
        <g id="Group_67073" data-name="Group 67073" transform="translate(1 1)">
          <path id="Path_82385" data-name="Path 82385" d="M10.7,1.319a.82.82,0,0,1,.24-1.174.919.919,0,0,1,1.235.227.818.818,0,0,1-.238,1.173A.921.921,0,0,1,10.7,1.319M.153,8.1a.82.82,0,0,1,.24-1.174.919.919,0,0,1,1.235.227A.818.818,0,0,1,1.39,8.323.921.921,0,0,1,.153,8.1m2.722,3.821a.82.82,0,0,1,.24-1.174.919.919,0,0,1,1.235.226.818.818,0,0,1-.238,1.173.921.921,0,0,1-1.237-.226m.794-6.08a.82.82,0,0,1,.24-1.174.919.919,0,0,1,1.235.227.818.818,0,0,1-.238,1.173.921.921,0,0,1-1.237-.225m2.723,3.82a.82.82,0,0,1,.24-1.174.919.919,0,0,1,1.235.226.818.818,0,0,1-.238,1.173.921.921,0,0,1-1.237-.226m.794-6.08A.82.82,0,0,1,7.425,2.4a.919.919,0,0,1,1.235.226A.818.818,0,0,1,8.423,3.8a.921.921,0,0,1-1.237-.225M9.908,7.4a.82.82,0,0,1,.24-1.174.919.919,0,0,1,1.235.226.818.818,0,0,1-.238,1.173A.921.921,0,0,1,9.908,7.4m3.517-2.26a.82.82,0,0,1,.24-1.174.919.919,0,0,1,1.235.227.818.818,0,0,1-.238,1.173.921.921,0,0,1-1.237-.226" transform="matrix(0.391, 0.921, -0.921, 0.391, 68.868, 60.388)" fill-rule="evenodd" fill="url(#linear-gradient-6)"/>
          <path id="Path_82386" data-name="Path 82386" d="M10.306,1.27A.79.79,0,0,1,10.537.14a.885.885,0,0,1,1.189.218.788.788,0,0,1-.229,1.13.887.887,0,0,1-1.191-.217M.147,7.8a.789.789,0,0,1,.231-1.13.885.885,0,0,1,1.189.218.788.788,0,0,1-.229,1.13A.886.886,0,0,1,.147,7.8m2.622,3.679A.789.789,0,0,1,3,10.347a.885.885,0,0,1,1.189.218.788.788,0,0,1-.229,1.13.887.887,0,0,1-1.191-.217m.765-5.855a.79.79,0,0,1,.231-1.131.885.885,0,0,1,1.189.218.788.788,0,0,1-.229,1.13.887.887,0,0,1-1.191-.217M6.155,9.3a.789.789,0,0,1,.231-1.131.885.885,0,0,1,1.189.218.788.788,0,0,1-.229,1.13A.887.887,0,0,1,6.155,9.3M6.92,3.446a.789.789,0,0,1,.231-1.131.885.885,0,0,1,1.189.218.788.788,0,0,1-.229,1.13A.887.887,0,0,1,6.92,3.446M9.542,7.125a.789.789,0,0,1,.231-1.131.885.885,0,0,1,1.189.218.788.788,0,0,1-.229,1.13.887.887,0,0,1-1.191-.217m3.386-2.176a.789.789,0,0,1,.231-1.131.885.885,0,0,1,1.189.218.788.788,0,0,1-.229,1.13.887.887,0,0,1-1.191-.217" transform="translate(59.009 41.276) rotate(-2)" fill-rule="evenodd" fill="url(#linear-gradient-6)"/>
        </g>
      </g>
    </g>
  </g>
</svg>
