<svg xmlns="http://www.w3.org/2000/svg" width="103" height="65" viewBox="0 0 103 65">
  <g id="Group_67335" data-name="Group 67335" transform="translate(-1037 -620)">
    <g id="Rectangle_25" data-name="Rectangle 25" transform="translate(1037 630)" fill="#f6f7fe" stroke="#fff" stroke-width="2">
      <path d="M0,0H103a0,0,0,0,1,0,0V55a0,0,0,0,1,0,0H10A10,10,0,0,1,0,45V0A0,0,0,0,1,0,0Z" stroke="none"/>
      <path d="M1,1H102a0,0,0,0,1,0,0V54a0,0,0,0,1,0,0H10a9,9,0,0,1-9-9V1A0,0,0,0,1,1,1Z" fill="none"/>
    </g>
    <g id="Group_148" data-name="Group 148" transform="translate(-1 -1)">
      <g id="dot" transform="translate(1080 621)" fill="#fff" stroke="rgba(165,165,165,0.4)" stroke-width="2">
        <rect width="19" height="19" rx="9.5" stroke="none"/>
        <rect x="1" y="1" width="17" height="17" rx="8.5" fill="none"/>
      </g>
      <rect id="dot-2" data-name="dot" width="9" height="9" rx="4.5" transform="translate(1085 626)" fill="#c3c2c2"/>
    </g>
  </g>
</svg>
