<svg xmlns="http://www.w3.org/2000/svg" xmlns:xlink="http://www.w3.org/1999/xlink" width="51.774" height="53.5" viewBox="0 0 51.774 53.5">
  <defs>
    <clipPath id="clip-path">
      <rect id="Rectangle_22296" data-name="Rectangle 22296" width="51.774" height="53.5" fill="none"/>
    </clipPath>
  </defs>
  <g id="training" transform="translate(-16 0)">
    <g id="Group_67085" data-name="Group 67085" transform="translate(16 0)" clip-path="url(#clip-path)">
      <path id="Path_82394" data-name="Path 82394" d="M44.283,78.944H30.52l.072-4.777c0-3.593,3.432-5.245,5.327-5.64a8.013,8.013,0,0,1,3.575,0c1.895.4,5.326,2.047,5.326,5.64v4.849Z" transform="translate(-11.783 -26.379)" fill="#fff"/>
      <path id="Path_82395" data-name="Path 82395" d="M44.278,79.335a.791.791,0,0,1-.114-.008l-.481-.064H29.977a.864.864,0,0,1-.863-.876l.071-4.778c0-4.074,3.7-5.966,5.945-6.457a8.827,8.827,0,0,1,4.08,0c2.243.494,5.93,2.389,5.93,6.466v4.849a.864.864,0,0,1-.864.863m-13.424-1.8H43.416V73.622c0-3.783-4.45-4.755-4.639-4.795a.871.871,0,0,1-.231-.084,8.737,8.737,0,0,0-2.819.028c-.039.014-.133.047-.173.055-.19.04-4.641,1.012-4.641,4.795Z" transform="translate(-11.241 -25.834)" fill="#1a276b"/>
      <path id="Path_82396" data-name="Path 82396" d="M34.8,77.983l.033-2.151c0-2.434,3.234-3.137,3.266-3.145l.3-.061.074-.035a8.083,8.083,0,0,1,.966-.052,7.343,7.343,0,0,1,.747.033l.072.039.365.076c.032.007,3.266.71,3.266,3.106v2.189Z" transform="translate(-13.436 -28.006)" fill="#8abb2a"/>
      <path id="Path_82397" data-name="Path 82397" d="M43.493,55.2a3.575,3.575,0,1,0-3.575,3.592A3.584,3.584,0,0,0,43.493,55.2" transform="translate(-14.031 -19.925)" fill="#fff"/>
      <path id="Path_82398" data-name="Path 82398" d="M39.376,59.112a4.455,4.455,0,1,1,4.438-4.455,4.451,4.451,0,0,1-4.438,4.455m0-7.184a2.729,2.729,0,1,0,2.712,2.729,2.725,2.725,0,0,0-2.712-2.729" transform="translate(-13.489 -19.382)" fill="#1a276b"/>
      <path id="Path_82399" data-name="Path 82399" d="M73.4,78.944H59.637l.071-4.777c0-3.593,3.432-5.245,5.327-5.64a8.013,8.013,0,0,1,3.575,0c1.894.4,5.326,2.047,5.326,5.639v4.85Z" transform="translate(-23.025 -26.379)" fill="#fff"/>
      <path id="Path_82400" data-name="Path 82400" d="M73.393,79.334a.806.806,0,0,1-.114-.008l-.479-.064H59.094a.864.864,0,0,1-.863-.876l.071-4.778c0-4.074,3.7-5.966,5.945-6.457a8.789,8.789,0,0,1,4.079,0c2.242.494,5.93,2.388,5.93,6.466v4.849a.862.862,0,0,1-.863.863m-13.424-1.8H72.531V73.622c0-3.783-4.45-4.755-4.64-4.795a.863.863,0,0,1-.232-.085,8.831,8.831,0,0,0-2.817.027,1.583,1.583,0,0,1-.173.056c-.19.04-4.64,1.011-4.64,4.795Z" transform="translate(-22.482 -25.834)" fill="#1a276b"/>
      <path id="Path_82401" data-name="Path 82401" d="M63.917,77.983l.033-2.151c0-2.434,3.233-3.137,3.265-3.145l.3-.061.075-.035a8.075,8.075,0,0,1,.964-.052,7.3,7.3,0,0,1,.745.033l.072.039.366.076C69.766,72.7,73,73.4,73,75.794v2.189Z" transform="translate(-24.677 -28.006)" fill="#edc107"/>
      <path id="Path_82402" data-name="Path 82402" d="M72.609,55.2a3.575,3.575,0,1,0-3.575,3.592A3.584,3.584,0,0,0,72.609,55.2" transform="translate(-25.272 -19.925)" fill="#fff"/>
      <path id="Path_82403" data-name="Path 82403" d="M68.49,59.112a4.455,4.455,0,1,1,4.439-4.455,4.45,4.45,0,0,1-4.439,4.455m0-7.184A2.729,2.729,0,1,0,71.2,54.657a2.725,2.725,0,0,0-2.713-2.729" transform="translate(-24.73 -19.382)" fill="#1a276b"/>
      <path id="Path_82404" data-name="Path 82404" d="M15.169,78.944H1.406l.072-4.777c0-3.593,3.432-5.245,5.327-5.64a8.01,8.01,0,0,1,3.574,0c1.9.4,5.327,2.047,5.327,5.64v4.849Z" transform="translate(-0.543 -26.379)" fill="#fff"/>
      <path id="Path_82405" data-name="Path 82405" d="M15.162,79.334a.808.808,0,0,1-.115-.008l-.479-.064H.862A.864.864,0,0,1,0,78.386l.071-4.778c0-4.074,3.7-5.966,5.945-6.457a8.792,8.792,0,0,1,4.079,0c2.243.494,5.93,2.388,5.93,6.466v4.849a.863.863,0,0,1-.864.863m-13.423-1.8H14.3V73.622c0-3.784-4.45-4.755-4.64-4.795a.862.862,0,0,1-.232-.085,8.831,8.831,0,0,0-2.817.027,1.551,1.551,0,0,1-.174.056c-.19.04-4.64,1.011-4.64,4.795Z" transform="translate(0 -25.834)" fill="#1a276b"/>
      <path id="Path_82406" data-name="Path 82406" d="M5.686,77.983l.033-2.151c0-2.434,3.232-3.137,3.265-3.145l.3-.061.074-.035a8.084,8.084,0,0,1,.964-.052,7.314,7.314,0,0,1,.745.033l.071.039.367.076c.033.007,3.265.71,3.265,3.106v2.189Z" transform="translate(-2.195 -28.006)" fill="#edc107"/>
      <path id="Path_82407" data-name="Path 82407" d="M14.379,55.2A3.575,3.575,0,1,0,10.8,58.792,3.584,3.584,0,0,0,14.379,55.2" transform="translate(-2.791 -19.925)" fill="#fff"/>
      <path id="Path_82408" data-name="Path 82408" d="M10.261,59.112A4.455,4.455,0,1,1,14.7,54.657a4.452,4.452,0,0,1-4.438,4.455m0-7.184a2.729,2.729,0,1,0,2.712,2.729,2.725,2.725,0,0,0-2.712-2.729" transform="translate(-2.248 -19.382)" fill="#1a276b"/>
      <rect id="Rectangle_22290" data-name="Rectangle 22290" width="30.709" height="21.554" transform="translate(17.682 0.863)" fill="#dfe3f2"/>
      <path id="Path_82409" data-name="Path 82409" d="M58.969,23.28H28.259a.863.863,0,0,1-.863-.864V.863A.862.862,0,0,1,28.259,0H58.969a.862.862,0,0,1,.863.863V22.417a.863.863,0,0,1-.863.864M29.122,21.555H58.105V1.726H29.122Z" transform="translate(-10.577 0)" fill="#1a276b"/>
      <rect id="Rectangle_22291" data-name="Rectangle 22291" width="1.726" height="8.792" transform="translate(31.605 10.623)" fill="#edc107"/>
      <rect id="Rectangle_22292" data-name="Rectangle 22292" width="1.726" height="5.635" transform="translate(35.087 13.78)" fill="#8abb2a"/>
      <rect id="Rectangle_22293" data-name="Rectangle 22293" width="1.726" height="8.237" transform="translate(38.442 11.178)" fill="#edc107"/>
      <rect id="Rectangle_22294" data-name="Rectangle 22294" width="1.726" height="14.897" transform="translate(42.207 4.517)" fill="#8abb2a"/>
      <path id="Path_82410" data-name="Path 82410" d="M23.65,28.4l-4.03-2.2-2.058-3.273a3.9,3.9,0,0,0-2.938-1.864c-.1-.009-.208-.014-.313-.014H9.155a5.034,5.034,0,0,0-1.946.392,3.287,3.287,0,0,0-1.42,1.193A10.906,10.906,0,0,0,3.883,28.8V32.98a1.641,1.641,0,0,0,1.273,1.625A1.613,1.613,0,0,0,7.1,33.023V36.7h9.287l.023-7.458,0-1.345,0,1.346,5.536,3.028a2.1,2.1,0,0,0,2.784-1.294A2.193,2.193,0,0,0,23.65,28.4" transform="translate(-1.499 -8.129)" fill="#c3c9e5"/>
      <path id="Path_82411" data-name="Path 82411" d="M15.844,37.022H6.556a.862.862,0,0,1-.863-.863V34.845a2.471,2.471,0,0,1-3.217-2.407v-4.18a11.712,11.712,0,0,1,2.057-6.648,4.155,4.155,0,0,1,1.8-1.5,5.851,5.851,0,0,1,2.281-.459h5.157c.128,0,.255,0,.382.015a4.776,4.776,0,0,1,3.6,2.265l1.939,3.082L23.52,27.1a3.039,3.039,0,0,1,1.485,3.609,2.966,2.966,0,0,1-3.926,1.82.637.637,0,0,1-.09-.044l-4.263-2.332-.018,6.007a.864.864,0,0,1-.864.859M7.42,35.3h7.565L15,28.7l0-1.346a.862.862,0,0,1,.863-.859h0a.862.862,0,0,1,.86.863v0l0,.832,5.035,2.755a1.208,1.208,0,0,0,.939-.04,1.238,1.238,0,0,0,.663-.742,1.333,1.333,0,0,0-.674-1.547l-4.03-2.2a.867.867,0,0,1-.317-.3l-2.06-3.273a3.04,3.04,0,0,0-2.276-1.462c-.081-.007-.163-.011-.243-.011H8.611A4.148,4.148,0,0,0,7,21.7a2.416,2.416,0,0,0-1.042.885A9.994,9.994,0,0,0,4.2,28.257v4.181a.781.781,0,0,0,.581.778.746.746,0,0,0,.632-.15.754.754,0,0,0,.277-.586v-5.74a.863.863,0,1,1,1.726,0Z" transform="translate(-0.956 -7.587)" fill="#1a276b"/>
      <path id="Path_82412" data-name="Path 82412" d="M13.415,12.01a4.86,4.86,0,1,1,4.84-4.86,4.855,4.855,0,0,1-4.84,4.86m0-7.993A3.134,3.134,0,1,0,16.53,7.15a3.127,3.127,0,0,0-3.114-3.133" transform="translate(-3.311 -0.884)" fill="#1a276b"/>
      <rect id="Rectangle_22295" data-name="Rectangle 22295" width="12.915" height="1.725" transform="translate(19.414 21.934) rotate(-53.9)" fill="#1a276b"/>
    </g>
  </g>
</svg>
