<svg xmlns="http://www.w3.org/2000/svg" xmlns:xlink="http://www.w3.org/1999/xlink" width="53" height="53" viewBox="0 0 53 53">
  <defs>
    <clipPath id="clip-path">
      <rect id="Rectangle_22297" data-name="Rectangle 22297" width="53" height="53" fill="none"/>
    </clipPath>
  </defs>
  <g id="user-account" transform="translate(0 0)">
    <g id="Group_67087" data-name="Group 67087" transform="translate(0 0)" clip-path="url(#clip-path)">
      <path id="Path_82413" data-name="Path 82413" d="M31.489,4.737a22.078,22.078,0,0,1,6.469,2.682l4.2-1.867,4.955,4.954-1.867,4.2a22.067,22.067,0,0,1,2.682,6.471l4.288,1.651v7.007l-4.29,1.651a22.078,22.078,0,0,1-2.682,6.469l1.868,4.2-4.955,4.955-4.2-1.867a22.089,22.089,0,0,1-6.471,2.682l-1.651,4.288H22.832l-1.651-4.29a22.089,22.089,0,0,1-6.471-2.682l-4.2,1.868L5.553,42.162l1.867-4.2a22.111,22.111,0,0,1-2.682-6.471L.447,29.839V22.832l4.29-1.652A22.1,22.1,0,0,1,7.419,14.71l-1.867-4.2,4.954-4.954,4.2,1.867a22.1,22.1,0,0,1,6.469-2.682L22.832.447h7.007Z" transform="translate(0.415 0.415)" fill="#c3c9e5" fill-rule="evenodd"/>
      <path id="Path_82414" data-name="Path 82414" d="M36.146,6.216l1.492-.663,4.955,4.954-1.866,4.2a22.089,22.089,0,0,1,2.682,6.471L47.7,22.832v7.007L43.41,31.489a22.056,22.056,0,0,1-2.682,6.469l1.866,4.2-4.954,4.955-1.494-.663,4.29-4.29L38.57,37.958a22.056,22.056,0,0,0,2.682-6.469l4.29-1.651V22.832l-4.29-1.651A22.089,22.089,0,0,0,38.57,14.71l1.867-4.2Zm-30.826,0,.663-.663,4.205,1.867q-.474.26-.933.544ZM26.966,4.737a22.074,22.074,0,0,1,6.384,2.63c.029.019.056.037.085.052l-1.224.544a29.28,29.28,0,0,0-7.4-3.226L23.158.447h2.158ZM10.189,45.251,5.983,47.117l-.663-.663,3.935-1.747Q9.715,44.99,10.189,45.251Zm23.248,0a22.089,22.089,0,0,1-6.471,2.682l-1.651,4.288H23.158l1.651-4.288a29.323,29.323,0,0,0,7.4-3.226Z" transform="translate(4.938 0.415)" fill="#a0a7c1" fill-rule="evenodd"/>
      <path id="Path_82415" data-name="Path 82415" d="M21.282,5.891A15.39,15.39,0,1,1,5.891,21.282,15.391,15.391,0,0,1,21.282,5.891" transform="translate(5.468 5.468)" fill="#eceff1" fill-rule="evenodd"/>
      <path id="Path_82416" data-name="Path 82416" d="M21.282,5.891a15.39,15.39,0,1,0,0,30.78c.239,0,.478-.006.715-.017A15.389,15.389,0,0,1,22,5.908c-.237-.012-.476-.017-.715-.017" transform="translate(5.468 5.468)" fill="#d1d1d6" fill-rule="evenodd"/>
      <path id="Path_82417" data-name="Path 82417" d="M15.645,7.911c2.034,0,3.681,1.159,3.681,3.831s-1.647,4.84-3.681,4.84-3.681-2.167-3.681-4.84,1.647-3.831,3.681-3.831" transform="translate(11.105 7.343)" fill="#edc107" fill-rule="evenodd"/>
      <path id="Path_82418" data-name="Path 82418" d="M14.056,7.911c2.034,0,3.681,1.159,3.681,3.831S16.09,16.58,14.056,16.58a2.753,2.753,0,0,1-.38-.025c1.855-.249,3.3-2.31,3.3-4.813s-1.446-3.679-3.3-3.818c.125-.01.251-.013.38-.013" transform="translate(12.694 7.343)" fill="#ffddce" fill-rule="evenodd"/>
      <path id="Path_82419" data-name="Path 82419" d="M10.39,24.174H25.233a.761.761,0,0,0,.76-.76V16.743c0-1.822-1.622-2.856-3.467-3.313a18.927,18.927,0,0,0-9.429,0c-1.841.472-3.467,1.491-3.467,3.313v6.672A.761.761,0,0,0,10.39,24.174Z" transform="translate(8.939 11.912)" fill="#8abb2a" fill-rule="evenodd"/>
      <path id="Path_82420" data-name="Path 82420" d="M20.737,24.174h.76a.761.761,0,0,0,.76-.76V16.743c0-1.822-1.622-2.856-3.465-3.313a19.512,19.512,0,0,0-5.137-.592,19.677,19.677,0,0,1,4.375.592c1.845.457,3.467,1.491,3.467,3.313v6.672a.761.761,0,0,1-.76.76" transform="translate(12.675 11.913)" fill="#41a8fc" fill-rule="evenodd"/>
      <path id="Path_82421" data-name="Path 82421" d="M34.068,35.224H32.076V30.363a.863.863,0,0,0-1.726,0v4.861h-7.2V30.363a.863.863,0,0,0-1.726,0v4.861H19.431V28.655c0-1.448,1.533-2.146,2.819-2.476a18.177,18.177,0,0,1,9.009,0c1.049.258,2.809.927,2.809,2.474ZM26.75,16.118c1.053,0,2.819.386,2.819,2.969,0,2.156-1.292,3.976-2.819,3.976s-2.819-1.82-2.819-3.976c0-2.584,1.766-2.969,2.819-2.969m4.923,8.388a21.03,21.03,0,0,0-2.653-.482,6.083,6.083,0,0,0,2.275-4.936c0-2.9-1.741-4.7-4.545-4.7s-4.545,1.8-4.545,4.7a6.09,6.09,0,0,0,2.266,4.93,19.65,19.65,0,0,0-2.651.49c-2.653.681-4.115,2.154-4.115,4.148v7.433a.862.862,0,0,0,.864.862H34.931a.863.863,0,0,0,.864-.862V28.655C35.793,26.667,34.291,25.155,31.673,24.506Zm20.1,5.156V23.838L48.037,22.4a.866.866,0,0,1-.528-.605,21.175,21.175,0,0,0-2.578-6.218.862.862,0,0,1-.054-.8l1.625-3.66L42.386,7,38.724,8.623a.858.858,0,0,1-.8-.054,21.2,21.2,0,0,0-6.217-2.576.867.867,0,0,1-.607-.53L29.662,1.726H23.838L22.4,5.463a.864.864,0,0,1-.605.53,21.181,21.181,0,0,0-6.217,2.576.858.858,0,0,1-.8.054L11.114,7,7,11.114l1.627,3.662a.863.863,0,0,1-.054.8,21.186,21.186,0,0,0-2.578,6.217.862.862,0,0,1-.528.605L1.726,23.838v5.823L5.463,31.1a.863.863,0,0,1,.528.6,21.154,21.154,0,0,0,2.578,6.218.867.867,0,0,1,.054.8L7,42.386,11.114,46.5l3.662-1.625a.858.858,0,0,1,.8.054,21.29,21.29,0,0,0,6.217,2.578.858.858,0,0,1,.605.528l1.438,3.737h5.823L31.1,48.037a.869.869,0,0,1,.605-.528,21.154,21.154,0,0,0,6.218-2.578.869.869,0,0,1,.8-.054L42.386,46.5,46.5,42.388l-1.625-3.664a.858.858,0,0,1,.054-.8,21.233,21.233,0,0,0,2.576-6.217.864.864,0,0,1,.53-.605Zm1.172-7.221-3.868-1.489a23,23,0,0,0-2.441-5.887l1.683-3.793a.866.866,0,0,0-.177-.96L43.188,5.358a.863.863,0,0,0-.96-.179L38.433,6.864a22.945,22.945,0,0,0-5.885-2.441L31.058.553a.86.86,0,0,0-.8-.553H23.246a.865.865,0,0,0-.806.553l-1.489,3.87a22.929,22.929,0,0,0-5.887,2.441L11.272,5.179a.863.863,0,0,0-.96.179L5.357,10.312a.863.863,0,0,0-.177.96l1.683,3.793a22.952,22.952,0,0,0-2.439,5.887L.553,22.44A.865.865,0,0,0,0,23.246v7.007a.865.865,0,0,0,.553.806l3.87,1.489a22.828,22.828,0,0,0,2.439,5.887L5.179,42.228a.863.863,0,0,0,.177.96l4.955,4.955a.866.866,0,0,0,.96.177l3.793-1.685a22.861,22.861,0,0,0,5.887,2.441l1.489,3.87a.865.865,0,0,0,.806.553h7.007a.86.86,0,0,0,.8-.553l1.49-3.868a22.929,22.929,0,0,0,5.887-2.441l3.793,1.683a.866.866,0,0,0,.96-.177l4.955-4.955a.866.866,0,0,0,.177-.96l-1.685-3.795a22.916,22.916,0,0,0,2.441-5.885l3.87-1.489a.865.865,0,0,0,.553-.806V23.246a.865.865,0,0,0-.553-.806M26.75,41.277A14.527,14.527,0,1,0,12.223,26.75,14.544,14.544,0,0,0,26.75,41.277m0-30.78A16.253,16.253,0,1,0,43,26.75,16.271,16.271,0,0,0,26.75,10.5" transform="translate(0 0)" fill="#1a276b" fill-rule="evenodd"/>
    </g>
  </g>
</svg>
