<svg id="wlp-logo" xmlns="http://www.w3.org/2000/svg" xmlns:xlink="http://www.w3.org/1999/xlink" width="64" height="32.757" viewBox="0 0 64 32.757">
  <defs>
    <clipPath id="clip-path">
      <rect id="Rectangle_4" data-name="Rectangle 4" width="64" height="32.757" fill="#fff"/>
    </clipPath>
  </defs>
  <g id="Group_1" data-name="Group 1" clip-path="url(#clip-path)">
    <path id="Path_1" data-name="Path 1" d="M209.474,46.468V43.64c-1.722.981-3.542,1.925-5.435,2.828-.161.076-.323.154-.487.232q-.44.205-.888.411c-.046.022-.1.044-.142.064-.228,1.179-.692,1.673-1.132,1.862-.032.012-.061.027-.1.037s-.042.012-.061.017a.611.611,0,0,1-.093.022c-.025,0-.049.01-.071.012a1.862,1.862,0,0,1-.311.027h-1.688v-.465c-.374.156-.749.311-1.128.465q-2.275.928-4.621,1.79c-.333.122-.665.245-1,.364V65.767h6.749V55.846c.037,0,.071,0,.107,0h3.955a6.209,6.209,0,0,0,2.077-.353,4.527,4.527,0,0,0,1.354-.664.116.116,0,0,0,.016-.012c1.469-1.063,2.871-3.379,2.893-8.351" transform="translate(-145.474 -33.01)" fill="#fff"/>
    <path id="Path_2" data-name="Path 2" d="M209.474,10.63V9.165a13.551,13.551,0,0,0-1.19-6.284A5.422,5.422,0,0,0,204.554.14L204.46.121A6.206,6.206,0,0,0,203.241,0h-4.063c-.036,0-.071,0-.107,0V0h-6.749V18.3c.335-.12.668-.242,1-.364q2.341-.862,4.621-1.791c.379-.154.753-.308,1.128-.465V6.81h1.688a1.529,1.529,0,0,1,1.359.689,4.745,4.745,0,0,1,.53,2.2c.036,1,.04,2.01.017,3.012a8.843,8.843,0,0,1-.142,1.453c.047-.019.1-.042.142-.064q.448-.205.888-.411c.164-.078.325-.157.487-.232,1.893-.9,3.713-1.847,5.435-2.828" transform="translate(-145.474 0)" fill="#fff"/>
    <path id="Path_3" data-name="Path 3" d="M0,120.175H7.463l2.543-4.6c-6.084,1.2-10,1.783-10.006,1.784Z" transform="translate(0 -87.419)" fill="#fff"/>
    <path id="Path_4" data-name="Path 4" d="M75.414,107.125h7.459V98.319c-3.832,1-7.509,1.878-10.875,2.625Z" transform="translate(-54.46 -74.369)" fill="#fff"/>
    <path id="Path_5" data-name="Path 5" d="M21.72,10.569v9.98l-3.7-6.572H10.39l-3.7,6.572V0H0V29.938c.008,0,3.921-.586,10.006-1.784l4.2-7.606,3.332,6.028c3.365-.747,7.043-1.621,10.875-2.625V8.937a65.27,65.27,0,0,1-6.693,1.633" transform="translate(0 -0.002)" fill="#fff"/>
    <path id="Path_6" data-name="Path 6" d="M95.857,0H89.164V8.822a66.752,66.752,0,0,0,6.693-1.687Z" transform="translate(-67.444 -0.001)" fill="#ffd300"/>
    <path id="Path_7" data-name="Path 7" d="M127.235,24.5V39.66c2.223-.607,4.484-1.256,6.754-1.948V21.682a54.791,54.791,0,0,1-6.754,2.822" transform="translate(-96.241 -16.4)" fill="#fff"/>
    <path id="Path_8" data-name="Path 8" d="M127.235,98.932h13.8V91.651h-7.047V87.488c-2.271.692-4.531,1.341-6.754,1.948Z" transform="translate(-96.241 -66.176)" fill="#fff"/>
    <path id="Path_9" data-name="Path 9" d="M133.988,0h-6.754v6.28a51.06,51.06,0,0,0,6.754-2.925Z" transform="translate(-96.241 -0.001)" fill="#8abb2a"/>
  </g>
</svg>
