<svg xmlns="http://www.w3.org/2000/svg" xmlns:xlink="http://www.w3.org/1999/xlink" width="132" height="67.562" viewBox="0 0 132 67.562">
  <defs>
    <clipPath id="clip-path">
      <rect id="Rectangle_22149" data-name="Rectangle 22149" width="132" height="67.562" fill="none"/>
    </clipPath>
  </defs>
  <g id="Group_67266" data-name="Group 67266" transform="translate(0 0)">
    <g id="Group_67265" data-name="Group 67265" transform="translate(0 0)" clip-path="url(#clip-path)">
      <path id="Path_92586" data-name="Path 92586" d="M74.7,14.755V8.924c-3.551,2.022-7.305,3.968-11.209,5.831-.334.157-.666.317-1,.479-.6.283-1.216.565-1.831.848-.1.044-.2.091-.292.13-.469,2.433-1.428,3.452-2.337,3.841-.066.025-.125.054-.2.076-.044.01-.086.025-.125.034-.066.02-.128.034-.192.047s-.1.02-.147.025a3.916,3.916,0,0,1-.641.054H53.244V19.33c-.772.324-1.543.641-2.327.958q-4.692,1.917-9.529,3.693c-.686.253-1.374.506-2.064.752V54.56h13.92V34.1c.076,0,.145,0,.221,0h8.158a12.814,12.814,0,0,0,4.285-.73A9.322,9.322,0,0,0,68.7,32l.034-.025c3.03-2.192,5.922-6.971,5.966-17.225" transform="translate(57.301 13.003)" fill="#1a276b"/>
      <path id="Path_92587" data-name="Path 92587" d="M74.7,21.925V18.9c0-4.3-.393-9.091-2.455-12.961A11.184,11.184,0,0,0,64.551.287L64.36.248A12.9,12.9,0,0,0,61.844,0H53.465c-.076,0-.145,0-.221,0V0H39.324V37.737c.69-.248,1.378-.5,2.064-.752q4.828-1.78,9.529-3.693c.784-.317,1.555-.636,2.327-.958V14.045h3.479a3.152,3.152,0,0,1,2.8,1.42,9.785,9.785,0,0,1,1.091,4.541c.076,2.066.084,4.145.037,6.212a18.343,18.343,0,0,1-.292,3c.1-.039.2-.086.292-.13.614-.283,1.226-.568,1.831-.848.339-.162.671-.324,1-.479,3.9-1.863,7.659-3.811,11.209-5.833" transform="translate(57.301 0)" fill="#121a4e"/>
      <path id="Path_92588" data-name="Path 92588" d="M0,33.125H15.392l5.246-9.494C8.086,26.1.017,27.309,0,27.312Z" transform="translate(0 34.433)" fill="#1a276b"/>
      <path id="Path_92589" data-name="Path 92589" d="M21.767,38.266H37.151V20.1c-7.9,2.071-15.487,3.875-22.429,5.416Z" transform="translate(21.452 29.292)" fill="#1a276b"/>
      <path id="Path_92590" data-name="Path 92590" d="M44.8,21.795V42.378L37.177,28.825H21.431L13.807,42.378V0H0V61.745c.017,0,8.089-1.211,20.638-3.681L29.3,42.378l6.873,12.433C43.113,53.271,50.7,51.467,58.6,49.4V18.429a134.622,134.622,0,0,1-13.8,3.366" transform="translate(0 0)" fill="#121a4e"/>
      <path id="Path_92591" data-name="Path 92591" d="M32.036,0h-13.8V18.193a137.83,137.83,0,0,0,13.8-3.479Z" transform="translate(26.567 0)" fill="#ffd300"/>
      <path id="Path_92592" data-name="Path 92592" d="M26.016,10.254v31.26c4.585-1.253,9.246-2.59,13.93-4.02V4.433a112.663,112.663,0,0,1-13.93,5.821" transform="translate(37.909 6.459)" fill="#121a4e"/>
      <path id="Path_92593" data-name="Path 92593" d="M26.016,41.492H54.482V26.474H39.946V17.889c-4.683,1.428-9.345,2.767-13.93,4.017Z" transform="translate(37.909 26.066)" fill="#1a276b"/>
      <path id="Path_92594" data-name="Path 92594" d="M39.946,0H26.016V12.952a105.477,105.477,0,0,0,13.93-6.032Z" transform="translate(37.909 0)" fill="#8abb2a"/>
    </g>
  </g>
</svg>
