<svg xmlns="http://www.w3.org/2000/svg" width="24.093" height="28" viewBox="0 0 24.093 28">
  <g id="analytics-hover" transform="translate(-2.75 -1.25)">
    <path id="Path_54" data-name="Path 54" d="M24.564,28.951H5.029A2.292,2.292,0,0,1,2.75,26.672V4.529A2.292,2.292,0,0,1,5.029,2.25H8.285a.977.977,0,0,1,0,1.954H5.029a.326.326,0,0,0-.326.326V26.672A.326.326,0,0,0,5.029,27H24.564a.326.326,0,0,0,.326-.326V4.529a.326.326,0,0,0-.326-.326H21.308a.977.977,0,0,1,0-1.954h3.256a2.292,2.292,0,0,1,2.279,2.279V26.672a2.292,2.292,0,0,1-2.279,2.279Z" transform="translate(0 0.299)" fill="#1a276b"/>
    <path id="Path_55" data-name="Path 55" d="M18.967,7.1H8.533A2.291,2.291,0,0,1,6.25,4.822v-1.3A2.291,2.291,0,0,1,8.533,1.25H18.967A2.291,2.291,0,0,1,21.25,3.523v1.3A2.291,2.291,0,0,1,18.967,7.1ZM8.533,3.2a.325.325,0,0,0-.326.325v1.3a.325.325,0,0,0,.326.325H18.967a.325.325,0,0,0,.326-.325v-1.3a.325.325,0,0,0-.326-.325Z" transform="translate(1.047)" fill="#1a276b"/>
    <path id="Path_56" data-name="Path 56" d="M7.224,20.895a.987.987,0,0,1-.974-.974v-5.2a.974.974,0,1,1,1.949,0v5.2a.987.987,0,0,1-.974.974Z" transform="translate(1.059 3.793)" fill="#1a276b"/>
    <path id="Path_57" data-name="Path 57" d="M13.894,20.895a.974.974,0,0,1-.974-.974v-5.2a.974.974,0,1,1,1.949,0v5.2a.987.987,0,0,1-.974.974Z" transform="translate(3.078 3.793)" fill="#1a276b"/>
    <path id="Path_58" data-name="Path 58" d="M10.554,21.194a.987.987,0,0,1-.974-.974v-6.5a.974.974,0,0,1,1.949,0v6.5A.974.974,0,0,1,10.554,21.194Z" transform="translate(2.067 3.493)" fill="#1a276b"/>
    <path id="Path_59" data-name="Path 59" d="M17.224,21.792a.987.987,0,0,1-.974-.974V11.724a.974.974,0,0,1,1.949,0v9.093a.987.987,0,0,1-.974.974Z" transform="translate(4.085 2.893)" fill="#1a276b"/>
    <path id="Path_60" data-name="Path 60" d="M7.221,14.395a.939.939,0,0,1-.587-1.689l5.217-3.9a.994.994,0,0,1,1.3.091l1.983,1.923,4.539-3.377A.976.976,0,1,1,20.852,9l-5.217,3.9a.994.994,0,0,1-1.3-.091l-1.983-1.987L7.808,14.2a.994.994,0,0,1-.587.195Z" transform="translate(1.053 1.821)" fill="#1a276b"/>
  </g>
</svg>
