<svg xmlns="http://www.w3.org/2000/svg" width="31.355" height="28" viewBox="0 0 31.355 28">
  <g id="benefits" transform="translate(-173.995 -362.5)">
    <g id="Group_9" data-name="Group 9" transform="translate(179.421 377.42)">
      <path id="Path_20" data-name="Path 20" d="M818.676,2064.651h-.017l-6.619-.045a.554.554,0,0,1,0-1.109h0l6.619.045a1.367,1.367,0,1,0,.018-2.734l-2.738-.018a4.726,4.726,0,0,1-2.491-.728L811.772,2059a3.624,3.624,0,0,0-1.907-.559l-4.915-.033a.554.554,0,1,1,.007-1.109l4.915.033a4.717,4.717,0,0,1,2.491.729l1.684,1.061a3.616,3.616,0,0,0,1.907.558l2.738.019a2.476,2.476,0,0,1-.016,4.952Z" transform="translate(-804.399 -2057.3)" fill="#6b778e"/>
    </g>
    <g id="Group_10" data-name="Group 10" transform="translate(178.768 380.058)">
      <path id="Path_21" data-name="Path 21" d="M806.6,2381.089a6.379,6.379,0,0,1-2.913-1.328,8.4,8.4,0,0,0-5.031-2.082.554.554,0,0,1,0-1.109,9.483,9.483,0,0,1,5.731,2.328,5.274,5.274,0,0,0,2.4,1.1,6.051,6.051,0,0,0,3.849-.572c.619-.327,1.2-.608,1.782-.857l9.476-4.072a1.367,1.367,0,1,0-1.042-2.528l-7.526,3.1a.554.554,0,1,1-.422-1.025l7.526-3.1a2.476,2.476,0,0,1,1.891,4.577c-9.645,4.171-9.666,4.091-11.167,4.885A7.21,7.21,0,0,1,806.6,2381.089Z" transform="translate(-798.099 -2370.754)" fill="#6b778e"/>
    </g>
    <g id="Group_11" data-name="Group 11" transform="translate(173.995 375.529)">
      <path id="Path_22" data-name="Path 22" d="M179.639,1889.639l-4.484-.03a1.167,1.167,0,0,1-1.16-1.177l.072-10.771a1.167,1.167,0,0,1,1.177-1.16l4.484.03a1.171,1.171,0,0,1,1.161,1.177l-.072,10.771A1.171,1.171,0,0,1,179.639,1889.639Zm.067-1.167.072-10.771a.059.059,0,0,0-.059-.059c-4.785-.027-4.493-.046-4.526-.013s-.008-.439-.09,10.812a.059.059,0,0,0,.06.06l4.483.031A.059.059,0,0,0,179.706,1888.471Z" transform="translate(-173.995 -1876.5)" fill="#6b778e"/>
    </g>
    <g id="Group_12" data-name="Group 12" transform="translate(188.336 362.5)">
      <path id="Path_23" data-name="Path 23" d="M1850.707,379.515c-.719,0-1.244-.629-1.583-.7s-1.069.307-1.73.027c-.641-.27-.882-1.056-1.139-1.228s-1.068-.1-1.564-.595-.419-1.3-.595-1.564-.955-.493-1.228-1.139.094-1.4.028-1.73-.7-.866-.7-1.582.629-1.247.7-1.582a1.7,1.7,0,0,0-.053-.524,2.052,2.052,0,0,1,.026-1.206c.27-.641,1.056-.882,1.228-1.139s.1-1.068.595-1.564,1.3-.419,1.564-.595.493-.955,1.139-1.228,1.4.093,1.73.027.866-.7,1.583-.7,1.247.629,1.583.7a1.7,1.7,0,0,0,.524-.053,2.05,2.05,0,0,1,1.206.026c.641.27.883,1.056,1.139,1.228s1.067.1,1.564.595.419,1.3.594,1.564.955.493,1.228,1.139-.093,1.4-.027,1.73.7.866.7,1.582-.629,1.243-.7,1.582.307,1.068.027,1.73c-.27.641-1.056.882-1.228,1.139s-.1,1.068-.594,1.564a1.974,1.974,0,0,1-1.085.46,1.651,1.651,0,0,0-.479.135c-.264.179-.493.955-1.139,1.228s-1.4-.093-1.73-.027a1.715,1.715,0,0,0-.461.251A2.059,2.059,0,0,1,1850.707,379.515Zm-.509-1.369a1.377,1.377,0,0,0,.508.26c.257,0,.772-.556,1.363-.675s1.28.193,1.518.093a1.382,1.382,0,0,0,.332-.412,2.333,2.333,0,0,1,.618-.714c.487-.329,1.238-.3,1.4-.459a1.347,1.347,0,0,0,.154-.508,1.8,1.8,0,0,1,1.019-1.51,1.379,1.379,0,0,0,.412-.333c.1-.235-.213-.924-.093-1.517s.675-1.105.675-1.363a1.377,1.377,0,0,0-.26-.508,1.9,1.9,0,0,1-.365-1.805.591.591,0,0,0-.37-.9,2.331,2.331,0,0,1-.714-.618c-.329-.487-.3-1.238-.459-1.4a1.342,1.342,0,0,0-.508-.154,1.8,1.8,0,0,1-1.51-1.019,1.383,1.383,0,0,0-.332-.412c-.236-.1-.924.213-1.518.093s-1.1-.675-1.363-.675-.766.555-1.363.675-1.28-.193-1.517-.093a1.381,1.381,0,0,0-.332.412,2.331,2.331,0,0,1-.618.714c-.487.329-1.238.3-1.4.459a1.343,1.343,0,0,0-.154.508,1.8,1.8,0,0,1-1.019,1.51.591.591,0,0,0-.37.9,1.9,1.9,0,0,1-.365,1.805,1.374,1.374,0,0,0-.26.508c0,.257.556.772.675,1.363s-.193,1.28-.093,1.517a1.383,1.383,0,0,0,.412.333,2.329,2.329,0,0,1,.714.618c.329.487.3,1.238.459,1.4a1.343,1.343,0,0,0,.508.154,1.8,1.8,0,0,1,1.51,1.019.591.591,0,0,0,.9.37A1.9,1.9,0,0,1,1850.2,378.146Z" transform="translate(-1842.2 -362.5)" fill="#6b778e"/>
    </g>
    <g id="Group_13" data-name="Group 13" transform="translate(191.355 365.519)">
      <path id="Path_24" data-name="Path 24" d="M2177.188,702.975a5.486,5.486,0,1,1,3.881-1.606A5.485,5.485,0,0,1,2177.188,702.975Zm0-9.865a4.378,4.378,0,1,0,4.378,4.378A4.383,4.383,0,0,0,2177.188,693.11Z" transform="translate(-2171.7 -692)" fill="#6b778e"/>
    </g>
    <g id="Group_14" data-name="Group 14" transform="translate(193.896 367.789)">
      <path id="Path_25" data-name="Path 25" d="M2432.219,967.829l-1.342-.7-1.342.7a.555.555,0,0,1-.8-.585l.257-1.494-1.084-1.057a.555.555,0,0,1,.308-.946l1.5-.218.671-1.359a.556.556,0,0,1,1,0l.67,1.359,1.5.218a.555.555,0,0,1,.308.946l-1.085,1.057.256,1.494a.556.556,0,0,1-.807.585Zm-2.737-3.146.49.476a.555.555,0,0,1,.16.491l-.116.673.6-.318a.553.553,0,0,1,.516,0l.6.318-.115-.673a.555.555,0,0,1,.159-.491l.49-.476-.677-.1a.556.556,0,0,1-.417-.3l-.3-.613-.3.613a.554.554,0,0,1-.417.3Z" transform="translate(-2427.737 -961.862)" fill="#6b778e"/>
    </g>
  </g>
</svg>
