<svg xmlns="http://www.w3.org/2000/svg" width="28" height="27.995" viewBox="0 0 28 27.995">
  <g id="digital-commiunication-hover" transform="translate(0 -0.046)">
    <g id="Group_50" data-name="Group 50" transform="translate(6.346 1.791)">
      <g id="Group_49" data-name="Group 49">
        <path id="Path_64" data-name="Path 64" d="M120.451,32.041h-3.926a.545.545,0,1,0,0,1.091h3.926a.545.545,0,0,0,0-1.091Z" transform="translate(-115.979 -32.041)" fill="#1a276b"/>
      </g>
    </g>
    <g id="Group_52" data-name="Group 52" transform="translate(8.312 24.865)">
      <g id="Group_51" data-name="Group 51">
        <path id="Path_65" data-name="Path 65" d="M152.9,453.883a.545.545,0,1,0,.16.386A.549.549,0,0,0,152.9,453.883Z" transform="translate(-151.972 -453.723)" fill="#1a276b"/>
      </g>
    </g>
    <g id="Group_54" data-name="Group 54" transform="translate(0 0.046)">
      <g id="Group_53" data-name="Group 53">
        <path id="Path_66" data-name="Path 66" d="M24.489,17.427l-2.012-3.484a2.465,2.465,0,0,0-2.4-4.162L18.061,6.3a.547.547,0,0,0-.9-.064l-6.265,8L8.263,15.747A3.141,3.141,0,1,0,11.4,21.187l.313-.181L12.81,22.9H1.094V4.639H16.628V4.8a.547.547,0,0,0,1.094,0V2.193A2.15,2.15,0,0,0,15.575.046H2.148A2.15,2.15,0,0,0,0,2.193v23.7a2.15,2.15,0,0,0,2.148,2.147H15.575a2.15,2.15,0,0,0,2.148-2.147V19.147l6.37-.905a.547.547,0,0,0,.4-.815ZM1.094,2.193A1.055,1.055,0,0,1,2.147,1.14H15.575a1.055,1.055,0,0,1,1.054,1.053V3.545H1.094Zm20.062,8.618A1.37,1.37,0,0,1,21.9,12.95l-1.258-2.178A1.37,1.37,0,0,1,21.156,10.811Zm-10.3,9.429A2.047,2.047,0,1,1,8.81,16.694l2.247-1.3L13.1,18.943Zm1.808.22.986-.569,1.292,2.237-.986.569Zm3.963,5.435a1.055,1.055,0,0,1-1.054,1.053H2.148a1.055,1.055,0,0,1-1.054-1.053v-1.9H16.628v1.9Zm0-3H15.8l.166-.1a.547.547,0,0,0,.2-.747l-1.434-2.482,1.9-.27Zm-2.487-4.346L11.916,14.7l3.978-5.078,4.635,8.025ZM21.7,17.477,16.621,8.69l.9-1.145,5.618,9.728Z" transform="translate(0 -0.046)" fill="#1a276b"/>
      </g>
    </g>
    <g id="Group_56" data-name="Group 56" transform="translate(24.236 7.764)">
      <g id="Group_55" data-name="Group 55">
        <path id="Path_67" data-name="Path 67" d="M446.669,141.412a.545.545,0,0,0-.745-.2l-2.674,1.544a.545.545,0,1,0,.545.944l2.674-1.544A.545.545,0,0,0,446.669,141.412Z" transform="translate(-442.977 -141.139)" fill="#1a276b"/>
      </g>
    </g>
    <g id="Group_58" data-name="Group 58" transform="translate(21.902 5.618)">
      <g id="Group_57" data-name="Group 57">
        <path id="Path_68" data-name="Path 68" d="M401.505,101.918a.545.545,0,0,0-.668.386l-.39,1.455a.545.545,0,1,0,1.053.282l.39-1.455A.545.545,0,0,0,401.505,101.918Z" transform="translate(-400.429 -101.9)" fill="#1a276b"/>
      </g>
    </g>
    <g id="Group_60" data-name="Group 60" transform="translate(24.966 12.367)">
      <g id="Group_59" data-name="Group 59">
        <path id="Path_69" data-name="Path 69" d="M458.56,225.728l-1.5-.4a.545.545,0,0,0-.282,1.054l1.5.4a.545.545,0,0,0,.282-1.054Z" transform="translate(-456.369 -225.307)" fill="#1a276b"/>
      </g>
    </g>
    <g id="Group_62" data-name="Group 62" transform="translate(2.273 6.235)">
      <g id="Group_61" data-name="Group 61">
        <path id="Path_70" data-name="Path 70" d="M49.741,113.194H42.216a.545.545,0,1,0,0,1.091h7.525a.545.545,0,1,0,0-1.091Z" transform="translate(-41.671 -113.194)" fill="#1a276b"/>
      </g>
    </g>
    <g id="Group_64" data-name="Group 64" transform="translate(9.825 8.859)">
      <g id="Group_63" data-name="Group 63">
        <path id="Path_71" data-name="Path 71" d="M180.568,161.346a.545.545,0,1,0,.16.386A.547.547,0,0,0,180.568,161.346Z" transform="translate(-179.637 -161.186)" fill="#1a276b"/>
      </g>
    </g>
    <g id="Group_66" data-name="Group 66" transform="translate(2.273 8.859)">
      <g id="Group_65" data-name="Group 65">
        <path id="Path_72" data-name="Path 72" d="M47.487,161.185H42.216a.545.545,0,0,0,0,1.091h5.271a.545.545,0,0,0,0-1.091Z" transform="translate(-41.671 -161.185)" fill="#1a276b"/>
      </g>
    </g>
    <g id="Group_68" data-name="Group 68" transform="translate(4.382 11.484)">
      <g id="Group_67" data-name="Group 67">
        <path id="Path_73" data-name="Path 73" d="M84.756,209.176H80.621a.545.545,0,0,0,0,1.091h4.134a.545.545,0,0,0,0-1.091Z" transform="translate(-80.076 -209.176)" fill="#1a276b"/>
      </g>
    </g>
    <g id="Group_70" data-name="Group 70" transform="translate(2.268 11.484)">
      <g id="Group_69" data-name="Group 69">
        <path id="Path_74" data-name="Path 74" d="M42.158,209.176h-.025a.545.545,0,0,0,0,1.091h.025a.545.545,0,0,0,0-1.091Z" transform="translate(-41.587 -209.176)" fill="#1a276b"/>
      </g>
    </g>
  </g>
</svg>
