<svg xmlns="http://www.w3.org/2000/svg" xmlns:xlink="http://www.w3.org/1999/xlink" width="18.755" height="28" viewBox="0 0 18.755 28">
  <defs>
    <clipPath id="clip-path">
      <rect id="Rectangle_23102" data-name="Rectangle 23102" width="18.755" height="28" fill="#1a276b"/>
    </clipPath>
  </defs>
  <g id="hub-hover" transform="translate(0 0)">
    <g id="Group_98789" data-name="Group 98789" transform="translate(0 0)" clip-path="url(#clip-path)">
      <path id="Path_84407" data-name="Path 84407" d="M14.5,21.93H11.667c1.811-2.269,4.6-5.841,5.736-7.7A9.378,9.378,0,1,0,0,9.377a9.3,9.3,0,0,0,1.353,4.854c1.135,1.857,3.925,5.429,5.736,7.7H4.255A3.285,3.285,0,0,0,.974,25.211V28H17.781V25.211A3.284,3.284,0,0,0,14.5,21.93ZM2.615,25.211a1.643,1.643,0,0,1,1.64-1.64H8.409l.969,1.186s.783-.957.968-1.186H14.5a1.643,1.643,0,0,1,1.64,1.64v1.149H2.615ZM9.378,1.64a7.745,7.745,0,0,1,7.736,7.737,7.665,7.665,0,0,1-1.111,4c-1.313,2.15-5.11,6.906-6.625,8.783-1.516-1.877-5.312-6.633-6.625-8.783a7.662,7.662,0,0,1-1.112-4A7.745,7.745,0,0,1,9.378,1.64" transform="translate(0 0)" fill="#1a276b"/>
      <path id="Path_84408" data-name="Path 84408" d="M12.811,18.727a5.939,5.939,0,1,0-5.939-5.939,5.946,5.946,0,0,0,5.939,5.939m4.3-5.939a4.3,4.3,0,0,1-1.78,3.48V9.308a4.3,4.3,0,0,1,1.78,3.48M13.689,8.58V17a4.324,4.324,0,0,1-1.756,0V8.58a4.324,4.324,0,0,1,1.756,0m-3.4.728v6.96a4.292,4.292,0,0,1,0-6.96" transform="translate(-3.433 -3.421)" fill="#1a276b"/>
    </g>
  </g>
</svg>
