<svg xmlns="http://www.w3.org/2000/svg" width="27.998" height="28" viewBox="0 0 27.998 28">
  <g id="map-hover" transform="translate(-0.016)">
    <g id="Group_44" data-name="Group 44" transform="translate(0.016 7.069)">
      <g id="Group_43" data-name="Group 43" transform="translate(0)">
        <path id="Path_61" data-name="Path 61" d="M27.139,133.232a.874.874,0,0,0-.875.872v9.875l-7,2.791v-9.177a.875.875,0,0,0-1.75,0v9.176l-7-2.791V130.161l4.054,1.617a.873.873,0,1,0,.649-1.62l-5.237-2.089h0l-.014-.005a.87.87,0,0,0-.649,0l-.016.005h0L.565,131.551a.872.872,0,0,0-.549.809v15.7a.875.875,0,0,0,1.2.809l8.424-3.357,8.408,3.352h0l.016.007a.87.87,0,0,0,.649,0l.016-.007h0l8.734-3.481a.877.877,0,0,0,.548-.811V134.1A.874.874,0,0,0,27.139,133.232ZM8.765,143.977l-7,2.791V132.95l7-2.791Z" transform="translate(-0.016 -128)" fill="#1a276b"/>
      </g>
    </g>
    <g id="Group_46" data-name="Group 46" transform="translate(19.178 3.535)">
      <g id="Group_45" data-name="Group 45">
        <path id="Path_62" data-name="Path 62" d="M354.667,64a2.651,2.651,0,1,0,2.651,2.651A2.654,2.654,0,0,0,354.667,64Zm0,3.535a.884.884,0,1,1,.884-.884A.884.884,0,0,1,354.667,67.535Z" transform="translate(-352.016 -64)" fill="#1a276b"/>
      </g>
    </g>
    <g id="Group_48" data-name="Group 48" transform="translate(15.643)">
      <g id="Group_47" data-name="Group 47">
        <path id="Path_63" data-name="Path 63" d="M294.2,0a6.192,6.192,0,0,0-6.186,6.186c0,3.174,4.963,8.8,5.528,9.427a.883.883,0,0,0,1.315,0c.566-.631,5.528-6.253,5.528-9.427A6.192,6.192,0,0,0,294.2,0Zm0,13.674c-1.93-2.289-4.418-5.8-4.418-7.488a4.418,4.418,0,1,1,8.837,0C298.62,7.87,296.132,11.385,294.2,13.674Z" transform="translate(-288.016)" fill="#1a276b"/>
      </g>
    </g>
  </g>
</svg>
