<svg xmlns="http://www.w3.org/2000/svg" width="18.047" height="28" viewBox="0 0 18.047 28">
  <g id="membership" transform="translate(0 0)">
    <path id="Path_49" data-name="Path 49" d="M15.039,3.338H11.484V.823a.82.82,0,0,0-.82-.82L7.437,0a.821.821,0,0,0-.82.82V3.338H3.008A3.011,3.011,0,0,0,0,6.346V24.992A3.011,3.011,0,0,0,3.008,28H15.039a3.011,3.011,0,0,0,3.008-3.008V6.346a3.011,3.011,0,0,0-3.008-3.008Zm-6.781-1.7H9.844V4.979H8.258Zm8.148,23.351a1.369,1.369,0,0,1-1.367,1.367H3.008a1.369,1.369,0,0,1-1.367-1.367V6.346A1.369,1.369,0,0,1,3.008,4.979H6.617V5.8a.82.82,0,0,0,.82.82h3.227a.82.82,0,0,0,.82-.82v-.82h3.555a1.369,1.369,0,0,1,1.367,1.367Zm0,0" transform="translate(0 0)" fill="#6b778e"/>
    <path id="Path_50" data-name="Path 50" d="M70.567,361.012H60.813a.834.834,0,0,0,0,1.667h9.754a.834.834,0,0,0,0-1.667Zm0,0" transform="translate(-56.666 -341.289)" fill="#6b778e"/>
    <path id="Path_51" data-name="Path 51" d="M64.167,421.008H60.833a.833.833,0,1,0,0,1.667h3.334a.833.833,0,1,0,0-1.667Zm0,0" transform="translate(-56.738 -398.064)" fill="#6b778e"/>
    <path id="Path_52" data-name="Path 52" d="M184.167,421.008h-3.334a.833.833,0,1,0,0,1.667h3.334a.833.833,0,1,0,0-1.667Zm0,0" transform="translate(-170.215 -398.064)" fill="#6b778e"/>
    <path id="Path_53" data-name="Path 53" d="M90.833,161.032H97.5a.833.833,0,0,0,.833-.833v-1.667a4.159,4.159,0,0,0-2.089-3.612,2.5,2.5,0,1,0-4.152.007A4.259,4.259,0,0,0,90,158.587V160.2A.833.833,0,0,0,90.833,161.032Zm3.334-8.333a.833.833,0,1,1-.833.833A.834.834,0,0,1,94.167,152.7Zm-2.5,5.888a2.5,2.5,0,1,1,5-.055v.833h-5Zm0,0" transform="translate(-85.143 -142.844)" fill="#6b778e"/>
  </g>
</svg>
