<svg xmlns="http://www.w3.org/2000/svg" width="32" height="23.733" viewBox="0 0 32 23.733">
  <g id="partner" transform="translate(-5 -20.765)">
    <path id="Path_19" data-name="Path 19" d="M36.644,23.338a.907.907,0,0,0-.764-.164l-3.41.875c-1.259-.071-5.273-1.614-7.559-2.6l-.046-.018c-3.036-1.092-5.664-.846-7.861.711-2.923-1-6.667,1.109-7.822,1.831l-3.072-.789A.885.885,0,0,0,5,24.049V36.493a.889.889,0,0,0,.889.889H7.777l8.082,6.372a2.667,2.667,0,0,0,4.3-.86,2.66,2.66,0,0,0,3.772-1.255A2.656,2.656,0,0,0,27.7,40.383a2.66,2.66,0,0,0,3.972-2.393l1.9-.608h2.542A.889.889,0,0,0,37,36.493V24.049a.882.882,0,0,0-.356-.711ZM6.778,25.186l1.589.409-.636,5.92L7.29,35.6H6.778Zm22.869,13.5a.907.907,0,0,1-1.259,0l-1.255-1.255L22.106,32.4a.889.889,0,0,0-1.259,1.252l5.031,5.038a.889.889,0,1,1-1.259,1.255l-1.259-1.259-3.783-3.772a.89.89,0,0,0-1.259,1.259l3.787,3.772A.889.889,0,1,1,20.847,41.2l-3.758-3.769a.885.885,0,0,0-1.255,0,.871.871,0,0,0-.26.626.885.885,0,0,0,.26.629L18.348,41.2a.892.892,0,0,1,0,1.259.914.914,0,0,1-1.259,0,.743.743,0,0,0-.078-.071L9.021,36.1l.892-8.245.26-2.4a10.846,10.846,0,0,1,5.17-1.778,13.892,13.892,0,0,0-1.454,2.02,3.068,3.068,0,0,0,.9,4.078c1.259.86,3.556,1.66,6.4-.8l8.455,8.452A.9.9,0,0,1,29.647,38.683Zm1.4-2.357a1.9,1.9,0,0,0-.139-.156l-8.462-8.462a15.3,15.3,0,0,0,1.067-1.369.889.889,0,1,0-1.444-1.024c-1.579,2.236-3.94,4.569-6.258,2.987a1.284,1.284,0,0,1-.356-1.707,10.02,10.02,0,0,1,2.226-2.716.75.75,0,0,0,.082-.068c1.778-1.422,3.911-1.639,6.5-.711a51.793,51.793,0,0,0,7.5,2.631l.782,10.13Zm4.178-.722h-.953L33.5,25.617l1.724-.43Z" fill="#6b778e"/>
  </g>
</svg>
