<svg xmlns="http://www.w3.org/2000/svg" width="33.956" height="28" viewBox="0 0 33.956 28">
  <g id="user" transform="translate(67 -345.008)">
    <g id="Layer_3" transform="translate(-67 345.008)">
      <g id="Group_42" data-name="Group 42" transform="translate(0 0)">
        <g id="ARC_424_" transform="translate(0 20.636)">
          <g id="Group_23" data-name="Group 23">
            <path id="Path_30" data-name="Path 30" d="M15.336,42.257a1.417,1.417,0,0,1-.167-.01,26.432,26.432,0,0,1-7.556-2.053.888.888,0,0,1-.478-1.3,1.292,1.292,0,0,1,1.571-.4A23.687,23.687,0,0,0,15.5,40.34a1.01,1.01,0,0,1,.984,1.091,1.114,1.114,0,0,1-1.147.826Z" transform="translate(-6.999 -38.381)" fill="#6b778e"/>
          </g>
        </g>
        <g id="ARC_420_" transform="translate(13.327 13.222)">
          <g id="Group_30" data-name="Group 30" transform="translate(0 0)">
            <path id="Path_37" data-name="Path 37" d="M20,39.144a.815.815,0,0,1-.813-.818A8.051,8.051,0,0,1,27.2,30.259a.818.818,0,0,1,0,1.636,6.418,6.418,0,0,0-6.39,6.431A.815.815,0,0,1,20,39.144Z" transform="translate(-19.185 -30.259)" fill="#6b778e"/>
          </g>
        </g>
        <g id="LINE_816_" transform="translate(19.813 13.064)">
          <g id="Group_31" data-name="Group 31" transform="translate(0)">
            <path id="Path_38" data-name="Path 38" d="M34.7,32.054H29.009a.9.9,0,1,1,0-1.8H34.7a.9.9,0,1,1,0,1.8Z" transform="translate(-28.046 -30.259)" fill="#6b778e"/>
          </g>
        </g>
        <g id="ARC_419_" transform="translate(10.432 11.293)">
          <g id="Group_32" data-name="Group 32">
            <path id="Path_39" data-name="Path 39" d="M24.4,33.243a.963.963,0,0,1-.808-.437,5.418,5.418,0,0,0-4.554-2.468.963.963,0,0,1,0-1.926,7.338,7.338,0,0,1,6.167,3.342.963.963,0,0,1-.806,1.489Z" transform="translate(-18.078 -28.412)" fill="#6b778e"/>
          </g>
        </g>
        <g id="LINE_815_" transform="translate(13.341 20.317)">
          <g id="Group_33" data-name="Group 33" transform="translate(0 0)">
            <path id="Path_40" data-name="Path 40" d="M20,44.381a.817.817,0,0,1-.818-.818V39.938a.818.818,0,1,1,1.636,0v3.625A.818.818,0,0,1,20,44.381Z" transform="translate(-19.185 -39.12)" fill="#6b778e"/>
          </g>
        </g>
        <g id="CIRCLE_37_" transform="translate(16.859 0.723)">
          <g id="Group_34" data-name="Group 34" transform="translate(0 0)">
            <path id="Path_41" data-name="Path 41" d="M30.351,28.961a6.736,6.736,0,1,1,6.736-6.736A6.826,6.826,0,0,1,30.351,28.961Zm0-11.865a5.129,5.129,0,1,0,5.129,5.129A5.2,5.2,0,0,0,30.351,17.1Z" transform="translate(-23.615 -15.489)" fill="#6b778e"/>
          </g>
        </g>
        <g id="ARC_418_" transform="translate(25.069 13.222)">
          <g id="Group_35" data-name="Group 35" transform="translate(0 0)">
            <path id="Path_42" data-name="Path 42" d="M42.021,39.144a.817.817,0,0,1-.818-.818A6.438,6.438,0,0,0,34.772,31.9a.818.818,0,1,1,0-1.636,8.076,8.076,0,0,1,8.067,8.067A.817.817,0,0,1,42.021,39.144Z" transform="translate(-33.954 -30.259)" fill="#6b778e"/>
          </g>
        </g>
        <g id="LINE_814_" transform="translate(32.319 20.317)">
          <g id="Group_36" data-name="Group 36" transform="translate(0 0)">
            <path id="Path_43" data-name="Path 43" d="M43.633,44.381a.817.817,0,0,1-.818-.818V39.938a.818.818,0,1,1,1.636,0v3.625A.817.817,0,0,1,43.633,44.381Z" transform="translate(-42.815 -39.12)" fill="#6b778e"/>
          </g>
        </g>
        <g id="ARC_417_" transform="translate(13.36 23.942)">
          <g id="Group_37" data-name="Group 37" transform="translate(0 0)">
            <path id="Path_44" data-name="Path 44" d="M29.482,47.609a20.67,20.67,0,0,1-9.872-2.517.827.827,0,0,1-.331-1.108.8.8,0,0,1,1.088-.337,19.033,19.033,0,0,0,18.231,0,.8.8,0,0,1,1.088.337.827.827,0,0,1-.331,1.108,20.684,20.684,0,0,1-9.873,2.517Z" transform="translate(-19.184 -43.551)" fill="#6b778e"/>
          </g>
        </g>
        <g id="CIRCLE_36_" transform="translate(3.2 0)">
          <g id="Group_38" data-name="Group 38">
            <path id="Path_45" data-name="Path 45" d="M16.618,29.927a6.3,6.3,0,1,1,0-12.591,6.3,6.3,0,1,1,0,12.591Zm0-10.665a4.37,4.37,0,1,0,4.37,4.37A4.428,4.428,0,0,0,16.618,19.262Z" transform="translate(-10.323 -17.336)" fill="#6b778e"/>
          </g>
        </g>
        <g id="ARC_416_" transform="translate(0.001 11.252)">
          <g id="Group_39" data-name="Group 39">
            <path id="Path_46" data-name="Path 46" d="M7.963,36.738A.962.962,0,0,1,7,35.775a7.371,7.371,0,0,1,7.362-7.362.963.963,0,1,1,0,1.926,5.442,5.442,0,0,0-5.436,5.436A.963.963,0,0,1,7.963,36.738Z" transform="translate(-7 -28.413)" fill="#6b778e"/>
          </g>
        </g>
        <g id="LINE_813_" transform="translate(6.264 11.319)">
          <g id="Group_40" data-name="Group 40">
            <path id="Path_47" data-name="Path 47" d="M18.875,30.338H14.609a.963.963,0,1,1,0-1.926h4.267a.963.963,0,1,1,0,1.926Z" transform="translate(-13.646 -28.412)" fill="#6b778e"/>
          </g>
        </g>
        <g id="LINE_812_" transform="translate(0.001 17.554)">
          <g id="Group_41" data-name="Group 41">
            <path id="Path_48" data-name="Path 48" d="M7.963,40.184A.962.962,0,0,1,7,39.222v-3.2a.963.963,0,1,1,1.926,0v3.2a.962.962,0,0,1-.963.963Z" transform="translate(-7 -35.059)" fill="#6b778e"/>
          </g>
        </g>
      </g>
    </g>
  </g>
</svg>
