<svg xmlns="http://www.w3.org/2000/svg" width="21.328" height="28" viewBox="0 0 21.328 28">
  <g id="worklist" transform="translate(-61)">
    <path id="Path_12" data-name="Path 12" d="M81.449,2.523a2.983,2.983,0,0,0-2.126-.882H77.967V1.367A1.369,1.369,0,0,0,76.6,0H66.756a1.369,1.369,0,0,0-1.367,1.367v.273H64.027a3.01,3.01,0,0,0-3,3L61,24.989A3.006,3.006,0,0,0,64,28H79.3a3.01,3.01,0,0,0,3-3l.023-20.344A2.989,2.989,0,0,0,81.449,2.523Zm-14.42-.882h9.3V3.281h-9.3ZM80.667,24.994A1.368,1.368,0,0,1,79.3,26.359H64a1.366,1.366,0,0,1-1.366-1.369l.022-20.344a1.368,1.368,0,0,1,1.366-1.366h1.362v.273a1.369,1.369,0,0,0,1.367,1.367H76.6a1.369,1.369,0,0,0,1.367-1.367V3.281h1.357A1.366,1.366,0,0,1,80.689,4.65Z" fill="#6b778e"/>
    <path id="Path_13" data-name="Path 13" d="M246.934,171.67h5.932a.835.835,0,1,0,0-1.67h-5.932a.835.835,0,1,0,0,1.67Z" transform="translate(-175.074 -160.713)" fill="#6b778e"/>
    <path id="Path_14" data-name="Path 14" d="M246.934,271.67h5.932a.835.835,0,1,0,0-1.67h-5.932a.835.835,0,1,0,0,1.67Z" transform="translate(-175.074 -255.251)" fill="#6b778e"/>
    <path id="Path_15" data-name="Path 15" d="M252.89,370h-5.956a.835.835,0,0,0,0,1.67h5.956a.835.835,0,0,0,0-1.67Z" transform="translate(-175.074 -349.788)" fill="#6b778e"/>
    <path id="Path_16" data-name="Path 16" d="M132.706,140.008l-1.926,1.926-.454-.454a.835.835,0,0,0-1.181,1.181l1.044,1.044a.835.835,0,0,0,1.181,0l2.516-2.516a.835.835,0,0,0-1.181-1.181Z" transform="translate(-64.209 -132.144)" fill="#6b778e"/>
    <path id="Path_17" data-name="Path 17" d="M132.706,247.646l-1.926,1.926-.454-.454a.835.835,0,0,0-1.181,1.181l1.044,1.044a.835.835,0,0,0,1.181,0l2.516-2.516a.835.835,0,0,0-1.181-1.181Z" transform="translate(-64.209 -233.913)" fill="#6b778e"/>
    <path id="Path_18" data-name="Path 18" d="M132.706,347.646l-1.926,1.926-.454-.454a.835.835,0,1,0-1.181,1.181l1.044,1.045a.835.835,0,0,0,1.181,0l2.516-2.516a.835.835,0,0,0-1.181-1.181Z" transform="translate(-64.209 -328.461)" fill="#6b778e"/>
  </g>
</svg>
